ISO-10303-21;
HEADER;
FILE_DESCRIPTION(('FreeCAD Model'),'2;1');
FILE_NAME('Open CASCADE Shape Model','2026-08-09T08:23:20',(''),(''),
  'Open CASCADE STEP processor 7.8','FreeCAD','Unknown');
FILE_SCHEMA(('AUTOMOTIVE_DESIGN { 1 0 10303 214 1 1 1 1 }'));
ENDSEC;
DATA;
#1 = APPLICATION_PROTOCOL_DEFINITION('international standard',
  'automotive_design',2000,#2);
#2 = APPLICATION_CONTEXT(
  'core data for automotive mechanical design processes');
#3 = SHAPE_DEFINITION_REPRESENTATION(#4,#10);
#4 = PRODUCT_DEFINITION_SHAPE('','',#5);
#5 = PRODUCT_DEFINITION('design','',#6,#9);
#6 = PRODUCT_DEFINITION_FORMATION('','',#7);
#7 = PRODUCT('Linea001','Linea001','',(#8));
#8 = PRODUCT_CONTEXT('',#2,'mechanical');
#9 = PRODUCT_DEFINITION_CONTEXT('part definition',#2,'design');
#10 = ADVANCED_BREP_SHAPE_REPRESENTATION('',(#11,#15),#2215);
#11 = AXIS2_PLACEMENT_3D('',#12,#13,#14);
#12 = CARTESIAN_POINT('',(0.,0.,0.));
#13 = DIRECTION('',(0.,0.,1.));
#14 = DIRECTION('',(1.,0.,-0.));
#15 = MANIFOLD_SOLID_BREP('',#16);
#16 = CLOSED_SHELL('',(#17,#539,#570,#595,#620,#644,#668,#693,#718,#742,
    #766,#791,#816,#833,#873,#913,#946,#971,#995,#1020,#1044,#1069,#1094
    ,#1119,#1143,#1168,#1201,#1241,#1274,#1299,#1323,#1348,#1372,#1397,
    #1421,#1439,#1464,#1489,#1514,#1539,#1564,#1589,#1614,#1639,#1670,
    #1695,#1720,#1744,#1768,#1793,#1818,#1842,#1866,#1891,#1916,#1933,
    #1986,#2037,#2086,#2110,#2152,#2169,#2186,#2203));
#17 = ADVANCED_FACE('',(#18,#122,#342,#353,#364,#375,#386,#397,#408,#419
    ,#430),#534,.T.);
#18 = FACE_BOUND('',#19,.T.);
#19 = EDGE_LOOP('',(#20,#30,#39,#47,#56,#64,#73,#81,#90,#98,#107,#115));
#20 = ORIENTED_EDGE('',*,*,#21,.F.);
#21 = EDGE_CURVE('',#22,#24,#26,.T.);
#22 = VERTEX_POINT('',#23);
#23 = CARTESIAN_POINT('',(-8.943375672974,36.4711431703,2.4));
#24 = VERTEX_POINT('',#25);
#25 = CARTESIAN_POINT('',(-28.55662432702,2.5,2.4));
#26 = LINE('',#27,#28);
#27 = CARTESIAN_POINT('',(-15.,25.980762113533,2.4));
#28 = VECTOR('',#29,1.);
#29 = DIRECTION('',(-0.5,-0.866025403784,0.));
#30 = ORIENTED_EDGE('',*,*,#31,.T.);
#31 = EDGE_CURVE('',#22,#32,#34,.T.);
#32 = VERTEX_POINT('',#33);
#33 = CARTESIAN_POINT('',(-4.613248654052,38.9711431703,2.4));
#34 = CIRCLE('',#35,5.);
#35 = AXIS2_PLACEMENT_3D('',#36,#37,#38);
#36 = CARTESIAN_POINT('',(-4.613248654052,33.9711431703,2.4));
#37 = DIRECTION('',(-0.,-0.,-1.));
#38 = DIRECTION('',(0.,-1.,0.));
#39 = ORIENTED_EDGE('',*,*,#40,.T.);
#40 = EDGE_CURVE('',#32,#41,#43,.T.);
#41 = VERTEX_POINT('',#42);
#42 = CARTESIAN_POINT('',(4.613248654052,38.9711431703,2.4));
#43 = LINE('',#44,#45);
#44 = CARTESIAN_POINT('',(-7.5,38.9711431703,2.4));
#45 = VECTOR('',#46,1.);
#46 = DIRECTION('',(1.,0.,0.));
#47 = ORIENTED_EDGE('',*,*,#48,.F.);
#48 = EDGE_CURVE('',#49,#41,#51,.T.);
#49 = VERTEX_POINT('',#50);
#50 = CARTESIAN_POINT('',(8.943375672974,36.4711431703,2.4));
#51 = CIRCLE('',#52,5.);
#52 = AXIS2_PLACEMENT_3D('',#53,#54,#55);
#53 = CARTESIAN_POINT('',(4.613248654052,33.9711431703,2.4));
#54 = DIRECTION('',(-0.,0.,1.));
#55 = DIRECTION('',(0.,-1.,0.));
#56 = ORIENTED_EDGE('',*,*,#57,.T.);
#57 = EDGE_CURVE('',#49,#58,#60,.T.);
#58 = VERTEX_POINT('',#59);
#59 = CARTESIAN_POINT('',(28.556624327026,2.5,2.4));
#60 = LINE('',#61,#62);
#61 = CARTESIAN_POINT('',(7.5,38.9711431703,2.4));
#62 = VECTOR('',#63,1.);
#63 = DIRECTION('',(0.5,-0.866025403784,0.));
#64 = ORIENTED_EDGE('',*,*,#65,.F.);
#65 = EDGE_CURVE('',#66,#58,#68,.T.);
#66 = VERTEX_POINT('',#67);
#67 = CARTESIAN_POINT('',(28.556624327026,-2.5,2.4));
#68 = CIRCLE('',#69,5.);
#69 = AXIS2_PLACEMENT_3D('',#70,#71,#72);
#70 = CARTESIAN_POINT('',(24.226497308104,1.406282497859E-15,2.4));
#71 = DIRECTION('',(-0.,0.,1.));
#72 = DIRECTION('',(0.,-1.,0.));
#73 = ORIENTED_EDGE('',*,*,#74,.F.);
#74 = EDGE_CURVE('',#75,#66,#77,.T.);
#75 = VERTEX_POINT('',#76);
#76 = CARTESIAN_POINT('',(16.443375672974,-23.48076211353,2.4));
#77 = LINE('',#78,#79);
#78 = CARTESIAN_POINT('',(15.,-25.98076211353,2.4));
#79 = VECTOR('',#80,1.);
#80 = DIRECTION('',(0.5,0.866025403784,0.));
#81 = ORIENTED_EDGE('',*,*,#82,.F.);
#82 = EDGE_CURVE('',#83,#75,#85,.T.);
#83 = VERTEX_POINT('',#84);
#84 = CARTESIAN_POINT('',(12.113248654052,-25.98076211353,2.4));
#85 = CIRCLE('',#86,5.);
#86 = AXIS2_PLACEMENT_3D('',#87,#88,#89);
#87 = CARTESIAN_POINT('',(12.113248654052,-20.98076211353,2.4));
#88 = DIRECTION('',(-0.,0.,1.));
#89 = DIRECTION('',(0.,-1.,0.));
#90 = ORIENTED_EDGE('',*,*,#91,.F.);
#91 = EDGE_CURVE('',#92,#83,#94,.T.);
#92 = VERTEX_POINT('',#93);
#93 = CARTESIAN_POINT('',(-12.11324865405,-25.98076211353,2.4));
#94 = LINE('',#95,#96);
#95 = CARTESIAN_POINT('',(-15.,-25.98076211353,2.4));
#96 = VECTOR('',#97,1.);
#97 = DIRECTION('',(1.,1.184237892934E-16,0.));
#98 = ORIENTED_EDGE('',*,*,#99,.F.);
#99 = EDGE_CURVE('',#100,#92,#102,.T.);
#100 = VERTEX_POINT('',#101);
#101 = CARTESIAN_POINT('',(-16.44337567297,-23.48076211353,2.4));
#102 = CIRCLE('',#103,5.);
#103 = AXIS2_PLACEMENT_3D('',#104,#105,#106);
#104 = CARTESIAN_POINT('',(-12.11324865405,-20.98076211353,2.4));
#105 = DIRECTION('',(-0.,0.,1.));
#106 = DIRECTION('',(0.,-1.,0.));
#107 = ORIENTED_EDGE('',*,*,#108,.F.);
#108 = EDGE_CURVE('',#109,#100,#111,.T.);
#109 = VERTEX_POINT('',#110);
#110 = CARTESIAN_POINT('',(-28.55662432702,-2.5,2.4));
#111 = LINE('',#112,#113);
#112 = CARTESIAN_POINT('',(-30.,-3.618688764062E-15,2.4));
#113 = VECTOR('',#114,1.);
#114 = DIRECTION('',(0.5,-0.866025403784,0.));
#115 = ORIENTED_EDGE('',*,*,#116,.F.);
#116 = EDGE_CURVE('',#24,#109,#117,.T.);
#117 = CIRCLE('',#118,5.);
#118 = AXIS2_PLACEMENT_3D('',#119,#120,#121);
#119 = CARTESIAN_POINT('',(-24.2264973081,-1.209741107689E-14,2.4));
#120 = DIRECTION('',(-0.,0.,1.));
#121 = DIRECTION('',(0.,-1.,0.));
#122 = FACE_BOUND('',#123,.T.);
#123 = EDGE_LOOP('',(#124,#134,#142,#150,#158,#167,#175,#184,#192,#201,
    #210,#219,#227,#236,#244,#252,#260,#268,#276,#285,#293,#302,#310,
    #319,#327,#336));
#124 = ORIENTED_EDGE('',*,*,#125,.T.);
#125 = EDGE_CURVE('',#126,#128,#130,.T.);
#126 = VERTEX_POINT('',#127);
#127 = CARTESIAN_POINT('',(-24.37018690395,164.2104019076,2.4));
#128 = VERTEX_POINT('',#129);
#129 = CARTESIAN_POINT('',(-15.5,148.84678751741,2.4));
#130 = LINE('',#131,#132);
#131 = CARTESIAN_POINT('',(-24.37018690395,164.2104019076,2.4));
#132 = VECTOR('',#133,1.);
#133 = DIRECTION('',(0.500000000002,-0.866025403783,0.));
#134 = ORIENTED_EDGE('',*,*,#135,.T.);
#135 = EDGE_CURVE('',#128,#136,#138,.T.);
#136 = VERTEX_POINT('',#137);
#137 = CARTESIAN_POINT('',(-15.5,51.15321248259,2.4));
#138 = LINE('',#139,#140);
#139 = CARTESIAN_POINT('',(-15.5,148.84678751741,2.4));
#140 = VECTOR('',#141,1.);
#141 = DIRECTION('',(0.,-1.,0.));
#142 = ORIENTED_EDGE('',*,*,#143,.T.);
#143 = EDGE_CURVE('',#136,#144,#146,.T.);
#144 = VERTEX_POINT('',#145);
#145 = CARTESIAN_POINT('',(-24.37018690395,35.789598092394,2.4));
#146 = LINE('',#147,#148);
#147 = CARTESIAN_POINT('',(-15.5,51.15321248259,2.4));
#148 = VECTOR('',#149,1.);
#149 = DIRECTION('',(-0.500000000002,-0.866025403783,0.));
#150 = ORIENTED_EDGE('',*,*,#151,.F.);
#151 = EDGE_CURVE('',#152,#144,#154,.T.);
#152 = VERTEX_POINT('',#153);
#153 = CARTESIAN_POINT('',(-43.17979459121,3.210401907587,2.4));
#154 = LINE('',#155,#156);
#155 = CARTESIAN_POINT('',(-43.17979459122,3.210401907606,2.4));
#156 = VECTOR('',#157,1.);
#157 = DIRECTION('',(0.5,0.866025403784,0.));
#158 = ORIENTED_EDGE('',*,*,#159,.T.);
#159 = EDGE_CURVE('',#152,#160,#162,.T.);
#160 = VERTEX_POINT('',#161);
#161 = CARTESIAN_POINT('',(-43.17979459121,-3.210401907587,2.4));
#162 = CIRCLE('',#163,4.15);
#163 = AXIS2_PLACEMENT_3D('',#164,#165,#166);
#164 = CARTESIAN_POINT('',(-40.55,0.,2.4));
#165 = DIRECTION('',(0.,-0.,1.));
#166 = DIRECTION('',(0.,1.,0.));
#167 = ORIENTED_EDGE('',*,*,#168,.F.);
#168 = EDGE_CURVE('',#169,#160,#171,.T.);
#169 = VERTEX_POINT('',#170);
#170 = CARTESIAN_POINT('',(-24.37018690393,-35.78959809239,2.4));
#171 = LINE('',#172,#173);
#172 = CARTESIAN_POINT('',(-24.37018690395,-35.78959809239,2.4));
#173 = VECTOR('',#174,1.);
#174 = DIRECTION('',(-0.5,0.866025403784,0.));
#175 = ORIENTED_EDGE('',*,*,#176,.T.);
#176 = EDGE_CURVE('',#169,#177,#179,.T.);
#177 = VERTEX_POINT('',#178);
#178 = CARTESIAN_POINT('',(-18.80960768727,-38.99999999997,2.4));
#179 = CIRCLE('',#180,4.15);
#180 = AXIS2_PLACEMENT_3D('',#181,#182,#183);
#181 = CARTESIAN_POINT('',(-20.275,-35.11733012345,2.4));
#182 = DIRECTION('',(0.,0.,1.));
#183 = DIRECTION('',(-0.866025403784,0.5,0.));
#184 = ORIENTED_EDGE('',*,*,#185,.F.);
#185 = EDGE_CURVE('',#186,#177,#188,.T.);
#186 = VERTEX_POINT('',#187);
#187 = CARTESIAN_POINT('',(18.637308064153,-38.99999999999,2.4));
#188 = LINE('',#189,#190);
#189 = CARTESIAN_POINT('',(18.637308064153,-39.,2.4));
#190 = VECTOR('',#191,1.);
#191 = DIRECTION('',(-1.,0.,0.));
#192 = ORIENTED_EDGE('',*,*,#193,.F.);
#193 = EDGE_CURVE('',#194,#186,#196,.T.);
#194 = VERTEX_POINT('',#195);
#195 = CARTESIAN_POINT('',(18.955306498298,-39.05190876183,2.4));
#196 = CIRCLE('',#197,1.);
#197 = AXIS2_PLACEMENT_3D('',#198,#199,#200);
#198 = CARTESIAN_POINT('',(18.637308064153,-39.99999999999,2.4));
#199 = DIRECTION('',(0.,0.,1.));
#200 = DIRECTION('',(-1.,0.,0.));
#201 = ORIENTED_EDGE('',*,*,#202,.T.);
#202 = EDGE_CURVE('',#194,#203,#205,.T.);
#203 = VERTEX_POINT('',#204);
#204 = CARTESIAN_POINT('',(24.342291804872,-35.94173134496,2.4));
#205 = CIRCLE('',#206,4.15);
#206 = AXIS2_PLACEMENT_3D('',#207,#208,#209);
#207 = CARTESIAN_POINT('',(20.275,-35.11733012345,2.4));
#208 = DIRECTION('',(0.,0.,1.));
#209 = DIRECTION('',(-0.866025403784,-0.5,0.));
#210 = ORIENTED_EDGE('',*,*,#211,.F.);
#211 = EDGE_CURVE('',#212,#203,#214,.T.);
#212 = VERTEX_POINT('',#213);
#213 = CARTESIAN_POINT('',(24.456336715516,-35.64038224171,2.4));
#214 = CIRCLE('',#215,1.);
#215 = AXIS2_PLACEMENT_3D('',#216,#217,#218);
#216 = CARTESIAN_POINT('',(25.322362119299,-36.14038224171,2.4));
#217 = DIRECTION('',(0.,0.,1.));
#218 = DIRECTION('',(1.,0.,0.));
#219 = ORIENTED_EDGE('',*,*,#220,.F.);
#220 = EDGE_CURVE('',#221,#212,#223,.T.);
#221 = VERTEX_POINT('',#222);
#222 = CARTESIAN_POINT('',(43.179794591212,-3.210401907587,2.4));
#223 = LINE('',#224,#225);
#224 = CARTESIAN_POINT('',(43.179794591228,-3.210401907606,2.4));
#225 = VECTOR('',#226,1.);
#226 = DIRECTION('',(-0.5,-0.866025403784,0.));
#227 = ORIENTED_EDGE('',*,*,#228,.T.);
#228 = EDGE_CURVE('',#221,#229,#231,.T.);
#229 = VERTEX_POINT('',#230);
#230 = CARTESIAN_POINT('',(43.179794591212,3.210401907587,2.4));
#231 = CIRCLE('',#232,4.15);
#232 = AXIS2_PLACEMENT_3D('',#233,#234,#235);
#233 = CARTESIAN_POINT('',(40.55,-4.97E-15,2.4));
#234 = DIRECTION('',(0.,0.,1.));
#235 = DIRECTION('',(-1.2E-16,-1.,0.));
#236 = ORIENTED_EDGE('',*,*,#237,.F.);
#237 = EDGE_CURVE('',#238,#229,#240,.T.);
#238 = VERTEX_POINT('',#239);
#239 = CARTESIAN_POINT('',(24.370186903958,35.789598092394,2.4));
#240 = LINE('',#241,#242);
#241 = CARTESIAN_POINT('',(24.370186903958,35.789598092394,2.4));
#242 = VECTOR('',#243,1.);
#243 = DIRECTION('',(0.5,-0.866025403784,0.));
#244 = ORIENTED_EDGE('',*,*,#245,.F.);
#245 = EDGE_CURVE('',#246,#238,#248,.T.);
#246 = VERTEX_POINT('',#247);
#247 = CARTESIAN_POINT('',(15.5,51.15321248259,2.4));
#248 = LINE('',#249,#250);
#249 = CARTESIAN_POINT('',(15.5,51.15321248259,2.4));
#250 = VECTOR('',#251,1.);
#251 = DIRECTION('',(0.500000000002,-0.866025403783,0.));
#252 = ORIENTED_EDGE('',*,*,#253,.F.);
#253 = EDGE_CURVE('',#254,#246,#256,.T.);
#254 = VERTEX_POINT('',#255);
#255 = CARTESIAN_POINT('',(15.5,148.84678751741,2.4));
#256 = LINE('',#257,#258);
#257 = CARTESIAN_POINT('',(15.5,148.84678751741,2.4));
#258 = VECTOR('',#259,1.);
#259 = DIRECTION('',(0.,-1.,0.));
#260 = ORIENTED_EDGE('',*,*,#261,.T.);
#261 = EDGE_CURVE('',#254,#262,#264,.T.);
#262 = VERTEX_POINT('',#263);
#263 = CARTESIAN_POINT('',(24.370186903958,164.2104019076,2.4));
#264 = LINE('',#265,#266);
#265 = CARTESIAN_POINT('',(15.5,148.84678751741,2.4));
#266 = VECTOR('',#267,1.);
#267 = DIRECTION('',(0.500000000002,0.866025403783,0.));
#268 = ORIENTED_EDGE('',*,*,#269,.F.);
#269 = EDGE_CURVE('',#270,#262,#272,.T.);
#270 = VERTEX_POINT('',#271);
#271 = CARTESIAN_POINT('',(43.179794591212,196.78959809241,2.4));
#272 = LINE('',#273,#274);
#273 = CARTESIAN_POINT('',(43.179794591228,196.78959809239,2.4));
#274 = VECTOR('',#275,1.);
#275 = DIRECTION('',(-0.5,-0.866025403784,0.));
#276 = ORIENTED_EDGE('',*,*,#277,.T.);
#277 = EDGE_CURVE('',#270,#278,#280,.T.);
#278 = VERTEX_POINT('',#279);
#279 = CARTESIAN_POINT('',(43.179794591212,203.21040190758,2.4));
#280 = CIRCLE('',#281,4.15);
#281 = AXIS2_PLACEMENT_3D('',#282,#283,#284);
#282 = CARTESIAN_POINT('',(40.55,200.,2.4));
#283 = DIRECTION('',(0.,0.,1.));
#284 = DIRECTION('',(-1.2E-16,-1.,0.));
#285 = ORIENTED_EDGE('',*,*,#286,.F.);
#286 = EDGE_CURVE('',#287,#278,#289,.T.);
#287 = VERTEX_POINT('',#288);
#288 = CARTESIAN_POINT('',(24.370186903934,235.78959809239,2.4));
#289 = LINE('',#290,#291);
#290 = CARTESIAN_POINT('',(24.370186903958,235.78959809239,2.4));
#291 = VECTOR('',#292,1.);
#292 = DIRECTION('',(0.5,-0.866025403784,0.));
#293 = ORIENTED_EDGE('',*,*,#294,.T.);
#294 = EDGE_CURVE('',#287,#295,#297,.T.);
#295 = VERTEX_POINT('',#296);
#296 = CARTESIAN_POINT('',(18.809607687278,238.99999999997,2.4));
#297 = CIRCLE('',#298,4.15);
#298 = AXIS2_PLACEMENT_3D('',#299,#300,#301);
#299 = CARTESIAN_POINT('',(20.275,235.11733012345,2.4));
#300 = DIRECTION('',(-0.,0.,1.));
#301 = DIRECTION('',(0.866025403784,-0.5,0.));
#302 = ORIENTED_EDGE('',*,*,#303,.F.);
#303 = EDGE_CURVE('',#304,#295,#306,.T.);
#304 = VERTEX_POINT('',#305);
#305 = CARTESIAN_POINT('',(-18.80960768727,238.99999999997,2.4));
#306 = LINE('',#307,#308);
#307 = CARTESIAN_POINT('',(-18.80960768726,239.,2.4));
#308 = VECTOR('',#309,1.);
#309 = DIRECTION('',(1.,0.,0.));
#310 = ORIENTED_EDGE('',*,*,#311,.T.);
#311 = EDGE_CURVE('',#304,#312,#314,.T.);
#312 = VERTEX_POINT('',#313);
#313 = CARTESIAN_POINT('',(-24.37018690393,235.78959809239,2.4));
#314 = CIRCLE('',#315,4.15);
#315 = AXIS2_PLACEMENT_3D('',#316,#317,#318);
#316 = CARTESIAN_POINT('',(-20.275,235.11733012345,2.4));
#317 = DIRECTION('',(0.,-0.,1.));
#318 = DIRECTION('',(0.866025403784,0.5,0.));
#319 = ORIENTED_EDGE('',*,*,#320,.F.);
#320 = EDGE_CURVE('',#321,#312,#323,.T.);
#321 = VERTEX_POINT('',#322);
#322 = CARTESIAN_POINT('',(-43.17979459121,203.21040190758,2.4));
#323 = LINE('',#324,#325);
#324 = CARTESIAN_POINT('',(-43.17979459122,203.2104019076,2.4));
#325 = VECTOR('',#326,1.);
#326 = DIRECTION('',(0.5,0.866025403784,0.));
#327 = ORIENTED_EDGE('',*,*,#328,.T.);
#328 = EDGE_CURVE('',#321,#329,#331,.T.);
#329 = VERTEX_POINT('',#330);
#330 = CARTESIAN_POINT('',(-43.17979459121,196.78959809241,2.4));
#331 = CIRCLE('',#332,4.15);
#332 = AXIS2_PLACEMENT_3D('',#333,#334,#335);
#333 = CARTESIAN_POINT('',(-40.55,200.,2.4));
#334 = DIRECTION('',(0.,-0.,1.));
#335 = DIRECTION('',(0.,1.,0.));
#336 = ORIENTED_EDGE('',*,*,#337,.F.);
#337 = EDGE_CURVE('',#126,#329,#338,.T.);
#338 = LINE('',#339,#340);
#339 = CARTESIAN_POINT('',(-24.37018690395,164.2104019076,2.4));
#340 = VECTOR('',#341,1.);
#341 = DIRECTION('',(-0.5,0.866025403784,0.));
#342 = FACE_BOUND('',#343,.F.);
#343 = EDGE_LOOP('',(#344));
#344 = ORIENTED_EDGE('',*,*,#345,.T.);
#345 = EDGE_CURVE('',#346,#346,#348,.T.);
#346 = VERTEX_POINT('',#347);
#347 = CARTESIAN_POINT('',(22.275,235.11733012345,2.4));
#348 = CIRCLE('',#349,2.);
#349 = AXIS2_PLACEMENT_3D('',#350,#351,#352);
#350 = CARTESIAN_POINT('',(20.275,235.11733012345,2.4));
#351 = DIRECTION('',(0.,0.,1.));
#352 = DIRECTION('',(1.,0.,0.));
#353 = FACE_BOUND('',#354,.F.);
#354 = EDGE_LOOP('',(#355));
#355 = ORIENTED_EDGE('',*,*,#356,.T.);
#356 = EDGE_CURVE('',#357,#357,#359,.T.);
#357 = VERTEX_POINT('',#358);
#358 = CARTESIAN_POINT('',(42.55,200.,2.4));
#359 = CIRCLE('',#360,2.);
#360 = AXIS2_PLACEMENT_3D('',#361,#362,#363);
#361 = CARTESIAN_POINT('',(40.55,200.,2.4));
#362 = DIRECTION('',(0.,0.,1.));
#363 = DIRECTION('',(1.,0.,0.));
#364 = FACE_BOUND('',#365,.F.);
#365 = EDGE_LOOP('',(#366));
#366 = ORIENTED_EDGE('',*,*,#367,.T.);
#367 = EDGE_CURVE('',#368,#368,#370,.T.);
#368 = VERTEX_POINT('',#369);
#369 = CARTESIAN_POINT('',(-18.275,235.11733012345,2.4));
#370 = CIRCLE('',#371,2.);
#371 = AXIS2_PLACEMENT_3D('',#372,#373,#374);
#372 = CARTESIAN_POINT('',(-20.275,235.11733012345,2.4));
#373 = DIRECTION('',(0.,0.,1.));
#374 = DIRECTION('',(1.,0.,0.));
#375 = FACE_BOUND('',#376,.F.);
#376 = EDGE_LOOP('',(#377));
#377 = ORIENTED_EDGE('',*,*,#378,.T.);
#378 = EDGE_CURVE('',#379,#379,#381,.T.);
#379 = VERTEX_POINT('',#380);
#380 = CARTESIAN_POINT('',(-38.55,200.,2.4));
#381 = CIRCLE('',#382,2.);
#382 = AXIS2_PLACEMENT_3D('',#383,#384,#385);
#383 = CARTESIAN_POINT('',(-40.55,200.,2.4));
#384 = DIRECTION('',(0.,0.,1.));
#385 = DIRECTION('',(1.,0.,0.));
#386 = FACE_BOUND('',#387,.F.);
#387 = EDGE_LOOP('',(#388));
#388 = ORIENTED_EDGE('',*,*,#389,.T.);
#389 = EDGE_CURVE('',#390,#390,#392,.T.);
#390 = VERTEX_POINT('',#391);
#391 = CARTESIAN_POINT('',(22.275,-35.11733012345,2.4));
#392 = CIRCLE('',#393,2.);
#393 = AXIS2_PLACEMENT_3D('',#394,#395,#396);
#394 = CARTESIAN_POINT('',(20.275,-35.11733012345,2.4));
#395 = DIRECTION('',(0.,0.,1.));
#396 = DIRECTION('',(1.,0.,0.));
#397 = FACE_BOUND('',#398,.F.);
#398 = EDGE_LOOP('',(#399));
#399 = ORIENTED_EDGE('',*,*,#400,.T.);
#400 = EDGE_CURVE('',#401,#401,#403,.T.);
#401 = VERTEX_POINT('',#402);
#402 = CARTESIAN_POINT('',(-18.275,-35.11733012345,2.4));
#403 = CIRCLE('',#404,2.);
#404 = AXIS2_PLACEMENT_3D('',#405,#406,#407);
#405 = CARTESIAN_POINT('',(-20.275,-35.11733012345,2.4));
#406 = DIRECTION('',(0.,0.,1.));
#407 = DIRECTION('',(1.,0.,0.));
#408 = FACE_BOUND('',#409,.F.);
#409 = EDGE_LOOP('',(#410));
#410 = ORIENTED_EDGE('',*,*,#411,.T.);
#411 = EDGE_CURVE('',#412,#412,#414,.T.);
#412 = VERTEX_POINT('',#413);
#413 = CARTESIAN_POINT('',(-38.55,0.,2.4));
#414 = CIRCLE('',#415,2.);
#415 = AXIS2_PLACEMENT_3D('',#416,#417,#418);
#416 = CARTESIAN_POINT('',(-40.55,0.,2.4));
#417 = DIRECTION('',(0.,0.,1.));
#418 = DIRECTION('',(1.,0.,0.));
#419 = FACE_BOUND('',#420,.F.);
#420 = EDGE_LOOP('',(#421));
#421 = ORIENTED_EDGE('',*,*,#422,.T.);
#422 = EDGE_CURVE('',#423,#423,#425,.T.);
#423 = VERTEX_POINT('',#424);
#424 = CARTESIAN_POINT('',(42.55,0.,2.4));
#425 = CIRCLE('',#426,2.);
#426 = AXIS2_PLACEMENT_3D('',#427,#428,#429);
#427 = CARTESIAN_POINT('',(40.55,0.,2.4));
#428 = DIRECTION('',(0.,0.,1.));
#429 = DIRECTION('',(1.,0.,0.));
#430 = FACE_BOUND('',#431,.T.);
#431 = EDGE_LOOP('',(#432,#442,#451,#459,#468,#476,#485,#493,#502,#510,
    #519,#527));
#432 = ORIENTED_EDGE('',*,*,#433,.F.);
#433 = EDGE_CURVE('',#434,#436,#438,.T.);
#434 = VERTEX_POINT('',#435);
#435 = CARTESIAN_POINT('',(28.556624327026,202.5,2.4));
#436 = VERTEX_POINT('',#437);
#437 = CARTESIAN_POINT('',(16.443375672974,223.48076211353,2.4));
#438 = LINE('',#439,#440);
#439 = CARTESIAN_POINT('',(30.,200.,2.4));
#440 = VECTOR('',#441,1.);
#441 = DIRECTION('',(-0.5,0.866025403784,0.));
#442 = ORIENTED_EDGE('',*,*,#443,.T.);
#443 = EDGE_CURVE('',#434,#444,#446,.T.);
#444 = VERTEX_POINT('',#445);
#445 = CARTESIAN_POINT('',(28.556624327026,197.5,2.4));
#446 = CIRCLE('',#447,5.);
#447 = AXIS2_PLACEMENT_3D('',#448,#449,#450);
#448 = CARTESIAN_POINT('',(24.226497308104,200.,2.4));
#449 = DIRECTION('',(-0.,-0.,-1.));
#450 = DIRECTION('',(0.,-1.,0.));
#451 = ORIENTED_EDGE('',*,*,#452,.F.);
#452 = EDGE_CURVE('',#453,#444,#455,.T.);
#453 = VERTEX_POINT('',#454);
#454 = CARTESIAN_POINT('',(8.943375672974,163.5288568297,2.4));
#455 = LINE('',#456,#457);
#456 = CARTESIAN_POINT('',(15.,174.01923788646,2.4));
#457 = VECTOR('',#458,1.);
#458 = DIRECTION('',(0.5,0.866025403784,0.));
#459 = ORIENTED_EDGE('',*,*,#460,.F.);
#460 = EDGE_CURVE('',#461,#453,#463,.T.);
#461 = VERTEX_POINT('',#462);
#462 = CARTESIAN_POINT('',(4.613248654052,161.0288568297,2.4));
#463 = CIRCLE('',#464,5.);
#464 = AXIS2_PLACEMENT_3D('',#465,#466,#467);
#465 = CARTESIAN_POINT('',(4.613248654052,166.0288568297,2.4));
#466 = DIRECTION('',(-0.,0.,1.));
#467 = DIRECTION('',(0.,-1.,0.));
#468 = ORIENTED_EDGE('',*,*,#469,.F.);
#469 = EDGE_CURVE('',#470,#461,#472,.T.);
#470 = VERTEX_POINT('',#471);
#471 = CARTESIAN_POINT('',(-4.613248654052,161.0288568297,2.4));
#472 = LINE('',#473,#474);
#473 = CARTESIAN_POINT('',(-7.5,161.0288568297,2.4));
#474 = VECTOR('',#475,1.);
#475 = DIRECTION('',(1.,0.,0.));
#476 = ORIENTED_EDGE('',*,*,#477,.F.);
#477 = EDGE_CURVE('',#478,#470,#480,.T.);
#478 = VERTEX_POINT('',#479);
#479 = CARTESIAN_POINT('',(-8.943375672974,163.5288568297,2.4));
#480 = CIRCLE('',#481,5.);
#481 = AXIS2_PLACEMENT_3D('',#482,#483,#484);
#482 = CARTESIAN_POINT('',(-4.613248654052,166.0288568297,2.4));
#483 = DIRECTION('',(-0.,0.,1.));
#484 = DIRECTION('',(0.,-1.,0.));
#485 = ORIENTED_EDGE('',*,*,#486,.F.);
#486 = EDGE_CURVE('',#487,#478,#489,.T.);
#487 = VERTEX_POINT('',#488);
#488 = CARTESIAN_POINT('',(-28.55662432702,197.5,2.4));
#489 = LINE('',#490,#491);
#490 = CARTESIAN_POINT('',(-15.,174.01923788646,2.4));
#491 = VECTOR('',#492,1.);
#492 = DIRECTION('',(0.5,-0.866025403784,0.));
#493 = ORIENTED_EDGE('',*,*,#494,.F.);
#494 = EDGE_CURVE('',#495,#487,#497,.T.);
#495 = VERTEX_POINT('',#496);
#496 = CARTESIAN_POINT('',(-28.55662432702,202.5,2.4));
#497 = CIRCLE('',#498,5.);
#498 = AXIS2_PLACEMENT_3D('',#499,#500,#501);
#499 = CARTESIAN_POINT('',(-24.2264973081,200.,2.4));
#500 = DIRECTION('',(-0.,0.,1.));
#501 = DIRECTION('',(0.,-1.,0.));
#502 = ORIENTED_EDGE('',*,*,#503,.F.);
#503 = EDGE_CURVE('',#504,#495,#506,.T.);
#504 = VERTEX_POINT('',#505);
#505 = CARTESIAN_POINT('',(-16.44337567297,223.48076211353,2.4));
#506 = LINE('',#507,#508);
#507 = CARTESIAN_POINT('',(-15.,225.98076211353,2.4));
#508 = VECTOR('',#509,1.);
#509 = DIRECTION('',(-0.5,-0.866025403784,0.));
#510 = ORIENTED_EDGE('',*,*,#511,.F.);
#511 = EDGE_CURVE('',#512,#504,#514,.T.);
#512 = VERTEX_POINT('',#513);
#513 = CARTESIAN_POINT('',(-12.11324865405,225.98076211353,2.4));
#514 = CIRCLE('',#515,5.);
#515 = AXIS2_PLACEMENT_3D('',#516,#517,#518);
#516 = CARTESIAN_POINT('',(-12.11324865405,220.98076211353,2.4));
#517 = DIRECTION('',(-0.,0.,1.));
#518 = DIRECTION('',(0.,-1.,0.));
#519 = ORIENTED_EDGE('',*,*,#520,.F.);
#520 = EDGE_CURVE('',#521,#512,#523,.T.);
#521 = VERTEX_POINT('',#522);
#522 = CARTESIAN_POINT('',(12.113248654052,225.98076211353,2.4));
#523 = LINE('',#524,#525);
#524 = CARTESIAN_POINT('',(15.,225.98076211353,2.4));
#525 = VECTOR('',#526,1.);
#526 = DIRECTION('',(-1.,0.,0.));
#527 = ORIENTED_EDGE('',*,*,#528,.F.);
#528 = EDGE_CURVE('',#436,#521,#529,.T.);
#529 = CIRCLE('',#530,5.);
#530 = AXIS2_PLACEMENT_3D('',#531,#532,#533);
#531 = CARTESIAN_POINT('',(12.113248654052,220.98076211353,2.4));
#532 = DIRECTION('',(-0.,0.,1.));
#533 = DIRECTION('',(0.,-1.,0.));
#534 = PLANE('',#535);
#535 = AXIS2_PLACEMENT_3D('',#536,#537,#538);
#536 = CARTESIAN_POINT('',(1.470903410352E-04,99.999254197285,2.4));
#537 = DIRECTION('',(0.,0.,1.));
#538 = DIRECTION('',(1.,0.,0.));
#539 = ADVANCED_FACE('',(#540),#565,.T.);
#540 = FACE_BOUND('',#541,.T.);
#541 = EDGE_LOOP('',(#542,#552,#558,#559));
#542 = ORIENTED_EDGE('',*,*,#543,.T.);
#543 = EDGE_CURVE('',#544,#546,#548,.T.);
#544 = VERTEX_POINT('',#545);
#545 = CARTESIAN_POINT('',(-28.55662432702,2.5,0.));
#546 = VERTEX_POINT('',#547);
#547 = CARTESIAN_POINT('',(-8.943375672974,36.4711431703,0.));
#548 = LINE('',#549,#550);
#549 = CARTESIAN_POINT('',(-15.,25.980762113533,0.));
#550 = VECTOR('',#551,1.);
#551 = DIRECTION('',(0.5,0.866025403784,0.));
#552 = ORIENTED_EDGE('',*,*,#553,.T.);
#553 = EDGE_CURVE('',#546,#22,#554,.T.);
#554 = LINE('',#555,#556);
#555 = CARTESIAN_POINT('',(-8.943375672974,36.4711431703,0.));
#556 = VECTOR('',#557,1.);
#557 = DIRECTION('',(0.,0.,1.));
#558 = ORIENTED_EDGE('',*,*,#21,.T.);
#559 = ORIENTED_EDGE('',*,*,#560,.F.);
#560 = EDGE_CURVE('',#544,#24,#561,.T.);
#561 = LINE('',#562,#563);
#562 = CARTESIAN_POINT('',(-28.55662432702,2.5,0.));
#563 = VECTOR('',#564,1.);
#564 = DIRECTION('',(0.,0.,1.));
#565 = PLANE('',#566);
#566 = AXIS2_PLACEMENT_3D('',#567,#568,#569);
#567 = CARTESIAN_POINT('',(-18.75,19.48557158515,1.2));
#568 = DIRECTION('',(0.866025403784,-0.5,0.));
#569 = DIRECTION('',(0.5,0.866025403784,0.));
#570 = ADVANCED_FACE('',(#571),#590,.F.);
#571 = FACE_BOUND('',#572,.T.);
#572 = EDGE_LOOP('',(#573,#582,#588,#589));
#573 = ORIENTED_EDGE('',*,*,#574,.T.);
#574 = EDGE_CURVE('',#546,#575,#577,.T.);
#575 = VERTEX_POINT('',#576);
#576 = CARTESIAN_POINT('',(-4.613248654052,38.9711431703,0.));
#577 = CIRCLE('',#578,5.);
#578 = AXIS2_PLACEMENT_3D('',#579,#580,#581);
#579 = CARTESIAN_POINT('',(-4.613248654052,33.9711431703,0.));
#580 = DIRECTION('',(-0.,-0.,-1.));
#581 = DIRECTION('',(0.,-1.,0.));
#582 = ORIENTED_EDGE('',*,*,#583,.T.);
#583 = EDGE_CURVE('',#575,#32,#584,.T.);
#584 = LINE('',#585,#586);
#585 = CARTESIAN_POINT('',(-4.613248654052,38.9711431703,0.));
#586 = VECTOR('',#587,1.);
#587 = DIRECTION('',(0.,0.,1.));
#588 = ORIENTED_EDGE('',*,*,#31,.F.);
#589 = ORIENTED_EDGE('',*,*,#553,.F.);
#590 = CYLINDRICAL_SURFACE('',#591,5.);
#591 = AXIS2_PLACEMENT_3D('',#592,#593,#594);
#592 = CARTESIAN_POINT('',(-4.613248654052,33.9711431703,0.));
#593 = DIRECTION('',(0.,0.,1.));
#594 = DIRECTION('',(-0.866025403784,0.5,0.));
#595 = ADVANCED_FACE('',(#596),#615,.F.);
#596 = FACE_BOUND('',#597,.F.);
#597 = EDGE_LOOP('',(#598,#607,#613,#614));
#598 = ORIENTED_EDGE('',*,*,#599,.T.);
#599 = EDGE_CURVE('',#544,#600,#602,.T.);
#600 = VERTEX_POINT('',#601);
#601 = CARTESIAN_POINT('',(-28.55662432702,-2.5,0.));
#602 = CIRCLE('',#603,5.);
#603 = AXIS2_PLACEMENT_3D('',#604,#605,#606);
#604 = CARTESIAN_POINT('',(-24.2264973081,-1.209741107689E-14,0.));
#605 = DIRECTION('',(-0.,0.,1.));
#606 = DIRECTION('',(0.,-1.,0.));
#607 = ORIENTED_EDGE('',*,*,#608,.T.);
#608 = EDGE_CURVE('',#600,#109,#609,.T.);
#609 = LINE('',#610,#611);
#610 = CARTESIAN_POINT('',(-28.55662432702,-2.5,0.));
#611 = VECTOR('',#612,1.);
#612 = DIRECTION('',(0.,0.,1.));
#613 = ORIENTED_EDGE('',*,*,#116,.F.);
#614 = ORIENTED_EDGE('',*,*,#560,.F.);
#615 = CYLINDRICAL_SURFACE('',#616,5.);
#616 = AXIS2_PLACEMENT_3D('',#617,#618,#619);
#617 = CARTESIAN_POINT('',(-24.2264973081,-1.209741107689E-14,0.));
#618 = DIRECTION('',(0.,0.,1.));
#619 = DIRECTION('',(-0.866025403784,0.5,0.));
#620 = ADVANCED_FACE('',(#621),#639,.F.);
#621 = FACE_BOUND('',#622,.F.);
#622 = EDGE_LOOP('',(#623,#631,#632,#633));
#623 = ORIENTED_EDGE('',*,*,#624,.F.);
#624 = EDGE_CURVE('',#575,#625,#627,.T.);
#625 = VERTEX_POINT('',#626);
#626 = CARTESIAN_POINT('',(4.613248654052,38.9711431703,0.));
#627 = LINE('',#628,#629);
#628 = CARTESIAN_POINT('',(-7.5,38.9711431703,0.));
#629 = VECTOR('',#630,1.);
#630 = DIRECTION('',(1.,0.,0.));
#631 = ORIENTED_EDGE('',*,*,#583,.T.);
#632 = ORIENTED_EDGE('',*,*,#40,.T.);
#633 = ORIENTED_EDGE('',*,*,#634,.F.);
#634 = EDGE_CURVE('',#625,#41,#635,.T.);
#635 = LINE('',#636,#637);
#636 = CARTESIAN_POINT('',(4.613248654052,38.9711431703,0.));
#637 = VECTOR('',#638,1.);
#638 = DIRECTION('',(0.,0.,1.));
#639 = PLANE('',#640);
#640 = AXIS2_PLACEMENT_3D('',#641,#642,#643);
#641 = CARTESIAN_POINT('',(-7.5,38.9711431703,0.));
#642 = DIRECTION('',(0.,1.,0.));
#643 = DIRECTION('',(1.,0.,0.));
#644 = ADVANCED_FACE('',(#645),#663,.T.);
#645 = FACE_BOUND('',#646,.T.);
#646 = EDGE_LOOP('',(#647,#655,#656,#657));
#647 = ORIENTED_EDGE('',*,*,#648,.F.);
#648 = EDGE_CURVE('',#600,#649,#651,.T.);
#649 = VERTEX_POINT('',#650);
#650 = CARTESIAN_POINT('',(-16.44337567297,-23.48076211353,0.));
#651 = LINE('',#652,#653);
#652 = CARTESIAN_POINT('',(-30.,-3.618688764062E-15,0.));
#653 = VECTOR('',#654,1.);
#654 = DIRECTION('',(0.5,-0.866025403784,0.));
#655 = ORIENTED_EDGE('',*,*,#608,.T.);
#656 = ORIENTED_EDGE('',*,*,#108,.T.);
#657 = ORIENTED_EDGE('',*,*,#658,.F.);
#658 = EDGE_CURVE('',#649,#100,#659,.T.);
#659 = LINE('',#660,#661);
#660 = CARTESIAN_POINT('',(-16.44337567297,-23.48076211353,0.));
#661 = VECTOR('',#662,1.);
#662 = DIRECTION('',(0.,0.,1.));
#663 = PLANE('',#664);
#664 = AXIS2_PLACEMENT_3D('',#665,#666,#667);
#665 = CARTESIAN_POINT('',(-30.,-3.618688764062E-15,0.));
#666 = DIRECTION('',(0.866025403784,0.5,0.));
#667 = DIRECTION('',(0.5,-0.866025403784,0.));
#668 = ADVANCED_FACE('',(#669),#688,.F.);
#669 = FACE_BOUND('',#670,.F.);
#670 = EDGE_LOOP('',(#671,#680,#681,#682));
#671 = ORIENTED_EDGE('',*,*,#672,.T.);
#672 = EDGE_CURVE('',#673,#625,#675,.T.);
#673 = VERTEX_POINT('',#674);
#674 = CARTESIAN_POINT('',(8.943375672974,36.4711431703,0.));
#675 = CIRCLE('',#676,5.);
#676 = AXIS2_PLACEMENT_3D('',#677,#678,#679);
#677 = CARTESIAN_POINT('',(4.613248654052,33.9711431703,0.));
#678 = DIRECTION('',(-0.,0.,1.));
#679 = DIRECTION('',(0.,-1.,0.));
#680 = ORIENTED_EDGE('',*,*,#634,.T.);
#681 = ORIENTED_EDGE('',*,*,#48,.F.);
#682 = ORIENTED_EDGE('',*,*,#683,.F.);
#683 = EDGE_CURVE('',#673,#49,#684,.T.);
#684 = LINE('',#685,#686);
#685 = CARTESIAN_POINT('',(8.943375672974,36.4711431703,0.));
#686 = VECTOR('',#687,1.);
#687 = DIRECTION('',(0.,0.,1.));
#688 = CYLINDRICAL_SURFACE('',#689,5.);
#689 = AXIS2_PLACEMENT_3D('',#690,#691,#692);
#690 = CARTESIAN_POINT('',(4.613248654052,33.9711431703,0.));
#691 = DIRECTION('',(0.,0.,1.));
#692 = DIRECTION('',(0.866025403784,0.5,0.));
#693 = ADVANCED_FACE('',(#694),#713,.F.);
#694 = FACE_BOUND('',#695,.F.);
#695 = EDGE_LOOP('',(#696,#705,#711,#712));
#696 = ORIENTED_EDGE('',*,*,#697,.T.);
#697 = EDGE_CURVE('',#649,#698,#700,.T.);
#698 = VERTEX_POINT('',#699);
#699 = CARTESIAN_POINT('',(-12.11324865405,-25.98076211353,0.));
#700 = CIRCLE('',#701,5.);
#701 = AXIS2_PLACEMENT_3D('',#702,#703,#704);
#702 = CARTESIAN_POINT('',(-12.11324865405,-20.98076211353,0.));
#703 = DIRECTION('',(-0.,0.,1.));
#704 = DIRECTION('',(0.,-1.,0.));
#705 = ORIENTED_EDGE('',*,*,#706,.T.);
#706 = EDGE_CURVE('',#698,#92,#707,.T.);
#707 = LINE('',#708,#709);
#708 = CARTESIAN_POINT('',(-12.11324865405,-25.98076211353,0.));
#709 = VECTOR('',#710,1.);
#710 = DIRECTION('',(0.,0.,1.));
#711 = ORIENTED_EDGE('',*,*,#99,.F.);
#712 = ORIENTED_EDGE('',*,*,#658,.F.);
#713 = CYLINDRICAL_SURFACE('',#714,5.);
#714 = AXIS2_PLACEMENT_3D('',#715,#716,#717);
#715 = CARTESIAN_POINT('',(-12.11324865405,-20.98076211353,0.));
#716 = DIRECTION('',(0.,0.,1.));
#717 = DIRECTION('',(-0.866025403784,-0.5,0.));
#718 = ADVANCED_FACE('',(#719),#737,.T.);
#719 = FACE_BOUND('',#720,.T.);
#720 = EDGE_LOOP('',(#721,#722,#723,#731));
#721 = ORIENTED_EDGE('',*,*,#57,.F.);
#722 = ORIENTED_EDGE('',*,*,#683,.F.);
#723 = ORIENTED_EDGE('',*,*,#724,.F.);
#724 = EDGE_CURVE('',#725,#673,#727,.T.);
#725 = VERTEX_POINT('',#726);
#726 = CARTESIAN_POINT('',(28.556624327026,2.5,0.));
#727 = LINE('',#728,#729);
#728 = CARTESIAN_POINT('',(30.,0.,0.));
#729 = VECTOR('',#730,1.);
#730 = DIRECTION('',(-0.5,0.866025403784,0.));
#731 = ORIENTED_EDGE('',*,*,#732,.T.);
#732 = EDGE_CURVE('',#725,#58,#733,.T.);
#733 = LINE('',#734,#735);
#734 = CARTESIAN_POINT('',(28.556624327026,2.5,0.));
#735 = VECTOR('',#736,1.);
#736 = DIRECTION('',(0.,0.,1.));
#737 = PLANE('',#738);
#738 = AXIS2_PLACEMENT_3D('',#739,#740,#741);
#739 = CARTESIAN_POINT('',(18.75,19.48557158515,1.2));
#740 = DIRECTION('',(-0.866025403784,-0.5,-0.));
#741 = DIRECTION('',(0.5,-0.866025403784,0.));
#742 = ADVANCED_FACE('',(#743),#761,.T.);
#743 = FACE_BOUND('',#744,.T.);
#744 = EDGE_LOOP('',(#745,#753,#754,#755));
#745 = ORIENTED_EDGE('',*,*,#746,.F.);
#746 = EDGE_CURVE('',#698,#747,#749,.T.);
#747 = VERTEX_POINT('',#748);
#748 = CARTESIAN_POINT('',(12.113248654052,-25.98076211353,0.));
#749 = LINE('',#750,#751);
#750 = CARTESIAN_POINT('',(-15.,-25.98076211353,0.));
#751 = VECTOR('',#752,1.);
#752 = DIRECTION('',(1.,1.184237892934E-16,0.));
#753 = ORIENTED_EDGE('',*,*,#706,.T.);
#754 = ORIENTED_EDGE('',*,*,#91,.T.);
#755 = ORIENTED_EDGE('',*,*,#756,.F.);
#756 = EDGE_CURVE('',#747,#83,#757,.T.);
#757 = LINE('',#758,#759);
#758 = CARTESIAN_POINT('',(12.113248654052,-25.98076211353,0.));
#759 = VECTOR('',#760,1.);
#760 = DIRECTION('',(0.,0.,1.));
#761 = PLANE('',#762);
#762 = AXIS2_PLACEMENT_3D('',#763,#764,#765);
#763 = CARTESIAN_POINT('',(-15.,-25.98076211353,0.));
#764 = DIRECTION('',(-1.184237892934E-16,1.,0.));
#765 = DIRECTION('',(1.,1.184237892934E-16,0.));
#766 = ADVANCED_FACE('',(#767),#786,.F.);
#767 = FACE_BOUND('',#768,.F.);
#768 = EDGE_LOOP('',(#769,#778,#779,#780));
#769 = ORIENTED_EDGE('',*,*,#770,.T.);
#770 = EDGE_CURVE('',#771,#725,#773,.T.);
#771 = VERTEX_POINT('',#772);
#772 = CARTESIAN_POINT('',(28.556624327026,-2.5,0.));
#773 = CIRCLE('',#774,5.);
#774 = AXIS2_PLACEMENT_3D('',#775,#776,#777);
#775 = CARTESIAN_POINT('',(24.226497308104,1.406282497859E-15,0.));
#776 = DIRECTION('',(-0.,0.,1.));
#777 = DIRECTION('',(0.,-1.,0.));
#778 = ORIENTED_EDGE('',*,*,#732,.T.);
#779 = ORIENTED_EDGE('',*,*,#65,.F.);
#780 = ORIENTED_EDGE('',*,*,#781,.F.);
#781 = EDGE_CURVE('',#771,#66,#782,.T.);
#782 = LINE('',#783,#784);
#783 = CARTESIAN_POINT('',(28.556624327026,-2.5,0.));
#784 = VECTOR('',#785,1.);
#785 = DIRECTION('',(0.,0.,1.));
#786 = CYLINDRICAL_SURFACE('',#787,5.);
#787 = AXIS2_PLACEMENT_3D('',#788,#789,#790);
#788 = CARTESIAN_POINT('',(24.226497308104,1.406282497859E-15,0.));
#789 = DIRECTION('',(0.,0.,1.));
#790 = DIRECTION('',(0.866025403784,-0.5,0.));
#791 = ADVANCED_FACE('',(#792),#811,.F.);
#792 = FACE_BOUND('',#793,.F.);
#793 = EDGE_LOOP('',(#794,#803,#809,#810));
#794 = ORIENTED_EDGE('',*,*,#795,.T.);
#795 = EDGE_CURVE('',#747,#796,#798,.T.);
#796 = VERTEX_POINT('',#797);
#797 = CARTESIAN_POINT('',(16.443375672974,-23.48076211353,0.));
#798 = CIRCLE('',#799,5.);
#799 = AXIS2_PLACEMENT_3D('',#800,#801,#802);
#800 = CARTESIAN_POINT('',(12.113248654052,-20.98076211353,0.));
#801 = DIRECTION('',(-0.,0.,1.));
#802 = DIRECTION('',(0.,-1.,0.));
#803 = ORIENTED_EDGE('',*,*,#804,.T.);
#804 = EDGE_CURVE('',#796,#75,#805,.T.);
#805 = LINE('',#806,#807);
#806 = CARTESIAN_POINT('',(16.443375672974,-23.48076211353,0.));
#807 = VECTOR('',#808,1.);
#808 = DIRECTION('',(0.,0.,1.));
#809 = ORIENTED_EDGE('',*,*,#82,.F.);
#810 = ORIENTED_EDGE('',*,*,#756,.F.);
#811 = CYLINDRICAL_SURFACE('',#812,5.);
#812 = AXIS2_PLACEMENT_3D('',#813,#814,#815);
#813 = CARTESIAN_POINT('',(12.113248654052,-20.98076211353,0.));
#814 = DIRECTION('',(0.,0.,1.));
#815 = DIRECTION('',(1.184237892934E-16,-1.,0.));
#816 = ADVANCED_FACE('',(#817),#828,.T.);
#817 = FACE_BOUND('',#818,.T.);
#818 = EDGE_LOOP('',(#819,#825,#826,#827));
#819 = ORIENTED_EDGE('',*,*,#820,.F.);
#820 = EDGE_CURVE('',#796,#771,#821,.T.);
#821 = LINE('',#822,#823);
#822 = CARTESIAN_POINT('',(15.,-25.98076211353,0.));
#823 = VECTOR('',#824,1.);
#824 = DIRECTION('',(0.5,0.866025403784,0.));
#825 = ORIENTED_EDGE('',*,*,#804,.T.);
#826 = ORIENTED_EDGE('',*,*,#74,.T.);
#827 = ORIENTED_EDGE('',*,*,#781,.F.);
#828 = PLANE('',#829);
#829 = AXIS2_PLACEMENT_3D('',#830,#831,#832);
#830 = CARTESIAN_POINT('',(15.,-25.98076211353,0.));
#831 = DIRECTION('',(-0.866025403784,0.5,0.));
#832 = DIRECTION('',(0.5,0.866025403784,0.));
#833 = ADVANCED_FACE('',(#834),#868,.T.);
#834 = FACE_BOUND('',#835,.T.);
#835 = EDGE_LOOP('',(#836,#844,#845,#846,#854,#862));
#836 = ORIENTED_EDGE('',*,*,#837,.T.);
#837 = EDGE_CURVE('',#838,#128,#840,.T.);
#838 = VERTEX_POINT('',#839);
#839 = CARTESIAN_POINT('',(-15.5,148.84678751741,0.));
#840 = LINE('',#841,#842);
#841 = CARTESIAN_POINT('',(-15.5,148.84678751741,0.));
#842 = VECTOR('',#843,1.);
#843 = DIRECTION('',(0.,0.,1.));
#844 = ORIENTED_EDGE('',*,*,#125,.F.);
#845 = ORIENTED_EDGE('',*,*,#337,.T.);
#846 = ORIENTED_EDGE('',*,*,#847,.F.);
#847 = EDGE_CURVE('',#848,#329,#850,.T.);
#848 = VERTEX_POINT('',#849);
#849 = CARTESIAN_POINT('',(-43.17979459121,196.78959809241,0.));
#850 = LINE('',#851,#852);
#851 = CARTESIAN_POINT('',(-43.17979459121,196.78959809241,0.));
#852 = VECTOR('',#853,1.);
#853 = DIRECTION('',(0.,0.,1.));
#854 = ORIENTED_EDGE('',*,*,#855,.F.);
#855 = EDGE_CURVE('',#856,#848,#858,.T.);
#856 = VERTEX_POINT('',#857);
#857 = CARTESIAN_POINT('',(-24.37018690395,164.2104019076,0.));
#858 = LINE('',#859,#860);
#859 = CARTESIAN_POINT('',(-24.37018690395,164.2104019076,0.));
#860 = VECTOR('',#861,1.);
#861 = DIRECTION('',(-0.5,0.866025403784,0.));
#862 = ORIENTED_EDGE('',*,*,#863,.T.);
#863 = EDGE_CURVE('',#856,#838,#864,.T.);
#864 = LINE('',#865,#866);
#865 = CARTESIAN_POINT('',(-24.37018690395,164.2104019076,0.));
#866 = VECTOR('',#867,1.);
#867 = DIRECTION('',(0.500000000002,-0.866025403783,0.));
#868 = PLANE('',#869);
#869 = AXIS2_PLACEMENT_3D('',#870,#871,#872);
#870 = CARTESIAN_POINT('',(-29.33989729562,172.81819280489,1.2));
#871 = DIRECTION('',(-0.866025403784,-0.5,-0.));
#872 = DIRECTION('',(0.5,-0.866025403784,0.));
#873 = ADVANCED_FACE('',(#874),#908,.T.);
#874 = FACE_BOUND('',#875,.T.);
#875 = EDGE_LOOP('',(#876,#877,#885,#893,#901,#907));
#876 = ORIENTED_EDGE('',*,*,#837,.F.);
#877 = ORIENTED_EDGE('',*,*,#878,.T.);
#878 = EDGE_CURVE('',#838,#879,#881,.T.);
#879 = VERTEX_POINT('',#880);
#880 = CARTESIAN_POINT('',(-15.5,148.84678751741,-13.));
#881 = LINE('',#882,#883);
#882 = CARTESIAN_POINT('',(-15.5,148.84678751741,0.));
#883 = VECTOR('',#884,1.);
#884 = DIRECTION('',(0.,0.,-1.));
#885 = ORIENTED_EDGE('',*,*,#886,.T.);
#886 = EDGE_CURVE('',#879,#887,#889,.T.);
#887 = VERTEX_POINT('',#888);
#888 = CARTESIAN_POINT('',(-15.5,51.15321248259,-13.));
#889 = LINE('',#890,#891);
#890 = CARTESIAN_POINT('',(-15.5,148.84678751741,-13.));
#891 = VECTOR('',#892,1.);
#892 = DIRECTION('',(0.,-1.,0.));
#893 = ORIENTED_EDGE('',*,*,#894,.F.);
#894 = EDGE_CURVE('',#895,#887,#897,.T.);
#895 = VERTEX_POINT('',#896);
#896 = CARTESIAN_POINT('',(-15.5,51.15321248259,0.));
#897 = LINE('',#898,#899);
#898 = CARTESIAN_POINT('',(-15.5,51.15321248259,0.));
#899 = VECTOR('',#900,1.);
#900 = DIRECTION('',(0.,0.,-1.));
#901 = ORIENTED_EDGE('',*,*,#902,.T.);
#902 = EDGE_CURVE('',#895,#136,#903,.T.);
#903 = LINE('',#904,#905);
#904 = CARTESIAN_POINT('',(-15.5,51.15321248259,0.));
#905 = VECTOR('',#906,1.);
#906 = DIRECTION('',(0.,0.,1.));
#907 = ORIENTED_EDGE('',*,*,#135,.F.);
#908 = PLANE('',#909);
#909 = AXIS2_PLACEMENT_3D('',#910,#911,#912);
#910 = CARTESIAN_POINT('',(-15.5,100.,-5.3));
#911 = DIRECTION('',(-1.,-0.,-0.));
#912 = DIRECTION('',(0.,0.,-1.));
#913 = ADVANCED_FACE('',(#914),#941,.T.);
#914 = FACE_BOUND('',#915,.T.);
#915 = EDGE_LOOP('',(#916,#917,#925,#933,#939,#940));
#916 = ORIENTED_EDGE('',*,*,#902,.F.);
#917 = ORIENTED_EDGE('',*,*,#918,.T.);
#918 = EDGE_CURVE('',#895,#919,#921,.T.);
#919 = VERTEX_POINT('',#920);
#920 = CARTESIAN_POINT('',(-24.37018690395,35.789598092394,0.));
#921 = LINE('',#922,#923);
#922 = CARTESIAN_POINT('',(-15.5,51.15321248259,0.));
#923 = VECTOR('',#924,1.);
#924 = DIRECTION('',(-0.500000000002,-0.866025403783,0.));
#925 = ORIENTED_EDGE('',*,*,#926,.F.);
#926 = EDGE_CURVE('',#927,#919,#929,.T.);
#927 = VERTEX_POINT('',#928);
#928 = CARTESIAN_POINT('',(-43.17979459121,3.210401907587,0.));
#929 = LINE('',#930,#931);
#930 = CARTESIAN_POINT('',(-43.17979459122,3.210401907606,0.));
#931 = VECTOR('',#932,1.);
#932 = DIRECTION('',(0.5,0.866025403784,0.));
#933 = ORIENTED_EDGE('',*,*,#934,.T.);
#934 = EDGE_CURVE('',#927,#152,#935,.T.);
#935 = LINE('',#936,#937);
#936 = CARTESIAN_POINT('',(-43.17979459121,3.210401907587,0.));
#937 = VECTOR('',#938,1.);
#938 = DIRECTION('',(0.,0.,1.));
#939 = ORIENTED_EDGE('',*,*,#151,.T.);
#940 = ORIENTED_EDGE('',*,*,#143,.F.);
#941 = PLANE('',#942);
#942 = AXIS2_PLACEMENT_3D('',#943,#944,#945);
#943 = CARTESIAN_POINT('',(-29.33989729562,27.181807195105,1.2));
#944 = DIRECTION('',(-0.866025403784,0.5,3.981146411135E-16));
#945 = DIRECTION('',(-0.5,-0.866025403784,0.));
#946 = ADVANCED_FACE('',(#947),#966,.T.);
#947 = FACE_BOUND('',#948,.F.);
#948 = EDGE_LOOP('',(#949,#950,#951,#959));
#949 = ORIENTED_EDGE('',*,*,#934,.T.);
#950 = ORIENTED_EDGE('',*,*,#159,.T.);
#951 = ORIENTED_EDGE('',*,*,#952,.F.);
#952 = EDGE_CURVE('',#953,#160,#955,.T.);
#953 = VERTEX_POINT('',#954);
#954 = CARTESIAN_POINT('',(-43.17979459121,-3.210401907587,0.));
#955 = LINE('',#956,#957);
#956 = CARTESIAN_POINT('',(-43.17979459121,-3.210401907587,0.));
#957 = VECTOR('',#958,1.);
#958 = DIRECTION('',(0.,0.,1.));
#959 = ORIENTED_EDGE('',*,*,#960,.F.);
#960 = EDGE_CURVE('',#927,#953,#961,.T.);
#961 = CIRCLE('',#962,4.15);
#962 = AXIS2_PLACEMENT_3D('',#963,#964,#965);
#963 = CARTESIAN_POINT('',(-40.55,0.,0.));
#964 = DIRECTION('',(0.,-0.,1.));
#965 = DIRECTION('',(0.,1.,0.));
#966 = CYLINDRICAL_SURFACE('',#967,4.15);
#967 = AXIS2_PLACEMENT_3D('',#968,#969,#970);
#968 = CARTESIAN_POINT('',(-40.55,0.,0.));
#969 = DIRECTION('',(0.,0.,-1.));
#970 = DIRECTION('',(0.,1.,0.));
#971 = ADVANCED_FACE('',(#972),#990,.T.);
#972 = FACE_BOUND('',#973,.T.);
#973 = EDGE_LOOP('',(#974,#982,#983,#984));
#974 = ORIENTED_EDGE('',*,*,#975,.T.);
#975 = EDGE_CURVE('',#976,#169,#978,.T.);
#976 = VERTEX_POINT('',#977);
#977 = CARTESIAN_POINT('',(-24.37018690393,-35.78959809239,0.));
#978 = LINE('',#979,#980);
#979 = CARTESIAN_POINT('',(-24.37018690393,-35.78959809239,0.));
#980 = VECTOR('',#981,1.);
#981 = DIRECTION('',(0.,0.,1.));
#982 = ORIENTED_EDGE('',*,*,#168,.T.);
#983 = ORIENTED_EDGE('',*,*,#952,.F.);
#984 = ORIENTED_EDGE('',*,*,#985,.F.);
#985 = EDGE_CURVE('',#976,#953,#986,.T.);
#986 = LINE('',#987,#988);
#987 = CARTESIAN_POINT('',(-24.37018690395,-35.78959809239,0.));
#988 = VECTOR('',#989,1.);
#989 = DIRECTION('',(-0.5,0.866025403784,0.));
#990 = PLANE('',#991);
#991 = AXIS2_PLACEMENT_3D('',#992,#993,#994);
#992 = CARTESIAN_POINT('',(-24.37018690395,-35.78959809239,0.));
#993 = DIRECTION('',(-0.866025403784,-0.5,0.));
#994 = DIRECTION('',(-0.5,0.866025403784,0.));
#995 = ADVANCED_FACE('',(#996),#1015,.T.);
#996 = FACE_BOUND('',#997,.F.);
#997 = EDGE_LOOP('',(#998,#999,#1000,#1008));
#998 = ORIENTED_EDGE('',*,*,#975,.T.);
#999 = ORIENTED_EDGE('',*,*,#176,.T.);
#1000 = ORIENTED_EDGE('',*,*,#1001,.F.);
#1001 = EDGE_CURVE('',#1002,#177,#1004,.T.);
#1002 = VERTEX_POINT('',#1003);
#1003 = CARTESIAN_POINT('',(-18.80960768727,-38.99999999997,0.));
#1004 = LINE('',#1005,#1006);
#1005 = CARTESIAN_POINT('',(-18.80960768727,-38.99999999997,0.));
#1006 = VECTOR('',#1007,1.);
#1007 = DIRECTION('',(0.,0.,1.));
#1008 = ORIENTED_EDGE('',*,*,#1009,.F.);
#1009 = EDGE_CURVE('',#976,#1002,#1010,.T.);
#1010 = CIRCLE('',#1011,4.15);
#1011 = AXIS2_PLACEMENT_3D('',#1012,#1013,#1014);
#1012 = CARTESIAN_POINT('',(-20.275,-35.11733012345,0.));
#1013 = DIRECTION('',(0.,0.,1.));
#1014 = DIRECTION('',(-0.866025403784,0.5,0.));
#1015 = CYLINDRICAL_SURFACE('',#1016,4.15);
#1016 = AXIS2_PLACEMENT_3D('',#1017,#1018,#1019);
#1017 = CARTESIAN_POINT('',(-20.275,-35.11733012345,0.));
#1018 = DIRECTION('',(-0.,-0.,-1.));
#1019 = DIRECTION('',(-0.866025403784,0.5,0.));
#1020 = ADVANCED_FACE('',(#1021),#1039,.T.);
#1021 = FACE_BOUND('',#1022,.T.);
#1022 = EDGE_LOOP('',(#1023,#1031,#1032,#1033));
#1023 = ORIENTED_EDGE('',*,*,#1024,.T.);
#1024 = EDGE_CURVE('',#1025,#186,#1027,.T.);
#1025 = VERTEX_POINT('',#1026);
#1026 = CARTESIAN_POINT('',(18.637308064153,-38.99999999999,0.));
#1027 = LINE('',#1028,#1029);
#1028 = CARTESIAN_POINT('',(18.637308064153,-38.99999999999,0.));
#1029 = VECTOR('',#1030,1.);
#1030 = DIRECTION('',(0.,0.,1.));
#1031 = ORIENTED_EDGE('',*,*,#185,.T.);
#1032 = ORIENTED_EDGE('',*,*,#1001,.F.);
#1033 = ORIENTED_EDGE('',*,*,#1034,.F.);
#1034 = EDGE_CURVE('',#1025,#1002,#1035,.T.);
#1035 = LINE('',#1036,#1037);
#1036 = CARTESIAN_POINT('',(18.637308064153,-39.,0.));
#1037 = VECTOR('',#1038,1.);
#1038 = DIRECTION('',(-1.,0.,0.));
#1039 = PLANE('',#1040);
#1040 = AXIS2_PLACEMENT_3D('',#1041,#1042,#1043);
#1041 = CARTESIAN_POINT('',(18.637308064153,-39.,0.));
#1042 = DIRECTION('',(0.,-1.,0.));
#1043 = DIRECTION('',(-1.,0.,0.));
#1044 = ADVANCED_FACE('',(#1045),#1064,.F.);
#1045 = FACE_BOUND('',#1046,.T.);
#1046 = EDGE_LOOP('',(#1047,#1055,#1056,#1057));
#1047 = ORIENTED_EDGE('',*,*,#1048,.T.);
#1048 = EDGE_CURVE('',#1049,#194,#1051,.T.);
#1049 = VERTEX_POINT('',#1050);
#1050 = CARTESIAN_POINT('',(18.955306498298,-39.05190876183,0.));
#1051 = LINE('',#1052,#1053);
#1052 = CARTESIAN_POINT('',(18.955306498298,-39.05190876183,0.));
#1053 = VECTOR('',#1054,1.);
#1054 = DIRECTION('',(0.,0.,1.));
#1055 = ORIENTED_EDGE('',*,*,#193,.T.);
#1056 = ORIENTED_EDGE('',*,*,#1024,.F.);
#1057 = ORIENTED_EDGE('',*,*,#1058,.F.);
#1058 = EDGE_CURVE('',#1049,#1025,#1059,.T.);
#1059 = CIRCLE('',#1060,1.);
#1060 = AXIS2_PLACEMENT_3D('',#1061,#1062,#1063);
#1061 = CARTESIAN_POINT('',(18.637308064153,-39.99999999999,0.));
#1062 = DIRECTION('',(0.,0.,1.));
#1063 = DIRECTION('',(-1.,0.,0.));
#1064 = CYLINDRICAL_SURFACE('',#1065,1.);
#1065 = AXIS2_PLACEMENT_3D('',#1066,#1067,#1068);
#1066 = CARTESIAN_POINT('',(18.637308064153,-39.99999999999,0.));
#1067 = DIRECTION('',(-0.,-0.,-1.));
#1068 = DIRECTION('',(-1.,0.,0.));
#1069 = ADVANCED_FACE('',(#1070),#1089,.T.);
#1070 = FACE_BOUND('',#1071,.F.);
#1071 = EDGE_LOOP('',(#1072,#1073,#1074,#1082));
#1072 = ORIENTED_EDGE('',*,*,#1048,.T.);
#1073 = ORIENTED_EDGE('',*,*,#202,.T.);
#1074 = ORIENTED_EDGE('',*,*,#1075,.F.);
#1075 = EDGE_CURVE('',#1076,#203,#1078,.T.);
#1076 = VERTEX_POINT('',#1077);
#1077 = CARTESIAN_POINT('',(24.342291804872,-35.94173134496,0.));
#1078 = LINE('',#1079,#1080);
#1079 = CARTESIAN_POINT('',(24.342291804872,-35.94173134496,0.));
#1080 = VECTOR('',#1081,1.);
#1081 = DIRECTION('',(0.,0.,1.));
#1082 = ORIENTED_EDGE('',*,*,#1083,.F.);
#1083 = EDGE_CURVE('',#1049,#1076,#1084,.T.);
#1084 = CIRCLE('',#1085,4.15);
#1085 = AXIS2_PLACEMENT_3D('',#1086,#1087,#1088);
#1086 = CARTESIAN_POINT('',(20.275,-35.11733012345,0.));
#1087 = DIRECTION('',(0.,0.,1.));
#1088 = DIRECTION('',(-0.866025403784,-0.5,0.));
#1089 = CYLINDRICAL_SURFACE('',#1090,4.15);
#1090 = AXIS2_PLACEMENT_3D('',#1091,#1092,#1093);
#1091 = CARTESIAN_POINT('',(20.275,-35.11733012345,0.));
#1092 = DIRECTION('',(-0.,-0.,-1.));
#1093 = DIRECTION('',(-0.866025403784,-0.5,0.));
#1094 = ADVANCED_FACE('',(#1095),#1114,.F.);
#1095 = FACE_BOUND('',#1096,.T.);
#1096 = EDGE_LOOP('',(#1097,#1105,#1106,#1107));
#1097 = ORIENTED_EDGE('',*,*,#1098,.T.);
#1098 = EDGE_CURVE('',#1099,#212,#1101,.T.);
#1099 = VERTEX_POINT('',#1100);
#1100 = CARTESIAN_POINT('',(24.456336715516,-35.64038224171,0.));
#1101 = LINE('',#1102,#1103);
#1102 = CARTESIAN_POINT('',(24.456336715516,-35.64038224171,0.));
#1103 = VECTOR('',#1104,1.);
#1104 = DIRECTION('',(0.,0.,1.));
#1105 = ORIENTED_EDGE('',*,*,#211,.T.);
#1106 = ORIENTED_EDGE('',*,*,#1075,.F.);
#1107 = ORIENTED_EDGE('',*,*,#1108,.F.);
#1108 = EDGE_CURVE('',#1099,#1076,#1109,.T.);
#1109 = CIRCLE('',#1110,1.);
#1110 = AXIS2_PLACEMENT_3D('',#1111,#1112,#1113);
#1111 = CARTESIAN_POINT('',(25.322362119299,-36.14038224171,0.));
#1112 = DIRECTION('',(0.,0.,1.));
#1113 = DIRECTION('',(1.,0.,0.));
#1114 = CYLINDRICAL_SURFACE('',#1115,1.);
#1115 = AXIS2_PLACEMENT_3D('',#1116,#1117,#1118);
#1116 = CARTESIAN_POINT('',(25.322362119299,-36.14038224171,0.));
#1117 = DIRECTION('',(-0.,-0.,-1.));
#1118 = DIRECTION('',(1.,0.,0.));
#1119 = ADVANCED_FACE('',(#1120),#1138,.T.);
#1120 = FACE_BOUND('',#1121,.T.);
#1121 = EDGE_LOOP('',(#1122,#1130,#1131,#1132));
#1122 = ORIENTED_EDGE('',*,*,#1123,.T.);
#1123 = EDGE_CURVE('',#1124,#221,#1126,.T.);
#1124 = VERTEX_POINT('',#1125);
#1125 = CARTESIAN_POINT('',(43.179794591212,-3.210401907587,0.));
#1126 = LINE('',#1127,#1128);
#1127 = CARTESIAN_POINT('',(43.179794591212,-3.210401907587,0.));
#1128 = VECTOR('',#1129,1.);
#1129 = DIRECTION('',(0.,0.,1.));
#1130 = ORIENTED_EDGE('',*,*,#220,.T.);
#1131 = ORIENTED_EDGE('',*,*,#1098,.F.);
#1132 = ORIENTED_EDGE('',*,*,#1133,.F.);
#1133 = EDGE_CURVE('',#1124,#1099,#1134,.T.);
#1134 = LINE('',#1135,#1136);
#1135 = CARTESIAN_POINT('',(43.179794591228,-3.210401907606,0.));
#1136 = VECTOR('',#1137,1.);
#1137 = DIRECTION('',(-0.5,-0.866025403784,0.));
#1138 = PLANE('',#1139);
#1139 = AXIS2_PLACEMENT_3D('',#1140,#1141,#1142);
#1140 = CARTESIAN_POINT('',(43.179794591228,-3.210401907606,0.));
#1141 = DIRECTION('',(0.866025403784,-0.5,0.));
#1142 = DIRECTION('',(-0.5,-0.866025403784,0.));
#1143 = ADVANCED_FACE('',(#1144),#1163,.T.);
#1144 = FACE_BOUND('',#1145,.F.);
#1145 = EDGE_LOOP('',(#1146,#1147,#1148,#1156));
#1146 = ORIENTED_EDGE('',*,*,#1123,.T.);
#1147 = ORIENTED_EDGE('',*,*,#228,.T.);
#1148 = ORIENTED_EDGE('',*,*,#1149,.F.);
#1149 = EDGE_CURVE('',#1150,#229,#1152,.T.);
#1150 = VERTEX_POINT('',#1151);
#1151 = CARTESIAN_POINT('',(43.179794591212,3.210401907587,0.));
#1152 = LINE('',#1153,#1154);
#1153 = CARTESIAN_POINT('',(43.179794591212,3.210401907587,0.));
#1154 = VECTOR('',#1155,1.);
#1155 = DIRECTION('',(0.,0.,1.));
#1156 = ORIENTED_EDGE('',*,*,#1157,.F.);
#1157 = EDGE_CURVE('',#1124,#1150,#1158,.T.);
#1158 = CIRCLE('',#1159,4.15);
#1159 = AXIS2_PLACEMENT_3D('',#1160,#1161,#1162);
#1160 = CARTESIAN_POINT('',(40.55,-4.97E-15,0.));
#1161 = DIRECTION('',(0.,0.,1.));
#1162 = DIRECTION('',(-1.2E-16,-1.,0.));
#1163 = CYLINDRICAL_SURFACE('',#1164,4.15);
#1164 = AXIS2_PLACEMENT_3D('',#1165,#1166,#1167);
#1165 = CARTESIAN_POINT('',(40.55,-4.97E-15,0.));
#1166 = DIRECTION('',(-0.,-0.,-1.));
#1167 = DIRECTION('',(-1.2E-16,-1.,0.));
#1168 = ADVANCED_FACE('',(#1169),#1196,.T.);
#1169 = FACE_BOUND('',#1170,.T.);
#1170 = EDGE_LOOP('',(#1171,#1172,#1180,#1188,#1194,#1195));
#1171 = ORIENTED_EDGE('',*,*,#1149,.F.);
#1172 = ORIENTED_EDGE('',*,*,#1173,.F.);
#1173 = EDGE_CURVE('',#1174,#1150,#1176,.T.);
#1174 = VERTEX_POINT('',#1175);
#1175 = CARTESIAN_POINT('',(24.370186903958,35.789598092394,0.));
#1176 = LINE('',#1177,#1178);
#1177 = CARTESIAN_POINT('',(24.370186903958,35.789598092394,0.));
#1178 = VECTOR('',#1179,1.);
#1179 = DIRECTION('',(0.5,-0.866025403784,0.));
#1180 = ORIENTED_EDGE('',*,*,#1181,.F.);
#1181 = EDGE_CURVE('',#1182,#1174,#1184,.T.);
#1182 = VERTEX_POINT('',#1183);
#1183 = CARTESIAN_POINT('',(15.5,51.15321248259,0.));
#1184 = LINE('',#1185,#1186);
#1185 = CARTESIAN_POINT('',(15.5,51.15321248259,0.));
#1186 = VECTOR('',#1187,1.);
#1187 = DIRECTION('',(0.500000000002,-0.866025403783,0.));
#1188 = ORIENTED_EDGE('',*,*,#1189,.T.);
#1189 = EDGE_CURVE('',#1182,#246,#1190,.T.);
#1190 = LINE('',#1191,#1192);
#1191 = CARTESIAN_POINT('',(15.5,51.15321248259,0.));
#1192 = VECTOR('',#1193,1.);
#1193 = DIRECTION('',(0.,0.,1.));
#1194 = ORIENTED_EDGE('',*,*,#245,.T.);
#1195 = ORIENTED_EDGE('',*,*,#237,.T.);
#1196 = PLANE('',#1197);
#1197 = AXIS2_PLACEMENT_3D('',#1198,#1199,#1200);
#1198 = CARTESIAN_POINT('',(29.339897295627,27.181807195105,1.2));
#1199 = DIRECTION('',(0.866025403784,0.5,-3.478996517205E-16));
#1200 = DIRECTION('',(-0.5,0.866025403784,0.));
#1201 = ADVANCED_FACE('',(#1202),#1236,.T.);
#1202 = FACE_BOUND('',#1203,.T.);
#1203 = EDGE_LOOP('',(#1204,#1212,#1213,#1214,#1222,#1230));
#1204 = ORIENTED_EDGE('',*,*,#1205,.T.);
#1205 = EDGE_CURVE('',#1206,#254,#1208,.T.);
#1206 = VERTEX_POINT('',#1207);
#1207 = CARTESIAN_POINT('',(15.5,148.84678751741,0.));
#1208 = LINE('',#1209,#1210);
#1209 = CARTESIAN_POINT('',(15.5,148.84678751741,0.));
#1210 = VECTOR('',#1211,1.);
#1211 = DIRECTION('',(0.,0.,1.));
#1212 = ORIENTED_EDGE('',*,*,#253,.T.);
#1213 = ORIENTED_EDGE('',*,*,#1189,.F.);
#1214 = ORIENTED_EDGE('',*,*,#1215,.T.);
#1215 = EDGE_CURVE('',#1182,#1216,#1218,.T.);
#1216 = VERTEX_POINT('',#1217);
#1217 = CARTESIAN_POINT('',(15.5,51.15321248259,-13.));
#1218 = LINE('',#1219,#1220);
#1219 = CARTESIAN_POINT('',(15.5,51.15321248259,0.));
#1220 = VECTOR('',#1221,1.);
#1221 = DIRECTION('',(0.,0.,-1.));
#1222 = ORIENTED_EDGE('',*,*,#1223,.F.);
#1223 = EDGE_CURVE('',#1224,#1216,#1226,.T.);
#1224 = VERTEX_POINT('',#1225);
#1225 = CARTESIAN_POINT('',(15.5,148.84678751741,-13.));
#1226 = LINE('',#1227,#1228);
#1227 = CARTESIAN_POINT('',(15.5,148.84678751741,-13.));
#1228 = VECTOR('',#1229,1.);
#1229 = DIRECTION('',(0.,-1.,0.));
#1230 = ORIENTED_EDGE('',*,*,#1231,.F.);
#1231 = EDGE_CURVE('',#1206,#1224,#1232,.T.);
#1232 = LINE('',#1233,#1234);
#1233 = CARTESIAN_POINT('',(15.5,148.84678751741,0.));
#1234 = VECTOR('',#1235,1.);
#1235 = DIRECTION('',(0.,0.,-1.));
#1236 = PLANE('',#1237);
#1237 = AXIS2_PLACEMENT_3D('',#1238,#1239,#1240);
#1238 = CARTESIAN_POINT('',(15.5,100.,-5.3));
#1239 = DIRECTION('',(1.,0.,0.));
#1240 = DIRECTION('',(0.,0.,1.));
#1241 = ADVANCED_FACE('',(#1242),#1269,.T.);
#1242 = FACE_BOUND('',#1243,.T.);
#1243 = EDGE_LOOP('',(#1244,#1245,#1253,#1261,#1267,#1268));
#1244 = ORIENTED_EDGE('',*,*,#1205,.F.);
#1245 = ORIENTED_EDGE('',*,*,#1246,.T.);
#1246 = EDGE_CURVE('',#1206,#1247,#1249,.T.);
#1247 = VERTEX_POINT('',#1248);
#1248 = CARTESIAN_POINT('',(24.370186903958,164.2104019076,0.));
#1249 = LINE('',#1250,#1251);
#1250 = CARTESIAN_POINT('',(15.5,148.84678751741,0.));
#1251 = VECTOR('',#1252,1.);
#1252 = DIRECTION('',(0.500000000002,0.866025403783,0.));
#1253 = ORIENTED_EDGE('',*,*,#1254,.F.);
#1254 = EDGE_CURVE('',#1255,#1247,#1257,.T.);
#1255 = VERTEX_POINT('',#1256);
#1256 = CARTESIAN_POINT('',(43.179794591212,196.78959809241,0.));
#1257 = LINE('',#1258,#1259);
#1258 = CARTESIAN_POINT('',(43.179794591228,196.78959809239,0.));
#1259 = VECTOR('',#1260,1.);
#1260 = DIRECTION('',(-0.5,-0.866025403784,0.));
#1261 = ORIENTED_EDGE('',*,*,#1262,.T.);
#1262 = EDGE_CURVE('',#1255,#270,#1263,.T.);
#1263 = LINE('',#1264,#1265);
#1264 = CARTESIAN_POINT('',(43.179794591212,196.78959809241,0.));
#1265 = VECTOR('',#1266,1.);
#1266 = DIRECTION('',(0.,0.,1.));
#1267 = ORIENTED_EDGE('',*,*,#269,.T.);
#1268 = ORIENTED_EDGE('',*,*,#261,.F.);
#1269 = PLANE('',#1270);
#1270 = AXIS2_PLACEMENT_3D('',#1271,#1272,#1273);
#1271 = CARTESIAN_POINT('',(29.339897295627,172.81819280489,1.2));
#1272 = DIRECTION('',(0.866025403784,-0.5,-2.174372823253E-16));
#1273 = DIRECTION('',(0.5,0.866025403784,0.));
#1274 = ADVANCED_FACE('',(#1275),#1294,.T.);
#1275 = FACE_BOUND('',#1276,.F.);
#1276 = EDGE_LOOP('',(#1277,#1278,#1279,#1287));
#1277 = ORIENTED_EDGE('',*,*,#1262,.T.);
#1278 = ORIENTED_EDGE('',*,*,#277,.T.);
#1279 = ORIENTED_EDGE('',*,*,#1280,.F.);
#1280 = EDGE_CURVE('',#1281,#278,#1283,.T.);
#1281 = VERTEX_POINT('',#1282);
#1282 = CARTESIAN_POINT('',(43.179794591212,203.21040190758,0.));
#1283 = LINE('',#1284,#1285);
#1284 = CARTESIAN_POINT('',(43.179794591212,203.21040190758,0.));
#1285 = VECTOR('',#1286,1.);
#1286 = DIRECTION('',(0.,0.,1.));
#1287 = ORIENTED_EDGE('',*,*,#1288,.F.);
#1288 = EDGE_CURVE('',#1255,#1281,#1289,.T.);
#1289 = CIRCLE('',#1290,4.15);
#1290 = AXIS2_PLACEMENT_3D('',#1291,#1292,#1293);
#1291 = CARTESIAN_POINT('',(40.55,200.,0.));
#1292 = DIRECTION('',(0.,0.,1.));
#1293 = DIRECTION('',(-1.2E-16,-1.,0.));
#1294 = CYLINDRICAL_SURFACE('',#1295,4.15);
#1295 = AXIS2_PLACEMENT_3D('',#1296,#1297,#1298);
#1296 = CARTESIAN_POINT('',(40.55,200.,0.));
#1297 = DIRECTION('',(-0.,-0.,-1.));
#1298 = DIRECTION('',(-1.2E-16,-1.,0.));
#1299 = ADVANCED_FACE('',(#1300),#1318,.T.);
#1300 = FACE_BOUND('',#1301,.T.);
#1301 = EDGE_LOOP('',(#1302,#1310,#1311,#1312));
#1302 = ORIENTED_EDGE('',*,*,#1303,.T.);
#1303 = EDGE_CURVE('',#1304,#287,#1306,.T.);
#1304 = VERTEX_POINT('',#1305);
#1305 = CARTESIAN_POINT('',(24.370186903934,235.78959809239,0.));
#1306 = LINE('',#1307,#1308);
#1307 = CARTESIAN_POINT('',(24.370186903934,235.78959809239,0.));
#1308 = VECTOR('',#1309,1.);
#1309 = DIRECTION('',(0.,0.,1.));
#1310 = ORIENTED_EDGE('',*,*,#286,.T.);
#1311 = ORIENTED_EDGE('',*,*,#1280,.F.);
#1312 = ORIENTED_EDGE('',*,*,#1313,.F.);
#1313 = EDGE_CURVE('',#1304,#1281,#1314,.T.);
#1314 = LINE('',#1315,#1316);
#1315 = CARTESIAN_POINT('',(24.370186903958,235.78959809239,0.));
#1316 = VECTOR('',#1317,1.);
#1317 = DIRECTION('',(0.5,-0.866025403784,0.));
#1318 = PLANE('',#1319);
#1319 = AXIS2_PLACEMENT_3D('',#1320,#1321,#1322);
#1320 = CARTESIAN_POINT('',(24.370186903958,235.78959809239,0.));
#1321 = DIRECTION('',(0.866025403784,0.5,0.));
#1322 = DIRECTION('',(0.5,-0.866025403784,0.));
#1323 = ADVANCED_FACE('',(#1324),#1343,.T.);
#1324 = FACE_BOUND('',#1325,.F.);
#1325 = EDGE_LOOP('',(#1326,#1327,#1328,#1336));
#1326 = ORIENTED_EDGE('',*,*,#1303,.T.);
#1327 = ORIENTED_EDGE('',*,*,#294,.T.);
#1328 = ORIENTED_EDGE('',*,*,#1329,.F.);
#1329 = EDGE_CURVE('',#1330,#295,#1332,.T.);
#1330 = VERTEX_POINT('',#1331);
#1331 = CARTESIAN_POINT('',(18.809607687278,238.99999999997,0.));
#1332 = LINE('',#1333,#1334);
#1333 = CARTESIAN_POINT('',(18.809607687278,238.99999999997,0.));
#1334 = VECTOR('',#1335,1.);
#1335 = DIRECTION('',(0.,0.,1.));
#1336 = ORIENTED_EDGE('',*,*,#1337,.F.);
#1337 = EDGE_CURVE('',#1304,#1330,#1338,.T.);
#1338 = CIRCLE('',#1339,4.15);
#1339 = AXIS2_PLACEMENT_3D('',#1340,#1341,#1342);
#1340 = CARTESIAN_POINT('',(20.275,235.11733012345,0.));
#1341 = DIRECTION('',(-0.,0.,1.));
#1342 = DIRECTION('',(0.866025403784,-0.5,0.));
#1343 = CYLINDRICAL_SURFACE('',#1344,4.15);
#1344 = AXIS2_PLACEMENT_3D('',#1345,#1346,#1347);
#1345 = CARTESIAN_POINT('',(20.275,235.11733012345,0.));
#1346 = DIRECTION('',(0.,0.,-1.));
#1347 = DIRECTION('',(0.866025403784,-0.5,0.));
#1348 = ADVANCED_FACE('',(#1349),#1367,.T.);
#1349 = FACE_BOUND('',#1350,.T.);
#1350 = EDGE_LOOP('',(#1351,#1359,#1360,#1361));
#1351 = ORIENTED_EDGE('',*,*,#1352,.T.);
#1352 = EDGE_CURVE('',#1353,#304,#1355,.T.);
#1353 = VERTEX_POINT('',#1354);
#1354 = CARTESIAN_POINT('',(-18.80960768727,238.99999999997,0.));
#1355 = LINE('',#1356,#1357);
#1356 = CARTESIAN_POINT('',(-18.80960768727,238.99999999997,0.));
#1357 = VECTOR('',#1358,1.);
#1358 = DIRECTION('',(0.,0.,1.));
#1359 = ORIENTED_EDGE('',*,*,#303,.T.);
#1360 = ORIENTED_EDGE('',*,*,#1329,.F.);
#1361 = ORIENTED_EDGE('',*,*,#1362,.F.);
#1362 = EDGE_CURVE('',#1353,#1330,#1363,.T.);
#1363 = LINE('',#1364,#1365);
#1364 = CARTESIAN_POINT('',(-18.80960768726,239.,0.));
#1365 = VECTOR('',#1366,1.);
#1366 = DIRECTION('',(1.,0.,0.));
#1367 = PLANE('',#1368);
#1368 = AXIS2_PLACEMENT_3D('',#1369,#1370,#1371);
#1369 = CARTESIAN_POINT('',(-18.80960768726,239.,0.));
#1370 = DIRECTION('',(0.,1.,0.));
#1371 = DIRECTION('',(1.,0.,0.));
#1372 = ADVANCED_FACE('',(#1373),#1392,.T.);
#1373 = FACE_BOUND('',#1374,.F.);
#1374 = EDGE_LOOP('',(#1375,#1376,#1377,#1385));
#1375 = ORIENTED_EDGE('',*,*,#1352,.T.);
#1376 = ORIENTED_EDGE('',*,*,#311,.T.);
#1377 = ORIENTED_EDGE('',*,*,#1378,.F.);
#1378 = EDGE_CURVE('',#1379,#312,#1381,.T.);
#1379 = VERTEX_POINT('',#1380);
#1380 = CARTESIAN_POINT('',(-24.37018690393,235.78959809239,0.));
#1381 = LINE('',#1382,#1383);
#1382 = CARTESIAN_POINT('',(-24.37018690393,235.78959809239,0.));
#1383 = VECTOR('',#1384,1.);
#1384 = DIRECTION('',(0.,0.,1.));
#1385 = ORIENTED_EDGE('',*,*,#1386,.F.);
#1386 = EDGE_CURVE('',#1353,#1379,#1387,.T.);
#1387 = CIRCLE('',#1388,4.15);
#1388 = AXIS2_PLACEMENT_3D('',#1389,#1390,#1391);
#1389 = CARTESIAN_POINT('',(-20.275,235.11733012345,0.));
#1390 = DIRECTION('',(0.,-0.,1.));
#1391 = DIRECTION('',(0.866025403784,0.5,0.));
#1392 = CYLINDRICAL_SURFACE('',#1393,4.15);
#1393 = AXIS2_PLACEMENT_3D('',#1394,#1395,#1396);
#1394 = CARTESIAN_POINT('',(-20.275,235.11733012345,0.));
#1395 = DIRECTION('',(0.,0.,-1.));
#1396 = DIRECTION('',(0.866025403784,0.5,0.));
#1397 = ADVANCED_FACE('',(#1398),#1416,.T.);
#1398 = FACE_BOUND('',#1399,.T.);
#1399 = EDGE_LOOP('',(#1400,#1408,#1409,#1410));
#1400 = ORIENTED_EDGE('',*,*,#1401,.T.);
#1401 = EDGE_CURVE('',#1402,#321,#1404,.T.);
#1402 = VERTEX_POINT('',#1403);
#1403 = CARTESIAN_POINT('',(-43.17979459121,203.21040190758,0.));
#1404 = LINE('',#1405,#1406);
#1405 = CARTESIAN_POINT('',(-43.17979459121,203.21040190758,0.));
#1406 = VECTOR('',#1407,1.);
#1407 = DIRECTION('',(0.,0.,1.));
#1408 = ORIENTED_EDGE('',*,*,#320,.T.);
#1409 = ORIENTED_EDGE('',*,*,#1378,.F.);
#1410 = ORIENTED_EDGE('',*,*,#1411,.F.);
#1411 = EDGE_CURVE('',#1402,#1379,#1412,.T.);
#1412 = LINE('',#1413,#1414);
#1413 = CARTESIAN_POINT('',(-43.17979459122,203.2104019076,0.));
#1414 = VECTOR('',#1415,1.);
#1415 = DIRECTION('',(0.5,0.866025403784,0.));
#1416 = PLANE('',#1417);
#1417 = AXIS2_PLACEMENT_3D('',#1418,#1419,#1420);
#1418 = CARTESIAN_POINT('',(-43.17979459122,203.2104019076,0.));
#1419 = DIRECTION('',(-0.866025403784,0.5,0.));
#1420 = DIRECTION('',(0.5,0.866025403784,0.));
#1421 = ADVANCED_FACE('',(#1422),#1434,.T.);
#1422 = FACE_BOUND('',#1423,.F.);
#1423 = EDGE_LOOP('',(#1424,#1425,#1426,#1427));
#1424 = ORIENTED_EDGE('',*,*,#1401,.T.);
#1425 = ORIENTED_EDGE('',*,*,#328,.T.);
#1426 = ORIENTED_EDGE('',*,*,#847,.F.);
#1427 = ORIENTED_EDGE('',*,*,#1428,.F.);
#1428 = EDGE_CURVE('',#1402,#848,#1429,.T.);
#1429 = CIRCLE('',#1430,4.15);
#1430 = AXIS2_PLACEMENT_3D('',#1431,#1432,#1433);
#1431 = CARTESIAN_POINT('',(-40.55,200.,0.));
#1432 = DIRECTION('',(0.,-0.,1.));
#1433 = DIRECTION('',(0.,1.,0.));
#1434 = CYLINDRICAL_SURFACE('',#1435,4.15);
#1435 = AXIS2_PLACEMENT_3D('',#1436,#1437,#1438);
#1436 = CARTESIAN_POINT('',(-40.55,200.,0.));
#1437 = DIRECTION('',(0.,0.,-1.));
#1438 = DIRECTION('',(0.,1.,0.));
#1439 = ADVANCED_FACE('',(#1440),#1459,.F.);
#1440 = FACE_BOUND('',#1441,.T.);
#1441 = EDGE_LOOP('',(#1442,#1450,#1451,#1452));
#1442 = ORIENTED_EDGE('',*,*,#1443,.T.);
#1443 = EDGE_CURVE('',#1444,#346,#1446,.T.);
#1444 = VERTEX_POINT('',#1445);
#1445 = CARTESIAN_POINT('',(22.275,235.11733012345,0.));
#1446 = LINE('',#1447,#1448);
#1447 = CARTESIAN_POINT('',(22.275,235.11733012345,0.));
#1448 = VECTOR('',#1449,1.);
#1449 = DIRECTION('',(0.,0.,1.));
#1450 = ORIENTED_EDGE('',*,*,#345,.T.);
#1451 = ORIENTED_EDGE('',*,*,#1443,.F.);
#1452 = ORIENTED_EDGE('',*,*,#1453,.F.);
#1453 = EDGE_CURVE('',#1444,#1444,#1454,.T.);
#1454 = CIRCLE('',#1455,2.);
#1455 = AXIS2_PLACEMENT_3D('',#1456,#1457,#1458);
#1456 = CARTESIAN_POINT('',(20.275,235.11733012345,0.));
#1457 = DIRECTION('',(0.,0.,1.));
#1458 = DIRECTION('',(1.,0.,0.));
#1459 = CYLINDRICAL_SURFACE('',#1460,2.);
#1460 = AXIS2_PLACEMENT_3D('',#1461,#1462,#1463);
#1461 = CARTESIAN_POINT('',(20.275,235.11733012345,0.));
#1462 = DIRECTION('',(-0.,-0.,-1.));
#1463 = DIRECTION('',(1.,0.,0.));
#1464 = ADVANCED_FACE('',(#1465),#1484,.F.);
#1465 = FACE_BOUND('',#1466,.T.);
#1466 = EDGE_LOOP('',(#1467,#1475,#1476,#1477));
#1467 = ORIENTED_EDGE('',*,*,#1468,.T.);
#1468 = EDGE_CURVE('',#1469,#357,#1471,.T.);
#1469 = VERTEX_POINT('',#1470);
#1470 = CARTESIAN_POINT('',(42.55,200.,0.));
#1471 = LINE('',#1472,#1473);
#1472 = CARTESIAN_POINT('',(42.55,200.,0.));
#1473 = VECTOR('',#1474,1.);
#1474 = DIRECTION('',(0.,0.,1.));
#1475 = ORIENTED_EDGE('',*,*,#356,.T.);
#1476 = ORIENTED_EDGE('',*,*,#1468,.F.);
#1477 = ORIENTED_EDGE('',*,*,#1478,.F.);
#1478 = EDGE_CURVE('',#1469,#1469,#1479,.T.);
#1479 = CIRCLE('',#1480,2.);
#1480 = AXIS2_PLACEMENT_3D('',#1481,#1482,#1483);
#1481 = CARTESIAN_POINT('',(40.55,200.,0.));
#1482 = DIRECTION('',(0.,0.,1.));
#1483 = DIRECTION('',(1.,0.,0.));
#1484 = CYLINDRICAL_SURFACE('',#1485,2.);
#1485 = AXIS2_PLACEMENT_3D('',#1486,#1487,#1488);
#1486 = CARTESIAN_POINT('',(40.55,200.,0.));
#1487 = DIRECTION('',(-0.,-0.,-1.));
#1488 = DIRECTION('',(1.,0.,0.));
#1489 = ADVANCED_FACE('',(#1490),#1509,.F.);
#1490 = FACE_BOUND('',#1491,.T.);
#1491 = EDGE_LOOP('',(#1492,#1500,#1501,#1502));
#1492 = ORIENTED_EDGE('',*,*,#1493,.T.);
#1493 = EDGE_CURVE('',#1494,#368,#1496,.T.);
#1494 = VERTEX_POINT('',#1495);
#1495 = CARTESIAN_POINT('',(-18.275,235.11733012345,0.));
#1496 = LINE('',#1497,#1498);
#1497 = CARTESIAN_POINT('',(-18.275,235.11733012345,0.));
#1498 = VECTOR('',#1499,1.);
#1499 = DIRECTION('',(0.,0.,1.));
#1500 = ORIENTED_EDGE('',*,*,#367,.T.);
#1501 = ORIENTED_EDGE('',*,*,#1493,.F.);
#1502 = ORIENTED_EDGE('',*,*,#1503,.F.);
#1503 = EDGE_CURVE('',#1494,#1494,#1504,.T.);
#1504 = CIRCLE('',#1505,2.);
#1505 = AXIS2_PLACEMENT_3D('',#1506,#1507,#1508);
#1506 = CARTESIAN_POINT('',(-20.275,235.11733012345,0.));
#1507 = DIRECTION('',(0.,0.,1.));
#1508 = DIRECTION('',(1.,0.,0.));
#1509 = CYLINDRICAL_SURFACE('',#1510,2.);
#1510 = AXIS2_PLACEMENT_3D('',#1511,#1512,#1513);
#1511 = CARTESIAN_POINT('',(-20.275,235.11733012345,0.));
#1512 = DIRECTION('',(-0.,-0.,-1.));
#1513 = DIRECTION('',(1.,0.,0.));
#1514 = ADVANCED_FACE('',(#1515),#1534,.F.);
#1515 = FACE_BOUND('',#1516,.T.);
#1516 = EDGE_LOOP('',(#1517,#1525,#1526,#1527));
#1517 = ORIENTED_EDGE('',*,*,#1518,.T.);
#1518 = EDGE_CURVE('',#1519,#379,#1521,.T.);
#1519 = VERTEX_POINT('',#1520);
#1520 = CARTESIAN_POINT('',(-38.55,200.,0.));
#1521 = LINE('',#1522,#1523);
#1522 = CARTESIAN_POINT('',(-38.55,200.,0.));
#1523 = VECTOR('',#1524,1.);
#1524 = DIRECTION('',(0.,0.,1.));
#1525 = ORIENTED_EDGE('',*,*,#378,.T.);
#1526 = ORIENTED_EDGE('',*,*,#1518,.F.);
#1527 = ORIENTED_EDGE('',*,*,#1528,.F.);
#1528 = EDGE_CURVE('',#1519,#1519,#1529,.T.);
#1529 = CIRCLE('',#1530,2.);
#1530 = AXIS2_PLACEMENT_3D('',#1531,#1532,#1533);
#1531 = CARTESIAN_POINT('',(-40.55,200.,0.));
#1532 = DIRECTION('',(0.,0.,1.));
#1533 = DIRECTION('',(1.,0.,0.));
#1534 = CYLINDRICAL_SURFACE('',#1535,2.);
#1535 = AXIS2_PLACEMENT_3D('',#1536,#1537,#1538);
#1536 = CARTESIAN_POINT('',(-40.55,200.,0.));
#1537 = DIRECTION('',(-0.,-0.,-1.));
#1538 = DIRECTION('',(1.,0.,0.));
#1539 = ADVANCED_FACE('',(#1540),#1559,.F.);
#1540 = FACE_BOUND('',#1541,.T.);
#1541 = EDGE_LOOP('',(#1542,#1550,#1551,#1552));
#1542 = ORIENTED_EDGE('',*,*,#1543,.T.);
#1543 = EDGE_CURVE('',#1544,#390,#1546,.T.);
#1544 = VERTEX_POINT('',#1545);
#1545 = CARTESIAN_POINT('',(22.275,-35.11733012345,0.));
#1546 = LINE('',#1547,#1548);
#1547 = CARTESIAN_POINT('',(22.275,-35.11733012345,0.));
#1548 = VECTOR('',#1549,1.);
#1549 = DIRECTION('',(0.,0.,1.));
#1550 = ORIENTED_EDGE('',*,*,#389,.T.);
#1551 = ORIENTED_EDGE('',*,*,#1543,.F.);
#1552 = ORIENTED_EDGE('',*,*,#1553,.F.);
#1553 = EDGE_CURVE('',#1544,#1544,#1554,.T.);
#1554 = CIRCLE('',#1555,2.);
#1555 = AXIS2_PLACEMENT_3D('',#1556,#1557,#1558);
#1556 = CARTESIAN_POINT('',(20.275,-35.11733012345,0.));
#1557 = DIRECTION('',(0.,0.,1.));
#1558 = DIRECTION('',(1.,0.,0.));
#1559 = CYLINDRICAL_SURFACE('',#1560,2.);
#1560 = AXIS2_PLACEMENT_3D('',#1561,#1562,#1563);
#1561 = CARTESIAN_POINT('',(20.275,-35.11733012345,0.));
#1562 = DIRECTION('',(-0.,-0.,-1.));
#1563 = DIRECTION('',(1.,0.,0.));
#1564 = ADVANCED_FACE('',(#1565),#1584,.F.);
#1565 = FACE_BOUND('',#1566,.T.);
#1566 = EDGE_LOOP('',(#1567,#1575,#1576,#1577));
#1567 = ORIENTED_EDGE('',*,*,#1568,.T.);
#1568 = EDGE_CURVE('',#1569,#401,#1571,.T.);
#1569 = VERTEX_POINT('',#1570);
#1570 = CARTESIAN_POINT('',(-18.275,-35.11733012345,0.));
#1571 = LINE('',#1572,#1573);
#1572 = CARTESIAN_POINT('',(-18.275,-35.11733012345,0.));
#1573 = VECTOR('',#1574,1.);
#1574 = DIRECTION('',(0.,0.,1.));
#1575 = ORIENTED_EDGE('',*,*,#400,.T.);
#1576 = ORIENTED_EDGE('',*,*,#1568,.F.);
#1577 = ORIENTED_EDGE('',*,*,#1578,.F.);
#1578 = EDGE_CURVE('',#1569,#1569,#1579,.T.);
#1579 = CIRCLE('',#1580,2.);
#1580 = AXIS2_PLACEMENT_3D('',#1581,#1582,#1583);
#1581 = CARTESIAN_POINT('',(-20.275,-35.11733012345,0.));
#1582 = DIRECTION('',(0.,0.,1.));
#1583 = DIRECTION('',(1.,0.,0.));
#1584 = CYLINDRICAL_SURFACE('',#1585,2.);
#1585 = AXIS2_PLACEMENT_3D('',#1586,#1587,#1588);
#1586 = CARTESIAN_POINT('',(-20.275,-35.11733012345,0.));
#1587 = DIRECTION('',(-0.,-0.,-1.));
#1588 = DIRECTION('',(1.,0.,0.));
#1589 = ADVANCED_FACE('',(#1590),#1609,.F.);
#1590 = FACE_BOUND('',#1591,.T.);
#1591 = EDGE_LOOP('',(#1592,#1600,#1601,#1602));
#1592 = ORIENTED_EDGE('',*,*,#1593,.T.);
#1593 = EDGE_CURVE('',#1594,#412,#1596,.T.);
#1594 = VERTEX_POINT('',#1595);
#1595 = CARTESIAN_POINT('',(-38.55,0.,0.));
#1596 = LINE('',#1597,#1598);
#1597 = CARTESIAN_POINT('',(-38.55,0.,0.));
#1598 = VECTOR('',#1599,1.);
#1599 = DIRECTION('',(0.,0.,1.));
#1600 = ORIENTED_EDGE('',*,*,#411,.T.);
#1601 = ORIENTED_EDGE('',*,*,#1593,.F.);
#1602 = ORIENTED_EDGE('',*,*,#1603,.F.);
#1603 = EDGE_CURVE('',#1594,#1594,#1604,.T.);
#1604 = CIRCLE('',#1605,2.);
#1605 = AXIS2_PLACEMENT_3D('',#1606,#1607,#1608);
#1606 = CARTESIAN_POINT('',(-40.55,0.,0.));
#1607 = DIRECTION('',(0.,0.,1.));
#1608 = DIRECTION('',(1.,0.,0.));
#1609 = CYLINDRICAL_SURFACE('',#1610,2.);
#1610 = AXIS2_PLACEMENT_3D('',#1611,#1612,#1613);
#1611 = CARTESIAN_POINT('',(-40.55,0.,0.));
#1612 = DIRECTION('',(-0.,-0.,-1.));
#1613 = DIRECTION('',(1.,0.,0.));
#1614 = ADVANCED_FACE('',(#1615),#1634,.F.);
#1615 = FACE_BOUND('',#1616,.T.);
#1616 = EDGE_LOOP('',(#1617,#1625,#1626,#1627));
#1617 = ORIENTED_EDGE('',*,*,#1618,.T.);
#1618 = EDGE_CURVE('',#1619,#423,#1621,.T.);
#1619 = VERTEX_POINT('',#1620);
#1620 = CARTESIAN_POINT('',(42.55,0.,0.));
#1621 = LINE('',#1622,#1623);
#1622 = CARTESIAN_POINT('',(42.55,0.,0.));
#1623 = VECTOR('',#1624,1.);
#1624 = DIRECTION('',(0.,0.,1.));
#1625 = ORIENTED_EDGE('',*,*,#422,.T.);
#1626 = ORIENTED_EDGE('',*,*,#1618,.F.);
#1627 = ORIENTED_EDGE('',*,*,#1628,.F.);
#1628 = EDGE_CURVE('',#1619,#1619,#1629,.T.);
#1629 = CIRCLE('',#1630,2.);
#1630 = AXIS2_PLACEMENT_3D('',#1631,#1632,#1633);
#1631 = CARTESIAN_POINT('',(40.55,0.,0.));
#1632 = DIRECTION('',(0.,0.,1.));
#1633 = DIRECTION('',(1.,0.,0.));
#1634 = CYLINDRICAL_SURFACE('',#1635,2.);
#1635 = AXIS2_PLACEMENT_3D('',#1636,#1637,#1638);
#1636 = CARTESIAN_POINT('',(40.55,0.,0.));
#1637 = DIRECTION('',(-0.,-0.,-1.));
#1638 = DIRECTION('',(1.,0.,0.));
#1639 = ADVANCED_FACE('',(#1640),#1665,.T.);
#1640 = FACE_BOUND('',#1641,.T.);
#1641 = EDGE_LOOP('',(#1642,#1652,#1658,#1659));
#1642 = ORIENTED_EDGE('',*,*,#1643,.F.);
#1643 = EDGE_CURVE('',#1644,#1646,#1648,.T.);
#1644 = VERTEX_POINT('',#1645);
#1645 = CARTESIAN_POINT('',(28.556624327026,202.5,0.));
#1646 = VERTEX_POINT('',#1647);
#1647 = CARTESIAN_POINT('',(16.443375672974,223.48076211353,0.));
#1648 = LINE('',#1649,#1650);
#1649 = CARTESIAN_POINT('',(30.,200.,0.));
#1650 = VECTOR('',#1651,1.);
#1651 = DIRECTION('',(-0.5,0.866025403784,0.));
#1652 = ORIENTED_EDGE('',*,*,#1653,.T.);
#1653 = EDGE_CURVE('',#1644,#434,#1654,.T.);
#1654 = LINE('',#1655,#1656);
#1655 = CARTESIAN_POINT('',(28.556624327026,202.5,4.225920108965E-16));
#1656 = VECTOR('',#1657,1.);
#1657 = DIRECTION('',(0.,0.,1.));
#1658 = ORIENTED_EDGE('',*,*,#433,.T.);
#1659 = ORIENTED_EDGE('',*,*,#1660,.F.);
#1660 = EDGE_CURVE('',#1646,#436,#1661,.T.);
#1661 = LINE('',#1662,#1663);
#1662 = CARTESIAN_POINT('',(16.443375672974,223.48076211353,0.));
#1663 = VECTOR('',#1664,1.);
#1664 = DIRECTION('',(0.,0.,1.));
#1665 = PLANE('',#1666);
#1666 = AXIS2_PLACEMENT_3D('',#1667,#1668,#1669);
#1667 = CARTESIAN_POINT('',(30.,200.,0.));
#1668 = DIRECTION('',(-0.866025403784,-0.5,0.));
#1669 = DIRECTION('',(-0.5,0.866025403784,0.));
#1670 = ADVANCED_FACE('',(#1671),#1690,.F.);
#1671 = FACE_BOUND('',#1672,.T.);
#1672 = EDGE_LOOP('',(#1673,#1682,#1688,#1689));
#1673 = ORIENTED_EDGE('',*,*,#1674,.T.);
#1674 = EDGE_CURVE('',#1644,#1675,#1677,.T.);
#1675 = VERTEX_POINT('',#1676);
#1676 = CARTESIAN_POINT('',(28.556624327026,197.5,-2.149719895353E-17));
#1677 = CIRCLE('',#1678,5.);
#1678 = AXIS2_PLACEMENT_3D('',#1679,#1680,#1681);
#1679 = CARTESIAN_POINT('',(24.226497308104,200.,0.));
#1680 = DIRECTION('',(-0.,-0.,-1.));
#1681 = DIRECTION('',(0.,-1.,0.));
#1682 = ORIENTED_EDGE('',*,*,#1683,.T.);
#1683 = EDGE_CURVE('',#1675,#444,#1684,.T.);
#1684 = LINE('',#1685,#1686);
#1685 = CARTESIAN_POINT('',(28.556624327026,197.5,4.225920108965E-16));
#1686 = VECTOR('',#1687,1.);
#1687 = DIRECTION('',(0.,0.,1.));
#1688 = ORIENTED_EDGE('',*,*,#443,.F.);
#1689 = ORIENTED_EDGE('',*,*,#1653,.F.);
#1690 = CYLINDRICAL_SURFACE('',#1691,5.);
#1691 = AXIS2_PLACEMENT_3D('',#1692,#1693,#1694);
#1692 = CARTESIAN_POINT('',(24.226497308104,200.,4.225920108965E-16));
#1693 = DIRECTION('',(0.,0.,1.));
#1694 = DIRECTION('',(0.866025403784,0.5,0.));
#1695 = ADVANCED_FACE('',(#1696),#1715,.F.);
#1696 = FACE_BOUND('',#1697,.F.);
#1697 = EDGE_LOOP('',(#1698,#1707,#1713,#1714));
#1698 = ORIENTED_EDGE('',*,*,#1699,.T.);
#1699 = EDGE_CURVE('',#1646,#1700,#1702,.T.);
#1700 = VERTEX_POINT('',#1701);
#1701 = CARTESIAN_POINT('',(12.113248654052,225.98076211353,0.));
#1702 = CIRCLE('',#1703,5.);
#1703 = AXIS2_PLACEMENT_3D('',#1704,#1705,#1706);
#1704 = CARTESIAN_POINT('',(12.113248654052,220.98076211353,0.));
#1705 = DIRECTION('',(-0.,0.,1.));
#1706 = DIRECTION('',(0.,-1.,0.));
#1707 = ORIENTED_EDGE('',*,*,#1708,.T.);
#1708 = EDGE_CURVE('',#1700,#521,#1709,.T.);
#1709 = LINE('',#1710,#1711);
#1710 = CARTESIAN_POINT('',(12.113248654052,225.98076211353,0.));
#1711 = VECTOR('',#1712,1.);
#1712 = DIRECTION('',(0.,0.,1.));
#1713 = ORIENTED_EDGE('',*,*,#528,.F.);
#1714 = ORIENTED_EDGE('',*,*,#1660,.F.);
#1715 = CYLINDRICAL_SURFACE('',#1716,5.);
#1716 = AXIS2_PLACEMENT_3D('',#1717,#1718,#1719);
#1717 = CARTESIAN_POINT('',(12.113248654052,220.98076211353,0.));
#1718 = DIRECTION('',(0.,0.,1.));
#1719 = DIRECTION('',(0.866025403784,0.5,0.));
#1720 = ADVANCED_FACE('',(#1721),#1739,.T.);
#1721 = FACE_BOUND('',#1722,.T.);
#1722 = EDGE_LOOP('',(#1723,#1724,#1725,#1733));
#1723 = ORIENTED_EDGE('',*,*,#452,.T.);
#1724 = ORIENTED_EDGE('',*,*,#1683,.F.);
#1725 = ORIENTED_EDGE('',*,*,#1726,.F.);
#1726 = EDGE_CURVE('',#1727,#1675,#1729,.T.);
#1727 = VERTEX_POINT('',#1728);
#1728 = CARTESIAN_POINT('',(8.943375672974,163.5288568297,
    -2.149719895353E-17));
#1729 = LINE('',#1730,#1731);
#1730 = CARTESIAN_POINT('',(7.5,161.0288568297,0.));
#1731 = VECTOR('',#1732,1.);
#1732 = DIRECTION('',(0.5,0.866025403784,0.));
#1733 = ORIENTED_EDGE('',*,*,#1734,.T.);
#1734 = EDGE_CURVE('',#1727,#453,#1735,.T.);
#1735 = LINE('',#1736,#1737);
#1736 = CARTESIAN_POINT('',(8.943375672974,163.5288568297,
    4.225920108965E-16));
#1737 = VECTOR('',#1738,1.);
#1738 = DIRECTION('',(0.,0.,1.));
#1739 = PLANE('',#1740);
#1740 = AXIS2_PLACEMENT_3D('',#1741,#1742,#1743);
#1741 = CARTESIAN_POINT('',(18.75,180.51442841485,1.2));
#1742 = DIRECTION('',(-0.866025403784,0.5,1.26777603269E-16));
#1743 = DIRECTION('',(-0.5,-0.866025403784,0.));
#1744 = ADVANCED_FACE('',(#1745),#1763,.T.);
#1745 = FACE_BOUND('',#1746,.T.);
#1746 = EDGE_LOOP('',(#1747,#1755,#1756,#1757));
#1747 = ORIENTED_EDGE('',*,*,#1748,.F.);
#1748 = EDGE_CURVE('',#1700,#1749,#1751,.T.);
#1749 = VERTEX_POINT('',#1750);
#1750 = CARTESIAN_POINT('',(-12.11324865405,225.98076211353,0.));
#1751 = LINE('',#1752,#1753);
#1752 = CARTESIAN_POINT('',(15.,225.98076211353,0.));
#1753 = VECTOR('',#1754,1.);
#1754 = DIRECTION('',(-1.,0.,0.));
#1755 = ORIENTED_EDGE('',*,*,#1708,.T.);
#1756 = ORIENTED_EDGE('',*,*,#520,.T.);
#1757 = ORIENTED_EDGE('',*,*,#1758,.F.);
#1758 = EDGE_CURVE('',#1749,#512,#1759,.T.);
#1759 = LINE('',#1760,#1761);
#1760 = CARTESIAN_POINT('',(-12.11324865405,225.98076211353,0.));
#1761 = VECTOR('',#1762,1.);
#1762 = DIRECTION('',(0.,0.,1.));
#1763 = PLANE('',#1764);
#1764 = AXIS2_PLACEMENT_3D('',#1765,#1766,#1767);
#1765 = CARTESIAN_POINT('',(15.,225.98076211353,0.));
#1766 = DIRECTION('',(0.,-1.,0.));
#1767 = DIRECTION('',(-1.,0.,0.));
#1768 = ADVANCED_FACE('',(#1769),#1788,.F.);
#1769 = FACE_BOUND('',#1770,.F.);
#1770 = EDGE_LOOP('',(#1771,#1780,#1781,#1782));
#1771 = ORIENTED_EDGE('',*,*,#1772,.T.);
#1772 = EDGE_CURVE('',#1773,#1727,#1775,.T.);
#1773 = VERTEX_POINT('',#1774);
#1774 = CARTESIAN_POINT('',(4.613248654052,161.0288568297,0.));
#1775 = CIRCLE('',#1776,5.);
#1776 = AXIS2_PLACEMENT_3D('',#1777,#1778,#1779);
#1777 = CARTESIAN_POINT('',(4.613248654052,166.0288568297,0.));
#1778 = DIRECTION('',(-0.,0.,1.));
#1779 = DIRECTION('',(0.,-1.,0.));
#1780 = ORIENTED_EDGE('',*,*,#1734,.T.);
#1781 = ORIENTED_EDGE('',*,*,#460,.F.);
#1782 = ORIENTED_EDGE('',*,*,#1783,.F.);
#1783 = EDGE_CURVE('',#1773,#461,#1784,.T.);
#1784 = LINE('',#1785,#1786);
#1785 = CARTESIAN_POINT('',(4.613248654052,161.0288568297,
    4.225920108965E-16));
#1786 = VECTOR('',#1787,1.);
#1787 = DIRECTION('',(0.,0.,1.));
#1788 = CYLINDRICAL_SURFACE('',#1789,5.);
#1789 = AXIS2_PLACEMENT_3D('',#1790,#1791,#1792);
#1790 = CARTESIAN_POINT('',(4.613248654052,166.0288568297,
    4.225920108965E-16));
#1791 = DIRECTION('',(0.,0.,1.));
#1792 = DIRECTION('',(0.,-1.,0.));
#1793 = ADVANCED_FACE('',(#1794),#1813,.F.);
#1794 = FACE_BOUND('',#1795,.F.);
#1795 = EDGE_LOOP('',(#1796,#1805,#1811,#1812));
#1796 = ORIENTED_EDGE('',*,*,#1797,.T.);
#1797 = EDGE_CURVE('',#1749,#1798,#1800,.T.);
#1798 = VERTEX_POINT('',#1799);
#1799 = CARTESIAN_POINT('',(-16.44337567297,223.48076211353,0.));
#1800 = CIRCLE('',#1801,5.);
#1801 = AXIS2_PLACEMENT_3D('',#1802,#1803,#1804);
#1802 = CARTESIAN_POINT('',(-12.11324865405,220.98076211353,0.));
#1803 = DIRECTION('',(-0.,0.,1.));
#1804 = DIRECTION('',(0.,-1.,0.));
#1805 = ORIENTED_EDGE('',*,*,#1806,.T.);
#1806 = EDGE_CURVE('',#1798,#504,#1807,.T.);
#1807 = LINE('',#1808,#1809);
#1808 = CARTESIAN_POINT('',(-16.44337567297,223.48076211353,0.));
#1809 = VECTOR('',#1810,1.);
#1810 = DIRECTION('',(0.,0.,1.));
#1811 = ORIENTED_EDGE('',*,*,#511,.F.);
#1812 = ORIENTED_EDGE('',*,*,#1758,.F.);
#1813 = CYLINDRICAL_SURFACE('',#1814,5.);
#1814 = AXIS2_PLACEMENT_3D('',#1815,#1816,#1817);
#1815 = CARTESIAN_POINT('',(-12.11324865405,220.98076211353,0.));
#1816 = DIRECTION('',(0.,0.,1.));
#1817 = DIRECTION('',(0.,1.,0.));
#1818 = ADVANCED_FACE('',(#1819),#1837,.T.);
#1819 = FACE_BOUND('',#1820,.T.);
#1820 = EDGE_LOOP('',(#1821,#1829,#1835,#1836));
#1821 = ORIENTED_EDGE('',*,*,#1822,.F.);
#1822 = EDGE_CURVE('',#1823,#1773,#1825,.T.);
#1823 = VERTEX_POINT('',#1824);
#1824 = CARTESIAN_POINT('',(-4.613248654052,161.0288568297,0.));
#1825 = LINE('',#1826,#1827);
#1826 = CARTESIAN_POINT('',(-7.5,161.0288568297,0.));
#1827 = VECTOR('',#1828,1.);
#1828 = DIRECTION('',(1.,0.,0.));
#1829 = ORIENTED_EDGE('',*,*,#1830,.T.);
#1830 = EDGE_CURVE('',#1823,#470,#1831,.T.);
#1831 = LINE('',#1832,#1833);
#1832 = CARTESIAN_POINT('',(-4.613248654052,161.0288568297,
    -6.07039488929E-16));
#1833 = VECTOR('',#1834,1.);
#1834 = DIRECTION('',(0.,0.,1.));
#1835 = ORIENTED_EDGE('',*,*,#469,.T.);
#1836 = ORIENTED_EDGE('',*,*,#1783,.F.);
#1837 = PLANE('',#1838);
#1838 = AXIS2_PLACEMENT_3D('',#1839,#1840,#1841);
#1839 = CARTESIAN_POINT('',(-7.5,161.0288568297,0.));
#1840 = DIRECTION('',(0.,1.,0.));
#1841 = DIRECTION('',(1.,0.,0.));
#1842 = ADVANCED_FACE('',(#1843),#1861,.T.);
#1843 = FACE_BOUND('',#1844,.T.);
#1844 = EDGE_LOOP('',(#1845,#1853,#1854,#1855));
#1845 = ORIENTED_EDGE('',*,*,#1846,.F.);
#1846 = EDGE_CURVE('',#1798,#1847,#1849,.T.);
#1847 = VERTEX_POINT('',#1848);
#1848 = CARTESIAN_POINT('',(-28.55662432702,202.5,0.));
#1849 = LINE('',#1850,#1851);
#1850 = CARTESIAN_POINT('',(-15.,225.98076211353,0.));
#1851 = VECTOR('',#1852,1.);
#1852 = DIRECTION('',(-0.5,-0.866025403784,0.));
#1853 = ORIENTED_EDGE('',*,*,#1806,.T.);
#1854 = ORIENTED_EDGE('',*,*,#503,.T.);
#1855 = ORIENTED_EDGE('',*,*,#1856,.F.);
#1856 = EDGE_CURVE('',#1847,#495,#1857,.T.);
#1857 = LINE('',#1858,#1859);
#1858 = CARTESIAN_POINT('',(-28.55662432702,202.5,-6.07039488929E-16));
#1859 = VECTOR('',#1860,1.);
#1860 = DIRECTION('',(0.,0.,1.));
#1861 = PLANE('',#1862);
#1862 = AXIS2_PLACEMENT_3D('',#1863,#1864,#1865);
#1863 = CARTESIAN_POINT('',(-15.,225.98076211353,0.));
#1864 = DIRECTION('',(0.866025403784,-0.5,0.));
#1865 = DIRECTION('',(-0.5,-0.866025403784,0.));
#1866 = ADVANCED_FACE('',(#1867),#1886,.F.);
#1867 = FACE_BOUND('',#1868,.F.);
#1868 = EDGE_LOOP('',(#1869,#1878,#1879,#1880));
#1869 = ORIENTED_EDGE('',*,*,#1870,.T.);
#1870 = EDGE_CURVE('',#1871,#1823,#1873,.T.);
#1871 = VERTEX_POINT('',#1872);
#1872 = CARTESIAN_POINT('',(-8.943375672974,163.5288568297,
    5.909432584608E-17));
#1873 = CIRCLE('',#1874,5.);
#1874 = AXIS2_PLACEMENT_3D('',#1875,#1876,#1877);
#1875 = CARTESIAN_POINT('',(-4.613248654052,166.0288568297,0.));
#1876 = DIRECTION('',(-0.,0.,1.));
#1877 = DIRECTION('',(0.,-1.,0.));
#1878 = ORIENTED_EDGE('',*,*,#1830,.T.);
#1879 = ORIENTED_EDGE('',*,*,#477,.F.);
#1880 = ORIENTED_EDGE('',*,*,#1881,.F.);
#1881 = EDGE_CURVE('',#1871,#478,#1882,.T.);
#1882 = LINE('',#1883,#1884);
#1883 = CARTESIAN_POINT('',(-8.943375672974,163.5288568297,
    -6.07039488929E-16));
#1884 = VECTOR('',#1885,1.);
#1885 = DIRECTION('',(0.,0.,1.));
#1886 = CYLINDRICAL_SURFACE('',#1887,5.);
#1887 = AXIS2_PLACEMENT_3D('',#1888,#1889,#1890);
#1888 = CARTESIAN_POINT('',(-4.613248654052,166.0288568297,
    -6.07039488929E-16));
#1889 = DIRECTION('',(0.,0.,1.));
#1890 = DIRECTION('',(-0.866025403784,-0.5,0.));
#1891 = ADVANCED_FACE('',(#1892),#1911,.F.);
#1892 = FACE_BOUND('',#1893,.F.);
#1893 = EDGE_LOOP('',(#1894,#1903,#1909,#1910));
#1894 = ORIENTED_EDGE('',*,*,#1895,.T.);
#1895 = EDGE_CURVE('',#1847,#1896,#1898,.T.);
#1896 = VERTEX_POINT('',#1897);
#1897 = CARTESIAN_POINT('',(-28.55662432702,197.5,5.909432584608E-17));
#1898 = CIRCLE('',#1899,5.);
#1899 = AXIS2_PLACEMENT_3D('',#1900,#1901,#1902);
#1900 = CARTESIAN_POINT('',(-24.2264973081,200.,0.));
#1901 = DIRECTION('',(-0.,0.,1.));
#1902 = DIRECTION('',(0.,-1.,0.));
#1903 = ORIENTED_EDGE('',*,*,#1904,.T.);
#1904 = EDGE_CURVE('',#1896,#487,#1905,.T.);
#1905 = LINE('',#1906,#1907);
#1906 = CARTESIAN_POINT('',(-28.55662432702,197.5,-6.07039488929E-16));
#1907 = VECTOR('',#1908,1.);
#1908 = DIRECTION('',(0.,0.,1.));
#1909 = ORIENTED_EDGE('',*,*,#494,.F.);
#1910 = ORIENTED_EDGE('',*,*,#1856,.F.);
#1911 = CYLINDRICAL_SURFACE('',#1912,5.);
#1912 = AXIS2_PLACEMENT_3D('',#1913,#1914,#1915);
#1913 = CARTESIAN_POINT('',(-24.2264973081,200.,-6.07039488929E-16));
#1914 = DIRECTION('',(0.,0.,1.));
#1915 = DIRECTION('',(-0.866025403784,0.5,0.));
#1916 = ADVANCED_FACE('',(#1917),#1928,.T.);
#1917 = FACE_BOUND('',#1918,.T.);
#1918 = EDGE_LOOP('',(#1919,#1920,#1921,#1927));
#1919 = ORIENTED_EDGE('',*,*,#486,.T.);
#1920 = ORIENTED_EDGE('',*,*,#1881,.F.);
#1921 = ORIENTED_EDGE('',*,*,#1922,.F.);
#1922 = EDGE_CURVE('',#1896,#1871,#1923,.T.);
#1923 = LINE('',#1924,#1925);
#1924 = CARTESIAN_POINT('',(-30.,200.,0.));
#1925 = VECTOR('',#1926,1.);
#1926 = DIRECTION('',(0.5,-0.866025403784,0.));
#1927 = ORIENTED_EDGE('',*,*,#1904,.T.);
#1928 = PLANE('',#1929);
#1929 = AXIS2_PLACEMENT_3D('',#1930,#1931,#1932);
#1930 = CARTESIAN_POINT('',(-18.75,180.51442841485,1.2));
#1931 = DIRECTION('',(0.866025403784,0.5,-1.821118466787E-16));
#1932 = DIRECTION('',(-0.5,0.866025403784,-1.232595164408E-32));
#1933 = ADVANCED_FACE('',(#1934,#1948,#1969,#1972,#1975,#1978),#1981,.F.
  );
#1934 = FACE_BOUND('',#1935,.F.);
#1935 = EDGE_LOOP('',(#1936,#1937,#1938,#1939,#1940,#1941,#1942,#1943,
    #1944,#1945,#1946,#1947));
#1936 = ORIENTED_EDGE('',*,*,#648,.F.);
#1937 = ORIENTED_EDGE('',*,*,#599,.F.);
#1938 = ORIENTED_EDGE('',*,*,#543,.T.);
#1939 = ORIENTED_EDGE('',*,*,#574,.T.);
#1940 = ORIENTED_EDGE('',*,*,#624,.T.);
#1941 = ORIENTED_EDGE('',*,*,#672,.F.);
#1942 = ORIENTED_EDGE('',*,*,#724,.F.);
#1943 = ORIENTED_EDGE('',*,*,#770,.F.);
#1944 = ORIENTED_EDGE('',*,*,#820,.F.);
#1945 = ORIENTED_EDGE('',*,*,#795,.F.);
#1946 = ORIENTED_EDGE('',*,*,#746,.F.);
#1947 = ORIENTED_EDGE('',*,*,#697,.F.);
#1948 = FACE_BOUND('',#1949,.F.);
#1949 = EDGE_LOOP('',(#1950,#1956,#1957,#1958,#1959,#1960,#1961,#1962,
    #1963,#1964,#1965,#1966,#1967,#1968));
#1950 = ORIENTED_EDGE('',*,*,#1951,.F.);
#1951 = EDGE_CURVE('',#895,#1182,#1952,.T.);
#1952 = LINE('',#1953,#1954);
#1953 = CARTESIAN_POINT('',(-15.5,51.15321248259,0.));
#1954 = VECTOR('',#1955,1.);
#1955 = DIRECTION('',(1.,0.,0.));
#1956 = ORIENTED_EDGE('',*,*,#918,.T.);
#1957 = ORIENTED_EDGE('',*,*,#926,.F.);
#1958 = ORIENTED_EDGE('',*,*,#960,.T.);
#1959 = ORIENTED_EDGE('',*,*,#985,.F.);
#1960 = ORIENTED_EDGE('',*,*,#1009,.T.);
#1961 = ORIENTED_EDGE('',*,*,#1034,.F.);
#1962 = ORIENTED_EDGE('',*,*,#1058,.F.);
#1963 = ORIENTED_EDGE('',*,*,#1083,.T.);
#1964 = ORIENTED_EDGE('',*,*,#1108,.F.);
#1965 = ORIENTED_EDGE('',*,*,#1133,.F.);
#1966 = ORIENTED_EDGE('',*,*,#1157,.T.);
#1967 = ORIENTED_EDGE('',*,*,#1173,.F.);
#1968 = ORIENTED_EDGE('',*,*,#1181,.F.);
#1969 = FACE_BOUND('',#1970,.F.);
#1970 = EDGE_LOOP('',(#1971));
#1971 = ORIENTED_EDGE('',*,*,#1603,.F.);
#1972 = FACE_BOUND('',#1973,.F.);
#1973 = EDGE_LOOP('',(#1974));
#1974 = ORIENTED_EDGE('',*,*,#1578,.F.);
#1975 = FACE_BOUND('',#1976,.F.);
#1976 = EDGE_LOOP('',(#1977));
#1977 = ORIENTED_EDGE('',*,*,#1553,.F.);
#1978 = FACE_BOUND('',#1979,.F.);
#1979 = EDGE_LOOP('',(#1980));
#1980 = ORIENTED_EDGE('',*,*,#1628,.F.);
#1981 = PLANE('',#1982);
#1982 = AXIS2_PLACEMENT_3D('',#1983,#1984,#1985);
#1983 = CARTESIAN_POINT('',(1.470903410352E-04,99.999254197285,0.));
#1984 = DIRECTION('',(0.,0.,1.));
#1985 = DIRECTION('',(1.,0.,0.));
#1986 = ADVANCED_FACE('',(#1987,#2001,#2020,#2023,#2026,#2029),#2032,.F.
  );
#1987 = FACE_BOUND('',#1988,.F.);
#1988 = EDGE_LOOP('',(#1989,#1990,#1991,#1992,#1993,#1994,#1995,#1996,
    #1997,#1998,#1999,#2000));
#1989 = ORIENTED_EDGE('',*,*,#1643,.F.);
#1990 = ORIENTED_EDGE('',*,*,#1674,.T.);
#1991 = ORIENTED_EDGE('',*,*,#1726,.F.);
#1992 = ORIENTED_EDGE('',*,*,#1772,.F.);
#1993 = ORIENTED_EDGE('',*,*,#1822,.F.);
#1994 = ORIENTED_EDGE('',*,*,#1870,.F.);
#1995 = ORIENTED_EDGE('',*,*,#1922,.F.);
#1996 = ORIENTED_EDGE('',*,*,#1895,.F.);
#1997 = ORIENTED_EDGE('',*,*,#1846,.F.);
#1998 = ORIENTED_EDGE('',*,*,#1797,.F.);
#1999 = ORIENTED_EDGE('',*,*,#1748,.F.);
#2000 = ORIENTED_EDGE('',*,*,#1699,.F.);
#2001 = FACE_BOUND('',#2002,.F.);
#2002 = EDGE_LOOP('',(#2003,#2004,#2005,#2011,#2012,#2013,#2014,#2015,
    #2016,#2017,#2018,#2019));
#2003 = ORIENTED_EDGE('',*,*,#855,.F.);
#2004 = ORIENTED_EDGE('',*,*,#863,.T.);
#2005 = ORIENTED_EDGE('',*,*,#2006,.T.);
#2006 = EDGE_CURVE('',#838,#1206,#2007,.T.);
#2007 = LINE('',#2008,#2009);
#2008 = CARTESIAN_POINT('',(-15.5,148.84678751741,0.));
#2009 = VECTOR('',#2010,1.);
#2010 = DIRECTION('',(1.,0.,0.));
#2011 = ORIENTED_EDGE('',*,*,#1246,.T.);
#2012 = ORIENTED_EDGE('',*,*,#1254,.F.);
#2013 = ORIENTED_EDGE('',*,*,#1288,.T.);
#2014 = ORIENTED_EDGE('',*,*,#1313,.F.);
#2015 = ORIENTED_EDGE('',*,*,#1337,.T.);
#2016 = ORIENTED_EDGE('',*,*,#1362,.F.);
#2017 = ORIENTED_EDGE('',*,*,#1386,.T.);
#2018 = ORIENTED_EDGE('',*,*,#1411,.F.);
#2019 = ORIENTED_EDGE('',*,*,#1428,.T.);
#2020 = FACE_BOUND('',#2021,.F.);
#2021 = EDGE_LOOP('',(#2022));
#2022 = ORIENTED_EDGE('',*,*,#1528,.F.);
#2023 = FACE_BOUND('',#2024,.F.);
#2024 = EDGE_LOOP('',(#2025));
#2025 = ORIENTED_EDGE('',*,*,#1503,.F.);
#2026 = FACE_BOUND('',#2027,.F.);
#2027 = EDGE_LOOP('',(#2028));
#2028 = ORIENTED_EDGE('',*,*,#1453,.F.);
#2029 = FACE_BOUND('',#2030,.F.);
#2030 = EDGE_LOOP('',(#2031));
#2031 = ORIENTED_EDGE('',*,*,#1478,.F.);
#2032 = PLANE('',#2033);
#2033 = AXIS2_PLACEMENT_3D('',#2034,#2035,#2036);
#2034 = CARTESIAN_POINT('',(1.470903410352E-04,99.999254197285,0.));
#2035 = DIRECTION('',(0.,0.,1.));
#2036 = DIRECTION('',(1.,0.,0.));
#2037 = ADVANCED_FACE('',(#2038),#2081,.F.);
#2038 = FACE_BOUND('',#2039,.F.);
#2039 = EDGE_LOOP('',(#2040,#2041,#2042,#2050,#2058,#2066,#2074,#2080));
#2040 = ORIENTED_EDGE('',*,*,#2006,.F.);
#2041 = ORIENTED_EDGE('',*,*,#878,.T.);
#2042 = ORIENTED_EDGE('',*,*,#2043,.T.);
#2043 = EDGE_CURVE('',#879,#2044,#2046,.T.);
#2044 = VERTEX_POINT('',#2045);
#2045 = CARTESIAN_POINT('',(-13.1,148.84678751741,-13.));
#2046 = LINE('',#2047,#2048);
#2047 = CARTESIAN_POINT('',(-15.5,148.84678751741,-13.));
#2048 = VECTOR('',#2049,1.);
#2049 = DIRECTION('',(1.,0.,0.));
#2050 = ORIENTED_EDGE('',*,*,#2051,.T.);
#2051 = EDGE_CURVE('',#2044,#2052,#2054,.T.);
#2052 = VERTEX_POINT('',#2053);
#2053 = CARTESIAN_POINT('',(-8.732357188806,148.84678751741,-1.));
#2054 = LINE('',#2055,#2056);
#2055 = CARTESIAN_POINT('',(-11.15131360264,148.84678751741,
    -7.646028125675));
#2056 = VECTOR('',#2057,1.);
#2057 = DIRECTION('',(0.342020143326,0.,0.939692620786));
#2058 = ORIENTED_EDGE('',*,*,#2059,.T.);
#2059 = EDGE_CURVE('',#2052,#2060,#2062,.T.);
#2060 = VERTEX_POINT('',#2061);
#2061 = CARTESIAN_POINT('',(8.732357188806,148.84678751741,-1.));
#2062 = LINE('',#2063,#2064);
#2063 = CARTESIAN_POINT('',(-12.1161785944,148.84678751741,-1.));
#2064 = VECTOR('',#2065,1.);
#2065 = DIRECTION('',(1.,0.,-5.085559377019E-17));
#2066 = ORIENTED_EDGE('',*,*,#2067,.T.);
#2067 = EDGE_CURVE('',#2060,#2068,#2070,.T.);
#2068 = VERTEX_POINT('',#2069);
#2069 = CARTESIAN_POINT('',(13.1,148.84678751741,-13.));
#2070 = LINE('',#2071,#2072);
#2071 = CARTESIAN_POINT('',(7.154336631222,148.84678751741,
    3.335575849395));
#2072 = VECTOR('',#2073,1.);
#2073 = DIRECTION('',(0.342020143326,0.,-0.939692620786));
#2074 = ORIENTED_EDGE('',*,*,#2075,.T.);
#2075 = EDGE_CURVE('',#2068,#1224,#2076,.T.);
#2076 = LINE('',#2077,#2078);
#2077 = CARTESIAN_POINT('',(-15.5,148.84678751741,-13.));
#2078 = VECTOR('',#2079,1.);
#2079 = DIRECTION('',(1.,0.,0.));
#2080 = ORIENTED_EDGE('',*,*,#1231,.F.);
#2081 = PLANE('',#2082);
#2082 = AXIS2_PLACEMENT_3D('',#2083,#2084,#2085);
#2083 = CARTESIAN_POINT('',(-15.5,148.84678751741,0.));
#2084 = DIRECTION('',(0.,-1.,0.));
#2085 = DIRECTION('',(1.,0.,0.));
#2086 = ADVANCED_FACE('',(#2087),#2105,.F.);
#2087 = FACE_BOUND('',#2088,.F.);
#2088 = EDGE_LOOP('',(#2089,#2090,#2091,#2099));
#2089 = ORIENTED_EDGE('',*,*,#2043,.F.);
#2090 = ORIENTED_EDGE('',*,*,#886,.T.);
#2091 = ORIENTED_EDGE('',*,*,#2092,.T.);
#2092 = EDGE_CURVE('',#887,#2093,#2095,.T.);
#2093 = VERTEX_POINT('',#2094);
#2094 = CARTESIAN_POINT('',(-13.1,51.15321248259,-13.));
#2095 = LINE('',#2096,#2097);
#2096 = CARTESIAN_POINT('',(-15.5,51.15321248259,-13.));
#2097 = VECTOR('',#2098,1.);
#2098 = DIRECTION('',(1.,0.,0.));
#2099 = ORIENTED_EDGE('',*,*,#2100,.T.);
#2100 = EDGE_CURVE('',#2093,#2044,#2101,.T.);
#2101 = LINE('',#2102,#2103);
#2102 = CARTESIAN_POINT('',(-13.1,51.15321248259,-13.));
#2103 = VECTOR('',#2104,1.);
#2104 = DIRECTION('',(0.,1.,-2.22044604925E-16));
#2105 = PLANE('',#2106);
#2106 = AXIS2_PLACEMENT_3D('',#2107,#2108,#2109);
#2107 = CARTESIAN_POINT('',(0.,100.,-13.));
#2108 = DIRECTION('',(0.,0.,1.));
#2109 = DIRECTION('',(1.,0.,0.));
#2110 = ADVANCED_FACE('',(#2111),#2147,.T.);
#2111 = FACE_BOUND('',#2112,.T.);
#2112 = EDGE_LOOP('',(#2113,#2114,#2115,#2116,#2124,#2132,#2140,#2146));
#2113 = ORIENTED_EDGE('',*,*,#1951,.F.);
#2114 = ORIENTED_EDGE('',*,*,#894,.T.);
#2115 = ORIENTED_EDGE('',*,*,#2092,.T.);
#2116 = ORIENTED_EDGE('',*,*,#2117,.T.);
#2117 = EDGE_CURVE('',#2093,#2118,#2120,.T.);
#2118 = VERTEX_POINT('',#2119);
#2119 = CARTESIAN_POINT('',(-8.732357188806,51.15321248259,-1.));
#2120 = LINE('',#2121,#2122);
#2121 = CARTESIAN_POINT('',(-13.1,51.15321248259,-13.));
#2122 = VECTOR('',#2123,1.);
#2123 = DIRECTION('',(0.342020143326,2.086536767334E-16,0.939692620786)
  );
#2124 = ORIENTED_EDGE('',*,*,#2125,.T.);
#2125 = EDGE_CURVE('',#2118,#2126,#2128,.T.);
#2126 = VERTEX_POINT('',#2127);
#2127 = CARTESIAN_POINT('',(8.732357188806,51.15321248259,-1.));
#2128 = LINE('',#2129,#2130);
#2129 = CARTESIAN_POINT('',(-8.732357188806,51.15321248259,-1.));
#2130 = VECTOR('',#2131,1.);
#2131 = DIRECTION('',(1.,-1.129221022693E-32,-5.085559377019E-17));
#2132 = ORIENTED_EDGE('',*,*,#2133,.T.);
#2133 = EDGE_CURVE('',#2126,#2134,#2136,.T.);
#2134 = VERTEX_POINT('',#2135);
#2135 = CARTESIAN_POINT('',(13.1,51.15321248259,-13.));
#2136 = LINE('',#2137,#2138);
#2137 = CARTESIAN_POINT('',(8.732357188806,51.15321248259,-1.));
#2138 = VECTOR('',#2139,1.);
#2139 = DIRECTION('',(0.342020143326,-2.086536767334E-16,-0.939692620786
    ));
#2140 = ORIENTED_EDGE('',*,*,#2141,.T.);
#2141 = EDGE_CURVE('',#2134,#1216,#2142,.T.);
#2142 = LINE('',#2143,#2144);
#2143 = CARTESIAN_POINT('',(-15.5,51.15321248259,-13.));
#2144 = VECTOR('',#2145,1.);
#2145 = DIRECTION('',(1.,0.,0.));
#2146 = ORIENTED_EDGE('',*,*,#1215,.F.);
#2147 = PLANE('',#2148);
#2148 = AXIS2_PLACEMENT_3D('',#2149,#2150,#2151);
#2149 = CARTESIAN_POINT('',(-15.5,51.15321248259,0.));
#2150 = DIRECTION('',(0.,-1.,0.));
#2151 = DIRECTION('',(1.,0.,0.));
#2152 = ADVANCED_FACE('',(#2153),#2164,.F.);
#2153 = FACE_BOUND('',#2154,.F.);
#2154 = EDGE_LOOP('',(#2155,#2156,#2162,#2163));
#2155 = ORIENTED_EDGE('',*,*,#2075,.F.);
#2156 = ORIENTED_EDGE('',*,*,#2157,.F.);
#2157 = EDGE_CURVE('',#2134,#2068,#2158,.T.);
#2158 = LINE('',#2159,#2160);
#2159 = CARTESIAN_POINT('',(13.1,51.15321248259,-13.));
#2160 = VECTOR('',#2161,1.);
#2161 = DIRECTION('',(0.,1.,-2.22044604925E-16));
#2162 = ORIENTED_EDGE('',*,*,#2141,.T.);
#2163 = ORIENTED_EDGE('',*,*,#1223,.F.);
#2164 = PLANE('',#2165);
#2165 = AXIS2_PLACEMENT_3D('',#2166,#2167,#2168);
#2166 = CARTESIAN_POINT('',(0.,100.,-13.));
#2167 = DIRECTION('',(0.,0.,1.));
#2168 = DIRECTION('',(1.,0.,0.));
#2169 = ADVANCED_FACE('',(#2170),#2181,.T.);
#2170 = FACE_BOUND('',#2171,.T.);
#2171 = EDGE_LOOP('',(#2172,#2173,#2179,#2180));
#2172 = ORIENTED_EDGE('',*,*,#2133,.F.);
#2173 = ORIENTED_EDGE('',*,*,#2174,.T.);
#2174 = EDGE_CURVE('',#2126,#2060,#2175,.T.);
#2175 = LINE('',#2176,#2177);
#2176 = CARTESIAN_POINT('',(8.732357188806,51.15321248259,-1.));
#2177 = VECTOR('',#2178,1.);
#2178 = DIRECTION('',(0.,1.,-2.22044604925E-16));
#2179 = ORIENTED_EDGE('',*,*,#2067,.T.);
#2180 = ORIENTED_EDGE('',*,*,#2157,.F.);
#2181 = PLANE('',#2182);
#2182 = AXIS2_PLACEMENT_3D('',#2183,#2184,#2185);
#2183 = CARTESIAN_POINT('',(8.732357188806,51.15321248259,-1.));
#2184 = DIRECTION('',(-0.939692620786,-7.594372760115E-17,
    -0.342020143326));
#2185 = DIRECTION('',(0.342020143326,-2.086536767334E-16,-0.939692620786
    ));
#2186 = ADVANCED_FACE('',(#2187),#2198,.T.);
#2187 = FACE_BOUND('',#2188,.T.);
#2188 = EDGE_LOOP('',(#2189,#2190,#2196,#2197));
#2189 = ORIENTED_EDGE('',*,*,#2125,.F.);
#2190 = ORIENTED_EDGE('',*,*,#2191,.T.);
#2191 = EDGE_CURVE('',#2118,#2052,#2192,.T.);
#2192 = LINE('',#2193,#2194);
#2193 = CARTESIAN_POINT('',(-8.732357188806,51.15321248259,-1.));
#2194 = VECTOR('',#2195,1.);
#2195 = DIRECTION('',(0.,1.,-2.22044604925E-16));
#2196 = ORIENTED_EDGE('',*,*,#2059,.T.);
#2197 = ORIENTED_EDGE('',*,*,#2174,.F.);
#2198 = PLANE('',#2199);
#2199 = AXIS2_PLACEMENT_3D('',#2200,#2201,#2202);
#2200 = CARTESIAN_POINT('',(-8.732357188806,51.15321248259,-1.));
#2201 = DIRECTION('',(-5.085559377019E-17,-2.22044604925E-16,-1.));
#2202 = DIRECTION('',(1.,-1.129221022693E-32,-5.085559377019E-17));
#2203 = ADVANCED_FACE('',(#2204),#2210,.T.);
#2204 = FACE_BOUND('',#2205,.T.);
#2205 = EDGE_LOOP('',(#2206,#2207,#2208,#2209));
#2206 = ORIENTED_EDGE('',*,*,#2117,.F.);
#2207 = ORIENTED_EDGE('',*,*,#2100,.T.);
#2208 = ORIENTED_EDGE('',*,*,#2051,.T.);
#2209 = ORIENTED_EDGE('',*,*,#2191,.F.);
#2210 = PLANE('',#2211);
#2211 = AXIS2_PLACEMENT_3D('',#2212,#2213,#2214);
#2212 = CARTESIAN_POINT('',(-13.1,51.15321248259,-13.));
#2213 = DIRECTION('',(0.939692620786,-7.594372760115E-17,-0.342020143326
    ));
#2214 = DIRECTION('',(0.342020143326,2.086536767334E-16,0.939692620786)
  );
#2215 = ( GEOMETRIC_REPRESENTATION_CONTEXT(3) 
GLOBAL_UNCERTAINTY_ASSIGNED_CONTEXT((#2219)) 
GLOBAL_UNIT_ASSIGNED_CONTEXT((#2216,#2217,#2218)) REPRESENTATION_CONTEXT
('Context #1','3D Context with UNIT and UNCERTAINTY') );
#2216 = ( LENGTH_UNIT() NAMED_UNIT(*) SI_UNIT(.MILLI.,.METRE.) );
#2217 = ( NAMED_UNIT(*) PLANE_ANGLE_UNIT() SI_UNIT($,.RADIAN.) );
#2218 = ( NAMED_UNIT(*) SI_UNIT($,.STERADIAN.) SOLID_ANGLE_UNIT() );
#2219 = UNCERTAINTY_MEASURE_WITH_UNIT(LENGTH_MEASURE(1.E-05),#2216,
  'distance_accuracy_value','confusion accuracy');
#2220 = PRODUCT_RELATED_PRODUCT_CATEGORY('part',$,(#7));
#2221 = MECHANICAL_DESIGN_GEOMETRIC_PRESENTATION_REPRESENTATION('',(
    #2222),#2215);
#2222 = STYLED_ITEM('color',(#2223),#15);
#2223 = PRESENTATION_STYLE_ASSIGNMENT((#2224,#2230));
#2224 = SURFACE_STYLE_USAGE(.BOTH.,#2225);
#2225 = SURFACE_SIDE_STYLE('',(#2226));
#2226 = SURFACE_STYLE_FILL_AREA(#2227);
#2227 = FILL_AREA_STYLE('',(#2228));
#2228 = FILL_AREA_STYLE_COLOUR('',#2229);
#2229 = DRAUGHTING_PRE_DEFINED_COLOUR('blue');
#2230 = CURVE_STYLE('',#2231,POSITIVE_LENGTH_MEASURE(0.1),#2229);
#2231 = DRAUGHTING_PRE_DEFINED_CURVE_FONT('continuous');
ENDSEC;
END-ISO-10303-21;
