ISO-10303-21;
HEADER;
FILE_DESCRIPTION(('FreeCAD Model'),'2;1');
FILE_NAME('Open CASCADE Shape Model','2026-08-09T09:53:56',(''),(''),
  'Open CASCADE STEP processor 7.8','FreeCAD','Unknown');
FILE_SCHEMA(('AUTOMOTIVE_DESIGN { 1 0 10303 214 1 1 1 1 }'));
ENDSEC;
DATA;
#1 = APPLICATION_PROTOCOL_DEFINITION('international standard',
  'automotive_design',2000,#2);
#2 = APPLICATION_CONTEXT(
  'core data for automotive mechanical design processes');
#3 = SHAPE_DEFINITION_REPRESENTATION(#4,#10);
#4 = PRODUCT_DEFINITION_SHAPE('','',#5);
#5 = PRODUCT_DEFINITION('design','',#6,#9);
#6 = PRODUCT_DEFINITION_FORMATION('','',#7);
#7 = PRODUCT('CubiertaArt001','CubiertaArt001','',(#8));
#8 = PRODUCT_CONTEXT('',#2,'mechanical');
#9 = PRODUCT_DEFINITION_CONTEXT('part definition',#2,'design');
#10 = ADVANCED_BREP_SHAPE_REPRESENTATION('',(#11,#15),#1188);
#11 = AXIS2_PLACEMENT_3D('',#12,#13,#14);
#12 = CARTESIAN_POINT('',(0.,0.,0.));
#13 = DIRECTION('',(0.,0.,1.));
#14 = DIRECTION('',(1.,0.,-0.));
#15 = MANIFOLD_SOLID_BREP('',#16);
#16 = CLOSED_SHELL('',(#17,#140,#181,#224,#280,#364,#388,#431,#456,#490,
    #514,#570,#588,#613,#638,#693,#710,#735,#842,#866,#951,#994,#1023,
    #1032,#1044,#1061,#1074,#1091,#1108,#1125,#1142,#1154,#1171));
#17 = ADVANCED_FACE('',(#18,#113,#124),#135,.F.);
#18 = FACE_BOUND('',#19,.F.);
#19 = EDGE_LOOP('',(#20,#30,#38,#46,#55,#63,#72,#80,#88,#97,#106));
#20 = ORIENTED_EDGE('',*,*,#21,.T.);
#21 = EDGE_CURVE('',#22,#24,#26,.T.);
#22 = VERTEX_POINT('',#23);
#23 = CARTESIAN_POINT('',(-10.,33.034073318318,0.));
#24 = VERTEX_POINT('',#25);
#25 = CARTESIAN_POINT('',(-10.,51.15321248259,0.));
#26 = LINE('',#27,#28);
#27 = CARTESIAN_POINT('',(-10.,30.923292192132,0.));
#28 = VECTOR('',#29,1.);
#29 = DIRECTION('',(0.,1.,0.));
#30 = ORIENTED_EDGE('',*,*,#31,.F.);
#31 = EDGE_CURVE('',#32,#24,#34,.T.);
#32 = VERTEX_POINT('',#33);
#33 = CARTESIAN_POINT('',(-15.5,51.15321248259,0.));
#34 = LINE('',#35,#36);
#35 = CARTESIAN_POINT('',(-15.5,51.15321248259,0.));
#36 = VECTOR('',#37,1.);
#37 = DIRECTION('',(1.,0.,0.));
#38 = ORIENTED_EDGE('',*,*,#39,.F.);
#39 = EDGE_CURVE('',#40,#32,#42,.T.);
#40 = VERTEX_POINT('',#41);
#41 = CARTESIAN_POINT('',(-43.17979459121,3.210401907587,0.));
#42 = LINE('',#43,#44);
#43 = CARTESIAN_POINT('',(-43.17979459122,3.210401907606,0.));
#44 = VECTOR('',#45,1.);
#45 = DIRECTION('',(0.5,0.866025403784,0.));
#46 = ORIENTED_EDGE('',*,*,#47,.T.);
#47 = EDGE_CURVE('',#40,#48,#50,.T.);
#48 = VERTEX_POINT('',#49);
#49 = CARTESIAN_POINT('',(-43.17979459121,-3.210401907587,0.));
#50 = CIRCLE('',#51,4.15);
#51 = AXIS2_PLACEMENT_3D('',#52,#53,#54);
#52 = CARTESIAN_POINT('',(-40.55,0.,0.));
#53 = DIRECTION('',(0.,-0.,1.));
#54 = DIRECTION('',(0.,1.,0.));
#55 = ORIENTED_EDGE('',*,*,#56,.F.);
#56 = EDGE_CURVE('',#57,#48,#59,.T.);
#57 = VERTEX_POINT('',#58);
#58 = CARTESIAN_POINT('',(-24.37018690393,-35.78959809239,0.));
#59 = LINE('',#60,#61);
#60 = CARTESIAN_POINT('',(-24.37018690395,-35.78959809239,0.));
#61 = VECTOR('',#62,1.);
#62 = DIRECTION('',(-0.5,0.866025403784,0.));
#63 = ORIENTED_EDGE('',*,*,#64,.T.);
#64 = EDGE_CURVE('',#57,#65,#67,.T.);
#65 = VERTEX_POINT('',#66);
#66 = CARTESIAN_POINT('',(-18.80960768727,-38.99999999997,0.));
#67 = CIRCLE('',#68,4.15);
#68 = AXIS2_PLACEMENT_3D('',#69,#70,#71);
#69 = CARTESIAN_POINT('',(-20.275,-35.11733012345,0.));
#70 = DIRECTION('',(0.,0.,1.));
#71 = DIRECTION('',(-0.866025403784,0.5,0.));
#72 = ORIENTED_EDGE('',*,*,#73,.F.);
#73 = EDGE_CURVE('',#74,#65,#76,.T.);
#74 = VERTEX_POINT('',#75);
#75 = CARTESIAN_POINT('',(-10.,-39.,0.));
#76 = LINE('',#77,#78);
#77 = CARTESIAN_POINT('',(18.637308064153,-39.,0.));
#78 = VECTOR('',#79,1.);
#79 = DIRECTION('',(-1.,0.,0.));
#80 = ORIENTED_EDGE('',*,*,#81,.T.);
#81 = EDGE_CURVE('',#74,#82,#84,.T.);
#82 = VERTEX_POINT('',#83);
#83 = CARTESIAN_POINT('',(-10.,-33.03407331831,0.));
#84 = LINE('',#85,#86);
#85 = CARTESIAN_POINT('',(-10.,-39.,0.));
#86 = VECTOR('',#87,1.);
#87 = DIRECTION('',(0.,1.,0.));
#88 = ORIENTED_EDGE('',*,*,#89,.F.);
#89 = EDGE_CURVE('',#90,#82,#92,.T.);
#90 = VERTEX_POINT('',#91);
#91 = CARTESIAN_POINT('',(-11.9014084507,-30.2424614886,0.));
#92 = CIRCLE('',#93,3.);
#93 = AXIS2_PLACEMENT_3D('',#94,#95,#96);
#94 = CARTESIAN_POINT('',(-13.,-33.03407331831,0.));
#95 = DIRECTION('',(0.,0.,-1.));
#96 = DIRECTION('',(0.,-1.,0.));
#97 = ORIENTED_EDGE('',*,*,#98,.T.);
#98 = EDGE_CURVE('',#90,#99,#101,.T.);
#99 = VERTEX_POINT('',#100);
#100 = CARTESIAN_POINT('',(-11.9014084507,30.242461488601,0.));
#101 = CIRCLE('',#102,32.5);
#102 = AXIS2_PLACEMENT_3D('',#103,#104,#105);
#103 = CARTESIAN_POINT('',(0.,0.,0.));
#104 = DIRECTION('',(0.,0.,-1.));
#105 = DIRECTION('',(1.,0.,0.));
#106 = ORIENTED_EDGE('',*,*,#107,.F.);
#107 = EDGE_CURVE('',#22,#99,#108,.T.);
#108 = CIRCLE('',#109,3.);
#109 = AXIS2_PLACEMENT_3D('',#110,#111,#112);
#110 = CARTESIAN_POINT('',(-13.,33.034073318318,0.));
#111 = DIRECTION('',(0.,0.,-1.));
#112 = DIRECTION('',(0.,-1.,0.));
#113 = FACE_BOUND('',#114,.F.);
#114 = EDGE_LOOP('',(#115));
#115 = ORIENTED_EDGE('',*,*,#116,.F.);
#116 = EDGE_CURVE('',#117,#117,#119,.T.);
#117 = VERTEX_POINT('',#118);
#118 = CARTESIAN_POINT('',(-20.275,-33.31733012345,0.));
#119 = CIRCLE('',#120,1.8);
#120 = AXIS2_PLACEMENT_3D('',#121,#122,#123);
#121 = CARTESIAN_POINT('',(-20.275,-35.11733012345,0.));
#122 = DIRECTION('',(0.,-0.,1.));
#123 = DIRECTION('',(0.,1.,0.));
#124 = FACE_BOUND('',#125,.F.);
#125 = EDGE_LOOP('',(#126));
#126 = ORIENTED_EDGE('',*,*,#127,.F.);
#127 = EDGE_CURVE('',#128,#128,#130,.T.);
#128 = VERTEX_POINT('',#129);
#129 = CARTESIAN_POINT('',(-40.55,1.8,0.));
#130 = CIRCLE('',#131,1.8);
#131 = AXIS2_PLACEMENT_3D('',#132,#133,#134);
#132 = CARTESIAN_POINT('',(-40.55,0.,0.));
#133 = DIRECTION('',(0.,-0.,1.));
#134 = DIRECTION('',(0.,1.,0.));
#135 = PLANE('',#136);
#136 = AXIS2_PLACEMENT_3D('',#137,#138,#139);
#137 = CARTESIAN_POINT('',(6.088390587101E-04,3.909244886619,0.));
#138 = DIRECTION('',(0.,0.,1.));
#139 = DIRECTION('',(1.,0.,0.));
#140 = ADVANCED_FACE('',(#141),#176,.F.);
#141 = FACE_BOUND('',#142,.F.);
#142 = EDGE_LOOP('',(#143,#144,#152,#162,#170));
#143 = ORIENTED_EDGE('',*,*,#21,.F.);
#144 = ORIENTED_EDGE('',*,*,#145,.T.);
#145 = EDGE_CURVE('',#22,#146,#148,.T.);
#146 = VERTEX_POINT('',#147);
#147 = CARTESIAN_POINT('',(-10.,33.034073318318,3.166491667567));
#148 = LINE('',#149,#150);
#149 = CARTESIAN_POINT('',(-10.,33.034073318318,0.));
#150 = VECTOR('',#151,1.);
#151 = DIRECTION('',(0.,0.,1.));
#152 = ORIENTED_EDGE('',*,*,#153,.T.);
#153 = EDGE_CURVE('',#146,#154,#156,.T.);
#154 = VERTEX_POINT('',#155);
#155 = CARTESIAN_POINT('',(-10.,34.062442660502,3.));
#156 = B_SPLINE_CURVE_WITH_KNOTS('',4,(#157,#158,#159,#160,#161),
  .UNSPECIFIED.,.F.,.F.,(5,5),(0.,1.),.PIECEWISE_BEZIER_KNOTS.);
#157 = CARTESIAN_POINT('',(-10.,33.034073318318,3.166491667567));
#158 = CARTESIAN_POINT('',(-10.,33.282227106965,3.083884401269));
#159 = CARTESIAN_POINT('',(-10.,33.539300055897,3.027994853122));
#160 = CARTESIAN_POINT('',(-10.,33.800877314893,3.));
#161 = CARTESIAN_POINT('',(-10.,34.062442660502,3.));
#162 = ORIENTED_EDGE('',*,*,#163,.T.);
#163 = EDGE_CURVE('',#154,#164,#166,.T.);
#164 = VERTEX_POINT('',#165);
#165 = CARTESIAN_POINT('',(-10.,51.15321248259,3.));
#166 = LINE('',#167,#168);
#167 = CARTESIAN_POINT('',(-10.,30.923292192132,3.));
#168 = VECTOR('',#169,1.);
#169 = DIRECTION('',(0.,1.,0.));
#170 = ORIENTED_EDGE('',*,*,#171,.F.);
#171 = EDGE_CURVE('',#24,#164,#172,.T.);
#172 = LINE('',#173,#174);
#173 = CARTESIAN_POINT('',(-10.,51.15321248259,0.));
#174 = VECTOR('',#175,1.);
#175 = DIRECTION('',(0.,0.,1.));
#176 = PLANE('',#177);
#177 = AXIS2_PLACEMENT_3D('',#178,#179,#180);
#178 = CARTESIAN_POINT('',(-10.,30.923292192132,0.));
#179 = DIRECTION('',(-1.,0.,0.));
#180 = DIRECTION('',(0.,1.,0.));
#181 = ADVANCED_FACE('',(#182),#219,.T.);
#182 = FACE_BOUND('',#183,.F.);
#183 = EDGE_LOOP('',(#184,#185,#193,#218));
#184 = ORIENTED_EDGE('',*,*,#107,.T.);
#185 = ORIENTED_EDGE('',*,*,#186,.T.);
#186 = EDGE_CURVE('',#99,#187,#189,.T.);
#187 = VERTEX_POINT('',#188);
#188 = CARTESIAN_POINT('',(-11.9014084507,30.242461488601,6.));
#189 = LINE('',#190,#191);
#190 = CARTESIAN_POINT('',(-11.9014084507,30.242461488601,0.));
#191 = VECTOR('',#192,1.);
#192 = DIRECTION('',(0.,0.,1.));
#193 = ORIENTED_EDGE('',*,*,#194,.T.);
#194 = EDGE_CURVE('',#187,#146,#195,.T.);
#195 = B_SPLINE_CURVE_WITH_KNOTS('',6,(#196,#197,#198,#199,#200,#201,
    #202,#203,#204,#205,#206,#207,#208,#209,#210,#211,#212,#213,#214,
    #215,#216,#217),.UNSPECIFIED.,.F.,.F.,(7,5,5,5,7),(0.,0.32489562703,
    0.626790336941,0.798523931615,1.),.UNSPECIFIED.);
#196 = CARTESIAN_POINT('',(-11.90140845011,30.242461488835,6.));
#197 = CARTESIAN_POINT('',(-11.74588014755,30.303666937312,
    5.825318023022));
#198 = CARTESIAN_POINT('',(-11.59446053111,30.375264176907,
    5.650654741689));
#199 = CARTESIAN_POINT('',(-11.44734377584,30.457169942733,
    5.476372037806));
#200 = CARTESIAN_POINT('',(-11.30485698075,30.549489464928,
    5.302889446475));
#201 = CARTESIAN_POINT('',(-11.16743853144,30.652457477915,
    5.130688089892));
#202 = CARTESIAN_POINT('',(-10.9133023666,30.872610870706,4.802033212489
    ));
#203 = CARTESIAN_POINT('',(-10.79585623242,30.988232865601,
    4.645390042411));
#204 = CARTESIAN_POINT('',(-10.68381893916,31.113856522918,
    4.490800054265));
#205 = CARTESIAN_POINT('',(-10.57793118323,31.250017556415,
    4.338905085016));
#206 = CARTESIAN_POINT('',(-10.47918846152,31.397304418037,4.19057636264
    ));
#207 = CARTESIAN_POINT('',(-10.33776481458,31.647226086949,
    3.965342229211));
#208 = CARTESIAN_POINT('',(-10.28928138169,31.741710046744,
    3.885236622908));
#209 = CARTESIAN_POINT('',(-10.24386149551,31.840217848757,
    3.806915301847));
#210 = CARTESIAN_POINT('',(-10.20184654697,31.942890179731,
    3.730676973136));
#211 = CARTESIAN_POINT('',(-10.16365645973,32.049848055876,
    3.656899360631));
#212 = CARTESIAN_POINT('',(-10.09006865322,32.291819165504,
    3.502911631658));
#213 = CARTESIAN_POINT('',(-10.05631553593,32.42843252218,3.42383270629)
  );
#214 = CARTESIAN_POINT('',(-10.02933067668,32.571233350606,
    3.349514029439));
#215 = CARTESIAN_POINT('',(-10.01015354974,32.720149653727,
    3.280982894093));
#216 = CARTESIAN_POINT('',(-10.,32.874753286648,3.21952729662));
#217 = CARTESIAN_POINT('',(-10.,33.034073318318,3.166491667567));
#218 = ORIENTED_EDGE('',*,*,#145,.F.);
#219 = CYLINDRICAL_SURFACE('',#220,3.);
#220 = AXIS2_PLACEMENT_3D('',#221,#222,#223);
#221 = CARTESIAN_POINT('',(-13.,33.034073318318,0.));
#222 = DIRECTION('',(0.,0.,1.));
#223 = DIRECTION('',(1.,0.,0.));
#224 = ADVANCED_FACE('',(#225),#275,.T.);
#225 = FACE_BOUND('',#226,.T.);
#226 = EDGE_LOOP('',(#227,#228,#236,#244,#252,#260,#268,#274));
#227 = ORIENTED_EDGE('',*,*,#31,.F.);
#228 = ORIENTED_EDGE('',*,*,#229,.T.);
#229 = EDGE_CURVE('',#32,#230,#232,.T.);
#230 = VERTEX_POINT('',#231);
#231 = CARTESIAN_POINT('',(-15.5,51.15321248259,13.));
#232 = LINE('',#233,#234);
#233 = CARTESIAN_POINT('',(-15.5,51.15321248259,0.));
#234 = VECTOR('',#235,1.);
#235 = DIRECTION('',(0.,0.,1.));
#236 = ORIENTED_EDGE('',*,*,#237,.T.);
#237 = EDGE_CURVE('',#230,#238,#240,.T.);
#238 = VERTEX_POINT('',#239);
#239 = CARTESIAN_POINT('',(15.5,51.15321248259,13.));
#240 = LINE('',#241,#242);
#241 = CARTESIAN_POINT('',(-15.5,51.15321248259,13.));
#242 = VECTOR('',#243,1.);
#243 = DIRECTION('',(1.,0.,0.));
#244 = ORIENTED_EDGE('',*,*,#245,.F.);
#245 = EDGE_CURVE('',#246,#238,#248,.T.);
#246 = VERTEX_POINT('',#247);
#247 = CARTESIAN_POINT('',(15.5,51.15321248259,0.));
#248 = LINE('',#249,#250);
#249 = CARTESIAN_POINT('',(15.5,51.15321248259,0.));
#250 = VECTOR('',#251,1.);
#251 = DIRECTION('',(0.,0.,1.));
#252 = ORIENTED_EDGE('',*,*,#253,.F.);
#253 = EDGE_CURVE('',#254,#246,#256,.T.);
#254 = VERTEX_POINT('',#255);
#255 = CARTESIAN_POINT('',(10.,51.15321248259,0.));
#256 = LINE('',#257,#258);
#257 = CARTESIAN_POINT('',(-15.5,51.15321248259,0.));
#258 = VECTOR('',#259,1.);
#259 = DIRECTION('',(1.,0.,0.));
#260 = ORIENTED_EDGE('',*,*,#261,.T.);
#261 = EDGE_CURVE('',#254,#262,#264,.T.);
#262 = VERTEX_POINT('',#263);
#263 = CARTESIAN_POINT('',(10.,51.15321248259,3.));
#264 = LINE('',#265,#266);
#265 = CARTESIAN_POINT('',(10.,51.15321248259,0.));
#266 = VECTOR('',#267,1.);
#267 = DIRECTION('',(0.,0.,1.));
#268 = ORIENTED_EDGE('',*,*,#269,.F.);
#269 = EDGE_CURVE('',#164,#262,#270,.T.);
#270 = LINE('',#271,#272);
#271 = CARTESIAN_POINT('',(-10.,51.15321248259,3.));
#272 = VECTOR('',#273,1.);
#273 = DIRECTION('',(1.,-3.6E-16,0.));
#274 = ORIENTED_EDGE('',*,*,#171,.F.);
#275 = PLANE('',#276);
#276 = AXIS2_PLACEMENT_3D('',#277,#278,#279);
#277 = CARTESIAN_POINT('',(-15.5,51.15321248259,0.));
#278 = DIRECTION('',(0.,1.,0.));
#279 = DIRECTION('',(1.,0.,0.));
#280 = ADVANCED_FACE('',(#281),#359,.F.);
#281 = FACE_BOUND('',#282,.F.);
#282 = EDGE_LOOP('',(#283,#294,#302,#309,#310,#319,#327,#334,#335,#336,
    #344,#353));
#283 = ORIENTED_EDGE('',*,*,#284,.F.);
#284 = EDGE_CURVE('',#285,#287,#289,.T.);
#285 = VERTEX_POINT('',#286);
#286 = CARTESIAN_POINT('',(32.5,0.,0.));
#287 = VERTEX_POINT('',#288);
#288 = CARTESIAN_POINT('',(11.901408450704,-30.2424614886,0.));
#289 = CIRCLE('',#290,32.5);
#290 = AXIS2_PLACEMENT_3D('',#291,#292,#293);
#291 = CARTESIAN_POINT('',(0.,0.,0.));
#292 = DIRECTION('',(0.,0.,-1.));
#293 = DIRECTION('',(1.,0.,0.));
#294 = ORIENTED_EDGE('',*,*,#295,.T.);
#295 = EDGE_CURVE('',#285,#296,#298,.T.);
#296 = VERTEX_POINT('',#297);
#297 = CARTESIAN_POINT('',(32.5,0.,10.));
#298 = LINE('',#299,#300);
#299 = CARTESIAN_POINT('',(32.5,0.,0.));
#300 = VECTOR('',#301,1.);
#301 = DIRECTION('',(0.,0.,1.));
#302 = ORIENTED_EDGE('',*,*,#303,.T.);
#303 = EDGE_CURVE('',#296,#296,#304,.T.);
#304 = CIRCLE('',#305,32.5);
#305 = AXIS2_PLACEMENT_3D('',#306,#307,#308);
#306 = CARTESIAN_POINT('',(0.,0.,10.));
#307 = DIRECTION('',(0.,0.,-1.));
#308 = DIRECTION('',(1.,0.,0.));
#309 = ORIENTED_EDGE('',*,*,#295,.F.);
#310 = ORIENTED_EDGE('',*,*,#311,.F.);
#311 = EDGE_CURVE('',#312,#285,#314,.T.);
#312 = VERTEX_POINT('',#313);
#313 = CARTESIAN_POINT('',(11.901408450704,30.242461488601,0.));
#314 = CIRCLE('',#315,32.5);
#315 = AXIS2_PLACEMENT_3D('',#316,#317,#318);
#316 = CARTESIAN_POINT('',(0.,0.,0.));
#317 = DIRECTION('',(0.,0.,-1.));
#318 = DIRECTION('',(1.,0.,0.));
#319 = ORIENTED_EDGE('',*,*,#320,.T.);
#320 = EDGE_CURVE('',#312,#321,#323,.T.);
#321 = VERTEX_POINT('',#322);
#322 = CARTESIAN_POINT('',(11.901408450704,30.242461488601,6.));
#323 = LINE('',#324,#325);
#324 = CARTESIAN_POINT('',(11.901408450704,30.242461488601,0.));
#325 = VECTOR('',#326,1.);
#326 = DIRECTION('',(0.,0.,1.));
#327 = ORIENTED_EDGE('',*,*,#328,.F.);
#328 = EDGE_CURVE('',#187,#321,#329,.T.);
#329 = CIRCLE('',#330,32.5);
#330 = AXIS2_PLACEMENT_3D('',#331,#332,#333);
#331 = CARTESIAN_POINT('',(0.,0.,6.));
#332 = DIRECTION('',(0.,0.,-1.));
#333 = DIRECTION('',(-0.307692307692,0.951485913604,0.));
#334 = ORIENTED_EDGE('',*,*,#186,.F.);
#335 = ORIENTED_EDGE('',*,*,#98,.F.);
#336 = ORIENTED_EDGE('',*,*,#337,.T.);
#337 = EDGE_CURVE('',#90,#338,#340,.T.);
#338 = VERTEX_POINT('',#339);
#339 = CARTESIAN_POINT('',(-11.9014084507,-30.2424614886,6.));
#340 = LINE('',#341,#342);
#341 = CARTESIAN_POINT('',(-11.9014084507,-30.2424614886,0.));
#342 = VECTOR('',#343,1.);
#343 = DIRECTION('',(0.,0.,1.));
#344 = ORIENTED_EDGE('',*,*,#345,.F.);
#345 = EDGE_CURVE('',#346,#338,#348,.T.);
#346 = VERTEX_POINT('',#347);
#347 = CARTESIAN_POINT('',(11.901408450704,-30.2424614886,6.));
#348 = CIRCLE('',#349,32.5);
#349 = AXIS2_PLACEMENT_3D('',#350,#351,#352);
#350 = CARTESIAN_POINT('',(0.,0.,6.));
#351 = DIRECTION('',(0.,-0.,-1.));
#352 = DIRECTION('',(0.307692307692,-0.951485913604,0.));
#353 = ORIENTED_EDGE('',*,*,#354,.F.);
#354 = EDGE_CURVE('',#287,#346,#355,.T.);
#355 = LINE('',#356,#357);
#356 = CARTESIAN_POINT('',(11.901408450704,-30.2424614886,0.));
#357 = VECTOR('',#358,1.);
#358 = DIRECTION('',(0.,0.,1.));
#359 = CYLINDRICAL_SURFACE('',#360,32.5);
#360 = AXIS2_PLACEMENT_3D('',#361,#362,#363);
#361 = CARTESIAN_POINT('',(0.,0.,0.));
#362 = DIRECTION('',(0.,0.,-1.));
#363 = DIRECTION('',(1.,0.,0.));
#364 = ADVANCED_FACE('',(#365),#383,.T.);
#365 = FACE_BOUND('',#366,.T.);
#366 = EDGE_LOOP('',(#367,#375,#381,#382));
#367 = ORIENTED_EDGE('',*,*,#368,.T.);
#368 = EDGE_CURVE('',#40,#369,#371,.T.);
#369 = VERTEX_POINT('',#370);
#370 = CARTESIAN_POINT('',(-43.17979459121,3.210401907587,13.));
#371 = LINE('',#372,#373);
#372 = CARTESIAN_POINT('',(-43.17979459121,3.210401907587,0.));
#373 = VECTOR('',#374,1.);
#374 = DIRECTION('',(0.,0.,1.));
#375 = ORIENTED_EDGE('',*,*,#376,.T.);
#376 = EDGE_CURVE('',#369,#230,#377,.T.);
#377 = LINE('',#378,#379);
#378 = CARTESIAN_POINT('',(-24.37018690391,35.789598092386,13.));
#379 = VECTOR('',#380,1.);
#380 = DIRECTION('',(0.5,0.866025403784,0.));
#381 = ORIENTED_EDGE('',*,*,#229,.F.);
#382 = ORIENTED_EDGE('',*,*,#39,.F.);
#383 = PLANE('',#384);
#384 = AXIS2_PLACEMENT_3D('',#385,#386,#387);
#385 = CARTESIAN_POINT('',(-29.33989729561,27.181807195097,6.5));
#386 = DIRECTION('',(-0.866025403784,0.5,0.));
#387 = DIRECTION('',(-0.5,-0.866025403784,0.));
#388 = ADVANCED_FACE('',(#389),#426,.T.);
#389 = FACE_BOUND('',#390,.F.);
#390 = EDGE_LOOP('',(#391,#392,#400,#425));
#391 = ORIENTED_EDGE('',*,*,#89,.T.);
#392 = ORIENTED_EDGE('',*,*,#393,.T.);
#393 = EDGE_CURVE('',#82,#394,#396,.T.);
#394 = VERTEX_POINT('',#395);
#395 = CARTESIAN_POINT('',(-10.,-33.03407331831,3.166491667567));
#396 = LINE('',#397,#398);
#397 = CARTESIAN_POINT('',(-10.,-33.03407331831,0.));
#398 = VECTOR('',#399,1.);
#399 = DIRECTION('',(0.,0.,1.));
#400 = ORIENTED_EDGE('',*,*,#401,.F.);
#401 = EDGE_CURVE('',#338,#394,#402,.T.);
#402 = B_SPLINE_CURVE_WITH_KNOTS('',6,(#403,#404,#405,#406,#407,#408,
    #409,#410,#411,#412,#413,#414,#415,#416,#417,#418,#419,#420,#421,
    #422,#423,#424),.UNSPECIFIED.,.F.,.F.,(7,5,5,5,7),(0.,0.324895626965
    ,0.626790336905,0.798523931595,1.),.UNSPECIFIED.);
#403 = CARTESIAN_POINT('',(-11.9014084507,-30.2424614886,6.));
#404 = CARTESIAN_POINT('',(-11.74588014638,-30.30366693776,
    5.825318023484));
#405 = CARTESIAN_POINT('',(-11.59446053271,-30.37526417629,
    5.650654740995));
#406 = CARTESIAN_POINT('',(-11.44734377477,-30.45716994313,
    5.476372038469));
#407 = CARTESIAN_POINT('',(-11.3048569812,-30.54948946471,5.302889446375
    ));
#408 = CARTESIAN_POINT('',(-11.1674385314,-30.65245747794,5.130688089842
    ));
#409 = CARTESIAN_POINT('',(-10.9133023666,-30.8726108707,4.802033212489)
  );
#410 = CARTESIAN_POINT('',(-10.79585623242,-30.9882328656,4.645390042411
    ));
#411 = CARTESIAN_POINT('',(-10.68381893916,-31.11385652291,
    4.490800054265));
#412 = CARTESIAN_POINT('',(-10.57793118323,-31.25001755641,
    4.338905085016));
#413 = CARTESIAN_POINT('',(-10.47918846152,-31.39730441803,4.19057636264
    ));
#414 = CARTESIAN_POINT('',(-10.33776481458,-31.64722608694,
    3.965342229211));
#415 = CARTESIAN_POINT('',(-10.28928138169,-31.74171004674,
    3.885236622908));
#416 = CARTESIAN_POINT('',(-10.24386149551,-31.84021784875,
    3.806915301847));
#417 = CARTESIAN_POINT('',(-10.20184654697,-31.94289017973,
    3.730676973136));
#418 = CARTESIAN_POINT('',(-10.16365645973,-32.04984805587,
    3.656899360631));
#419 = CARTESIAN_POINT('',(-10.09006865322,-32.2918191655,3.502911631658
    ));
#420 = CARTESIAN_POINT('',(-10.05631553593,-32.42843252218,3.42383270629
    ));
#421 = CARTESIAN_POINT('',(-10.02933067668,-32.5712333506,3.349514029438
    ));
#422 = CARTESIAN_POINT('',(-10.01015354974,-32.72014965372,
    3.280982894093));
#423 = CARTESIAN_POINT('',(-10.,-32.87475328664,3.21952729662));
#424 = CARTESIAN_POINT('',(-10.,-33.03407331831,3.166491667567));
#425 = ORIENTED_EDGE('',*,*,#337,.F.);
#426 = CYLINDRICAL_SURFACE('',#427,3.);
#427 = AXIS2_PLACEMENT_3D('',#428,#429,#430);
#428 = CARTESIAN_POINT('',(-13.,-33.03407331831,0.));
#429 = DIRECTION('',(0.,0.,1.));
#430 = DIRECTION('',(0.366197183099,0.930537276572,0.));
#431 = ADVANCED_FACE('',(#432),#451,.T.);
#432 = FACE_BOUND('',#433,.F.);
#433 = EDGE_LOOP('',(#434,#435,#444,#450));
#434 = ORIENTED_EDGE('',*,*,#368,.T.);
#435 = ORIENTED_EDGE('',*,*,#436,.T.);
#436 = EDGE_CURVE('',#369,#437,#439,.T.);
#437 = VERTEX_POINT('',#438);
#438 = CARTESIAN_POINT('',(-43.17979459121,-3.210401907587,13.));
#439 = CIRCLE('',#440,4.15);
#440 = AXIS2_PLACEMENT_3D('',#441,#442,#443);
#441 = CARTESIAN_POINT('',(-40.55,0.,13.));
#442 = DIRECTION('',(0.,-0.,1.));
#443 = DIRECTION('',(0.,1.,0.));
#444 = ORIENTED_EDGE('',*,*,#445,.F.);
#445 = EDGE_CURVE('',#48,#437,#446,.T.);
#446 = LINE('',#447,#448);
#447 = CARTESIAN_POINT('',(-43.17979459121,-3.210401907587,0.));
#448 = VECTOR('',#449,1.);
#449 = DIRECTION('',(0.,0.,1.));
#450 = ORIENTED_EDGE('',*,*,#47,.F.);
#451 = CYLINDRICAL_SURFACE('',#452,4.15);
#452 = AXIS2_PLACEMENT_3D('',#453,#454,#455);
#453 = CARTESIAN_POINT('',(-40.55,0.,0.));
#454 = DIRECTION('',(0.,0.,-1.));
#455 = DIRECTION('',(0.,1.,0.));
#456 = ADVANCED_FACE('',(#457),#485,.F.);
#457 = FACE_BOUND('',#458,.F.);
#458 = EDGE_LOOP('',(#459,#460,#468,#476,#484));
#459 = ORIENTED_EDGE('',*,*,#81,.F.);
#460 = ORIENTED_EDGE('',*,*,#461,.T.);
#461 = EDGE_CURVE('',#74,#462,#464,.T.);
#462 = VERTEX_POINT('',#463);
#463 = CARTESIAN_POINT('',(-10.,-39.,3.));
#464 = LINE('',#465,#466);
#465 = CARTESIAN_POINT('',(-10.,-39.,0.));
#466 = VECTOR('',#467,1.);
#467 = DIRECTION('',(0.,0.,1.));
#468 = ORIENTED_EDGE('',*,*,#469,.T.);
#469 = EDGE_CURVE('',#462,#470,#472,.T.);
#470 = VERTEX_POINT('',#471);
#471 = CARTESIAN_POINT('',(-10.,-34.0624426605,3.));
#472 = LINE('',#473,#474);
#473 = CARTESIAN_POINT('',(-10.,-39.,3.));
#474 = VECTOR('',#475,1.);
#475 = DIRECTION('',(0.,1.,0.));
#476 = ORIENTED_EDGE('',*,*,#477,.F.);
#477 = EDGE_CURVE('',#394,#470,#478,.T.);
#478 = B_SPLINE_CURVE_WITH_KNOTS('',4,(#479,#480,#481,#482,#483),
  .UNSPECIFIED.,.F.,.F.,(5,5),(0.,1.),.PIECEWISE_BEZIER_KNOTS.);
#479 = CARTESIAN_POINT('',(-10.,-33.03407331831,3.166491667567));
#480 = CARTESIAN_POINT('',(-10.,-33.28222710696,3.083884401269));
#481 = CARTESIAN_POINT('',(-10.,-33.53930005589,3.027994853122));
#482 = CARTESIAN_POINT('',(-10.,-33.80087731489,3.));
#483 = CARTESIAN_POINT('',(-10.,-34.0624426605,3.));
#484 = ORIENTED_EDGE('',*,*,#393,.F.);
#485 = PLANE('',#486);
#486 = AXIS2_PLACEMENT_3D('',#487,#488,#489);
#487 = CARTESIAN_POINT('',(-10.,-39.,0.));
#488 = DIRECTION('',(-1.,0.,0.));
#489 = DIRECTION('',(0.,1.,0.));
#490 = ADVANCED_FACE('',(#491),#509,.T.);
#491 = FACE_BOUND('',#492,.T.);
#492 = EDGE_LOOP('',(#493,#501,#507,#508));
#493 = ORIENTED_EDGE('',*,*,#494,.T.);
#494 = EDGE_CURVE('',#57,#495,#497,.T.);
#495 = VERTEX_POINT('',#496);
#496 = CARTESIAN_POINT('',(-24.37018690393,-35.78959809239,13.));
#497 = LINE('',#498,#499);
#498 = CARTESIAN_POINT('',(-24.37018690393,-35.78959809239,0.));
#499 = VECTOR('',#500,1.);
#500 = DIRECTION('',(0.,0.,1.));
#501 = ORIENTED_EDGE('',*,*,#502,.T.);
#502 = EDGE_CURVE('',#495,#437,#503,.T.);
#503 = LINE('',#504,#505);
#504 = CARTESIAN_POINT('',(-24.37018690395,-35.78959809239,13.));
#505 = VECTOR('',#506,1.);
#506 = DIRECTION('',(-0.5,0.866025403784,0.));
#507 = ORIENTED_EDGE('',*,*,#445,.F.);
#508 = ORIENTED_EDGE('',*,*,#56,.F.);
#509 = PLANE('',#510);
#510 = AXIS2_PLACEMENT_3D('',#511,#512,#513);
#511 = CARTESIAN_POINT('',(-24.37018690395,-35.78959809239,0.));
#512 = DIRECTION('',(-0.866025403784,-0.5,0.));
#513 = DIRECTION('',(-0.5,0.866025403784,0.));
#514 = ADVANCED_FACE('',(#515),#565,.T.);
#515 = FACE_BOUND('',#516,.T.);
#516 = EDGE_LOOP('',(#517,#527,#535,#543,#549,#550,#551,#559));
#517 = ORIENTED_EDGE('',*,*,#518,.F.);
#518 = EDGE_CURVE('',#519,#521,#523,.T.);
#519 = VERTEX_POINT('',#520);
#520 = CARTESIAN_POINT('',(18.637308064153,-38.99999999999,0.));
#521 = VERTEX_POINT('',#522);
#522 = CARTESIAN_POINT('',(10.,-39.,0.));
#523 = LINE('',#524,#525);
#524 = CARTESIAN_POINT('',(18.637308064153,-39.,0.));
#525 = VECTOR('',#526,1.);
#526 = DIRECTION('',(-1.,0.,0.));
#527 = ORIENTED_EDGE('',*,*,#528,.T.);
#528 = EDGE_CURVE('',#519,#529,#531,.T.);
#529 = VERTEX_POINT('',#530);
#530 = CARTESIAN_POINT('',(18.637308064153,-38.99999999999,13.));
#531 = LINE('',#532,#533);
#532 = CARTESIAN_POINT('',(18.637308064153,-38.99999999999,0.));
#533 = VECTOR('',#534,1.);
#534 = DIRECTION('',(0.,0.,1.));
#535 = ORIENTED_EDGE('',*,*,#536,.T.);
#536 = EDGE_CURVE('',#529,#537,#539,.T.);
#537 = VERTEX_POINT('',#538);
#538 = CARTESIAN_POINT('',(-18.80960768727,-38.99999999997,13.));
#539 = LINE('',#540,#541);
#540 = CARTESIAN_POINT('',(18.637308064153,-39.,13.));
#541 = VECTOR('',#542,1.);
#542 = DIRECTION('',(-1.,0.,0.));
#543 = ORIENTED_EDGE('',*,*,#544,.F.);
#544 = EDGE_CURVE('',#65,#537,#545,.T.);
#545 = LINE('',#546,#547);
#546 = CARTESIAN_POINT('',(-18.80960768727,-38.99999999997,0.));
#547 = VECTOR('',#548,1.);
#548 = DIRECTION('',(0.,0.,1.));
#549 = ORIENTED_EDGE('',*,*,#73,.F.);
#550 = ORIENTED_EDGE('',*,*,#461,.T.);
#551 = ORIENTED_EDGE('',*,*,#552,.T.);
#552 = EDGE_CURVE('',#462,#553,#555,.T.);
#553 = VERTEX_POINT('',#554);
#554 = CARTESIAN_POINT('',(10.,-39.,3.));
#555 = LINE('',#556,#557);
#556 = CARTESIAN_POINT('',(-10.,-39.,3.));
#557 = VECTOR('',#558,1.);
#558 = DIRECTION('',(1.,0.,0.));
#559 = ORIENTED_EDGE('',*,*,#560,.F.);
#560 = EDGE_CURVE('',#521,#553,#561,.T.);
#561 = LINE('',#562,#563);
#562 = CARTESIAN_POINT('',(10.,-39.,0.));
#563 = VECTOR('',#564,1.);
#564 = DIRECTION('',(0.,0.,1.));
#565 = PLANE('',#566);
#566 = AXIS2_PLACEMENT_3D('',#567,#568,#569);
#567 = CARTESIAN_POINT('',(18.637308064153,-39.,0.));
#568 = DIRECTION('',(0.,-1.,0.));
#569 = DIRECTION('',(-1.,0.,0.));
#570 = ADVANCED_FACE('',(#571),#583,.T.);
#571 = FACE_BOUND('',#572,.F.);
#572 = EDGE_LOOP('',(#573,#574,#581,#582));
#573 = ORIENTED_EDGE('',*,*,#494,.T.);
#574 = ORIENTED_EDGE('',*,*,#575,.T.);
#575 = EDGE_CURVE('',#495,#537,#576,.T.);
#576 = CIRCLE('',#577,4.15);
#577 = AXIS2_PLACEMENT_3D('',#578,#579,#580);
#578 = CARTESIAN_POINT('',(-20.275,-35.11733012345,13.));
#579 = DIRECTION('',(0.,0.,1.));
#580 = DIRECTION('',(-0.866025403784,0.5,0.));
#581 = ORIENTED_EDGE('',*,*,#544,.F.);
#582 = ORIENTED_EDGE('',*,*,#64,.F.);
#583 = CYLINDRICAL_SURFACE('',#584,4.15);
#584 = AXIS2_PLACEMENT_3D('',#585,#586,#587);
#585 = CARTESIAN_POINT('',(-20.275,-35.11733012345,0.));
#586 = DIRECTION('',(-0.,-0.,-1.));
#587 = DIRECTION('',(-0.866025403784,0.5,0.));
#588 = ADVANCED_FACE('',(#589),#608,.F.);
#589 = FACE_BOUND('',#590,.F.);
#590 = EDGE_LOOP('',(#591,#600,#606,#607));
#591 = ORIENTED_EDGE('',*,*,#592,.F.);
#592 = EDGE_CURVE('',#593,#593,#595,.T.);
#593 = VERTEX_POINT('',#594);
#594 = CARTESIAN_POINT('',(-20.275,-33.31733012345,13.));
#595 = CIRCLE('',#596,1.8);
#596 = AXIS2_PLACEMENT_3D('',#597,#598,#599);
#597 = CARTESIAN_POINT('',(-20.275,-35.11733012345,13.));
#598 = DIRECTION('',(0.,-0.,1.));
#599 = DIRECTION('',(0.,1.,0.));
#600 = ORIENTED_EDGE('',*,*,#601,.T.);
#601 = EDGE_CURVE('',#593,#117,#602,.T.);
#602 = LINE('',#603,#604);
#603 = CARTESIAN_POINT('',(-20.275,-33.31733012345,95.5));
#604 = VECTOR('',#605,1.);
#605 = DIRECTION('',(-0.,-0.,-1.));
#606 = ORIENTED_EDGE('',*,*,#116,.T.);
#607 = ORIENTED_EDGE('',*,*,#601,.F.);
#608 = CYLINDRICAL_SURFACE('',#609,1.8);
#609 = AXIS2_PLACEMENT_3D('',#610,#611,#612);
#610 = CARTESIAN_POINT('',(-20.275,-35.11733012345,95.5));
#611 = DIRECTION('',(0.,0.,1.));
#612 = DIRECTION('',(0.,1.,0.));
#613 = ADVANCED_FACE('',(#614),#633,.F.);
#614 = FACE_BOUND('',#615,.F.);
#615 = EDGE_LOOP('',(#616,#625,#631,#632));
#616 = ORIENTED_EDGE('',*,*,#617,.F.);
#617 = EDGE_CURVE('',#618,#618,#620,.T.);
#618 = VERTEX_POINT('',#619);
#619 = CARTESIAN_POINT('',(-40.55,1.8,13.));
#620 = CIRCLE('',#621,1.8);
#621 = AXIS2_PLACEMENT_3D('',#622,#623,#624);
#622 = CARTESIAN_POINT('',(-40.55,0.,13.));
#623 = DIRECTION('',(0.,-0.,1.));
#624 = DIRECTION('',(0.,1.,0.));
#625 = ORIENTED_EDGE('',*,*,#626,.T.);
#626 = EDGE_CURVE('',#618,#128,#627,.T.);
#627 = LINE('',#628,#629);
#628 = CARTESIAN_POINT('',(-40.55,1.8,95.5));
#629 = VECTOR('',#630,1.);
#630 = DIRECTION('',(-0.,-0.,-1.));
#631 = ORIENTED_EDGE('',*,*,#127,.T.);
#632 = ORIENTED_EDGE('',*,*,#626,.F.);
#633 = CYLINDRICAL_SURFACE('',#634,1.8);
#634 = AXIS2_PLACEMENT_3D('',#635,#636,#637);
#635 = CARTESIAN_POINT('',(-40.55,0.,95.5));
#636 = DIRECTION('',(0.,0.,1.));
#637 = DIRECTION('',(0.,1.,0.));
#638 = ADVANCED_FACE('',(#639),#688,.T.);
#639 = FACE_BOUND('',#640,.T.);
#640 = EDGE_LOOP('',(#641,#642,#643,#652,#662,#687));
#641 = ORIENTED_EDGE('',*,*,#194,.T.);
#642 = ORIENTED_EDGE('',*,*,#153,.T.);
#643 = ORIENTED_EDGE('',*,*,#644,.T.);
#644 = EDGE_CURVE('',#154,#645,#647,.T.);
#645 = VERTEX_POINT('',#646);
#646 = CARTESIAN_POINT('',(10.,34.062442660502,3.));
#647 = CIRCLE('',#648,35.5);
#648 = AXIS2_PLACEMENT_3D('',#649,#650,#651);
#649 = CARTESIAN_POINT('',(0.,0.,3.));
#650 = DIRECTION('',(0.,0.,-1.));
#651 = DIRECTION('',(-0.307692307692,0.951485913604,0.));
#652 = ORIENTED_EDGE('',*,*,#653,.F.);
#653 = EDGE_CURVE('',#654,#645,#656,.T.);
#654 = VERTEX_POINT('',#655);
#655 = CARTESIAN_POINT('',(10.,33.034073318318,3.166491667567));
#656 = B_SPLINE_CURVE_WITH_KNOTS('',4,(#657,#658,#659,#660,#661),
  .UNSPECIFIED.,.F.,.F.,(5,5),(0.,1.),.PIECEWISE_BEZIER_KNOTS.);
#657 = CARTESIAN_POINT('',(10.,33.034073318318,3.166491667567));
#658 = CARTESIAN_POINT('',(10.,33.282225090253,3.083885072607));
#659 = CARTESIAN_POINT('',(10.,33.539300037856,3.027994676799));
#660 = CARTESIAN_POINT('',(10.,33.800876841926,3.));
#661 = CARTESIAN_POINT('',(10.,34.062442660502,3.));
#662 = ORIENTED_EDGE('',*,*,#663,.F.);
#663 = EDGE_CURVE('',#321,#654,#664,.T.);
#664 = B_SPLINE_CURVE_WITH_KNOTS('',6,(#665,#666,#667,#668,#669,#670,
    #671,#672,#673,#674,#675,#676,#677,#678,#679,#680,#681,#682,#683,
    #684,#685,#686),.UNSPECIFIED.,.F.,.F.,(7,5,5,5,7),(0.,0.32489562707,
    0.626790336963,0.798523931627,1.),.UNSPECIFIED.);
#665 = CARTESIAN_POINT('',(11.901408450704,30.242461488601,6.));
#666 = CARTESIAN_POINT('',(11.74588014658,30.303666937686,5.825318023705
    ));
#667 = CARTESIAN_POINT('',(11.59446053279,30.375264176229,5.650654741092
    ));
#668 = CARTESIAN_POINT('',(11.447343774756,30.457169943143,
    5.476372038446));
#669 = CARTESIAN_POINT('',(11.304856981198,30.549489464736,5.30288944636
    ));
#670 = CARTESIAN_POINT('',(11.167438531472,30.652457477894,
    5.130688089924));
#671 = CARTESIAN_POINT('',(10.9133023666,30.872610870706,4.802033212489)
  );
#672 = CARTESIAN_POINT('',(10.795856232424,30.988232865602,
    4.645390042411));
#673 = CARTESIAN_POINT('',(10.683818939169,31.113856522918,
    4.490800054266));
#674 = CARTESIAN_POINT('',(10.577931183234,31.250017556415,
    4.338905085016));
#675 = CARTESIAN_POINT('',(10.479188461523,31.397304418037,4.19057636264
    ));
#676 = CARTESIAN_POINT('',(10.337764814587,31.647226086949,
    3.965342229211));
#677 = CARTESIAN_POINT('',(10.28928138169,31.741710046744,3.885236622908
    ));
#678 = CARTESIAN_POINT('',(10.243861495515,31.840217848757,
    3.806915301847));
#679 = CARTESIAN_POINT('',(10.201846546972,31.942890179731,
    3.730676973136));
#680 = CARTESIAN_POINT('',(10.163656459731,32.049848055876,
    3.656899360631));
#681 = CARTESIAN_POINT('',(10.090068653226,32.291819165504,
    3.502911631658));
#682 = CARTESIAN_POINT('',(10.056315535934,32.42843252218,3.42383270629)
  );
#683 = CARTESIAN_POINT('',(10.029330676684,32.571233350607,
    3.349514029438));
#684 = CARTESIAN_POINT('',(10.010153549744,32.720149653726,
    3.280982894093));
#685 = CARTESIAN_POINT('',(10.,32.874753286648,3.21952729662));
#686 = CARTESIAN_POINT('',(10.,33.034073318318,3.166491667567));
#687 = ORIENTED_EDGE('',*,*,#328,.F.);
#688 = TOROIDAL_SURFACE('',#689,35.5,3.);
#689 = AXIS2_PLACEMENT_3D('',#690,#691,#692);
#690 = CARTESIAN_POINT('',(0.,0.,6.));
#691 = DIRECTION('',(-0.,-0.,-1.));
#692 = DIRECTION('',(-0.307692307692,0.951485913604,0.));
#693 = ADVANCED_FACE('',(#694),#705,.F.);
#694 = FACE_BOUND('',#695,.F.);
#695 = EDGE_LOOP('',(#696,#697,#698,#704));
#696 = ORIENTED_EDGE('',*,*,#163,.F.);
#697 = ORIENTED_EDGE('',*,*,#644,.T.);
#698 = ORIENTED_EDGE('',*,*,#699,.F.);
#699 = EDGE_CURVE('',#262,#645,#700,.T.);
#700 = LINE('',#701,#702);
#701 = CARTESIAN_POINT('',(10.,51.15321248259,3.));
#702 = VECTOR('',#703,1.);
#703 = DIRECTION('',(0.,-1.,0.));
#704 = ORIENTED_EDGE('',*,*,#269,.F.);
#705 = PLANE('',#706);
#706 = AXIS2_PLACEMENT_3D('',#707,#708,#709);
#707 = CARTESIAN_POINT('',(3.12E-15,9.799308165335,3.));
#708 = DIRECTION('',(0.,0.,1.));
#709 = DIRECTION('',(1.,0.,0.));
#710 = ADVANCED_FACE('',(#711),#730,.F.);
#711 = FACE_BOUND('',#712,.F.);
#712 = EDGE_LOOP('',(#713,#721,#722,#723,#724));
#713 = ORIENTED_EDGE('',*,*,#714,.F.);
#714 = EDGE_CURVE('',#254,#715,#717,.T.);
#715 = VERTEX_POINT('',#716);
#716 = CARTESIAN_POINT('',(10.,33.034073318318,0.));
#717 = LINE('',#718,#719);
#718 = CARTESIAN_POINT('',(10.,51.15321248259,0.));
#719 = VECTOR('',#720,1.);
#720 = DIRECTION('',(0.,-1.,0.));
#721 = ORIENTED_EDGE('',*,*,#261,.T.);
#722 = ORIENTED_EDGE('',*,*,#699,.T.);
#723 = ORIENTED_EDGE('',*,*,#653,.F.);
#724 = ORIENTED_EDGE('',*,*,#725,.F.);
#725 = EDGE_CURVE('',#715,#654,#726,.T.);
#726 = LINE('',#727,#728);
#727 = CARTESIAN_POINT('',(10.,33.034073318318,0.));
#728 = VECTOR('',#729,1.);
#729 = DIRECTION('',(0.,0.,1.));
#730 = PLANE('',#731);
#731 = AXIS2_PLACEMENT_3D('',#732,#733,#734);
#732 = CARTESIAN_POINT('',(10.,51.15321248259,0.));
#733 = DIRECTION('',(1.,0.,0.));
#734 = DIRECTION('',(0.,-1.,0.));
#735 = ADVANCED_FACE('',(#736,#815,#826),#837,.F.);
#736 = FACE_BOUND('',#737,.F.);
#737 = EDGE_LOOP('',(#738,#739,#746,#747,#748,#757,#763,#764,#773,#782,
    #791,#799,#808,#814));
#738 = ORIENTED_EDGE('',*,*,#714,.T.);
#739 = ORIENTED_EDGE('',*,*,#740,.T.);
#740 = EDGE_CURVE('',#715,#312,#741,.T.);
#741 = CIRCLE('',#742,3.);
#742 = AXIS2_PLACEMENT_3D('',#743,#744,#745);
#743 = CARTESIAN_POINT('',(13.,33.034073318318,0.));
#744 = DIRECTION('',(-0.,0.,1.));
#745 = DIRECTION('',(0.,-1.,0.));
#746 = ORIENTED_EDGE('',*,*,#311,.T.);
#747 = ORIENTED_EDGE('',*,*,#284,.T.);
#748 = ORIENTED_EDGE('',*,*,#749,.T.);
#749 = EDGE_CURVE('',#287,#750,#752,.T.);
#750 = VERTEX_POINT('',#751);
#751 = CARTESIAN_POINT('',(10.,-33.03407331831,0.));
#752 = CIRCLE('',#753,3.);
#753 = AXIS2_PLACEMENT_3D('',#754,#755,#756);
#754 = CARTESIAN_POINT('',(13.,-33.03407331831,0.));
#755 = DIRECTION('',(-0.,0.,1.));
#756 = DIRECTION('',(0.,-1.,0.));
#757 = ORIENTED_EDGE('',*,*,#758,.T.);
#758 = EDGE_CURVE('',#750,#521,#759,.T.);
#759 = LINE('',#760,#761);
#760 = CARTESIAN_POINT('',(10.,-30.92329219213,0.));
#761 = VECTOR('',#762,1.);
#762 = DIRECTION('',(0.,-1.,0.));
#763 = ORIENTED_EDGE('',*,*,#518,.F.);
#764 = ORIENTED_EDGE('',*,*,#765,.F.);
#765 = EDGE_CURVE('',#766,#519,#768,.T.);
#766 = VERTEX_POINT('',#767);
#767 = CARTESIAN_POINT('',(18.955306498298,-39.05190876183,0.));
#768 = CIRCLE('',#769,1.);
#769 = AXIS2_PLACEMENT_3D('',#770,#771,#772);
#770 = CARTESIAN_POINT('',(18.637308064153,-39.99999999999,0.));
#771 = DIRECTION('',(0.,0.,1.));
#772 = DIRECTION('',(-1.,0.,0.));
#773 = ORIENTED_EDGE('',*,*,#774,.T.);
#774 = EDGE_CURVE('',#766,#775,#777,.T.);
#775 = VERTEX_POINT('',#776);
#776 = CARTESIAN_POINT('',(24.342291804872,-35.94173134496,0.));
#777 = CIRCLE('',#778,4.15);
#778 = AXIS2_PLACEMENT_3D('',#779,#780,#781);
#779 = CARTESIAN_POINT('',(20.275,-35.11733012345,0.));
#780 = DIRECTION('',(0.,0.,1.));
#781 = DIRECTION('',(-0.866025403784,-0.5,0.));
#782 = ORIENTED_EDGE('',*,*,#783,.F.);
#783 = EDGE_CURVE('',#784,#775,#786,.T.);
#784 = VERTEX_POINT('',#785);
#785 = CARTESIAN_POINT('',(24.456336715516,-35.64038224171,0.));
#786 = CIRCLE('',#787,1.);
#787 = AXIS2_PLACEMENT_3D('',#788,#789,#790);
#788 = CARTESIAN_POINT('',(25.322362119299,-36.14038224171,0.));
#789 = DIRECTION('',(0.,0.,1.));
#790 = DIRECTION('',(1.,0.,0.));
#791 = ORIENTED_EDGE('',*,*,#792,.F.);
#792 = EDGE_CURVE('',#793,#784,#795,.T.);
#793 = VERTEX_POINT('',#794);
#794 = CARTESIAN_POINT('',(43.179794591212,-3.210401907587,0.));
#795 = LINE('',#796,#797);
#796 = CARTESIAN_POINT('',(43.179794591228,-3.210401907606,0.));
#797 = VECTOR('',#798,1.);
#798 = DIRECTION('',(-0.5,-0.866025403784,0.));
#799 = ORIENTED_EDGE('',*,*,#800,.T.);
#800 = EDGE_CURVE('',#793,#801,#803,.T.);
#801 = VERTEX_POINT('',#802);
#802 = CARTESIAN_POINT('',(43.179794591212,3.210401907587,0.));
#803 = CIRCLE('',#804,4.15);
#804 = AXIS2_PLACEMENT_3D('',#805,#806,#807);
#805 = CARTESIAN_POINT('',(40.55,-4.97E-15,0.));
#806 = DIRECTION('',(0.,0.,1.));
#807 = DIRECTION('',(-1.2E-16,-1.,0.));
#808 = ORIENTED_EDGE('',*,*,#809,.F.);
#809 = EDGE_CURVE('',#246,#801,#810,.T.);
#810 = LINE('',#811,#812);
#811 = CARTESIAN_POINT('',(15.5,51.15321248259,0.));
#812 = VECTOR('',#813,1.);
#813 = DIRECTION('',(0.5,-0.866025403784,0.));
#814 = ORIENTED_EDGE('',*,*,#253,.F.);
#815 = FACE_BOUND('',#816,.F.);
#816 = EDGE_LOOP('',(#817));
#817 = ORIENTED_EDGE('',*,*,#818,.F.);
#818 = EDGE_CURVE('',#819,#819,#821,.T.);
#819 = VERTEX_POINT('',#820);
#820 = CARTESIAN_POINT('',(20.275,-33.31733012345,0.));
#821 = CIRCLE('',#822,1.8);
#822 = AXIS2_PLACEMENT_3D('',#823,#824,#825);
#823 = CARTESIAN_POINT('',(20.275,-35.11733012345,0.));
#824 = DIRECTION('',(0.,-0.,1.));
#825 = DIRECTION('',(0.,1.,0.));
#826 = FACE_BOUND('',#827,.F.);
#827 = EDGE_LOOP('',(#828));
#828 = ORIENTED_EDGE('',*,*,#829,.F.);
#829 = EDGE_CURVE('',#830,#830,#832,.T.);
#830 = VERTEX_POINT('',#831);
#831 = CARTESIAN_POINT('',(40.55,1.8,0.));
#832 = CIRCLE('',#833,1.8);
#833 = AXIS2_PLACEMENT_3D('',#834,#835,#836);
#834 = CARTESIAN_POINT('',(40.55,-5.E-15,0.));
#835 = DIRECTION('',(0.,-0.,1.));
#836 = DIRECTION('',(0.,1.,0.));
#837 = PLANE('',#838);
#838 = AXIS2_PLACEMENT_3D('',#839,#840,#841);
#839 = CARTESIAN_POINT('',(6.088390587101E-04,3.909244886619,0.));
#840 = DIRECTION('',(0.,0.,1.));
#841 = DIRECTION('',(1.,0.,0.));
#842 = ADVANCED_FACE('',(#843),#861,.T.);
#843 = FACE_BOUND('',#844,.T.);
#844 = EDGE_LOOP('',(#845,#846,#854,#860));
#845 = ORIENTED_EDGE('',*,*,#245,.T.);
#846 = ORIENTED_EDGE('',*,*,#847,.T.);
#847 = EDGE_CURVE('',#238,#848,#850,.T.);
#848 = VERTEX_POINT('',#849);
#849 = CARTESIAN_POINT('',(43.179794591212,3.210401907587,13.));
#850 = LINE('',#851,#852);
#851 = CARTESIAN_POINT('',(24.370186903958,35.789598092394,13.));
#852 = VECTOR('',#853,1.);
#853 = DIRECTION('',(0.5,-0.866025403784,0.));
#854 = ORIENTED_EDGE('',*,*,#855,.F.);
#855 = EDGE_CURVE('',#801,#848,#856,.T.);
#856 = LINE('',#857,#858);
#857 = CARTESIAN_POINT('',(43.179794591212,3.210401907587,0.));
#858 = VECTOR('',#859,1.);
#859 = DIRECTION('',(0.,0.,1.));
#860 = ORIENTED_EDGE('',*,*,#809,.F.);
#861 = PLANE('',#862);
#862 = AXIS2_PLACEMENT_3D('',#863,#864,#865);
#863 = CARTESIAN_POINT('',(29.33989729562,27.181807195097,6.5));
#864 = DIRECTION('',(0.866025403784,0.5,0.));
#865 = DIRECTION('',(-0.5,0.866025403784,0.));
#866 = ADVANCED_FACE('',(#867,#918,#921,#932,#935),#946,.T.);
#867 = FACE_BOUND('',#868,.T.);
#868 = EDGE_LOOP('',(#869,#870,#871,#872,#873,#874,#883,#892,#901,#909,
    #916,#917));
#869 = ORIENTED_EDGE('',*,*,#376,.F.);
#870 = ORIENTED_EDGE('',*,*,#436,.T.);
#871 = ORIENTED_EDGE('',*,*,#502,.F.);
#872 = ORIENTED_EDGE('',*,*,#575,.T.);
#873 = ORIENTED_EDGE('',*,*,#536,.F.);
#874 = ORIENTED_EDGE('',*,*,#875,.F.);
#875 = EDGE_CURVE('',#876,#529,#878,.T.);
#876 = VERTEX_POINT('',#877);
#877 = CARTESIAN_POINT('',(18.955306498298,-39.05190876183,13.));
#878 = CIRCLE('',#879,1.);
#879 = AXIS2_PLACEMENT_3D('',#880,#881,#882);
#880 = CARTESIAN_POINT('',(18.637308064153,-39.99999999999,13.));
#881 = DIRECTION('',(0.,0.,1.));
#882 = DIRECTION('',(-1.,0.,0.));
#883 = ORIENTED_EDGE('',*,*,#884,.T.);
#884 = EDGE_CURVE('',#876,#885,#887,.T.);
#885 = VERTEX_POINT('',#886);
#886 = CARTESIAN_POINT('',(24.342291804872,-35.94173134496,13.));
#887 = CIRCLE('',#888,4.15);
#888 = AXIS2_PLACEMENT_3D('',#889,#890,#891);
#889 = CARTESIAN_POINT('',(20.275,-35.11733012345,13.));
#890 = DIRECTION('',(0.,0.,1.));
#891 = DIRECTION('',(-0.866025403784,-0.5,0.));
#892 = ORIENTED_EDGE('',*,*,#893,.F.);
#893 = EDGE_CURVE('',#894,#885,#896,.T.);
#894 = VERTEX_POINT('',#895);
#895 = CARTESIAN_POINT('',(24.456336715516,-35.64038224171,13.));
#896 = CIRCLE('',#897,1.);
#897 = AXIS2_PLACEMENT_3D('',#898,#899,#900);
#898 = CARTESIAN_POINT('',(25.322362119299,-36.14038224171,13.));
#899 = DIRECTION('',(0.,0.,1.));
#900 = DIRECTION('',(1.,0.,0.));
#901 = ORIENTED_EDGE('',*,*,#902,.F.);
#902 = EDGE_CURVE('',#903,#894,#905,.T.);
#903 = VERTEX_POINT('',#904);
#904 = CARTESIAN_POINT('',(43.179794591212,-3.210401907587,13.));
#905 = LINE('',#906,#907);
#906 = CARTESIAN_POINT('',(43.179794591228,-3.210401907606,13.));
#907 = VECTOR('',#908,1.);
#908 = DIRECTION('',(-0.5,-0.866025403784,0.));
#909 = ORIENTED_EDGE('',*,*,#910,.T.);
#910 = EDGE_CURVE('',#903,#848,#911,.T.);
#911 = CIRCLE('',#912,4.15);
#912 = AXIS2_PLACEMENT_3D('',#913,#914,#915);
#913 = CARTESIAN_POINT('',(40.55,-4.97E-15,13.));
#914 = DIRECTION('',(0.,0.,1.));
#915 = DIRECTION('',(-1.2E-16,-1.,0.));
#916 = ORIENTED_EDGE('',*,*,#847,.F.);
#917 = ORIENTED_EDGE('',*,*,#237,.F.);
#918 = FACE_BOUND('',#919,.T.);
#919 = EDGE_LOOP('',(#920));
#920 = ORIENTED_EDGE('',*,*,#592,.F.);
#921 = FACE_BOUND('',#922,.T.);
#922 = EDGE_LOOP('',(#923));
#923 = ORIENTED_EDGE('',*,*,#924,.F.);
#924 = EDGE_CURVE('',#925,#925,#927,.T.);
#925 = VERTEX_POINT('',#926);
#926 = CARTESIAN_POINT('',(20.275,-33.31733012345,13.));
#927 = CIRCLE('',#928,1.8);
#928 = AXIS2_PLACEMENT_3D('',#929,#930,#931);
#929 = CARTESIAN_POINT('',(20.275,-35.11733012345,13.));
#930 = DIRECTION('',(0.,-0.,1.));
#931 = DIRECTION('',(0.,1.,0.));
#932 = FACE_BOUND('',#933,.T.);
#933 = EDGE_LOOP('',(#934));
#934 = ORIENTED_EDGE('',*,*,#617,.F.);
#935 = FACE_BOUND('',#936,.T.);
#936 = EDGE_LOOP('',(#937));
#937 = ORIENTED_EDGE('',*,*,#938,.F.);
#938 = EDGE_CURVE('',#939,#939,#941,.T.);
#939 = VERTEX_POINT('',#940);
#940 = CARTESIAN_POINT('',(40.55,1.8,13.));
#941 = CIRCLE('',#942,1.8);
#942 = AXIS2_PLACEMENT_3D('',#943,#944,#945);
#943 = CARTESIAN_POINT('',(40.55,-5.E-15,13.));
#944 = DIRECTION('',(0.,-0.,1.));
#945 = DIRECTION('',(0.,1.,0.));
#946 = PLANE('',#947);
#947 = AXIS2_PLACEMENT_3D('',#948,#949,#950);
#948 = CARTESIAN_POINT('',(6.088390587101E-04,3.909244886619,13.));
#949 = DIRECTION('',(0.,0.,1.));
#950 = DIRECTION('',(1.,0.,0.));
#951 = ADVANCED_FACE('',(#952),#989,.T.);
#952 = FACE_BOUND('',#953,.T.);
#953 = EDGE_LOOP('',(#954,#955,#963,#988));
#954 = ORIENTED_EDGE('',*,*,#749,.T.);
#955 = ORIENTED_EDGE('',*,*,#956,.T.);
#956 = EDGE_CURVE('',#750,#957,#959,.T.);
#957 = VERTEX_POINT('',#958);
#958 = CARTESIAN_POINT('',(10.,-33.03407331831,3.166491667567));
#959 = LINE('',#960,#961);
#960 = CARTESIAN_POINT('',(10.,-33.03407331831,0.));
#961 = VECTOR('',#962,1.);
#962 = DIRECTION('',(0.,0.,1.));
#963 = ORIENTED_EDGE('',*,*,#964,.F.);
#964 = EDGE_CURVE('',#346,#957,#965,.T.);
#965 = B_SPLINE_CURVE_WITH_KNOTS('',6,(#966,#967,#968,#969,#970,#971,
    #972,#973,#974,#975,#976,#977,#978,#979,#980,#981,#982,#983,#984,
    #985,#986,#987),.UNSPECIFIED.,.F.,.F.,(7,5,5,5,7),(0.,0.32489562707,
    0.626790336964,0.798523931627,1.),.UNSPECIFIED.);
#966 = CARTESIAN_POINT('',(11.901408450704,-30.2424614886,6.));
#967 = CARTESIAN_POINT('',(11.74588014658,-30.30366693768,5.825318023705
    ));
#968 = CARTESIAN_POINT('',(11.59446053279,-30.37526417622,5.650654741092
    ));
#969 = CARTESIAN_POINT('',(11.447343774756,-30.45716994314,
    5.476372038447));
#970 = CARTESIAN_POINT('',(11.304856981197,-30.54948946473,
    5.302889446359));
#971 = CARTESIAN_POINT('',(11.167438531472,-30.65245747789,
    5.130688089924));
#972 = CARTESIAN_POINT('',(10.9133023666,-30.8726108707,4.802033212489)
  );
#973 = CARTESIAN_POINT('',(10.795856232424,-30.9882328656,4.64539004241)
  );
#974 = CARTESIAN_POINT('',(10.683818939169,-31.11385652291,
    4.490800054266));
#975 = CARTESIAN_POINT('',(10.577931183234,-31.25001755641,
    4.338905085016));
#976 = CARTESIAN_POINT('',(10.479188461523,-31.39730441803,4.19057636264
    ));
#977 = CARTESIAN_POINT('',(10.337764814587,-31.64722608694,
    3.965342229211));
#978 = CARTESIAN_POINT('',(10.28928138169,-31.74171004674,3.885236622908
    ));
#979 = CARTESIAN_POINT('',(10.243861495515,-31.84021784875,
    3.806915301847));
#980 = CARTESIAN_POINT('',(10.201846546972,-31.94289017973,
    3.730676973136));
#981 = CARTESIAN_POINT('',(10.163656459731,-32.04984805587,
    3.656899360631));
#982 = CARTESIAN_POINT('',(10.090068653226,-32.2918191655,3.502911631658
    ));
#983 = CARTESIAN_POINT('',(10.056315535934,-32.42843252218,3.42383270629
    ));
#984 = CARTESIAN_POINT('',(10.029330676684,-32.5712333506,3.349514029438
    ));
#985 = CARTESIAN_POINT('',(10.010153549744,-32.72014965372,
    3.280982894093));
#986 = CARTESIAN_POINT('',(10.,-32.87475328664,3.21952729662));
#987 = CARTESIAN_POINT('',(10.,-33.03407331831,3.166491667567));
#988 = ORIENTED_EDGE('',*,*,#354,.F.);
#989 = CYLINDRICAL_SURFACE('',#990,3.);
#990 = AXIS2_PLACEMENT_3D('',#991,#992,#993);
#991 = CARTESIAN_POINT('',(13.,-33.03407331831,0.));
#992 = DIRECTION('',(0.,0.,1.));
#993 = DIRECTION('',(-0.366197183099,0.930537276572,0.));
#994 = ADVANCED_FACE('',(#995),#1018,.T.);
#995 = FACE_BOUND('',#996,.F.);
#996 = EDGE_LOOP('',(#997,#998,#999,#1008,#1016,#1017));
#997 = ORIENTED_EDGE('',*,*,#401,.T.);
#998 = ORIENTED_EDGE('',*,*,#477,.T.);
#999 = ORIENTED_EDGE('',*,*,#1000,.F.);
#1000 = EDGE_CURVE('',#1001,#470,#1003,.T.);
#1001 = VERTEX_POINT('',#1002);
#1002 = CARTESIAN_POINT('',(10.,-34.0624426605,3.));
#1003 = CIRCLE('',#1004,35.5);
#1004 = AXIS2_PLACEMENT_3D('',#1005,#1006,#1007);
#1005 = CARTESIAN_POINT('',(0.,0.,3.));
#1006 = DIRECTION('',(0.,-0.,-1.));
#1007 = DIRECTION('',(0.307692307692,-0.951485913604,0.));
#1008 = ORIENTED_EDGE('',*,*,#1009,.F.);
#1009 = EDGE_CURVE('',#957,#1001,#1010,.T.);
#1010 = B_SPLINE_CURVE_WITH_KNOTS('',4,(#1011,#1012,#1013,#1014,#1015),
  .UNSPECIFIED.,.F.,.F.,(5,5),(0.,1.),.PIECEWISE_BEZIER_KNOTS.);
#1011 = CARTESIAN_POINT('',(10.,-33.03407331831,3.166491667567));
#1012 = CARTESIAN_POINT('',(10.,-33.28222509025,3.083885072607));
#1013 = CARTESIAN_POINT('',(10.,-33.53930003785,3.027994676799));
#1014 = CARTESIAN_POINT('',(10.,-33.80087684192,3.));
#1015 = CARTESIAN_POINT('',(10.,-34.0624426605,3.));
#1016 = ORIENTED_EDGE('',*,*,#964,.F.);
#1017 = ORIENTED_EDGE('',*,*,#345,.T.);
#1018 = TOROIDAL_SURFACE('',#1019,35.5,3.);
#1019 = AXIS2_PLACEMENT_3D('',#1020,#1021,#1022);
#1020 = CARTESIAN_POINT('',(0.,0.,6.));
#1021 = DIRECTION('',(0.,0.,1.));
#1022 = DIRECTION('',(0.307692307692,-0.951485913604,0.));
#1023 = ADVANCED_FACE('',(#1024),#1027,.F.);
#1024 = FACE_BOUND('',#1025,.T.);
#1025 = EDGE_LOOP('',(#1026));
#1026 = ORIENTED_EDGE('',*,*,#303,.T.);
#1027 = PLANE('',#1028);
#1028 = AXIS2_PLACEMENT_3D('',#1029,#1030,#1031);
#1029 = CARTESIAN_POINT('',(-3.37E-15,1.33E-15,10.));
#1030 = DIRECTION('',(0.,0.,1.));
#1031 = DIRECTION('',(1.,0.,0.));
#1032 = ADVANCED_FACE('',(#1033),#1039,.T.);
#1033 = FACE_BOUND('',#1034,.T.);
#1034 = EDGE_LOOP('',(#1035,#1036,#1037,#1038));
#1035 = ORIENTED_EDGE('',*,*,#740,.T.);
#1036 = ORIENTED_EDGE('',*,*,#320,.T.);
#1037 = ORIENTED_EDGE('',*,*,#663,.T.);
#1038 = ORIENTED_EDGE('',*,*,#725,.F.);
#1039 = CYLINDRICAL_SURFACE('',#1040,3.);
#1040 = AXIS2_PLACEMENT_3D('',#1041,#1042,#1043);
#1041 = CARTESIAN_POINT('',(13.,33.034073318318,0.));
#1042 = DIRECTION('',(0.,0.,1.));
#1043 = DIRECTION('',(-1.,0.,0.));
#1044 = ADVANCED_FACE('',(#1045),#1056,.F.);
#1045 = FACE_BOUND('',#1046,.F.);
#1046 = EDGE_LOOP('',(#1047,#1048,#1049,#1055));
#1047 = ORIENTED_EDGE('',*,*,#469,.F.);
#1048 = ORIENTED_EDGE('',*,*,#552,.T.);
#1049 = ORIENTED_EDGE('',*,*,#1050,.F.);
#1050 = EDGE_CURVE('',#1001,#553,#1051,.T.);
#1051 = LINE('',#1052,#1053);
#1052 = CARTESIAN_POINT('',(10.,-30.92329219213,3.));
#1053 = VECTOR('',#1054,1.);
#1054 = DIRECTION('',(0.,-1.,0.));
#1055 = ORIENTED_EDGE('',*,*,#1000,.T.);
#1056 = PLANE('',#1057);
#1057 = AXIS2_PLACEMENT_3D('',#1058,#1059,#1060);
#1058 = CARTESIAN_POINT('',(3.12E-15,9.799308165335,3.));
#1059 = DIRECTION('',(0.,0.,1.));
#1060 = DIRECTION('',(1.,0.,0.));
#1061 = ADVANCED_FACE('',(#1062),#1069,.F.);
#1062 = FACE_BOUND('',#1063,.F.);
#1063 = EDGE_LOOP('',(#1064,#1065,#1066,#1067,#1068));
#1064 = ORIENTED_EDGE('',*,*,#758,.F.);
#1065 = ORIENTED_EDGE('',*,*,#956,.T.);
#1066 = ORIENTED_EDGE('',*,*,#1009,.T.);
#1067 = ORIENTED_EDGE('',*,*,#1050,.T.);
#1068 = ORIENTED_EDGE('',*,*,#560,.F.);
#1069 = PLANE('',#1070);
#1070 = AXIS2_PLACEMENT_3D('',#1071,#1072,#1073);
#1071 = CARTESIAN_POINT('',(10.,-30.92329219213,0.));
#1072 = DIRECTION('',(1.,0.,0.));
#1073 = DIRECTION('',(0.,-1.,0.));
#1074 = ADVANCED_FACE('',(#1075),#1086,.F.);
#1075 = FACE_BOUND('',#1076,.T.);
#1076 = EDGE_LOOP('',(#1077,#1083,#1084,#1085));
#1077 = ORIENTED_EDGE('',*,*,#1078,.T.);
#1078 = EDGE_CURVE('',#766,#876,#1079,.T.);
#1079 = LINE('',#1080,#1081);
#1080 = CARTESIAN_POINT('',(18.955306498298,-39.05190876183,0.));
#1081 = VECTOR('',#1082,1.);
#1082 = DIRECTION('',(0.,0.,1.));
#1083 = ORIENTED_EDGE('',*,*,#875,.T.);
#1084 = ORIENTED_EDGE('',*,*,#528,.F.);
#1085 = ORIENTED_EDGE('',*,*,#765,.F.);
#1086 = CYLINDRICAL_SURFACE('',#1087,1.);
#1087 = AXIS2_PLACEMENT_3D('',#1088,#1089,#1090);
#1088 = CARTESIAN_POINT('',(18.637308064153,-39.99999999999,0.));
#1089 = DIRECTION('',(-0.,-0.,-1.));
#1090 = DIRECTION('',(-1.,0.,0.));
#1091 = ADVANCED_FACE('',(#1092),#1103,.T.);
#1092 = FACE_BOUND('',#1093,.F.);
#1093 = EDGE_LOOP('',(#1094,#1100,#1101,#1102));
#1094 = ORIENTED_EDGE('',*,*,#1095,.T.);
#1095 = EDGE_CURVE('',#793,#903,#1096,.T.);
#1096 = LINE('',#1097,#1098);
#1097 = CARTESIAN_POINT('',(43.179794591212,-3.210401907587,0.));
#1098 = VECTOR('',#1099,1.);
#1099 = DIRECTION('',(0.,0.,1.));
#1100 = ORIENTED_EDGE('',*,*,#910,.T.);
#1101 = ORIENTED_EDGE('',*,*,#855,.F.);
#1102 = ORIENTED_EDGE('',*,*,#800,.F.);
#1103 = CYLINDRICAL_SURFACE('',#1104,4.15);
#1104 = AXIS2_PLACEMENT_3D('',#1105,#1106,#1107);
#1105 = CARTESIAN_POINT('',(40.55,-4.97E-15,0.));
#1106 = DIRECTION('',(-0.,-0.,-1.));
#1107 = DIRECTION('',(-1.2E-16,-1.,0.));
#1108 = ADVANCED_FACE('',(#1109),#1120,.T.);
#1109 = FACE_BOUND('',#1110,.T.);
#1110 = EDGE_LOOP('',(#1111,#1112,#1113,#1119));
#1111 = ORIENTED_EDGE('',*,*,#1095,.T.);
#1112 = ORIENTED_EDGE('',*,*,#902,.T.);
#1113 = ORIENTED_EDGE('',*,*,#1114,.F.);
#1114 = EDGE_CURVE('',#784,#894,#1115,.T.);
#1115 = LINE('',#1116,#1117);
#1116 = CARTESIAN_POINT('',(24.456336715516,-35.64038224171,0.));
#1117 = VECTOR('',#1118,1.);
#1118 = DIRECTION('',(0.,0.,1.));
#1119 = ORIENTED_EDGE('',*,*,#792,.F.);
#1120 = PLANE('',#1121);
#1121 = AXIS2_PLACEMENT_3D('',#1122,#1123,#1124);
#1122 = CARTESIAN_POINT('',(43.179794591228,-3.210401907606,0.));
#1123 = DIRECTION('',(0.866025403784,-0.5,0.));
#1124 = DIRECTION('',(-0.5,-0.866025403784,0.));
#1125 = ADVANCED_FACE('',(#1126),#1137,.F.);
#1126 = FACE_BOUND('',#1127,.T.);
#1127 = EDGE_LOOP('',(#1128,#1129,#1130,#1136));
#1128 = ORIENTED_EDGE('',*,*,#1114,.T.);
#1129 = ORIENTED_EDGE('',*,*,#893,.T.);
#1130 = ORIENTED_EDGE('',*,*,#1131,.F.);
#1131 = EDGE_CURVE('',#775,#885,#1132,.T.);
#1132 = LINE('',#1133,#1134);
#1133 = CARTESIAN_POINT('',(24.342291804872,-35.94173134496,0.));
#1134 = VECTOR('',#1135,1.);
#1135 = DIRECTION('',(0.,0.,1.));
#1136 = ORIENTED_EDGE('',*,*,#783,.F.);
#1137 = CYLINDRICAL_SURFACE('',#1138,1.);
#1138 = AXIS2_PLACEMENT_3D('',#1139,#1140,#1141);
#1139 = CARTESIAN_POINT('',(25.322362119299,-36.14038224171,0.));
#1140 = DIRECTION('',(-0.,-0.,-1.));
#1141 = DIRECTION('',(1.,0.,0.));
#1142 = ADVANCED_FACE('',(#1143),#1149,.T.);
#1143 = FACE_BOUND('',#1144,.F.);
#1144 = EDGE_LOOP('',(#1145,#1146,#1147,#1148));
#1145 = ORIENTED_EDGE('',*,*,#1078,.T.);
#1146 = ORIENTED_EDGE('',*,*,#884,.T.);
#1147 = ORIENTED_EDGE('',*,*,#1131,.F.);
#1148 = ORIENTED_EDGE('',*,*,#774,.F.);
#1149 = CYLINDRICAL_SURFACE('',#1150,4.15);
#1150 = AXIS2_PLACEMENT_3D('',#1151,#1152,#1153);
#1151 = CARTESIAN_POINT('',(20.275,-35.11733012345,0.));
#1152 = DIRECTION('',(-0.,-0.,-1.));
#1153 = DIRECTION('',(-0.866025403784,-0.5,0.));
#1154 = ADVANCED_FACE('',(#1155),#1166,.F.);
#1155 = FACE_BOUND('',#1156,.F.);
#1156 = EDGE_LOOP('',(#1157,#1158,#1164,#1165));
#1157 = ORIENTED_EDGE('',*,*,#924,.F.);
#1158 = ORIENTED_EDGE('',*,*,#1159,.T.);
#1159 = EDGE_CURVE('',#925,#819,#1160,.T.);
#1160 = LINE('',#1161,#1162);
#1161 = CARTESIAN_POINT('',(20.275,-33.31733012345,95.5));
#1162 = VECTOR('',#1163,1.);
#1163 = DIRECTION('',(-0.,-0.,-1.));
#1164 = ORIENTED_EDGE('',*,*,#818,.T.);
#1165 = ORIENTED_EDGE('',*,*,#1159,.F.);
#1166 = CYLINDRICAL_SURFACE('',#1167,1.8);
#1167 = AXIS2_PLACEMENT_3D('',#1168,#1169,#1170);
#1168 = CARTESIAN_POINT('',(20.275,-35.11733012345,95.5));
#1169 = DIRECTION('',(0.,0.,1.));
#1170 = DIRECTION('',(0.,1.,0.));
#1171 = ADVANCED_FACE('',(#1172),#1183,.F.);
#1172 = FACE_BOUND('',#1173,.F.);
#1173 = EDGE_LOOP('',(#1174,#1175,#1181,#1182));
#1174 = ORIENTED_EDGE('',*,*,#938,.F.);
#1175 = ORIENTED_EDGE('',*,*,#1176,.T.);
#1176 = EDGE_CURVE('',#939,#830,#1177,.T.);
#1177 = LINE('',#1178,#1179);
#1178 = CARTESIAN_POINT('',(40.55,1.8,95.5));
#1179 = VECTOR('',#1180,1.);
#1180 = DIRECTION('',(-0.,-0.,-1.));
#1181 = ORIENTED_EDGE('',*,*,#829,.T.);
#1182 = ORIENTED_EDGE('',*,*,#1176,.F.);
#1183 = CYLINDRICAL_SURFACE('',#1184,1.8);
#1184 = AXIS2_PLACEMENT_3D('',#1185,#1186,#1187);
#1185 = CARTESIAN_POINT('',(40.55,-5.E-15,95.5));
#1186 = DIRECTION('',(0.,0.,1.));
#1187 = DIRECTION('',(0.,1.,0.));
#1188 = ( GEOMETRIC_REPRESENTATION_CONTEXT(3) 
GLOBAL_UNCERTAINTY_ASSIGNED_CONTEXT((#1192)) 
GLOBAL_UNIT_ASSIGNED_CONTEXT((#1189,#1190,#1191)) REPRESENTATION_CONTEXT
('Context #1','3D Context with UNIT and UNCERTAINTY') );
#1189 = ( LENGTH_UNIT() NAMED_UNIT(*) SI_UNIT(.MILLI.,.METRE.) );
#1190 = ( NAMED_UNIT(*) PLANE_ANGLE_UNIT() SI_UNIT($,.RADIAN.) );
#1191 = ( NAMED_UNIT(*) SI_UNIT($,.STERADIAN.) SOLID_ANGLE_UNIT() );
#1192 = UNCERTAINTY_MEASURE_WITH_UNIT(LENGTH_MEASURE(2.E-04),#1189,
  'distance_accuracy_value','confusion accuracy');
#1193 = PRODUCT_RELATED_PRODUCT_CATEGORY('part',$,(#7));
#1194 = MECHANICAL_DESIGN_GEOMETRIC_PRESENTATION_REPRESENTATION('',(
    #1195),#1188);
#1195 = STYLED_ITEM('color',(#1196),#15);
#1196 = PRESENTATION_STYLE_ASSIGNMENT((#1197,#1205));
#1197 = SURFACE_STYLE_USAGE(.BOTH.,#1198);
#1198 = SURFACE_SIDE_STYLE('',(#1199,#1203));
#1199 = SURFACE_STYLE_FILL_AREA(#1200);
#1200 = FILL_AREA_STYLE('',(#1201));
#1201 = FILL_AREA_STYLE_COLOUR('',#1202);
#1202 = DRAUGHTING_PRE_DEFINED_COLOUR('white');
#1203 = SURFACE_STYLE_RENDERING_WITH_PROPERTIES(.NORMAL_SHADING.,#1202,(
    #1204));
#1204 = SURFACE_STYLE_TRANSPARENT(0.699999988079);
#1205 = CURVE_STYLE('',#1206,POSITIVE_LENGTH_MEASURE(0.1),#1202);
#1206 = DRAUGHTING_PRE_DEFINED_CURVE_FONT('continuous');
ENDSEC;
END-ISO-10303-21;
