ISO-10303-21;
HEADER;
FILE_DESCRIPTION(('FreeCAD Model'),'2;1');
FILE_NAME('Open CASCADE Shape Model','2026-07-26T10:40:31',(''),(''),
  'Open CASCADE STEP processor 7.8','FreeCAD','Unknown');
FILE_SCHEMA(('AUTOMOTIVE_DESIGN { 1 0 10303 214 1 1 1 1 }'));
ENDSEC;
DATA;
#1 = APPLICATION_PROTOCOL_DEFINITION('international standard',
  'automotive_design',2000,#2);
#2 = APPLICATION_CONTEXT(
  'core data for automotive mechanical design processes');
#3 = SHAPE_DEFINITION_REPRESENTATION(#4,#10);
#4 = PRODUCT_DEFINITION_SHAPE('','',#5);
#5 = PRODUCT_DEFINITION('design','',#6,#9);
#6 = PRODUCT_DEFINITION_FORMATION('','',#7);
#7 = PRODUCT('Cruz001','Cruz001','',(#8));
#8 = PRODUCT_CONTEXT('',#2,'mechanical');
#9 = PRODUCT_DEFINITION_CONTEXT('part definition',#2,'design');
#10 = ADVANCED_BREP_SHAPE_REPRESENTATION('',(#11,#15),#1518);
#11 = AXIS2_PLACEMENT_3D('',#12,#13,#14);
#12 = CARTESIAN_POINT('',(0.,0.,0.));
#13 = DIRECTION('',(0.,0.,1.));
#14 = DIRECTION('',(1.,0.,-0.));
#15 = MANIFOLD_SOLID_BREP('',#16);
#16 = CLOSED_SHELL('',(#17,#332,#363,#388,#413,#438,#462,#487,#512,#536,
    #561,#586,#611,#635,#659,#684,#709,#734,#758,#783,#808,#832,#857,
    #882,#907,#924,#958,#983,#1008,#1033,#1058,#1083,#1108,#1142,#1176,
    #1275,#1310,#1335,#1360,#1395,#1430,#1448,#1466,#1483,#1500));
#17 = ADVANCED_FACE('',(#18,#228,#239,#250,#261,#272,#283,#294,#305,#316
    ),#327,.T.);
#18 = FACE_BOUND('',#19,.T.);
#19 = EDGE_LOOP('',(#20,#30,#39,#47,#56,#65,#74,#82,#91,#99,#108,#117,
    #126,#134,#143,#151,#160,#169,#178,#186,#195,#203,#212,#221));
#20 = ORIENTED_EDGE('',*,*,#21,.F.);
#21 = EDGE_CURVE('',#22,#24,#26,.T.);
#22 = VERTEX_POINT('',#23);
#23 = CARTESIAN_POINT('',(42.426406871193,-15.,0.));
#24 = VERTEX_POINT('',#25);
#25 = CARTESIAN_POINT('',(94.060676462312,-15.,0.));
#26 = LINE('',#27,#28);
#27 = CARTESIAN_POINT('',(20.,-15.,0.));
#28 = VECTOR('',#29,1.);
#29 = DIRECTION('',(1.,0.,0.));
#30 = ORIENTED_EDGE('',*,*,#31,.F.);
#31 = EDGE_CURVE('',#32,#22,#34,.T.);
#32 = VERTEX_POINT('',#33);
#33 = CARTESIAN_POINT('',(15.,-42.42640687119,0.));
#34 = CIRCLE('',#35,45.);
#35 = AXIS2_PLACEMENT_3D('',#36,#37,#38);
#36 = CARTESIAN_POINT('',(0.,0.,0.));
#37 = DIRECTION('',(0.,0.,1.));
#38 = DIRECTION('',(1.,0.,0.));
#39 = ORIENTED_EDGE('',*,*,#40,.T.);
#40 = EDGE_CURVE('',#32,#41,#43,.T.);
#41 = VERTEX_POINT('',#42);
#42 = CARTESIAN_POINT('',(15.,-94.06067646231,0.));
#43 = LINE('',#44,#45);
#44 = CARTESIAN_POINT('',(15.,-20.,0.));
#45 = VECTOR('',#46,1.);
#46 = DIRECTION('',(-2.22044604925E-16,-1.,0.));
#47 = ORIENTED_EDGE('',*,*,#48,.T.);
#48 = EDGE_CURVE('',#41,#49,#51,.T.);
#49 = VERTEX_POINT('',#50);
#50 = CARTESIAN_POINT('',(16.666666666667,-97.78745642481,0.));
#51 = CIRCLE('',#52,5.);
#52 = AXIS2_PLACEMENT_3D('',#53,#54,#55);
#53 = CARTESIAN_POINT('',(20.,-94.06067646231,0.));
#54 = DIRECTION('',(-0.,0.,1.));
#55 = DIRECTION('',(0.,-1.,0.));
#56 = ORIENTED_EDGE('',*,*,#57,.F.);
#57 = EDGE_CURVE('',#58,#49,#60,.T.);
#58 = VERTEX_POINT('',#59);
#59 = CARTESIAN_POINT('',(-16.66666666666,-97.78745642481,0.));
#60 = CIRCLE('',#61,25.);
#61 = AXIS2_PLACEMENT_3D('',#62,#63,#64);
#62 = CARTESIAN_POINT('',(-2.585073404567E-14,-116.4213562373,0.));
#63 = DIRECTION('',(0.,0.,1.));
#64 = DIRECTION('',(-2.22044604925E-16,-1.,0.));
#65 = ORIENTED_EDGE('',*,*,#66,.F.);
#66 = EDGE_CURVE('',#67,#58,#69,.T.);
#67 = VERTEX_POINT('',#68);
#68 = CARTESIAN_POINT('',(-15.,-94.06067646231,0.));
#69 = CIRCLE('',#70,5.);
#70 = AXIS2_PLACEMENT_3D('',#71,#72,#73);
#71 = CARTESIAN_POINT('',(-20.,-94.06067646231,0.));
#72 = DIRECTION('',(0.,0.,-1.));
#73 = DIRECTION('',(0.,-1.,0.));
#74 = ORIENTED_EDGE('',*,*,#75,.F.);
#75 = EDGE_CURVE('',#76,#67,#78,.T.);
#76 = VERTEX_POINT('',#77);
#77 = CARTESIAN_POINT('',(-15.,-42.42640687119,0.));
#78 = LINE('',#79,#80);
#79 = CARTESIAN_POINT('',(-15.,-20.,0.));
#80 = VECTOR('',#81,1.);
#81 = DIRECTION('',(-2.22044604925E-16,-1.,0.));
#82 = ORIENTED_EDGE('',*,*,#83,.F.);
#83 = EDGE_CURVE('',#84,#76,#86,.T.);
#84 = VERTEX_POINT('',#85);
#85 = CARTESIAN_POINT('',(-42.42640687119,-15.,0.));
#86 = CIRCLE('',#87,45.);
#87 = AXIS2_PLACEMENT_3D('',#88,#89,#90);
#88 = CARTESIAN_POINT('',(0.,0.,0.));
#89 = DIRECTION('',(0.,0.,1.));
#90 = DIRECTION('',(1.,0.,0.));
#91 = ORIENTED_EDGE('',*,*,#92,.T.);
#92 = EDGE_CURVE('',#84,#93,#95,.T.);
#93 = VERTEX_POINT('',#94);
#94 = CARTESIAN_POINT('',(-94.06067646231,-15.,0.));
#95 = LINE('',#96,#97);
#96 = CARTESIAN_POINT('',(-20.,-15.,0.));
#97 = VECTOR('',#98,1.);
#98 = DIRECTION('',(-1.,1.224646799147E-16,0.));
#99 = ORIENTED_EDGE('',*,*,#100,.T.);
#100 = EDGE_CURVE('',#93,#101,#103,.T.);
#101 = VERTEX_POINT('',#102);
#102 = CARTESIAN_POINT('',(-97.78745642481,-16.66666666666,0.));
#103 = CIRCLE('',#104,5.);
#104 = AXIS2_PLACEMENT_3D('',#105,#106,#107);
#105 = CARTESIAN_POINT('',(-94.06067646231,-20.,0.));
#106 = DIRECTION('',(-0.,0.,1.));
#107 = DIRECTION('',(0.,-1.,0.));
#108 = ORIENTED_EDGE('',*,*,#109,.F.);
#109 = EDGE_CURVE('',#110,#101,#112,.T.);
#110 = VERTEX_POINT('',#111);
#111 = CARTESIAN_POINT('',(-97.78745642481,16.666666666667,0.));
#112 = CIRCLE('',#113,25.);
#113 = AXIS2_PLACEMENT_3D('',#114,#115,#116);
#114 = CARTESIAN_POINT('',(-116.4213562373,1.425750412196E-14,0.));
#115 = DIRECTION('',(0.,0.,1.));
#116 = DIRECTION('',(-1.,1.224646799147E-16,0.));
#117 = ORIENTED_EDGE('',*,*,#118,.T.);
#118 = EDGE_CURVE('',#110,#119,#121,.T.);
#119 = VERTEX_POINT('',#120);
#120 = CARTESIAN_POINT('',(-94.06067646231,15.,0.));
#121 = CIRCLE('',#122,5.);
#122 = AXIS2_PLACEMENT_3D('',#123,#124,#125);
#123 = CARTESIAN_POINT('',(-94.06067646231,20.,0.));
#124 = DIRECTION('',(-0.,0.,1.));
#125 = DIRECTION('',(0.,-1.,0.));
#126 = ORIENTED_EDGE('',*,*,#127,.F.);
#127 = EDGE_CURVE('',#128,#119,#130,.T.);
#128 = VERTEX_POINT('',#129);
#129 = CARTESIAN_POINT('',(-42.42640687119,15.,0.));
#130 = LINE('',#131,#132);
#131 = CARTESIAN_POINT('',(-20.,15.,0.));
#132 = VECTOR('',#133,1.);
#133 = DIRECTION('',(-1.,1.224646799147E-16,0.));
#134 = ORIENTED_EDGE('',*,*,#135,.F.);
#135 = EDGE_CURVE('',#136,#128,#138,.T.);
#136 = VERTEX_POINT('',#137);
#137 = CARTESIAN_POINT('',(-15.,42.426406871193,0.));
#138 = CIRCLE('',#139,45.);
#139 = AXIS2_PLACEMENT_3D('',#140,#141,#142);
#140 = CARTESIAN_POINT('',(0.,0.,0.));
#141 = DIRECTION('',(0.,0.,1.));
#142 = DIRECTION('',(1.,0.,0.));
#143 = ORIENTED_EDGE('',*,*,#144,.T.);
#144 = EDGE_CURVE('',#136,#145,#147,.T.);
#145 = VERTEX_POINT('',#146);
#146 = CARTESIAN_POINT('',(-15.,94.060676462312,0.));
#147 = LINE('',#148,#149);
#148 = CARTESIAN_POINT('',(-15.,20.,0.));
#149 = VECTOR('',#150,1.);
#150 = DIRECTION('',(1.110223024625E-16,1.,0.));
#151 = ORIENTED_EDGE('',*,*,#152,.F.);
#152 = EDGE_CURVE('',#153,#145,#155,.T.);
#153 = VERTEX_POINT('',#154);
#154 = CARTESIAN_POINT('',(-16.66666666666,97.787456424811,0.));
#155 = CIRCLE('',#156,5.);
#156 = AXIS2_PLACEMENT_3D('',#157,#158,#159);
#157 = CARTESIAN_POINT('',(-20.,94.060676462312,0.));
#158 = DIRECTION('',(-0.,-0.,-1.));
#159 = DIRECTION('',(0.,-1.,0.));
#160 = ORIENTED_EDGE('',*,*,#161,.F.);
#161 = EDGE_CURVE('',#162,#153,#164,.T.);
#162 = VERTEX_POINT('',#163);
#163 = CARTESIAN_POINT('',(16.666666666667,97.787456424811,0.));
#164 = CIRCLE('',#165,25.);
#165 = AXIS2_PLACEMENT_3D('',#166,#167,#168);
#166 = CARTESIAN_POINT('',(1.292536702039E-14,116.42135623731,0.));
#167 = DIRECTION('',(0.,-0.,1.));
#168 = DIRECTION('',(1.110223024625E-16,1.,0.));
#169 = ORIENTED_EDGE('',*,*,#170,.F.);
#170 = EDGE_CURVE('',#171,#162,#173,.T.);
#171 = VERTEX_POINT('',#172);
#172 = CARTESIAN_POINT('',(15.,94.060676462312,0.));
#173 = CIRCLE('',#174,5.);
#174 = AXIS2_PLACEMENT_3D('',#175,#176,#177);
#175 = CARTESIAN_POINT('',(20.,94.060676462312,0.));
#176 = DIRECTION('',(-0.,-0.,-1.));
#177 = DIRECTION('',(0.,-1.,0.));
#178 = ORIENTED_EDGE('',*,*,#179,.F.);
#179 = EDGE_CURVE('',#180,#171,#182,.T.);
#180 = VERTEX_POINT('',#181);
#181 = CARTESIAN_POINT('',(15.,42.426406871193,0.));
#182 = LINE('',#183,#184);
#183 = CARTESIAN_POINT('',(15.,20.,0.));
#184 = VECTOR('',#185,1.);
#185 = DIRECTION('',(1.110223024625E-16,1.,0.));
#186 = ORIENTED_EDGE('',*,*,#187,.F.);
#187 = EDGE_CURVE('',#188,#180,#190,.T.);
#188 = VERTEX_POINT('',#189);
#189 = CARTESIAN_POINT('',(42.426406871193,15.,0.));
#190 = CIRCLE('',#191,45.);
#191 = AXIS2_PLACEMENT_3D('',#192,#193,#194);
#192 = CARTESIAN_POINT('',(0.,0.,0.));
#193 = DIRECTION('',(0.,0.,1.));
#194 = DIRECTION('',(1.,0.,0.));
#195 = ORIENTED_EDGE('',*,*,#196,.T.);
#196 = EDGE_CURVE('',#188,#197,#199,.T.);
#197 = VERTEX_POINT('',#198);
#198 = CARTESIAN_POINT('',(94.060676462312,15.,0.));
#199 = LINE('',#200,#201);
#200 = CARTESIAN_POINT('',(20.,15.,0.));
#201 = VECTOR('',#202,1.);
#202 = DIRECTION('',(1.,0.,0.));
#203 = ORIENTED_EDGE('',*,*,#204,.F.);
#204 = EDGE_CURVE('',#205,#197,#207,.T.);
#205 = VERTEX_POINT('',#206);
#206 = CARTESIAN_POINT('',(97.787456424811,16.666666666667,0.));
#207 = CIRCLE('',#208,5.);
#208 = AXIS2_PLACEMENT_3D('',#209,#210,#211);
#209 = CARTESIAN_POINT('',(94.060676462312,20.,0.));
#210 = DIRECTION('',(-0.,-0.,-1.));
#211 = DIRECTION('',(0.,-1.,0.));
#212 = ORIENTED_EDGE('',*,*,#213,.F.);
#213 = EDGE_CURVE('',#214,#205,#216,.T.);
#214 = VERTEX_POINT('',#215);
#215 = CARTESIAN_POINT('',(97.787456424811,-16.66666666666,0.));
#216 = CIRCLE('',#217,25.);
#217 = AXIS2_PLACEMENT_3D('',#218,#219,#220);
#218 = CARTESIAN_POINT('',(116.42135623731,4.882571597255E-24,0.));
#219 = DIRECTION('',(0.,0.,1.));
#220 = DIRECTION('',(1.,0.,0.));
#221 = ORIENTED_EDGE('',*,*,#222,.F.);
#222 = EDGE_CURVE('',#24,#214,#223,.T.);
#223 = CIRCLE('',#224,5.);
#224 = AXIS2_PLACEMENT_3D('',#225,#226,#227);
#225 = CARTESIAN_POINT('',(94.060676462312,-20.,0.));
#226 = DIRECTION('',(-0.,-0.,-1.));
#227 = DIRECTION('',(0.,-1.,0.));
#228 = FACE_BOUND('',#229,.T.);
#229 = EDGE_LOOP('',(#230));
#230 = ORIENTED_EDGE('',*,*,#231,.T.);
#231 = EDGE_CURVE('',#232,#232,#234,.T.);
#232 = VERTEX_POINT('',#233);
#233 = CARTESIAN_POINT('',(2.,-116.4213562373,0.));
#234 = CIRCLE('',#235,2.);
#235 = AXIS2_PLACEMENT_3D('',#236,#237,#238);
#236 = CARTESIAN_POINT('',(0.,-116.4213562373,0.));
#237 = DIRECTION('',(0.,0.,1.));
#238 = DIRECTION('',(1.,0.,0.));
#239 = FACE_BOUND('',#240,.T.);
#240 = EDGE_LOOP('',(#241));
#241 = ORIENTED_EDGE('',*,*,#242,.T.);
#242 = EDGE_CURVE('',#243,#243,#245,.T.);
#243 = VERTEX_POINT('',#244);
#244 = CARTESIAN_POINT('',(-1.15463194561E-14,-52.,0.));
#245 = CIRCLE('',#246,2.);
#246 = AXIS2_PLACEMENT_3D('',#247,#248,#249);
#247 = CARTESIAN_POINT('',(-1.110223024625E-14,-50.,0.));
#248 = DIRECTION('',(0.,0.,1.));
#249 = DIRECTION('',(-2.22044604925E-16,-1.,0.));
#250 = FACE_BOUND('',#251,.T.);
#251 = EDGE_LOOP('',(#252));
#252 = ORIENTED_EDGE('',*,*,#253,.T.);
#253 = EDGE_CURVE('',#254,#254,#256,.T.);
#254 = VERTEX_POINT('',#255);
#255 = CARTESIAN_POINT('',(118.42135623731,0.,0.));
#256 = CIRCLE('',#257,2.);
#257 = AXIS2_PLACEMENT_3D('',#258,#259,#260);
#258 = CARTESIAN_POINT('',(116.42135623731,0.,0.));
#259 = DIRECTION('',(0.,0.,1.));
#260 = DIRECTION('',(1.,0.,0.));
#261 = FACE_BOUND('',#262,.T.);
#262 = EDGE_LOOP('',(#263));
#263 = ORIENTED_EDGE('',*,*,#264,.T.);
#264 = EDGE_CURVE('',#265,#265,#267,.T.);
#265 = VERTEX_POINT('',#266);
#266 = CARTESIAN_POINT('',(52.,0.,0.));
#267 = CIRCLE('',#268,2.);
#268 = AXIS2_PLACEMENT_3D('',#269,#270,#271);
#269 = CARTESIAN_POINT('',(50.,0.,0.));
#270 = DIRECTION('',(0.,0.,1.));
#271 = DIRECTION('',(1.,0.,0.));
#272 = FACE_BOUND('',#273,.T.);
#273 = EDGE_LOOP('',(#274));
#274 = ORIENTED_EDGE('',*,*,#275,.T.);
#275 = EDGE_CURVE('',#276,#276,#278,.T.);
#276 = VERTEX_POINT('',#277);
#277 = CARTESIAN_POINT('',(5.773159728051E-15,52.,0.));
#278 = CIRCLE('',#279,2.);
#279 = AXIS2_PLACEMENT_3D('',#280,#281,#282);
#280 = CARTESIAN_POINT('',(5.551115123126E-15,50.,0.));
#281 = DIRECTION('',(0.,-0.,1.));
#282 = DIRECTION('',(1.110223024625E-16,1.,0.));
#283 = FACE_BOUND('',#284,.T.);
#284 = EDGE_LOOP('',(#285));
#285 = ORIENTED_EDGE('',*,*,#286,.T.);
#286 = EDGE_CURVE('',#287,#287,#289,.T.);
#287 = VERTEX_POINT('',#288);
#288 = CARTESIAN_POINT('',(2.,0.,0.));
#289 = CIRCLE('',#290,2.);
#290 = AXIS2_PLACEMENT_3D('',#291,#292,#293);
#291 = CARTESIAN_POINT('',(0.,0.,0.));
#292 = DIRECTION('',(0.,0.,1.));
#293 = DIRECTION('',(1.,0.,0.));
#294 = FACE_BOUND('',#295,.T.);
#295 = EDGE_LOOP('',(#296));
#296 = ORIENTED_EDGE('',*,*,#297,.T.);
#297 = EDGE_CURVE('',#298,#298,#300,.T.);
#298 = VERTEX_POINT('',#299);
#299 = CARTESIAN_POINT('',(-52.,6.368163355566E-15,0.));
#300 = CIRCLE('',#301,2.);
#301 = AXIS2_PLACEMENT_3D('',#302,#303,#304);
#302 = CARTESIAN_POINT('',(-50.,6.123233995737E-15,0.));
#303 = DIRECTION('',(0.,0.,1.));
#304 = DIRECTION('',(-1.,1.224646799147E-16,0.));
#305 = FACE_BOUND('',#306,.T.);
#306 = EDGE_LOOP('',(#307));
#307 = ORIENTED_EDGE('',*,*,#308,.T.);
#308 = EDGE_CURVE('',#309,#309,#311,.T.);
#309 = VERTEX_POINT('',#310);
#310 = CARTESIAN_POINT('',(-114.4213562373,0.,0.));
#311 = CIRCLE('',#312,2.);
#312 = AXIS2_PLACEMENT_3D('',#313,#314,#315);
#313 = CARTESIAN_POINT('',(-116.4213562373,0.,0.));
#314 = DIRECTION('',(0.,0.,1.));
#315 = DIRECTION('',(1.,0.,0.));
#316 = FACE_BOUND('',#317,.T.);
#317 = EDGE_LOOP('',(#318));
#318 = ORIENTED_EDGE('',*,*,#319,.T.);
#319 = EDGE_CURVE('',#320,#320,#322,.T.);
#320 = VERTEX_POINT('',#321);
#321 = CARTESIAN_POINT('',(2.,116.42135623731,0.));
#322 = CIRCLE('',#323,2.);
#323 = AXIS2_PLACEMENT_3D('',#324,#325,#326);
#324 = CARTESIAN_POINT('',(0.,116.42135623731,0.));
#325 = DIRECTION('',(0.,0.,1.));
#326 = DIRECTION('',(1.,0.,0.));
#327 = PLANE('',#328);
#328 = AXIS2_PLACEMENT_3D('',#329,#330,#331);
#329 = CARTESIAN_POINT('',(-3.732397161764E-15,5.214378387759E-15,0.));
#330 = DIRECTION('',(-0.,-0.,-1.));
#331 = DIRECTION('',(-1.,0.,0.));
#332 = ADVANCED_FACE('',(#333),#358,.F.);
#333 = FACE_BOUND('',#334,.F.);
#334 = EDGE_LOOP('',(#335,#336,#344,#352));
#335 = ORIENTED_EDGE('',*,*,#21,.F.);
#336 = ORIENTED_EDGE('',*,*,#337,.F.);
#337 = EDGE_CURVE('',#338,#22,#340,.T.);
#338 = VERTEX_POINT('',#339);
#339 = CARTESIAN_POINT('',(42.426406871193,-15.,10.));
#340 = LINE('',#341,#342);
#341 = CARTESIAN_POINT('',(42.426406871193,-15.,0.));
#342 = VECTOR('',#343,1.);
#343 = DIRECTION('',(-0.,-0.,-1.));
#344 = ORIENTED_EDGE('',*,*,#345,.T.);
#345 = EDGE_CURVE('',#338,#346,#348,.T.);
#346 = VERTEX_POINT('',#347);
#347 = CARTESIAN_POINT('',(94.060676462312,-15.,10.));
#348 = LINE('',#349,#350);
#349 = CARTESIAN_POINT('',(20.,-15.,10.));
#350 = VECTOR('',#351,1.);
#351 = DIRECTION('',(1.,0.,0.));
#352 = ORIENTED_EDGE('',*,*,#353,.F.);
#353 = EDGE_CURVE('',#24,#346,#354,.T.);
#354 = LINE('',#355,#356);
#355 = CARTESIAN_POINT('',(94.060676462312,-15.,0.));
#356 = VECTOR('',#357,1.);
#357 = DIRECTION('',(0.,0.,1.));
#358 = PLANE('',#359);
#359 = AXIS2_PLACEMENT_3D('',#360,#361,#362);
#360 = CARTESIAN_POINT('',(20.,-15.,0.));
#361 = DIRECTION('',(0.,1.,0.));
#362 = DIRECTION('',(1.,0.,0.));
#363 = ADVANCED_FACE('',(#364),#383,.F.);
#364 = FACE_BOUND('',#365,.T.);
#365 = EDGE_LOOP('',(#366,#367,#375,#382));
#366 = ORIENTED_EDGE('',*,*,#222,.T.);
#367 = ORIENTED_EDGE('',*,*,#368,.T.);
#368 = EDGE_CURVE('',#214,#369,#371,.T.);
#369 = VERTEX_POINT('',#370);
#370 = CARTESIAN_POINT('',(97.787456424811,-16.66666666666,10.));
#371 = LINE('',#372,#373);
#372 = CARTESIAN_POINT('',(97.787456424811,-16.66666666666,0.));
#373 = VECTOR('',#374,1.);
#374 = DIRECTION('',(0.,0.,1.));
#375 = ORIENTED_EDGE('',*,*,#376,.F.);
#376 = EDGE_CURVE('',#346,#369,#377,.T.);
#377 = CIRCLE('',#378,5.);
#378 = AXIS2_PLACEMENT_3D('',#379,#380,#381);
#379 = CARTESIAN_POINT('',(94.060676462312,-20.,10.));
#380 = DIRECTION('',(-0.,-0.,-1.));
#381 = DIRECTION('',(0.,-1.,0.));
#382 = ORIENTED_EDGE('',*,*,#353,.F.);
#383 = CYLINDRICAL_SURFACE('',#384,5.);
#384 = AXIS2_PLACEMENT_3D('',#385,#386,#387);
#385 = CARTESIAN_POINT('',(94.060676462312,-20.,0.));
#386 = DIRECTION('',(0.,0.,1.));
#387 = DIRECTION('',(0.,1.,0.));
#388 = ADVANCED_FACE('',(#389),#408,.T.);
#389 = FACE_BOUND('',#390,.F.);
#390 = EDGE_LOOP('',(#391,#392,#400,#407));
#391 = ORIENTED_EDGE('',*,*,#31,.F.);
#392 = ORIENTED_EDGE('',*,*,#393,.F.);
#393 = EDGE_CURVE('',#394,#32,#396,.T.);
#394 = VERTEX_POINT('',#395);
#395 = CARTESIAN_POINT('',(15.,-42.42640687119,10.));
#396 = LINE('',#397,#398);
#397 = CARTESIAN_POINT('',(15.,-42.42640687119,0.));
#398 = VECTOR('',#399,1.);
#399 = DIRECTION('',(-0.,-0.,-1.));
#400 = ORIENTED_EDGE('',*,*,#401,.T.);
#401 = EDGE_CURVE('',#394,#338,#402,.T.);
#402 = CIRCLE('',#403,45.);
#403 = AXIS2_PLACEMENT_3D('',#404,#405,#406);
#404 = CARTESIAN_POINT('',(0.,0.,10.));
#405 = DIRECTION('',(0.,0.,1.));
#406 = DIRECTION('',(1.,0.,0.));
#407 = ORIENTED_EDGE('',*,*,#337,.T.);
#408 = CYLINDRICAL_SURFACE('',#409,45.);
#409 = AXIS2_PLACEMENT_3D('',#410,#411,#412);
#410 = CARTESIAN_POINT('',(0.,0.,0.));
#411 = DIRECTION('',(-0.,-0.,-1.));
#412 = DIRECTION('',(1.,0.,0.));
#413 = ADVANCED_FACE('',(#414),#433,.T.);
#414 = FACE_BOUND('',#415,.F.);
#415 = EDGE_LOOP('',(#416,#417,#418,#427));
#416 = ORIENTED_EDGE('',*,*,#213,.F.);
#417 = ORIENTED_EDGE('',*,*,#368,.T.);
#418 = ORIENTED_EDGE('',*,*,#419,.T.);
#419 = EDGE_CURVE('',#369,#420,#422,.T.);
#420 = VERTEX_POINT('',#421);
#421 = CARTESIAN_POINT('',(97.787456424811,16.666666666667,10.));
#422 = CIRCLE('',#423,25.);
#423 = AXIS2_PLACEMENT_3D('',#424,#425,#426);
#424 = CARTESIAN_POINT('',(116.42135623731,4.882571597255E-24,10.));
#425 = DIRECTION('',(0.,0.,1.));
#426 = DIRECTION('',(1.,0.,0.));
#427 = ORIENTED_EDGE('',*,*,#428,.F.);
#428 = EDGE_CURVE('',#205,#420,#429,.T.);
#429 = LINE('',#430,#431);
#430 = CARTESIAN_POINT('',(97.787456424811,16.666666666667,0.));
#431 = VECTOR('',#432,1.);
#432 = DIRECTION('',(0.,0.,1.));
#433 = CYLINDRICAL_SURFACE('',#434,25.);
#434 = AXIS2_PLACEMENT_3D('',#435,#436,#437);
#435 = CARTESIAN_POINT('',(116.42135623731,4.882571597255E-24,0.));
#436 = DIRECTION('',(-0.,-0.,-1.));
#437 = DIRECTION('',(1.,0.,0.));
#438 = ADVANCED_FACE('',(#439),#457,.T.);
#439 = FACE_BOUND('',#440,.T.);
#440 = EDGE_LOOP('',(#441,#442,#443,#451));
#441 = ORIENTED_EDGE('',*,*,#40,.F.);
#442 = ORIENTED_EDGE('',*,*,#393,.F.);
#443 = ORIENTED_EDGE('',*,*,#444,.T.);
#444 = EDGE_CURVE('',#394,#445,#447,.T.);
#445 = VERTEX_POINT('',#446);
#446 = CARTESIAN_POINT('',(15.,-94.06067646231,10.));
#447 = LINE('',#448,#449);
#448 = CARTESIAN_POINT('',(15.,-20.,10.));
#449 = VECTOR('',#450,1.);
#450 = DIRECTION('',(-2.22044604925E-16,-1.,0.));
#451 = ORIENTED_EDGE('',*,*,#452,.F.);
#452 = EDGE_CURVE('',#41,#445,#453,.T.);
#453 = LINE('',#454,#455);
#454 = CARTESIAN_POINT('',(15.,-94.06067646231,0.));
#455 = VECTOR('',#456,1.);
#456 = DIRECTION('',(0.,0.,1.));
#457 = PLANE('',#458);
#458 = AXIS2_PLACEMENT_3D('',#459,#460,#461);
#459 = CARTESIAN_POINT('',(15.,-20.,0.));
#460 = DIRECTION('',(1.,-2.22044604925E-16,0.));
#461 = DIRECTION('',(-2.22044604925E-16,-1.,0.));
#462 = ADVANCED_FACE('',(#463),#482,.F.);
#463 = FACE_BOUND('',#464,.T.);
#464 = EDGE_LOOP('',(#465,#466,#474,#481));
#465 = ORIENTED_EDGE('',*,*,#204,.T.);
#466 = ORIENTED_EDGE('',*,*,#467,.T.);
#467 = EDGE_CURVE('',#197,#468,#470,.T.);
#468 = VERTEX_POINT('',#469);
#469 = CARTESIAN_POINT('',(94.060676462312,15.,10.));
#470 = LINE('',#471,#472);
#471 = CARTESIAN_POINT('',(94.060676462312,15.,0.));
#472 = VECTOR('',#473,1.);
#473 = DIRECTION('',(0.,0.,1.));
#474 = ORIENTED_EDGE('',*,*,#475,.F.);
#475 = EDGE_CURVE('',#420,#468,#476,.T.);
#476 = CIRCLE('',#477,5.);
#477 = AXIS2_PLACEMENT_3D('',#478,#479,#480);
#478 = CARTESIAN_POINT('',(94.060676462312,20.,10.));
#479 = DIRECTION('',(-0.,-0.,-1.));
#480 = DIRECTION('',(0.,-1.,0.));
#481 = ORIENTED_EDGE('',*,*,#428,.F.);
#482 = CYLINDRICAL_SURFACE('',#483,5.);
#483 = AXIS2_PLACEMENT_3D('',#484,#485,#486);
#484 = CARTESIAN_POINT('',(94.060676462312,20.,0.));
#485 = DIRECTION('',(0.,0.,1.));
#486 = DIRECTION('',(0.7453559925,-0.666666666667,0.));
#487 = ADVANCED_FACE('',(#488),#507,.F.);
#488 = FACE_BOUND('',#489,.F.);
#489 = EDGE_LOOP('',(#490,#491,#499,#506));
#490 = ORIENTED_EDGE('',*,*,#48,.T.);
#491 = ORIENTED_EDGE('',*,*,#492,.T.);
#492 = EDGE_CURVE('',#49,#493,#495,.T.);
#493 = VERTEX_POINT('',#494);
#494 = CARTESIAN_POINT('',(16.666666666667,-97.78745642481,10.));
#495 = LINE('',#496,#497);
#496 = CARTESIAN_POINT('',(16.666666666667,-97.78745642481,0.));
#497 = VECTOR('',#498,1.);
#498 = DIRECTION('',(0.,0.,1.));
#499 = ORIENTED_EDGE('',*,*,#500,.F.);
#500 = EDGE_CURVE('',#445,#493,#501,.T.);
#501 = CIRCLE('',#502,5.);
#502 = AXIS2_PLACEMENT_3D('',#503,#504,#505);
#503 = CARTESIAN_POINT('',(20.,-94.06067646231,10.));
#504 = DIRECTION('',(-0.,0.,1.));
#505 = DIRECTION('',(0.,-1.,0.));
#506 = ORIENTED_EDGE('',*,*,#452,.F.);
#507 = CYLINDRICAL_SURFACE('',#508,5.);
#508 = AXIS2_PLACEMENT_3D('',#509,#510,#511);
#509 = CARTESIAN_POINT('',(20.,-94.06067646231,0.));
#510 = DIRECTION('',(0.,0.,1.));
#511 = DIRECTION('',(-1.,2.22044604925E-16,0.));
#512 = ADVANCED_FACE('',(#513),#531,.T.);
#513 = FACE_BOUND('',#514,.T.);
#514 = EDGE_LOOP('',(#515,#516,#524,#530));
#515 = ORIENTED_EDGE('',*,*,#196,.F.);
#516 = ORIENTED_EDGE('',*,*,#517,.F.);
#517 = EDGE_CURVE('',#518,#188,#520,.T.);
#518 = VERTEX_POINT('',#519);
#519 = CARTESIAN_POINT('',(42.426406871193,15.,10.));
#520 = LINE('',#521,#522);
#521 = CARTESIAN_POINT('',(42.426406871193,15.,0.));
#522 = VECTOR('',#523,1.);
#523 = DIRECTION('',(-0.,-0.,-1.));
#524 = ORIENTED_EDGE('',*,*,#525,.T.);
#525 = EDGE_CURVE('',#518,#468,#526,.T.);
#526 = LINE('',#527,#528);
#527 = CARTESIAN_POINT('',(20.,15.,10.));
#528 = VECTOR('',#529,1.);
#529 = DIRECTION('',(1.,0.,0.));
#530 = ORIENTED_EDGE('',*,*,#467,.F.);
#531 = PLANE('',#532);
#532 = AXIS2_PLACEMENT_3D('',#533,#534,#535);
#533 = CARTESIAN_POINT('',(20.,15.,0.));
#534 = DIRECTION('',(0.,1.,0.));
#535 = DIRECTION('',(1.,0.,0.));
#536 = ADVANCED_FACE('',(#537),#556,.T.);
#537 = FACE_BOUND('',#538,.F.);
#538 = EDGE_LOOP('',(#539,#540,#548,#555));
#539 = ORIENTED_EDGE('',*,*,#57,.F.);
#540 = ORIENTED_EDGE('',*,*,#541,.T.);
#541 = EDGE_CURVE('',#58,#542,#544,.T.);
#542 = VERTEX_POINT('',#543);
#543 = CARTESIAN_POINT('',(-16.66666666666,-97.78745642481,10.));
#544 = LINE('',#545,#546);
#545 = CARTESIAN_POINT('',(-16.66666666666,-97.78745642481,0.));
#546 = VECTOR('',#547,1.);
#547 = DIRECTION('',(0.,0.,1.));
#548 = ORIENTED_EDGE('',*,*,#549,.T.);
#549 = EDGE_CURVE('',#542,#493,#550,.T.);
#550 = CIRCLE('',#551,25.);
#551 = AXIS2_PLACEMENT_3D('',#552,#553,#554);
#552 = CARTESIAN_POINT('',(-2.585073404567E-14,-116.4213562373,10.));
#553 = DIRECTION('',(0.,0.,1.));
#554 = DIRECTION('',(-2.22044604925E-16,-1.,0.));
#555 = ORIENTED_EDGE('',*,*,#492,.F.);
#556 = CYLINDRICAL_SURFACE('',#557,25.);
#557 = AXIS2_PLACEMENT_3D('',#558,#559,#560);
#558 = CARTESIAN_POINT('',(-2.585073404567E-14,-116.4213562373,0.));
#559 = DIRECTION('',(0.,0.,-1.));
#560 = DIRECTION('',(-2.22044604925E-16,-1.,0.));
#561 = ADVANCED_FACE('',(#562),#581,.T.);
#562 = FACE_BOUND('',#563,.F.);
#563 = EDGE_LOOP('',(#564,#565,#566,#575));
#564 = ORIENTED_EDGE('',*,*,#187,.F.);
#565 = ORIENTED_EDGE('',*,*,#517,.F.);
#566 = ORIENTED_EDGE('',*,*,#567,.T.);
#567 = EDGE_CURVE('',#518,#568,#570,.T.);
#568 = VERTEX_POINT('',#569);
#569 = CARTESIAN_POINT('',(15.,42.426406871193,10.));
#570 = CIRCLE('',#571,45.);
#571 = AXIS2_PLACEMENT_3D('',#572,#573,#574);
#572 = CARTESIAN_POINT('',(0.,0.,10.));
#573 = DIRECTION('',(0.,0.,1.));
#574 = DIRECTION('',(1.,0.,0.));
#575 = ORIENTED_EDGE('',*,*,#576,.T.);
#576 = EDGE_CURVE('',#568,#180,#577,.T.);
#577 = LINE('',#578,#579);
#578 = CARTESIAN_POINT('',(15.,42.426406871193,0.));
#579 = VECTOR('',#580,1.);
#580 = DIRECTION('',(-0.,-0.,-1.));
#581 = CYLINDRICAL_SURFACE('',#582,45.);
#582 = AXIS2_PLACEMENT_3D('',#583,#584,#585);
#583 = CARTESIAN_POINT('',(0.,0.,0.));
#584 = DIRECTION('',(-0.,-0.,-1.));
#585 = DIRECTION('',(1.,0.,0.));
#586 = ADVANCED_FACE('',(#587),#606,.F.);
#587 = FACE_BOUND('',#588,.T.);
#588 = EDGE_LOOP('',(#589,#590,#591,#600));
#589 = ORIENTED_EDGE('',*,*,#66,.T.);
#590 = ORIENTED_EDGE('',*,*,#541,.T.);
#591 = ORIENTED_EDGE('',*,*,#592,.F.);
#592 = EDGE_CURVE('',#593,#542,#595,.T.);
#593 = VERTEX_POINT('',#594);
#594 = CARTESIAN_POINT('',(-15.,-94.06067646231,10.));
#595 = CIRCLE('',#596,5.);
#596 = AXIS2_PLACEMENT_3D('',#597,#598,#599);
#597 = CARTESIAN_POINT('',(-20.,-94.06067646231,10.));
#598 = DIRECTION('',(0.,0.,-1.));
#599 = DIRECTION('',(0.,-1.,0.));
#600 = ORIENTED_EDGE('',*,*,#601,.F.);
#601 = EDGE_CURVE('',#67,#593,#602,.T.);
#602 = LINE('',#603,#604);
#603 = CARTESIAN_POINT('',(-15.,-94.06067646231,0.));
#604 = VECTOR('',#605,1.);
#605 = DIRECTION('',(0.,0.,1.));
#606 = CYLINDRICAL_SURFACE('',#607,5.);
#607 = AXIS2_PLACEMENT_3D('',#608,#609,#610);
#608 = CARTESIAN_POINT('',(-20.,-94.06067646231,0.));
#609 = DIRECTION('',(0.,0.,1.));
#610 = DIRECTION('',(1.,-2.22044604925E-16,0.));
#611 = ADVANCED_FACE('',(#612),#630,.F.);
#612 = FACE_BOUND('',#613,.F.);
#613 = EDGE_LOOP('',(#614,#615,#616,#624));
#614 = ORIENTED_EDGE('',*,*,#179,.F.);
#615 = ORIENTED_EDGE('',*,*,#576,.F.);
#616 = ORIENTED_EDGE('',*,*,#617,.T.);
#617 = EDGE_CURVE('',#568,#618,#620,.T.);
#618 = VERTEX_POINT('',#619);
#619 = CARTESIAN_POINT('',(15.,94.060676462312,10.));
#620 = LINE('',#621,#622);
#621 = CARTESIAN_POINT('',(15.,20.,10.));
#622 = VECTOR('',#623,1.);
#623 = DIRECTION('',(1.110223024625E-16,1.,0.));
#624 = ORIENTED_EDGE('',*,*,#625,.F.);
#625 = EDGE_CURVE('',#171,#618,#626,.T.);
#626 = LINE('',#627,#628);
#627 = CARTESIAN_POINT('',(15.,94.060676462312,0.));
#628 = VECTOR('',#629,1.);
#629 = DIRECTION('',(0.,0.,1.));
#630 = PLANE('',#631);
#631 = AXIS2_PLACEMENT_3D('',#632,#633,#634);
#632 = CARTESIAN_POINT('',(15.,20.,0.));
#633 = DIRECTION('',(-1.,1.110223024625E-16,0.));
#634 = DIRECTION('',(1.110223024625E-16,1.,0.));
#635 = ADVANCED_FACE('',(#636),#654,.F.);
#636 = FACE_BOUND('',#637,.F.);
#637 = EDGE_LOOP('',(#638,#639,#647,#653));
#638 = ORIENTED_EDGE('',*,*,#75,.F.);
#639 = ORIENTED_EDGE('',*,*,#640,.F.);
#640 = EDGE_CURVE('',#641,#76,#643,.T.);
#641 = VERTEX_POINT('',#642);
#642 = CARTESIAN_POINT('',(-15.,-42.42640687119,10.));
#643 = LINE('',#644,#645);
#644 = CARTESIAN_POINT('',(-15.,-42.42640687119,0.));
#645 = VECTOR('',#646,1.);
#646 = DIRECTION('',(-0.,-0.,-1.));
#647 = ORIENTED_EDGE('',*,*,#648,.T.);
#648 = EDGE_CURVE('',#641,#593,#649,.T.);
#649 = LINE('',#650,#651);
#650 = CARTESIAN_POINT('',(-15.,-20.,10.));
#651 = VECTOR('',#652,1.);
#652 = DIRECTION('',(-2.22044604925E-16,-1.,0.));
#653 = ORIENTED_EDGE('',*,*,#601,.F.);
#654 = PLANE('',#655);
#655 = AXIS2_PLACEMENT_3D('',#656,#657,#658);
#656 = CARTESIAN_POINT('',(-15.,-20.,0.));
#657 = DIRECTION('',(1.,-2.22044604925E-16,0.));
#658 = DIRECTION('',(-2.22044604925E-16,-1.,0.));
#659 = ADVANCED_FACE('',(#660),#679,.F.);
#660 = FACE_BOUND('',#661,.T.);
#661 = EDGE_LOOP('',(#662,#663,#671,#678));
#662 = ORIENTED_EDGE('',*,*,#170,.T.);
#663 = ORIENTED_EDGE('',*,*,#664,.T.);
#664 = EDGE_CURVE('',#162,#665,#667,.T.);
#665 = VERTEX_POINT('',#666);
#666 = CARTESIAN_POINT('',(16.666666666667,97.787456424811,10.));
#667 = LINE('',#668,#669);
#668 = CARTESIAN_POINT('',(16.666666666667,97.787456424811,0.));
#669 = VECTOR('',#670,1.);
#670 = DIRECTION('',(0.,0.,1.));
#671 = ORIENTED_EDGE('',*,*,#672,.F.);
#672 = EDGE_CURVE('',#618,#665,#673,.T.);
#673 = CIRCLE('',#674,5.);
#674 = AXIS2_PLACEMENT_3D('',#675,#676,#677);
#675 = CARTESIAN_POINT('',(20.,94.060676462312,10.));
#676 = DIRECTION('',(-0.,-0.,-1.));
#677 = DIRECTION('',(0.,-1.,0.));
#678 = ORIENTED_EDGE('',*,*,#625,.F.);
#679 = CYLINDRICAL_SURFACE('',#680,5.);
#680 = AXIS2_PLACEMENT_3D('',#681,#682,#683);
#681 = CARTESIAN_POINT('',(20.,94.060676462312,0.));
#682 = DIRECTION('',(0.,0.,1.));
#683 = DIRECTION('',(-1.,1.110223024625E-16,0.));
#684 = ADVANCED_FACE('',(#685),#704,.T.);
#685 = FACE_BOUND('',#686,.F.);
#686 = EDGE_LOOP('',(#687,#688,#696,#703));
#687 = ORIENTED_EDGE('',*,*,#83,.F.);
#688 = ORIENTED_EDGE('',*,*,#689,.F.);
#689 = EDGE_CURVE('',#690,#84,#692,.T.);
#690 = VERTEX_POINT('',#691);
#691 = CARTESIAN_POINT('',(-42.42640687119,-15.,10.));
#692 = LINE('',#693,#694);
#693 = CARTESIAN_POINT('',(-42.42640687119,-15.,0.));
#694 = VECTOR('',#695,1.);
#695 = DIRECTION('',(-0.,-0.,-1.));
#696 = ORIENTED_EDGE('',*,*,#697,.T.);
#697 = EDGE_CURVE('',#690,#641,#698,.T.);
#698 = CIRCLE('',#699,45.);
#699 = AXIS2_PLACEMENT_3D('',#700,#701,#702);
#700 = CARTESIAN_POINT('',(0.,0.,10.));
#701 = DIRECTION('',(0.,0.,1.));
#702 = DIRECTION('',(1.,0.,0.));
#703 = ORIENTED_EDGE('',*,*,#640,.T.);
#704 = CYLINDRICAL_SURFACE('',#705,45.);
#705 = AXIS2_PLACEMENT_3D('',#706,#707,#708);
#706 = CARTESIAN_POINT('',(0.,0.,0.));
#707 = DIRECTION('',(-0.,-0.,-1.));
#708 = DIRECTION('',(1.,0.,0.));
#709 = ADVANCED_FACE('',(#710),#729,.T.);
#710 = FACE_BOUND('',#711,.F.);
#711 = EDGE_LOOP('',(#712,#713,#714,#723));
#712 = ORIENTED_EDGE('',*,*,#161,.F.);
#713 = ORIENTED_EDGE('',*,*,#664,.T.);
#714 = ORIENTED_EDGE('',*,*,#715,.T.);
#715 = EDGE_CURVE('',#665,#716,#718,.T.);
#716 = VERTEX_POINT('',#717);
#717 = CARTESIAN_POINT('',(-16.66666666666,97.787456424811,10.));
#718 = CIRCLE('',#719,25.);
#719 = AXIS2_PLACEMENT_3D('',#720,#721,#722);
#720 = CARTESIAN_POINT('',(1.292536702039E-14,116.42135623731,10.));
#721 = DIRECTION('',(0.,-0.,1.));
#722 = DIRECTION('',(1.110223024625E-16,1.,0.));
#723 = ORIENTED_EDGE('',*,*,#724,.F.);
#724 = EDGE_CURVE('',#153,#716,#725,.T.);
#725 = LINE('',#726,#727);
#726 = CARTESIAN_POINT('',(-16.66666666666,97.787456424811,0.));
#727 = VECTOR('',#728,1.);
#728 = DIRECTION('',(0.,0.,1.));
#729 = CYLINDRICAL_SURFACE('',#730,25.);
#730 = AXIS2_PLACEMENT_3D('',#731,#732,#733);
#731 = CARTESIAN_POINT('',(1.292536702039E-14,116.42135623731,0.));
#732 = DIRECTION('',(0.,-0.,-1.));
#733 = DIRECTION('',(1.110223024625E-16,1.,0.));
#734 = ADVANCED_FACE('',(#735),#753,.T.);
#735 = FACE_BOUND('',#736,.T.);
#736 = EDGE_LOOP('',(#737,#738,#739,#747));
#737 = ORIENTED_EDGE('',*,*,#92,.F.);
#738 = ORIENTED_EDGE('',*,*,#689,.F.);
#739 = ORIENTED_EDGE('',*,*,#740,.T.);
#740 = EDGE_CURVE('',#690,#741,#743,.T.);
#741 = VERTEX_POINT('',#742);
#742 = CARTESIAN_POINT('',(-94.06067646231,-15.,10.));
#743 = LINE('',#744,#745);
#744 = CARTESIAN_POINT('',(-20.,-15.,10.));
#745 = VECTOR('',#746,1.);
#746 = DIRECTION('',(-1.,1.224646799147E-16,0.));
#747 = ORIENTED_EDGE('',*,*,#748,.F.);
#748 = EDGE_CURVE('',#93,#741,#749,.T.);
#749 = LINE('',#750,#751);
#750 = CARTESIAN_POINT('',(-94.06067646231,-15.,0.));
#751 = VECTOR('',#752,1.);
#752 = DIRECTION('',(0.,0.,1.));
#753 = PLANE('',#754);
#754 = AXIS2_PLACEMENT_3D('',#755,#756,#757);
#755 = CARTESIAN_POINT('',(-20.,-15.,0.));
#756 = DIRECTION('',(-1.224646799147E-16,-1.,0.));
#757 = DIRECTION('',(-1.,1.224646799147E-16,0.));
#758 = ADVANCED_FACE('',(#759),#778,.F.);
#759 = FACE_BOUND('',#760,.T.);
#760 = EDGE_LOOP('',(#761,#762,#770,#777));
#761 = ORIENTED_EDGE('',*,*,#152,.T.);
#762 = ORIENTED_EDGE('',*,*,#763,.T.);
#763 = EDGE_CURVE('',#145,#764,#766,.T.);
#764 = VERTEX_POINT('',#765);
#765 = CARTESIAN_POINT('',(-15.,94.060676462312,10.));
#766 = LINE('',#767,#768);
#767 = CARTESIAN_POINT('',(-15.,94.060676462312,0.));
#768 = VECTOR('',#769,1.);
#769 = DIRECTION('',(0.,0.,1.));
#770 = ORIENTED_EDGE('',*,*,#771,.F.);
#771 = EDGE_CURVE('',#716,#764,#772,.T.);
#772 = CIRCLE('',#773,5.);
#773 = AXIS2_PLACEMENT_3D('',#774,#775,#776);
#774 = CARTESIAN_POINT('',(-20.,94.060676462312,10.));
#775 = DIRECTION('',(-0.,-0.,-1.));
#776 = DIRECTION('',(0.,-1.,0.));
#777 = ORIENTED_EDGE('',*,*,#724,.F.);
#778 = CYLINDRICAL_SURFACE('',#779,5.);
#779 = AXIS2_PLACEMENT_3D('',#780,#781,#782);
#780 = CARTESIAN_POINT('',(-20.,94.060676462312,0.));
#781 = DIRECTION('',(0.,0.,1.));
#782 = DIRECTION('',(0.666666666667,0.7453559925,0.));
#783 = ADVANCED_FACE('',(#784),#803,.F.);
#784 = FACE_BOUND('',#785,.F.);
#785 = EDGE_LOOP('',(#786,#787,#795,#802));
#786 = ORIENTED_EDGE('',*,*,#100,.T.);
#787 = ORIENTED_EDGE('',*,*,#788,.T.);
#788 = EDGE_CURVE('',#101,#789,#791,.T.);
#789 = VERTEX_POINT('',#790);
#790 = CARTESIAN_POINT('',(-97.78745642481,-16.66666666666,10.));
#791 = LINE('',#792,#793);
#792 = CARTESIAN_POINT('',(-97.78745642481,-16.66666666666,0.));
#793 = VECTOR('',#794,1.);
#794 = DIRECTION('',(0.,0.,1.));
#795 = ORIENTED_EDGE('',*,*,#796,.F.);
#796 = EDGE_CURVE('',#741,#789,#797,.T.);
#797 = CIRCLE('',#798,5.);
#798 = AXIS2_PLACEMENT_3D('',#799,#800,#801);
#799 = CARTESIAN_POINT('',(-94.06067646231,-20.,10.));
#800 = DIRECTION('',(-0.,0.,1.));
#801 = DIRECTION('',(0.,-1.,0.));
#802 = ORIENTED_EDGE('',*,*,#748,.F.);
#803 = CYLINDRICAL_SURFACE('',#804,5.);
#804 = AXIS2_PLACEMENT_3D('',#805,#806,#807);
#805 = CARTESIAN_POINT('',(-94.06067646231,-20.,0.));
#806 = DIRECTION('',(0.,0.,1.));
#807 = DIRECTION('',(1.224646799147E-16,1.,0.));
#808 = ADVANCED_FACE('',(#809),#827,.T.);
#809 = FACE_BOUND('',#810,.T.);
#810 = EDGE_LOOP('',(#811,#812,#820,#826));
#811 = ORIENTED_EDGE('',*,*,#144,.F.);
#812 = ORIENTED_EDGE('',*,*,#813,.F.);
#813 = EDGE_CURVE('',#814,#136,#816,.T.);
#814 = VERTEX_POINT('',#815);
#815 = CARTESIAN_POINT('',(-15.,42.426406871193,10.));
#816 = LINE('',#817,#818);
#817 = CARTESIAN_POINT('',(-15.,42.426406871193,0.));
#818 = VECTOR('',#819,1.);
#819 = DIRECTION('',(-0.,-0.,-1.));
#820 = ORIENTED_EDGE('',*,*,#821,.T.);
#821 = EDGE_CURVE('',#814,#764,#822,.T.);
#822 = LINE('',#823,#824);
#823 = CARTESIAN_POINT('',(-15.,20.,10.));
#824 = VECTOR('',#825,1.);
#825 = DIRECTION('',(1.110223024625E-16,1.,0.));
#826 = ORIENTED_EDGE('',*,*,#763,.F.);
#827 = PLANE('',#828);
#828 = AXIS2_PLACEMENT_3D('',#829,#830,#831);
#829 = CARTESIAN_POINT('',(-15.,20.,0.));
#830 = DIRECTION('',(-1.,1.110223024625E-16,0.));
#831 = DIRECTION('',(1.110223024625E-16,1.,0.));
#832 = ADVANCED_FACE('',(#833),#852,.T.);
#833 = FACE_BOUND('',#834,.F.);
#834 = EDGE_LOOP('',(#835,#836,#844,#851));
#835 = ORIENTED_EDGE('',*,*,#109,.F.);
#836 = ORIENTED_EDGE('',*,*,#837,.T.);
#837 = EDGE_CURVE('',#110,#838,#840,.T.);
#838 = VERTEX_POINT('',#839);
#839 = CARTESIAN_POINT('',(-97.78745642481,16.666666666667,10.));
#840 = LINE('',#841,#842);
#841 = CARTESIAN_POINT('',(-97.78745642481,16.666666666667,0.));
#842 = VECTOR('',#843,1.);
#843 = DIRECTION('',(0.,0.,1.));
#844 = ORIENTED_EDGE('',*,*,#845,.T.);
#845 = EDGE_CURVE('',#838,#789,#846,.T.);
#846 = CIRCLE('',#847,25.);
#847 = AXIS2_PLACEMENT_3D('',#848,#849,#850);
#848 = CARTESIAN_POINT('',(-116.4213562373,1.425750412196E-14,10.));
#849 = DIRECTION('',(0.,0.,1.));
#850 = DIRECTION('',(-1.,1.224646799147E-16,0.));
#851 = ORIENTED_EDGE('',*,*,#788,.F.);
#852 = CYLINDRICAL_SURFACE('',#853,25.);
#853 = AXIS2_PLACEMENT_3D('',#854,#855,#856);
#854 = CARTESIAN_POINT('',(-116.4213562373,1.425750412196E-14,0.));
#855 = DIRECTION('',(0.,0.,-1.));
#856 = DIRECTION('',(-1.,1.224646799147E-16,0.));
#857 = ADVANCED_FACE('',(#858),#877,.T.);
#858 = FACE_BOUND('',#859,.F.);
#859 = EDGE_LOOP('',(#860,#861,#862,#871));
#860 = ORIENTED_EDGE('',*,*,#135,.F.);
#861 = ORIENTED_EDGE('',*,*,#813,.F.);
#862 = ORIENTED_EDGE('',*,*,#863,.T.);
#863 = EDGE_CURVE('',#814,#864,#866,.T.);
#864 = VERTEX_POINT('',#865);
#865 = CARTESIAN_POINT('',(-42.42640687119,15.,10.));
#866 = CIRCLE('',#867,45.);
#867 = AXIS2_PLACEMENT_3D('',#868,#869,#870);
#868 = CARTESIAN_POINT('',(0.,0.,10.));
#869 = DIRECTION('',(0.,0.,1.));
#870 = DIRECTION('',(1.,0.,0.));
#871 = ORIENTED_EDGE('',*,*,#872,.T.);
#872 = EDGE_CURVE('',#864,#128,#873,.T.);
#873 = LINE('',#874,#875);
#874 = CARTESIAN_POINT('',(-42.42640687119,15.,0.));
#875 = VECTOR('',#876,1.);
#876 = DIRECTION('',(-0.,-0.,-1.));
#877 = CYLINDRICAL_SURFACE('',#878,45.);
#878 = AXIS2_PLACEMENT_3D('',#879,#880,#881);
#879 = CARTESIAN_POINT('',(0.,0.,0.));
#880 = DIRECTION('',(-0.,-0.,-1.));
#881 = DIRECTION('',(1.,0.,0.));
#882 = ADVANCED_FACE('',(#883),#902,.F.);
#883 = FACE_BOUND('',#884,.F.);
#884 = EDGE_LOOP('',(#885,#886,#894,#901));
#885 = ORIENTED_EDGE('',*,*,#118,.T.);
#886 = ORIENTED_EDGE('',*,*,#887,.T.);
#887 = EDGE_CURVE('',#119,#888,#890,.T.);
#888 = VERTEX_POINT('',#889);
#889 = CARTESIAN_POINT('',(-94.06067646231,15.,10.));
#890 = LINE('',#891,#892);
#891 = CARTESIAN_POINT('',(-94.06067646231,15.,0.));
#892 = VECTOR('',#893,1.);
#893 = DIRECTION('',(0.,0.,1.));
#894 = ORIENTED_EDGE('',*,*,#895,.F.);
#895 = EDGE_CURVE('',#838,#888,#896,.T.);
#896 = CIRCLE('',#897,5.);
#897 = AXIS2_PLACEMENT_3D('',#898,#899,#900);
#898 = CARTESIAN_POINT('',(-94.06067646231,20.,10.));
#899 = DIRECTION('',(-0.,0.,1.));
#900 = DIRECTION('',(0.,-1.,0.));
#901 = ORIENTED_EDGE('',*,*,#837,.F.);
#902 = CYLINDRICAL_SURFACE('',#903,5.);
#903 = AXIS2_PLACEMENT_3D('',#904,#905,#906);
#904 = CARTESIAN_POINT('',(-94.06067646231,20.,0.));
#905 = DIRECTION('',(0.,0.,1.));
#906 = DIRECTION('',(-0.7453559925,-0.666666666667,-0.));
#907 = ADVANCED_FACE('',(#908),#919,.F.);
#908 = FACE_BOUND('',#909,.F.);
#909 = EDGE_LOOP('',(#910,#911,#912,#918));
#910 = ORIENTED_EDGE('',*,*,#127,.F.);
#911 = ORIENTED_EDGE('',*,*,#872,.F.);
#912 = ORIENTED_EDGE('',*,*,#913,.T.);
#913 = EDGE_CURVE('',#864,#888,#914,.T.);
#914 = LINE('',#915,#916);
#915 = CARTESIAN_POINT('',(-20.,15.,10.));
#916 = VECTOR('',#917,1.);
#917 = DIRECTION('',(-1.,1.224646799147E-16,0.));
#918 = ORIENTED_EDGE('',*,*,#887,.F.);
#919 = PLANE('',#920);
#920 = AXIS2_PLACEMENT_3D('',#921,#922,#923);
#921 = CARTESIAN_POINT('',(-20.,15.,0.));
#922 = DIRECTION('',(-1.224646799147E-16,-1.,0.));
#923 = DIRECTION('',(-1.,1.224646799147E-16,0.));
#924 = ADVANCED_FACE('',(#925),#953,.F.);
#925 = FACE_BOUND('',#926,.F.);
#926 = EDGE_LOOP('',(#927,#935,#944,#951,#952));
#927 = ORIENTED_EDGE('',*,*,#928,.F.);
#928 = EDGE_CURVE('',#929,#232,#931,.T.);
#929 = VERTEX_POINT('',#930);
#930 = CARTESIAN_POINT('',(2.,-116.4213562373,3.5));
#931 = LINE('',#932,#933);
#932 = CARTESIAN_POINT('',(2.,-116.4213562373,10.));
#933 = VECTOR('',#934,1.);
#934 = DIRECTION('',(-0.,-0.,-1.));
#935 = ORIENTED_EDGE('',*,*,#936,.F.);
#936 = EDGE_CURVE('',#937,#929,#939,.T.);
#937 = VERTEX_POINT('',#938);
#938 = CARTESIAN_POINT('',(-2.551766714316E-14,-118.4213562373,3.5));
#939 = CIRCLE('',#940,2.);
#940 = AXIS2_PLACEMENT_3D('',#941,#942,#943);
#941 = CARTESIAN_POINT('',(0.,-116.4213562373,3.5));
#942 = DIRECTION('',(0.,0.,1.));
#943 = DIRECTION('',(1.,0.,0.));
#944 = ORIENTED_EDGE('',*,*,#945,.F.);
#945 = EDGE_CURVE('',#929,#937,#946,.T.);
#946 = CIRCLE('',#947,2.);
#947 = AXIS2_PLACEMENT_3D('',#948,#949,#950);
#948 = CARTESIAN_POINT('',(0.,-116.4213562373,3.5));
#949 = DIRECTION('',(0.,0.,1.));
#950 = DIRECTION('',(1.,0.,0.));
#951 = ORIENTED_EDGE('',*,*,#928,.T.);
#952 = ORIENTED_EDGE('',*,*,#231,.T.);
#953 = CYLINDRICAL_SURFACE('',#954,2.);
#954 = AXIS2_PLACEMENT_3D('',#955,#956,#957);
#955 = CARTESIAN_POINT('',(0.,-116.4213562373,10.));
#956 = DIRECTION('',(0.,0.,1.));
#957 = DIRECTION('',(1.,0.,0.));
#958 = ADVANCED_FACE('',(#959),#978,.F.);
#959 = FACE_BOUND('',#960,.F.);
#960 = EDGE_LOOP('',(#961,#970,#976,#977));
#961 = ORIENTED_EDGE('',*,*,#962,.F.);
#962 = EDGE_CURVE('',#963,#963,#965,.T.);
#963 = VERTEX_POINT('',#964);
#964 = CARTESIAN_POINT('',(-1.15463194561E-14,-52.,10.));
#965 = CIRCLE('',#966,2.);
#966 = AXIS2_PLACEMENT_3D('',#967,#968,#969);
#967 = CARTESIAN_POINT('',(-1.110223024625E-14,-50.,10.));
#968 = DIRECTION('',(0.,0.,1.));
#969 = DIRECTION('',(-2.22044604925E-16,-1.,0.));
#970 = ORIENTED_EDGE('',*,*,#971,.T.);
#971 = EDGE_CURVE('',#963,#243,#972,.T.);
#972 = LINE('',#973,#974);
#973 = CARTESIAN_POINT('',(-1.15463194561E-14,-52.,10.));
#974 = VECTOR('',#975,1.);
#975 = DIRECTION('',(0.,0.,-1.));
#976 = ORIENTED_EDGE('',*,*,#242,.T.);
#977 = ORIENTED_EDGE('',*,*,#971,.F.);
#978 = CYLINDRICAL_SURFACE('',#979,2.);
#979 = AXIS2_PLACEMENT_3D('',#980,#981,#982);
#980 = CARTESIAN_POINT('',(-1.110223024625E-14,-50.,10.));
#981 = DIRECTION('',(0.,0.,1.));
#982 = DIRECTION('',(-2.22044604925E-16,-1.,0.));
#983 = ADVANCED_FACE('',(#984),#1003,.F.);
#984 = FACE_BOUND('',#985,.F.);
#985 = EDGE_LOOP('',(#986,#994,#1001,#1002));
#986 = ORIENTED_EDGE('',*,*,#987,.F.);
#987 = EDGE_CURVE('',#988,#254,#990,.T.);
#988 = VERTEX_POINT('',#989);
#989 = CARTESIAN_POINT('',(118.42135623731,3.814614773005E-16,3.5));
#990 = LINE('',#991,#992);
#991 = CARTESIAN_POINT('',(118.42135623731,0.,10.));
#992 = VECTOR('',#993,1.);
#993 = DIRECTION('',(-0.,-0.,-1.));
#994 = ORIENTED_EDGE('',*,*,#995,.F.);
#995 = EDGE_CURVE('',#988,#988,#996,.T.);
#996 = CIRCLE('',#997,2.);
#997 = AXIS2_PLACEMENT_3D('',#998,#999,#1000);
#998 = CARTESIAN_POINT('',(116.42135623731,0.,3.5));
#999 = DIRECTION('',(0.,0.,1.));
#1000 = DIRECTION('',(1.,0.,0.));
#1001 = ORIENTED_EDGE('',*,*,#987,.T.);
#1002 = ORIENTED_EDGE('',*,*,#253,.T.);
#1003 = CYLINDRICAL_SURFACE('',#1004,2.);
#1004 = AXIS2_PLACEMENT_3D('',#1005,#1006,#1007);
#1005 = CARTESIAN_POINT('',(116.42135623731,0.,10.));
#1006 = DIRECTION('',(0.,0.,1.));
#1007 = DIRECTION('',(1.,0.,0.));
#1008 = ADVANCED_FACE('',(#1009),#1028,.F.);
#1009 = FACE_BOUND('',#1010,.F.);
#1010 = EDGE_LOOP('',(#1011,#1020,#1026,#1027));
#1011 = ORIENTED_EDGE('',*,*,#1012,.F.);
#1012 = EDGE_CURVE('',#1013,#1013,#1015,.T.);
#1013 = VERTEX_POINT('',#1014);
#1014 = CARTESIAN_POINT('',(52.,0.,10.));
#1015 = CIRCLE('',#1016,2.);
#1016 = AXIS2_PLACEMENT_3D('',#1017,#1018,#1019);
#1017 = CARTESIAN_POINT('',(50.,0.,10.));
#1018 = DIRECTION('',(0.,0.,1.));
#1019 = DIRECTION('',(1.,0.,0.));
#1020 = ORIENTED_EDGE('',*,*,#1021,.T.);
#1021 = EDGE_CURVE('',#1013,#265,#1022,.T.);
#1022 = LINE('',#1023,#1024);
#1023 = CARTESIAN_POINT('',(52.,0.,10.));
#1024 = VECTOR('',#1025,1.);
#1025 = DIRECTION('',(-0.,-0.,-1.));
#1026 = ORIENTED_EDGE('',*,*,#264,.T.);
#1027 = ORIENTED_EDGE('',*,*,#1021,.F.);
#1028 = CYLINDRICAL_SURFACE('',#1029,2.);
#1029 = AXIS2_PLACEMENT_3D('',#1030,#1031,#1032);
#1030 = CARTESIAN_POINT('',(50.,0.,10.));
#1031 = DIRECTION('',(0.,0.,1.));
#1032 = DIRECTION('',(1.,0.,0.));
#1033 = ADVANCED_FACE('',(#1034),#1053,.F.);
#1034 = FACE_BOUND('',#1035,.F.);
#1035 = EDGE_LOOP('',(#1036,#1045,#1051,#1052));
#1036 = ORIENTED_EDGE('',*,*,#1037,.F.);
#1037 = EDGE_CURVE('',#1038,#1038,#1040,.T.);
#1038 = VERTEX_POINT('',#1039);
#1039 = CARTESIAN_POINT('',(5.773159728051E-15,52.,10.));
#1040 = CIRCLE('',#1041,2.);
#1041 = AXIS2_PLACEMENT_3D('',#1042,#1043,#1044);
#1042 = CARTESIAN_POINT('',(5.551115123126E-15,50.,10.));
#1043 = DIRECTION('',(0.,-0.,1.));
#1044 = DIRECTION('',(1.110223024625E-16,1.,0.));
#1045 = ORIENTED_EDGE('',*,*,#1046,.T.);
#1046 = EDGE_CURVE('',#1038,#276,#1047,.T.);
#1047 = LINE('',#1048,#1049);
#1048 = CARTESIAN_POINT('',(5.773159728051E-15,52.,10.));
#1049 = VECTOR('',#1050,1.);
#1050 = DIRECTION('',(0.,-0.,-1.));
#1051 = ORIENTED_EDGE('',*,*,#275,.T.);
#1052 = ORIENTED_EDGE('',*,*,#1046,.F.);
#1053 = CYLINDRICAL_SURFACE('',#1054,2.);
#1054 = AXIS2_PLACEMENT_3D('',#1055,#1056,#1057);
#1055 = CARTESIAN_POINT('',(5.551115123126E-15,50.,10.));
#1056 = DIRECTION('',(0.,0.,1.));
#1057 = DIRECTION('',(1.110223024625E-16,1.,0.));
#1058 = ADVANCED_FACE('',(#1059),#1078,.F.);
#1059 = FACE_BOUND('',#1060,.F.);
#1060 = EDGE_LOOP('',(#1061,#1069,#1076,#1077));
#1061 = ORIENTED_EDGE('',*,*,#1062,.F.);
#1062 = EDGE_CURVE('',#1063,#287,#1065,.T.);
#1063 = VERTEX_POINT('',#1064);
#1064 = CARTESIAN_POINT('',(2.,3.814614773005E-16,3.5));
#1065 = LINE('',#1066,#1067);
#1066 = CARTESIAN_POINT('',(2.,0.,10.));
#1067 = VECTOR('',#1068,1.);
#1068 = DIRECTION('',(-0.,-0.,-1.));
#1069 = ORIENTED_EDGE('',*,*,#1070,.F.);
#1070 = EDGE_CURVE('',#1063,#1063,#1071,.T.);
#1071 = CIRCLE('',#1072,2.);
#1072 = AXIS2_PLACEMENT_3D('',#1073,#1074,#1075);
#1073 = CARTESIAN_POINT('',(0.,0.,3.5));
#1074 = DIRECTION('',(0.,0.,1.));
#1075 = DIRECTION('',(1.,0.,0.));
#1076 = ORIENTED_EDGE('',*,*,#1062,.T.);
#1077 = ORIENTED_EDGE('',*,*,#286,.T.);
#1078 = CYLINDRICAL_SURFACE('',#1079,2.);
#1079 = AXIS2_PLACEMENT_3D('',#1080,#1081,#1082);
#1080 = CARTESIAN_POINT('',(0.,0.,10.));
#1081 = DIRECTION('',(0.,0.,1.));
#1082 = DIRECTION('',(1.,0.,0.));
#1083 = ADVANCED_FACE('',(#1084),#1103,.F.);
#1084 = FACE_BOUND('',#1085,.F.);
#1085 = EDGE_LOOP('',(#1086,#1095,#1101,#1102));
#1086 = ORIENTED_EDGE('',*,*,#1087,.F.);
#1087 = EDGE_CURVE('',#1088,#1088,#1090,.T.);
#1088 = VERTEX_POINT('',#1089);
#1089 = CARTESIAN_POINT('',(-52.,6.368163355566E-15,10.));
#1090 = CIRCLE('',#1091,2.);
#1091 = AXIS2_PLACEMENT_3D('',#1092,#1093,#1094);
#1092 = CARTESIAN_POINT('',(-50.,6.123233995737E-15,10.));
#1093 = DIRECTION('',(0.,0.,1.));
#1094 = DIRECTION('',(-1.,1.224646799147E-16,0.));
#1095 = ORIENTED_EDGE('',*,*,#1096,.T.);
#1096 = EDGE_CURVE('',#1088,#298,#1097,.T.);
#1097 = LINE('',#1098,#1099);
#1098 = CARTESIAN_POINT('',(-52.,6.368163355566E-15,10.));
#1099 = VECTOR('',#1100,1.);
#1100 = DIRECTION('',(0.,0.,-1.));
#1101 = ORIENTED_EDGE('',*,*,#297,.T.);
#1102 = ORIENTED_EDGE('',*,*,#1096,.F.);
#1103 = CYLINDRICAL_SURFACE('',#1104,2.);
#1104 = AXIS2_PLACEMENT_3D('',#1105,#1106,#1107);
#1105 = CARTESIAN_POINT('',(-50.,6.123233995737E-15,10.));
#1106 = DIRECTION('',(0.,0.,1.));
#1107 = DIRECTION('',(-1.,1.224646799147E-16,0.));
#1108 = ADVANCED_FACE('',(#1109),#1137,.F.);
#1109 = FACE_BOUND('',#1110,.F.);
#1110 = EDGE_LOOP('',(#1111,#1119,#1128,#1135,#1136));
#1111 = ORIENTED_EDGE('',*,*,#1112,.F.);
#1112 = EDGE_CURVE('',#1113,#309,#1115,.T.);
#1113 = VERTEX_POINT('',#1114);
#1114 = CARTESIAN_POINT('',(-114.4213562373,0.,3.5));
#1115 = LINE('',#1116,#1117);
#1116 = CARTESIAN_POINT('',(-114.4213562373,0.,10.));
#1117 = VECTOR('',#1118,1.);
#1118 = DIRECTION('',(-0.,-0.,-1.));
#1119 = ORIENTED_EDGE('',*,*,#1120,.F.);
#1120 = EDGE_CURVE('',#1121,#1113,#1123,.T.);
#1121 = VERTEX_POINT('',#1122);
#1122 = CARTESIAN_POINT('',(-118.4213562373,1.450243348667E-14,3.5));
#1123 = CIRCLE('',#1124,2.);
#1124 = AXIS2_PLACEMENT_3D('',#1125,#1126,#1127);
#1125 = CARTESIAN_POINT('',(-116.4213562373,0.,3.5));
#1126 = DIRECTION('',(0.,0.,1.));
#1127 = DIRECTION('',(1.,0.,0.));
#1128 = ORIENTED_EDGE('',*,*,#1129,.F.);
#1129 = EDGE_CURVE('',#1113,#1121,#1130,.T.);
#1130 = CIRCLE('',#1131,2.);
#1131 = AXIS2_PLACEMENT_3D('',#1132,#1133,#1134);
#1132 = CARTESIAN_POINT('',(-116.4213562373,0.,3.5));
#1133 = DIRECTION('',(0.,0.,1.));
#1134 = DIRECTION('',(1.,0.,0.));
#1135 = ORIENTED_EDGE('',*,*,#1112,.T.);
#1136 = ORIENTED_EDGE('',*,*,#308,.T.);
#1137 = CYLINDRICAL_SURFACE('',#1138,2.);
#1138 = AXIS2_PLACEMENT_3D('',#1139,#1140,#1141);
#1139 = CARTESIAN_POINT('',(-116.4213562373,0.,10.));
#1140 = DIRECTION('',(0.,0.,1.));
#1141 = DIRECTION('',(1.,0.,0.));
#1142 = ADVANCED_FACE('',(#1143),#1171,.F.);
#1143 = FACE_BOUND('',#1144,.F.);
#1144 = EDGE_LOOP('',(#1145,#1153,#1162,#1169,#1170));
#1145 = ORIENTED_EDGE('',*,*,#1146,.F.);
#1146 = EDGE_CURVE('',#1147,#320,#1149,.T.);
#1147 = VERTEX_POINT('',#1148);
#1148 = CARTESIAN_POINT('',(2.,116.42135623731,3.5));
#1149 = LINE('',#1150,#1151);
#1150 = CARTESIAN_POINT('',(2.,116.42135623731,10.));
#1151 = VECTOR('',#1152,1.);
#1152 = DIRECTION('',(-0.,-0.,-1.));
#1153 = ORIENTED_EDGE('',*,*,#1154,.F.);
#1154 = EDGE_CURVE('',#1155,#1147,#1157,.T.);
#1155 = VERTEX_POINT('',#1156);
#1156 = CARTESIAN_POINT('',(1.31474116302E-14,118.42135623731,3.5));
#1157 = CIRCLE('',#1158,2.);
#1158 = AXIS2_PLACEMENT_3D('',#1159,#1160,#1161);
#1159 = CARTESIAN_POINT('',(0.,116.42135623731,3.5));
#1160 = DIRECTION('',(0.,0.,1.));
#1161 = DIRECTION('',(1.,0.,0.));
#1162 = ORIENTED_EDGE('',*,*,#1163,.F.);
#1163 = EDGE_CURVE('',#1147,#1155,#1164,.T.);
#1164 = CIRCLE('',#1165,2.);
#1165 = AXIS2_PLACEMENT_3D('',#1166,#1167,#1168);
#1166 = CARTESIAN_POINT('',(0.,116.42135623731,3.5));
#1167 = DIRECTION('',(0.,0.,1.));
#1168 = DIRECTION('',(1.,0.,0.));
#1169 = ORIENTED_EDGE('',*,*,#1146,.T.);
#1170 = ORIENTED_EDGE('',*,*,#319,.T.);
#1171 = CYLINDRICAL_SURFACE('',#1172,2.);
#1172 = AXIS2_PLACEMENT_3D('',#1173,#1174,#1175);
#1173 = CARTESIAN_POINT('',(0.,116.42135623731,10.));
#1174 = DIRECTION('',(0.,0.,1.));
#1175 = DIRECTION('',(1.,0.,0.));
#1176 = ADVANCED_FACE('',(#1177,#1203,#1206,#1217,#1228,#1231,#1242,
    #1245,#1248,#1259),#1270,.T.);
#1177 = FACE_BOUND('',#1178,.T.);
#1178 = EDGE_LOOP('',(#1179,#1180,#1181,#1182,#1183,#1184,#1185,#1186,
    #1187,#1188,#1189,#1190,#1191,#1192,#1193,#1194,#1195,#1196,#1197,
    #1198,#1199,#1200,#1201,#1202));
#1179 = ORIENTED_EDGE('',*,*,#444,.F.);
#1180 = ORIENTED_EDGE('',*,*,#401,.T.);
#1181 = ORIENTED_EDGE('',*,*,#345,.T.);
#1182 = ORIENTED_EDGE('',*,*,#376,.T.);
#1183 = ORIENTED_EDGE('',*,*,#419,.T.);
#1184 = ORIENTED_EDGE('',*,*,#475,.T.);
#1185 = ORIENTED_EDGE('',*,*,#525,.F.);
#1186 = ORIENTED_EDGE('',*,*,#567,.T.);
#1187 = ORIENTED_EDGE('',*,*,#617,.T.);
#1188 = ORIENTED_EDGE('',*,*,#672,.T.);
#1189 = ORIENTED_EDGE('',*,*,#715,.T.);
#1190 = ORIENTED_EDGE('',*,*,#771,.T.);
#1191 = ORIENTED_EDGE('',*,*,#821,.F.);
#1192 = ORIENTED_EDGE('',*,*,#863,.T.);
#1193 = ORIENTED_EDGE('',*,*,#913,.T.);
#1194 = ORIENTED_EDGE('',*,*,#895,.F.);
#1195 = ORIENTED_EDGE('',*,*,#845,.T.);
#1196 = ORIENTED_EDGE('',*,*,#796,.F.);
#1197 = ORIENTED_EDGE('',*,*,#740,.F.);
#1198 = ORIENTED_EDGE('',*,*,#697,.T.);
#1199 = ORIENTED_EDGE('',*,*,#648,.T.);
#1200 = ORIENTED_EDGE('',*,*,#592,.T.);
#1201 = ORIENTED_EDGE('',*,*,#549,.T.);
#1202 = ORIENTED_EDGE('',*,*,#500,.F.);
#1203 = FACE_BOUND('',#1204,.T.);
#1204 = EDGE_LOOP('',(#1205));
#1205 = ORIENTED_EDGE('',*,*,#962,.F.);
#1206 = FACE_BOUND('',#1207,.T.);
#1207 = EDGE_LOOP('',(#1208));
#1208 = ORIENTED_EDGE('',*,*,#1209,.F.);
#1209 = EDGE_CURVE('',#1210,#1210,#1212,.T.);
#1210 = VERTEX_POINT('',#1211);
#1211 = CARTESIAN_POINT('',(4.5,-116.4213562373,10.));
#1212 = CIRCLE('',#1213,4.5);
#1213 = AXIS2_PLACEMENT_3D('',#1214,#1215,#1216);
#1214 = CARTESIAN_POINT('',(0.,-116.4213562373,10.));
#1215 = DIRECTION('',(0.,0.,1.));
#1216 = DIRECTION('',(1.,0.,0.));
#1217 = FACE_BOUND('',#1218,.T.);
#1218 = EDGE_LOOP('',(#1219));
#1219 = ORIENTED_EDGE('',*,*,#1220,.F.);
#1220 = EDGE_CURVE('',#1221,#1221,#1223,.T.);
#1221 = VERTEX_POINT('',#1222);
#1222 = CARTESIAN_POINT('',(-111.9213562373,0.,10.));
#1223 = CIRCLE('',#1224,4.5);
#1224 = AXIS2_PLACEMENT_3D('',#1225,#1226,#1227);
#1225 = CARTESIAN_POINT('',(-116.4213562373,0.,10.));
#1226 = DIRECTION('',(0.,0.,1.));
#1227 = DIRECTION('',(1.,0.,0.));
#1228 = FACE_BOUND('',#1229,.T.);
#1229 = EDGE_LOOP('',(#1230));
#1230 = ORIENTED_EDGE('',*,*,#1087,.F.);
#1231 = FACE_BOUND('',#1232,.T.);
#1232 = EDGE_LOOP('',(#1233));
#1233 = ORIENTED_EDGE('',*,*,#1234,.F.);
#1234 = EDGE_CURVE('',#1235,#1235,#1237,.T.);
#1235 = VERTEX_POINT('',#1236);
#1236 = CARTESIAN_POINT('',(4.5,0.,10.));
#1237 = CIRCLE('',#1238,4.5);
#1238 = AXIS2_PLACEMENT_3D('',#1239,#1240,#1241);
#1239 = CARTESIAN_POINT('',(0.,0.,10.));
#1240 = DIRECTION('',(0.,0.,1.));
#1241 = DIRECTION('',(1.,0.,0.));
#1242 = FACE_BOUND('',#1243,.T.);
#1243 = EDGE_LOOP('',(#1244));
#1244 = ORIENTED_EDGE('',*,*,#1012,.F.);
#1245 = FACE_BOUND('',#1246,.T.);
#1246 = EDGE_LOOP('',(#1247));
#1247 = ORIENTED_EDGE('',*,*,#1037,.F.);
#1248 = FACE_BOUND('',#1249,.T.);
#1249 = EDGE_LOOP('',(#1250));
#1250 = ORIENTED_EDGE('',*,*,#1251,.F.);
#1251 = EDGE_CURVE('',#1252,#1252,#1254,.T.);
#1252 = VERTEX_POINT('',#1253);
#1253 = CARTESIAN_POINT('',(120.92135623731,0.,10.));
#1254 = CIRCLE('',#1255,4.5);
#1255 = AXIS2_PLACEMENT_3D('',#1256,#1257,#1258);
#1256 = CARTESIAN_POINT('',(116.42135623731,0.,10.));
#1257 = DIRECTION('',(0.,0.,1.));
#1258 = DIRECTION('',(1.,0.,0.));
#1259 = FACE_BOUND('',#1260,.T.);
#1260 = EDGE_LOOP('',(#1261));
#1261 = ORIENTED_EDGE('',*,*,#1262,.F.);
#1262 = EDGE_CURVE('',#1263,#1263,#1265,.T.);
#1263 = VERTEX_POINT('',#1264);
#1264 = CARTESIAN_POINT('',(4.5,116.42135623731,10.));
#1265 = CIRCLE('',#1266,4.5);
#1266 = AXIS2_PLACEMENT_3D('',#1267,#1268,#1269);
#1267 = CARTESIAN_POINT('',(0.,116.42135623731,10.));
#1268 = DIRECTION('',(0.,0.,1.));
#1269 = DIRECTION('',(1.,0.,0.));
#1270 = PLANE('',#1271);
#1271 = AXIS2_PLACEMENT_3D('',#1272,#1273,#1274);
#1272 = CARTESIAN_POINT('',(-3.018850645544E-15,4.391055484428E-15,10.)
  );
#1273 = DIRECTION('',(0.,0.,1.));
#1274 = DIRECTION('',(1.,0.,0.));
#1275 = ADVANCED_FACE('',(#1276),#1305,.F.);
#1276 = FACE_BOUND('',#1277,.F.);
#1277 = EDGE_LOOP('',(#1278,#1286,#1295,#1302,#1303,#1304));
#1278 = ORIENTED_EDGE('',*,*,#1279,.F.);
#1279 = EDGE_CURVE('',#1280,#937,#1282,.T.);
#1280 = VERTEX_POINT('',#1281);
#1281 = CARTESIAN_POINT('',(-2.551766714316E-14,-120.9213562373,6.));
#1282 = LINE('',#1283,#1284);
#1283 = CARTESIAN_POINT('',(-2.551766714316E-14,-120.9213562373,6.));
#1284 = VECTOR('',#1285,1.);
#1285 = DIRECTION('',(-6.48169860796E-31,0.707106781187,-0.707106781187)
  );
#1286 = ORIENTED_EDGE('',*,*,#1287,.T.);
#1287 = EDGE_CURVE('',#1280,#1288,#1290,.T.);
#1288 = VERTEX_POINT('',#1289);
#1289 = CARTESIAN_POINT('',(4.5,-116.4213562373,6.));
#1290 = CIRCLE('',#1291,4.5);
#1291 = AXIS2_PLACEMENT_3D('',#1292,#1293,#1294);
#1292 = CARTESIAN_POINT('',(-2.585073405055E-14,-116.4213562373,6.));
#1293 = DIRECTION('',(-2.465190328816E-32,-2.22044604925E-16,-1.));
#1294 = DIRECTION('',(7.401486830834E-17,-1.,2.22044604925E-16));
#1295 = ORIENTED_EDGE('',*,*,#1296,.T.);
#1296 = EDGE_CURVE('',#1288,#1280,#1297,.T.);
#1297 = CIRCLE('',#1298,4.5);
#1298 = AXIS2_PLACEMENT_3D('',#1299,#1300,#1301);
#1299 = CARTESIAN_POINT('',(-2.585073405055E-14,-116.4213562373,6.));
#1300 = DIRECTION('',(-2.465190328816E-32,-2.22044604925E-16,-1.));
#1301 = DIRECTION('',(7.401486830834E-17,-1.,2.22044604925E-16));
#1302 = ORIENTED_EDGE('',*,*,#1279,.T.);
#1303 = ORIENTED_EDGE('',*,*,#936,.T.);
#1304 = ORIENTED_EDGE('',*,*,#945,.T.);
#1305 = CONICAL_SURFACE('',#1306,4.5,0.785398163397);
#1306 = AXIS2_PLACEMENT_3D('',#1307,#1308,#1309);
#1307 = CARTESIAN_POINT('',(-2.585073405055E-14,-116.4213562373,6.));
#1308 = DIRECTION('',(2.465190328816E-32,2.22044604925E-16,1.));
#1309 = DIRECTION('',(7.401486830834E-17,-1.,2.22044604925E-16));
#1310 = ADVANCED_FACE('',(#1311),#1330,.F.);
#1311 = FACE_BOUND('',#1312,.F.);
#1312 = EDGE_LOOP('',(#1313,#1321,#1328,#1329));
#1313 = ORIENTED_EDGE('',*,*,#1314,.F.);
#1314 = EDGE_CURVE('',#1315,#988,#1317,.T.);
#1315 = VERTEX_POINT('',#1316);
#1316 = CARTESIAN_POINT('',(120.92135623731,1.33226762955E-15,6.));
#1317 = LINE('',#1318,#1319);
#1318 = CARTESIAN_POINT('',(120.92135623731,1.33226762955E-15,6.));
#1319 = VECTOR('',#1320,1.);
#1320 = DIRECTION('',(-0.707106781187,-1.570092458684E-16,
    -0.707106781187));
#1321 = ORIENTED_EDGE('',*,*,#1322,.T.);
#1322 = EDGE_CURVE('',#1315,#1315,#1323,.T.);
#1323 = CIRCLE('',#1324,4.5);
#1324 = AXIS2_PLACEMENT_3D('',#1325,#1326,#1327);
#1325 = CARTESIAN_POINT('',(116.42135623731,0.,6.));
#1326 = DIRECTION('',(0.,0.,-1.));
#1327 = DIRECTION('',(1.,2.960594732334E-16,0.));
#1328 = ORIENTED_EDGE('',*,*,#1314,.T.);
#1329 = ORIENTED_EDGE('',*,*,#995,.T.);
#1330 = CONICAL_SURFACE('',#1331,4.5,0.785398163397);
#1331 = AXIS2_PLACEMENT_3D('',#1332,#1333,#1334);
#1332 = CARTESIAN_POINT('',(116.42135623731,0.,6.));
#1333 = DIRECTION('',(0.,0.,1.));
#1334 = DIRECTION('',(1.,2.960594732334E-16,0.));
#1335 = ADVANCED_FACE('',(#1336),#1355,.F.);
#1336 = FACE_BOUND('',#1337,.F.);
#1337 = EDGE_LOOP('',(#1338,#1346,#1353,#1354));
#1338 = ORIENTED_EDGE('',*,*,#1339,.F.);
#1339 = EDGE_CURVE('',#1340,#1063,#1342,.T.);
#1340 = VERTEX_POINT('',#1341);
#1341 = CARTESIAN_POINT('',(4.5,1.33226762955E-15,6.));
#1342 = LINE('',#1343,#1344);
#1343 = CARTESIAN_POINT('',(4.5,1.33226762955E-15,6.));
#1344 = VECTOR('',#1345,1.);
#1345 = DIRECTION('',(-0.707106781187,-1.570092458684E-16,
    -0.707106781187));
#1346 = ORIENTED_EDGE('',*,*,#1347,.T.);
#1347 = EDGE_CURVE('',#1340,#1340,#1348,.T.);
#1348 = CIRCLE('',#1349,4.5);
#1349 = AXIS2_PLACEMENT_3D('',#1350,#1351,#1352);
#1350 = CARTESIAN_POINT('',(0.,1.33226762955E-15,6.));
#1351 = DIRECTION('',(0.,-2.22044604925E-16,-1.));
#1352 = DIRECTION('',(1.,0.,0.));
#1353 = ORIENTED_EDGE('',*,*,#1339,.T.);
#1354 = ORIENTED_EDGE('',*,*,#1070,.T.);
#1355 = CONICAL_SURFACE('',#1356,4.5,0.785398163397);
#1356 = AXIS2_PLACEMENT_3D('',#1357,#1358,#1359);
#1357 = CARTESIAN_POINT('',(0.,1.33226762955E-15,6.));
#1358 = DIRECTION('',(0.,2.22044604925E-16,1.));
#1359 = DIRECTION('',(1.,0.,0.));
#1360 = ADVANCED_FACE('',(#1361),#1390,.F.);
#1361 = FACE_BOUND('',#1362,.F.);
#1362 = EDGE_LOOP('',(#1363,#1371,#1380,#1387,#1388,#1389));
#1363 = ORIENTED_EDGE('',*,*,#1364,.F.);
#1364 = EDGE_CURVE('',#1365,#1121,#1367,.T.);
#1365 = VERTEX_POINT('',#1366);
#1366 = CARTESIAN_POINT('',(-120.9213562373,1.480859518646E-14,6.));
#1367 = LINE('',#1368,#1369);
#1368 = CARTESIAN_POINT('',(-120.9213562373,1.480859518646E-14,6.));
#1369 = VECTOR('',#1370,1.);
#1370 = DIRECTION('',(0.707106781187,-8.659560562355E-17,-0.707106781187
    ));
#1371 = ORIENTED_EDGE('',*,*,#1372,.T.);
#1372 = EDGE_CURVE('',#1365,#1373,#1375,.T.);
#1373 = VERTEX_POINT('',#1374);
#1374 = CARTESIAN_POINT('',(-111.9213562373,7.840507024436E-14,6.));
#1375 = CIRCLE('',#1376,4.5);
#1376 = AXIS2_PLACEMENT_3D('',#1377,#1378,#1379);
#1377 = CARTESIAN_POINT('',(-116.4213562373,1.558977175639E-14,6.));
#1378 = DIRECTION('',(-2.22044604925E-16,-2.22044604925E-16,-1.));
#1379 = DIRECTION('',(-1.,-1.735947933186E-16,2.22044604925E-16));
#1380 = ORIENTED_EDGE('',*,*,#1381,.T.);
#1381 = EDGE_CURVE('',#1373,#1365,#1382,.T.);
#1382 = CIRCLE('',#1383,4.5);
#1383 = AXIS2_PLACEMENT_3D('',#1384,#1385,#1386);
#1384 = CARTESIAN_POINT('',(-116.4213562373,1.558977175639E-14,6.));
#1385 = DIRECTION('',(-2.22044604925E-16,-2.22044604925E-16,-1.));
#1386 = DIRECTION('',(-1.,-1.735947933186E-16,2.22044604925E-16));
#1387 = ORIENTED_EDGE('',*,*,#1364,.T.);
#1388 = ORIENTED_EDGE('',*,*,#1120,.T.);
#1389 = ORIENTED_EDGE('',*,*,#1129,.T.);
#1390 = CONICAL_SURFACE('',#1391,4.5,0.785398163397);
#1391 = AXIS2_PLACEMENT_3D('',#1392,#1393,#1394);
#1392 = CARTESIAN_POINT('',(-116.4213562373,1.558977175639E-14,6.));
#1393 = DIRECTION('',(2.22044604925E-16,2.22044604925E-16,1.));
#1394 = DIRECTION('',(-1.,-1.735947933186E-16,2.22044604925E-16));
#1395 = ADVANCED_FACE('',(#1396),#1425,.F.);
#1396 = FACE_BOUND('',#1397,.F.);
#1397 = EDGE_LOOP('',(#1398,#1406,#1415,#1422,#1423,#1424));
#1398 = ORIENTED_EDGE('',*,*,#1399,.F.);
#1399 = EDGE_CURVE('',#1400,#1155,#1402,.T.);
#1400 = VERTEX_POINT('',#1401);
#1401 = CARTESIAN_POINT('',(1.342496738636E-14,120.92135623731,6.));
#1402 = LINE('',#1403,#1404);
#1403 = CARTESIAN_POINT('',(1.342496738636E-14,120.92135623731,6.));
#1404 = VECTOR('',#1405,1.);
#1405 = DIRECTION('',(-7.850462293419E-17,-0.707106781187,
    -0.707106781187));
#1406 = ORIENTED_EDGE('',*,*,#1407,.T.);
#1407 = EDGE_CURVE('',#1400,#1408,#1410,.T.);
#1408 = VERTEX_POINT('',#1409);
#1409 = CARTESIAN_POINT('',(4.5,116.4213562373,6.));
#1410 = CIRCLE('',#1411,4.5);
#1411 = AXIS2_PLACEMENT_3D('',#1412,#1413,#1414);
#1412 = CARTESIAN_POINT('',(1.425763465483E-14,116.42135623731,6.));
#1413 = DIRECTION('',(-2.22044604925E-16,1.232595164408E-32,-1.));
#1414 = DIRECTION('',(-1.850371707709E-16,1.,5.341245712434E-32));
#1415 = ORIENTED_EDGE('',*,*,#1416,.T.);
#1416 = EDGE_CURVE('',#1408,#1400,#1417,.T.);
#1417 = CIRCLE('',#1418,4.5);
#1418 = AXIS2_PLACEMENT_3D('',#1419,#1420,#1421);
#1419 = CARTESIAN_POINT('',(1.425763465483E-14,116.42135623731,6.));
#1420 = DIRECTION('',(-2.22044604925E-16,1.232595164408E-32,-1.));
#1421 = DIRECTION('',(-1.850371707709E-16,1.,5.341245712434E-32));
#1422 = ORIENTED_EDGE('',*,*,#1399,.T.);
#1423 = ORIENTED_EDGE('',*,*,#1154,.T.);
#1424 = ORIENTED_EDGE('',*,*,#1163,.T.);
#1425 = CONICAL_SURFACE('',#1426,4.5,0.785398163397);
#1426 = AXIS2_PLACEMENT_3D('',#1427,#1428,#1429);
#1427 = CARTESIAN_POINT('',(1.425763465483E-14,116.42135623731,6.));
#1428 = DIRECTION('',(2.22044604925E-16,-1.232595164408E-32,1.));
#1429 = DIRECTION('',(-1.850371707709E-16,1.,5.341245712434E-32));
#1430 = ADVANCED_FACE('',(#1431),#1443,.F.);
#1431 = FACE_BOUND('',#1432,.F.);
#1432 = EDGE_LOOP('',(#1433,#1434,#1440,#1441,#1442));
#1433 = ORIENTED_EDGE('',*,*,#1209,.F.);
#1434 = ORIENTED_EDGE('',*,*,#1435,.T.);
#1435 = EDGE_CURVE('',#1210,#1288,#1436,.T.);
#1436 = LINE('',#1437,#1438);
#1437 = CARTESIAN_POINT('',(4.5,-116.4213562373,10.));
#1438 = VECTOR('',#1439,1.);
#1439 = DIRECTION('',(-0.,-0.,-1.));
#1440 = ORIENTED_EDGE('',*,*,#1287,.F.);
#1441 = ORIENTED_EDGE('',*,*,#1296,.F.);
#1442 = ORIENTED_EDGE('',*,*,#1435,.F.);
#1443 = CYLINDRICAL_SURFACE('',#1444,4.5);
#1444 = AXIS2_PLACEMENT_3D('',#1445,#1446,#1447);
#1445 = CARTESIAN_POINT('',(0.,-116.4213562373,10.));
#1446 = DIRECTION('',(0.,0.,1.));
#1447 = DIRECTION('',(1.,0.,0.));
#1448 = ADVANCED_FACE('',(#1449),#1461,.F.);
#1449 = FACE_BOUND('',#1450,.F.);
#1450 = EDGE_LOOP('',(#1451,#1452,#1458,#1459,#1460));
#1451 = ORIENTED_EDGE('',*,*,#1220,.F.);
#1452 = ORIENTED_EDGE('',*,*,#1453,.T.);
#1453 = EDGE_CURVE('',#1221,#1373,#1454,.T.);
#1454 = LINE('',#1455,#1456);
#1455 = CARTESIAN_POINT('',(-111.9213562373,0.,10.));
#1456 = VECTOR('',#1457,1.);
#1457 = DIRECTION('',(-0.,-0.,-1.));
#1458 = ORIENTED_EDGE('',*,*,#1372,.F.);
#1459 = ORIENTED_EDGE('',*,*,#1381,.F.);
#1460 = ORIENTED_EDGE('',*,*,#1453,.F.);
#1461 = CYLINDRICAL_SURFACE('',#1462,4.5);
#1462 = AXIS2_PLACEMENT_3D('',#1463,#1464,#1465);
#1463 = CARTESIAN_POINT('',(-116.4213562373,0.,10.));
#1464 = DIRECTION('',(0.,0.,1.));
#1465 = DIRECTION('',(1.,0.,0.));
#1466 = ADVANCED_FACE('',(#1467),#1478,.F.);
#1467 = FACE_BOUND('',#1468,.F.);
#1468 = EDGE_LOOP('',(#1469,#1470,#1476,#1477));
#1469 = ORIENTED_EDGE('',*,*,#1234,.F.);
#1470 = ORIENTED_EDGE('',*,*,#1471,.T.);
#1471 = EDGE_CURVE('',#1235,#1340,#1472,.T.);
#1472 = LINE('',#1473,#1474);
#1473 = CARTESIAN_POINT('',(4.5,0.,10.));
#1474 = VECTOR('',#1475,1.);
#1475 = DIRECTION('',(-0.,-0.,-1.));
#1476 = ORIENTED_EDGE('',*,*,#1347,.F.);
#1477 = ORIENTED_EDGE('',*,*,#1471,.F.);
#1478 = CYLINDRICAL_SURFACE('',#1479,4.5);
#1479 = AXIS2_PLACEMENT_3D('',#1480,#1481,#1482);
#1480 = CARTESIAN_POINT('',(0.,0.,10.));
#1481 = DIRECTION('',(0.,0.,1.));
#1482 = DIRECTION('',(1.,0.,0.));
#1483 = ADVANCED_FACE('',(#1484),#1495,.F.);
#1484 = FACE_BOUND('',#1485,.F.);
#1485 = EDGE_LOOP('',(#1486,#1487,#1493,#1494));
#1486 = ORIENTED_EDGE('',*,*,#1251,.F.);
#1487 = ORIENTED_EDGE('',*,*,#1488,.T.);
#1488 = EDGE_CURVE('',#1252,#1315,#1489,.T.);
#1489 = LINE('',#1490,#1491);
#1490 = CARTESIAN_POINT('',(120.92135623731,0.,10.));
#1491 = VECTOR('',#1492,1.);
#1492 = DIRECTION('',(-0.,-0.,-1.));
#1493 = ORIENTED_EDGE('',*,*,#1322,.F.);
#1494 = ORIENTED_EDGE('',*,*,#1488,.F.);
#1495 = CYLINDRICAL_SURFACE('',#1496,4.5);
#1496 = AXIS2_PLACEMENT_3D('',#1497,#1498,#1499);
#1497 = CARTESIAN_POINT('',(116.42135623731,0.,10.));
#1498 = DIRECTION('',(0.,0.,1.));
#1499 = DIRECTION('',(1.,0.,0.));
#1500 = ADVANCED_FACE('',(#1501),#1513,.F.);
#1501 = FACE_BOUND('',#1502,.F.);
#1502 = EDGE_LOOP('',(#1503,#1504,#1510,#1511,#1512));
#1503 = ORIENTED_EDGE('',*,*,#1262,.F.);
#1504 = ORIENTED_EDGE('',*,*,#1505,.T.);
#1505 = EDGE_CURVE('',#1263,#1408,#1506,.T.);
#1506 = LINE('',#1507,#1508);
#1507 = CARTESIAN_POINT('',(4.5,116.42135623731,10.));
#1508 = VECTOR('',#1509,1.);
#1509 = DIRECTION('',(-0.,-0.,-1.));
#1510 = ORIENTED_EDGE('',*,*,#1407,.F.);
#1511 = ORIENTED_EDGE('',*,*,#1416,.F.);
#1512 = ORIENTED_EDGE('',*,*,#1505,.F.);
#1513 = CYLINDRICAL_SURFACE('',#1514,4.5);
#1514 = AXIS2_PLACEMENT_3D('',#1515,#1516,#1517);
#1515 = CARTESIAN_POINT('',(0.,116.42135623731,10.));
#1516 = DIRECTION('',(0.,0.,1.));
#1517 = DIRECTION('',(1.,0.,0.));
#1518 = ( GEOMETRIC_REPRESENTATION_CONTEXT(3) 
GLOBAL_UNCERTAINTY_ASSIGNED_CONTEXT((#1522)) 
GLOBAL_UNIT_ASSIGNED_CONTEXT((#1519,#1520,#1521)) REPRESENTATION_CONTEXT
('Context #1','3D Context with UNIT and UNCERTAINTY') );
#1519 = ( LENGTH_UNIT() NAMED_UNIT(*) SI_UNIT(.MILLI.,.METRE.) );
#1520 = ( NAMED_UNIT(*) PLANE_ANGLE_UNIT() SI_UNIT($,.RADIAN.) );
#1521 = ( NAMED_UNIT(*) SI_UNIT($,.STERADIAN.) SOLID_ANGLE_UNIT() );
#1522 = UNCERTAINTY_MEASURE_WITH_UNIT(LENGTH_MEASURE(1.E-07),#1519,
  'distance_accuracy_value','confusion accuracy');
#1523 = PRODUCT_RELATED_PRODUCT_CATEGORY('part',$,(#7));
#1524 = MECHANICAL_DESIGN_GEOMETRIC_PRESENTATION_REPRESENTATION('',(
    #1525),#1518);
#1525 = STYLED_ITEM('color',(#1526),#15);
#1526 = PRESENTATION_STYLE_ASSIGNMENT((#1527,#1533));
#1527 = SURFACE_STYLE_USAGE(.BOTH.,#1528);
#1528 = SURFACE_SIDE_STYLE('',(#1529));
#1529 = SURFACE_STYLE_FILL_AREA(#1530);
#1530 = FILL_AREA_STYLE('',(#1531));
#1531 = FILL_AREA_STYLE_COLOUR('',#1532);
#1532 = COLOUR_RGB('',0.447058818107,0.474509808674,0.501960817233);
#1533 = CURVE_STYLE('',#1534,POSITIVE_LENGTH_MEASURE(0.1),#1535);
#1534 = DRAUGHTING_PRE_DEFINED_CURVE_FONT('continuous');
#1535 = COLOUR_RGB('',0.678431390124,0.709803936702,0.741176476869);
ENDSEC;
END-ISO-10303-21;
