ISO-10303-21;
HEADER;
FILE_DESCRIPTION(('FreeCAD Model'),'2;1');
FILE_NAME('Open CASCADE Shape Model','2026-07-18T21:29:42',(''),(''),
  'Open CASCADE STEP processor 7.8','FreeCAD','Unknown');
FILE_SCHEMA(('AUTOMOTIVE_DESIGN { 1 0 10303 214 1 1 1 1 }'));
ENDSEC;
DATA;
#1 = APPLICATION_PROTOCOL_DEFINITION('international standard',
  'automotive_design',2000,#2);
#2 = APPLICATION_CONTEXT(
  'core data for automotive mechanical design processes');
#3 = SHAPE_DEFINITION_REPRESENTATION(#4,#10);
#4 = PRODUCT_DEFINITION_SHAPE('','',#5);
#5 = PRODUCT_DEFINITION('design','',#6,#9);
#6 = PRODUCT_DEFINITION_FORMATION('','',#7);
#7 = PRODUCT('Seg001','Seg001','',(#8));
#8 = PRODUCT_CONTEXT('',#2,'mechanical');
#9 = PRODUCT_DEFINITION_CONTEXT('part definition',#2,'design');
#10 = ADVANCED_BREP_SHAPE_REPRESENTATION('',(#11,#15),#1806);
#11 = AXIS2_PLACEMENT_3D('',#12,#13,#14);
#12 = CARTESIAN_POINT('',(0.,0.,0.));
#13 = DIRECTION('',(0.,0.,1.));
#14 = DIRECTION('',(1.,0.,-0.));
#15 = MANIFOLD_SOLID_BREP('',#16);
#16 = CLOSED_SHELL('',(#17,#85,#107,#147,#325,#356,#381,#405,#436,#467,
    #498,#523,#540,#565,#603,#628,#653,#678,#703,#741,#779,#804,#842,
    #880,#905,#945,#996,#1027,#1162,#1193,#1224,#1255,#1286,#1576,#1588,
    #1602,#1622,#1634,#1648,#1660,#1674,#1686,#1700,#1712,#1726,#1746,
    #1766,#1786));
#17 = ADVANCED_FACE('',(#18),#80,.F.);
#18 = FACE_BOUND('',#19,.T.);
#19 = EDGE_LOOP('',(#20,#31,#40,#47,#54,#63,#72,#79));
#20 = ORIENTED_EDGE('',*,*,#21,.F.);
#21 = EDGE_CURVE('',#22,#24,#26,.T.);
#22 = VERTEX_POINT('',#23);
#23 = CARTESIAN_POINT('',(2.591529250687,-42.67284623626,
    3.171970748422E-16));
#24 = VERTEX_POINT('',#25);
#25 = CARTESIAN_POINT('',(-3.35,-40.55,-4.104304030472E-16));
#26 = CIRCLE('',#27,3.35);
#27 = AXIS2_PLACEMENT_3D('',#28,#29,#30);
#28 = CARTESIAN_POINT('',(2.127521728042E-35,-40.55,-1.737253328489E-19)
  );
#29 = DIRECTION('',(-1.224646799147E-16,-0.,1.));
#30 = DIRECTION('',(-1.,0.,-1.224646799147E-16));
#31 = ORIENTED_EDGE('',*,*,#32,.F.);
#32 = EDGE_CURVE('',#33,#22,#35,.T.);
#33 = VERTEX_POINT('',#34);
#34 = CARTESIAN_POINT('',(-2.591529250687,-42.67284623626,
    -3.175445255079E-16));
#35 = CIRCLE('',#36,3.35);
#36 = AXIS2_PLACEMENT_3D('',#37,#38,#39);
#37 = CARTESIAN_POINT('',(7.285838599103E-16,-40.55,-1.737253328488E-19)
  );
#38 = DIRECTION('',(-1.224646799147E-16,0.,1.));
#39 = DIRECTION('',(-1.,1.224646799147E-16,-1.224646799147E-16));
#40 = ORIENTED_EDGE('',*,*,#41,.F.);
#41 = EDGE_CURVE('',#24,#33,#42,.T.);
#42 = CIRCLE('',#43,3.35);
#43 = AXIS2_PLACEMENT_3D('',#44,#45,#46);
#44 = CARTESIAN_POINT('',(2.127521728042E-35,-40.55,-1.737253328489E-19)
  );
#45 = DIRECTION('',(-1.224646799147E-16,-0.,1.));
#46 = DIRECTION('',(-1.,0.,-1.224646799147E-16));
#47 = ORIENTED_EDGE('',*,*,#48,.F.);
#48 = EDGE_CURVE('',#49,#24,#51,.T.);
#49 = VERTEX_POINT('',#50);
#50 = CARTESIAN_POINT('',(-3.35,-40.55,35.5));
#51 = B_SPLINE_CURVE_WITH_KNOTS('',1,(#52,#53),.UNSPECIFIED.,.F.,.F.,(2,
    2),(-35.5,0.),.PIECEWISE_BEZIER_KNOTS.);
#52 = CARTESIAN_POINT('',(-3.35,-40.55,35.5));
#53 = CARTESIAN_POINT('',(-3.35,-40.55,-4.104304030472E-16));
#54 = ORIENTED_EDGE('',*,*,#55,.F.);
#55 = EDGE_CURVE('',#56,#49,#58,.T.);
#56 = VERTEX_POINT('',#57);
#57 = CARTESIAN_POINT('',(-2.591529250687,-42.67284623626,35.5));
#58 = CIRCLE('',#59,3.35);
#59 = AXIS2_PLACEMENT_3D('',#60,#61,#62);
#60 = CARTESIAN_POINT('',(-4.347496136973E-15,-40.55,35.5));
#61 = DIRECTION('',(1.224646799147E-16,0.,-1.));
#62 = DIRECTION('',(-1.,0.,-1.224646799147E-16));
#63 = ORIENTED_EDGE('',*,*,#64,.T.);
#64 = EDGE_CURVE('',#56,#65,#67,.T.);
#65 = VERTEX_POINT('',#66);
#66 = CARTESIAN_POINT('',(2.591529250687,-42.67284623626,35.5));
#67 = CIRCLE('',#68,3.35);
#68 = AXIS2_PLACEMENT_3D('',#69,#70,#71);
#69 = CARTESIAN_POINT('',(-3.618912277063E-15,-40.55,35.5));
#70 = DIRECTION('',(-1.224646799147E-16,0.,1.));
#71 = DIRECTION('',(-1.,1.224646799147E-16,-1.224646799147E-16));
#72 = ORIENTED_EDGE('',*,*,#73,.F.);
#73 = EDGE_CURVE('',#49,#65,#74,.T.);
#74 = CIRCLE('',#75,3.35);
#75 = AXIS2_PLACEMENT_3D('',#76,#77,#78);
#76 = CARTESIAN_POINT('',(-4.347496136973E-15,-40.55,35.5));
#77 = DIRECTION('',(1.224646799147E-16,0.,-1.));
#78 = DIRECTION('',(-1.,0.,-1.224646799147E-16));
#79 = ORIENTED_EDGE('',*,*,#48,.T.);
#80 = CYLINDRICAL_SURFACE('',#81,3.35);
#81 = AXIS2_PLACEMENT_3D('',#82,#83,#84);
#82 = CARTESIAN_POINT('',(7.285838599103E-16,-40.55,-1.737253328488E-19)
  );
#83 = DIRECTION('',(1.224646799147E-16,0.,-1.));
#84 = DIRECTION('',(-1.,1.224646799147E-16,-1.224646799147E-16));
#85 = ADVANCED_FACE('',(#86,#91),#102,.F.);
#86 = FACE_BOUND('',#87,.F.);
#87 = EDGE_LOOP('',(#88,#89,#90));
#88 = ORIENTED_EDGE('',*,*,#32,.F.);
#89 = ORIENTED_EDGE('',*,*,#41,.F.);
#90 = ORIENTED_EDGE('',*,*,#21,.F.);
#91 = FACE_BOUND('',#92,.F.);
#92 = EDGE_LOOP('',(#93));
#93 = ORIENTED_EDGE('',*,*,#94,.F.);
#94 = EDGE_CURVE('',#95,#95,#97,.T.);
#95 = VERTEX_POINT('',#96);
#96 = CARTESIAN_POINT('',(-1.5,-40.55,-1.836970198721E-16));
#97 = CIRCLE('',#98,1.5);
#98 = AXIS2_PLACEMENT_3D('',#99,#100,#101);
#99 = CARTESIAN_POINT('',(0.,-40.55,0.));
#100 = DIRECTION('',(1.224646799147E-16,0.,-1.));
#101 = DIRECTION('',(-1.,0.,-1.224646799147E-16));
#102 = PLANE('',#103);
#103 = AXIS2_PLACEMENT_3D('',#104,#105,#106);
#104 = CARTESIAN_POINT('',(-3.146494166617E-03,-1.816629255268E-03,
    -5.590597338172E-19));
#105 = DIRECTION('',(1.224646799147E-16,0.,-1.));
#106 = DIRECTION('',(-1.,0.,-1.224646799147E-16));
#107 = ADVANCED_FACE('',(#108),#142,.T.);
#108 = FACE_BOUND('',#109,.T.);
#109 = EDGE_LOOP('',(#110,#120,#128,#136));
#110 = ORIENTED_EDGE('',*,*,#111,.T.);
#111 = EDGE_CURVE('',#112,#114,#116,.T.);
#112 = VERTEX_POINT('',#113);
#113 = CARTESIAN_POINT('',(-38.99999999997,18.809607687287,-10.5));
#114 = VERTEX_POINT('',#115);
#115 = CARTESIAN_POINT('',(-39.05190876183,-18.95530649829,-10.5));
#116 = LINE('',#117,#118);
#117 = CARTESIAN_POINT('',(-39.,18.809607687287,-10.5));
#118 = VECTOR('',#119,1.);
#119 = DIRECTION('',(-1.374522196558E-03,-0.999999055344,
    -1.683304208372E-19));
#120 = ORIENTED_EDGE('',*,*,#121,.F.);
#121 = EDGE_CURVE('',#122,#114,#124,.T.);
#122 = VERTEX_POINT('',#123);
#123 = CARTESIAN_POINT('',(-39.05190876183,-18.95530649829,35.5));
#124 = LINE('',#125,#126);
#125 = CARTESIAN_POINT('',(-39.05190876183,-18.95530649829,
    -4.541556046036E-15));
#126 = VECTOR('',#127,1.);
#127 = DIRECTION('',(1.224646799147E-16,0.,-1.));
#128 = ORIENTED_EDGE('',*,*,#129,.F.);
#129 = EDGE_CURVE('',#130,#122,#132,.T.);
#130 = VERTEX_POINT('',#131);
#131 = CARTESIAN_POINT('',(-38.99999999997,18.809607687287,35.5));
#132 = LINE('',#133,#134);
#133 = CARTESIAN_POINT('',(-39.,18.809607687287,35.5));
#134 = VECTOR('',#135,1.);
#135 = DIRECTION('',(-1.374522196558E-03,-0.999999055344,
    -1.683304208372E-19));
#136 = ORIENTED_EDGE('',*,*,#137,.F.);
#137 = EDGE_CURVE('',#112,#130,#138,.T.);
#138 = LINE('',#139,#140);
#139 = CARTESIAN_POINT('',(-38.99999999997,18.809607687287,
    -4.538551280185E-15));
#140 = VECTOR('',#141,1.);
#141 = DIRECTION('',(-1.224646799147E-16,0.,1.));
#142 = PLANE('',#143);
#143 = AXIS2_PLACEMENT_3D('',#144,#145,#146);
#144 = CARTESIAN_POINT('',(-39.02595438091,-7.284940550565E-02,12.5));
#145 = DIRECTION('',(-0.999999055344,1.374522196893E-03,
    -1.224645642277E-16));
#146 = DIRECTION('',(1.374522196893E-03,0.999999055344,
    1.683304208782E-19));
#147 = ADVANCED_FACE('',(#148,#243,#254,#265,#276,#287,#298,#309),#320,
  .T.);
#148 = FACE_BOUND('',#149,.T.);
#149 = EDGE_LOOP('',(#150,#160,#169,#177,#186,#194,#203,#211,#220,#228,
    #235,#236));
#150 = ORIENTED_EDGE('',*,*,#151,.F.);
#151 = EDGE_CURVE('',#152,#154,#156,.T.);
#152 = VERTEX_POINT('',#153);
#153 = CARTESIAN_POINT('',(-3.210401907568,43.179794591197,-10.5));
#154 = VERTEX_POINT('',#155);
#155 = CARTESIAN_POINT('',(-35.78959809238,24.37018690391,-10.5));
#156 = LINE('',#157,#158);
#157 = CARTESIAN_POINT('',(-3.210401907568,43.179794591197,-10.5));
#158 = VECTOR('',#159,1.);
#159 = DIRECTION('',(-0.866025403784,-0.5,-1.060575238725E-16));
#160 = ORIENTED_EDGE('',*,*,#161,.F.);
#161 = EDGE_CURVE('',#162,#152,#164,.T.);
#162 = VERTEX_POINT('',#163);
#163 = CARTESIAN_POINT('',(3.210401907568,43.179794591196,-10.5));
#164 = CIRCLE('',#165,4.15);
#165 = AXIS2_PLACEMENT_3D('',#166,#167,#168);
#166 = CARTESIAN_POINT('',(6.98048675514E-15,40.55,-10.5));
#167 = DIRECTION('',(0.,0.,1.));
#168 = DIRECTION('',(1.,0.,0.));
#169 = ORIENTED_EDGE('',*,*,#170,.F.);
#170 = EDGE_CURVE('',#171,#162,#173,.T.);
#171 = VERTEX_POINT('',#172);
#172 = CARTESIAN_POINT('',(35.789598092386,24.37018690391,-10.5));
#173 = LINE('',#174,#175);
#174 = CARTESIAN_POINT('',(35.789598092386,24.37018690391,-10.5));
#175 = VECTOR('',#176,1.);
#176 = DIRECTION('',(-0.866025403784,0.5,-1.060575238725E-16));
#177 = ORIENTED_EDGE('',*,*,#178,.F.);
#178 = EDGE_CURVE('',#179,#171,#181,.T.);
#179 = VERTEX_POINT('',#180);
#180 = CARTESIAN_POINT('',(38.999999999977,18.809607687287,-10.5));
#181 = CIRCLE('',#182,4.15);
#182 = AXIS2_PLACEMENT_3D('',#183,#184,#185);
#183 = CARTESIAN_POINT('',(35.117330123459,20.275,-10.5));
#184 = DIRECTION('',(-0.,0.,1.));
#185 = DIRECTION('',(0.5,-0.866025403784,0.));
#186 = ORIENTED_EDGE('',*,*,#187,.F.);
#187 = EDGE_CURVE('',#188,#179,#190,.T.);
#188 = VERTEX_POINT('',#189);
#189 = CARTESIAN_POINT('',(38.999999999977,-18.80960768728,-10.5));
#190 = LINE('',#191,#192);
#191 = CARTESIAN_POINT('',(39.,-18.80960768728,-10.5));
#192 = VECTOR('',#193,1.);
#193 = DIRECTION('',(0.,1.,0.));
#194 = ORIENTED_EDGE('',*,*,#195,.F.);
#195 = EDGE_CURVE('',#196,#188,#198,.T.);
#196 = VERTEX_POINT('',#197);
#197 = CARTESIAN_POINT('',(35.789598092386,-24.37018690391,-10.5));
#198 = CIRCLE('',#199,4.15);
#199 = AXIS2_PLACEMENT_3D('',#200,#201,#202);
#200 = CARTESIAN_POINT('',(35.117330123459,-20.275,-10.5));
#201 = DIRECTION('',(0.,0.,1.));
#202 = DIRECTION('',(-0.5,-0.866025403784,0.));
#203 = ORIENTED_EDGE('',*,*,#204,.F.);
#204 = EDGE_CURVE('',#205,#196,#207,.T.);
#205 = VERTEX_POINT('',#206);
#206 = CARTESIAN_POINT('',(3.210401907568,-43.17979459119,-10.5));
#207 = LINE('',#208,#209);
#208 = CARTESIAN_POINT('',(3.210401907568,-43.17979459119,-10.5));
#209 = VECTOR('',#210,1.);
#210 = DIRECTION('',(0.866025403784,0.5,1.060575238725E-16));
#211 = ORIENTED_EDGE('',*,*,#212,.F.);
#212 = EDGE_CURVE('',#213,#205,#215,.T.);
#213 = VERTEX_POINT('',#214);
#214 = CARTESIAN_POINT('',(-3.210401907568,-43.17979459119,-10.5));
#215 = CIRCLE('',#216,4.15);
#216 = AXIS2_PLACEMENT_3D('',#217,#218,#219);
#217 = CARTESIAN_POINT('',(2.014543984597E-15,-40.55,-10.5));
#218 = DIRECTION('',(0.,0.,1.));
#219 = DIRECTION('',(-1.,1.224646799147E-16,0.));
#220 = ORIENTED_EDGE('',*,*,#221,.F.);
#221 = EDGE_CURVE('',#222,#213,#224,.T.);
#222 = VERTEX_POINT('',#223);
#223 = CARTESIAN_POINT('',(-35.94173134496,-24.34229180487,-10.5));
#224 = LINE('',#225,#226);
#225 = CARTESIAN_POINT('',(-35.94173134496,-24.34229180487,-10.5));
#226 = VECTOR('',#227,1.);
#227 = DIRECTION('',(0.866711846787,-0.498809156531,1.061415888951E-16)
  );
#228 = ORIENTED_EDGE('',*,*,#229,.F.);
#229 = EDGE_CURVE('',#114,#222,#230,.T.);
#230 = CIRCLE('',#231,4.15);
#231 = AXIS2_PLACEMENT_3D('',#232,#233,#234);
#232 = CARTESIAN_POINT('',(-35.11733012345,-20.275,-10.5));
#233 = DIRECTION('',(-4.511611427551E-33,-1.683756307163E-32,1.));
#234 = DIRECTION('',(-0.5,0.866025403784,1.232595164408E-32));
#235 = ORIENTED_EDGE('',*,*,#111,.F.);
#236 = ORIENTED_EDGE('',*,*,#237,.F.);
#237 = EDGE_CURVE('',#154,#112,#238,.T.);
#238 = CIRCLE('',#239,4.15);
#239 = AXIS2_PLACEMENT_3D('',#240,#241,#242);
#240 = CARTESIAN_POINT('',(-35.11733012345,20.275,-10.5));
#241 = DIRECTION('',(0.,-0.,1.));
#242 = DIRECTION('',(0.5,0.866025403784,0.));
#243 = FACE_BOUND('',#244,.T.);
#244 = EDGE_LOOP('',(#245));
#245 = ORIENTED_EDGE('',*,*,#246,.F.);
#246 = EDGE_CURVE('',#247,#247,#249,.T.);
#247 = VERTEX_POINT('',#248);
#248 = CARTESIAN_POINT('',(33.617330123459,-20.275,-10.5));
#249 = CIRCLE('',#250,1.5);
#250 = AXIS2_PLACEMENT_3D('',#251,#252,#253);
#251 = CARTESIAN_POINT('',(35.117330123459,-20.275,-10.5));
#252 = DIRECTION('',(1.224646799147E-16,0.,-1.));
#253 = DIRECTION('',(-1.,0.,-1.224646799147E-16));
#254 = FACE_BOUND('',#255,.T.);
#255 = EDGE_LOOP('',(#256));
#256 = ORIENTED_EDGE('',*,*,#257,.F.);
#257 = EDGE_CURVE('',#258,#258,#260,.T.);
#258 = VERTEX_POINT('',#259);
#259 = CARTESIAN_POINT('',(-1.5,-40.55,-10.5));
#260 = CIRCLE('',#261,1.5);
#261 = AXIS2_PLACEMENT_3D('',#262,#263,#264);
#262 = CARTESIAN_POINT('',(1.285879139105E-15,-40.55,-10.5));
#263 = DIRECTION('',(1.224646799147E-16,0.,-1.));
#264 = DIRECTION('',(-1.,0.,-1.224646799147E-16));
#265 = FACE_BOUND('',#266,.T.);
#266 = EDGE_LOOP('',(#267));
#267 = ORIENTED_EDGE('',*,*,#268,.F.);
#268 = EDGE_CURVE('',#269,#269,#271,.T.);
#269 = VERTEX_POINT('',#270);
#270 = CARTESIAN_POINT('',(-36.61733012345,-20.275,-10.5));
#271 = CIRCLE('',#272,1.5);
#272 = AXIS2_PLACEMENT_3D('',#273,#274,#275);
#273 = CARTESIAN_POINT('',(-35.11733012345,-20.275,-10.5));
#274 = DIRECTION('',(1.224646799147E-16,0.,-1.));
#275 = DIRECTION('',(-1.,0.,-1.224646799147E-16));
#276 = FACE_BOUND('',#277,.T.);
#277 = EDGE_LOOP('',(#278));
#278 = ORIENTED_EDGE('',*,*,#279,.F.);
#279 = EDGE_CURVE('',#280,#280,#282,.T.);
#280 = VERTEX_POINT('',#281);
#281 = CARTESIAN_POINT('',(33.617330123459,20.275,-10.5));
#282 = CIRCLE('',#283,1.5);
#283 = AXIS2_PLACEMENT_3D('',#284,#285,#286);
#284 = CARTESIAN_POINT('',(35.117330123459,20.275,-10.5));
#285 = DIRECTION('',(1.224646799147E-16,0.,-1.));
#286 = DIRECTION('',(-1.,0.,-1.224646799147E-16));
#287 = FACE_BOUND('',#288,.T.);
#288 = EDGE_LOOP('',(#289));
#289 = ORIENTED_EDGE('',*,*,#290,.F.);
#290 = EDGE_CURVE('',#291,#291,#293,.T.);
#291 = VERTEX_POINT('',#292);
#292 = CARTESIAN_POINT('',(-32.5,0.,-10.5));
#293 = CIRCLE('',#294,32.5);
#294 = AXIS2_PLACEMENT_3D('',#295,#296,#297);
#295 = CARTESIAN_POINT('',(1.285879139105E-15,0.,-10.5));
#296 = DIRECTION('',(1.224646799147E-16,0.,-1.));
#297 = DIRECTION('',(-1.,0.,-1.224646799147E-16));
#298 = FACE_BOUND('',#299,.T.);
#299 = EDGE_LOOP('',(#300));
#300 = ORIENTED_EDGE('',*,*,#301,.F.);
#301 = EDGE_CURVE('',#302,#302,#304,.T.);
#302 = VERTEX_POINT('',#303);
#303 = CARTESIAN_POINT('',(-36.61733012345,20.275,-10.5));
#304 = CIRCLE('',#305,1.5);
#305 = AXIS2_PLACEMENT_3D('',#306,#307,#308);
#306 = CARTESIAN_POINT('',(-35.11733012345,20.275,-10.5));
#307 = DIRECTION('',(1.224646799147E-16,0.,-1.));
#308 = DIRECTION('',(-1.,0.,-1.224646799147E-16));
#309 = FACE_BOUND('',#310,.T.);
#310 = EDGE_LOOP('',(#311));
#311 = ORIENTED_EDGE('',*,*,#312,.F.);
#312 = EDGE_CURVE('',#313,#313,#315,.T.);
#313 = VERTEX_POINT('',#314);
#314 = CARTESIAN_POINT('',(-1.5,40.55,-10.5));
#315 = CIRCLE('',#316,1.5);
#316 = AXIS2_PLACEMENT_3D('',#317,#318,#319);
#317 = CARTESIAN_POINT('',(1.285879139105E-15,40.55,-10.5));
#318 = DIRECTION('',(1.224646799147E-16,0.,-1.));
#319 = DIRECTION('',(-1.,0.,-1.224646799147E-16));
#320 = PLANE('',#321);
#321 = AXIS2_PLACEMENT_3D('',#322,#323,#324);
#322 = CARTESIAN_POINT('',(-3.146494166616E-03,-1.816629255268E-03,-10.5
    ));
#323 = DIRECTION('',(1.224646799147E-16,0.,-1.));
#324 = DIRECTION('',(-1.,0.,-1.224646799147E-16));
#325 = ADVANCED_FACE('',(#326),#351,.T.);
#326 = FACE_BOUND('',#327,.T.);
#327 = EDGE_LOOP('',(#328,#329,#337,#345));
#328 = ORIENTED_EDGE('',*,*,#221,.T.);
#329 = ORIENTED_EDGE('',*,*,#330,.F.);
#330 = EDGE_CURVE('',#331,#213,#333,.T.);
#331 = VERTEX_POINT('',#332);
#332 = CARTESIAN_POINT('',(-3.210401907568,-43.17979459119,35.5));
#333 = LINE('',#334,#335);
#334 = CARTESIAN_POINT('',(-3.210401907568,-43.17979459119,
    -1.965804210837E-16));
#335 = VECTOR('',#336,1.);
#336 = DIRECTION('',(1.224646799147E-16,0.,-1.));
#337 = ORIENTED_EDGE('',*,*,#338,.F.);
#338 = EDGE_CURVE('',#339,#331,#341,.T.);
#339 = VERTEX_POINT('',#340);
#340 = CARTESIAN_POINT('',(-35.94173134496,-24.34229180487,35.5));
#341 = LINE('',#342,#343);
#342 = CARTESIAN_POINT('',(-35.94173134496,-24.34229180487,35.5));
#343 = VECTOR('',#344,1.);
#344 = DIRECTION('',(0.866711846787,-0.498809156531,1.061415888951E-16)
  );
#345 = ORIENTED_EDGE('',*,*,#346,.F.);
#346 = EDGE_CURVE('',#222,#339,#347,.T.);
#347 = LINE('',#348,#349);
#348 = CARTESIAN_POINT('',(-35.94173134496,-24.34229180487,
    -4.351286336323E-15));
#349 = VECTOR('',#350,1.);
#350 = DIRECTION('',(-1.224646799147E-16,0.,1.));
#351 = PLANE('',#352);
#352 = AXIS2_PLACEMENT_3D('',#353,#354,#355);
#353 = CARTESIAN_POINT('',(-19.57606662626,-33.76104319803,12.5));
#354 = DIRECTION('',(-0.498809156531,-0.866711846787,-6.108650369306E-17
    ));
#355 = DIRECTION('',(0.866711846787,-0.498809156531,1.061415888951E-16)
  );
#356 = ADVANCED_FACE('',(#357),#376,.T.);
#357 = FACE_BOUND('',#358,.T.);
#358 = EDGE_LOOP('',(#359,#360,#361,#369));
#359 = ORIENTED_EDGE('',*,*,#330,.T.);
#360 = ORIENTED_EDGE('',*,*,#212,.T.);
#361 = ORIENTED_EDGE('',*,*,#362,.T.);
#362 = EDGE_CURVE('',#205,#363,#365,.T.);
#363 = VERTEX_POINT('',#364);
#364 = CARTESIAN_POINT('',(3.210401907568,-43.17979459119,35.5));
#365 = LINE('',#366,#367);
#366 = CARTESIAN_POINT('',(3.210401907568,-43.17979459119,
    1.964067001524E-16));
#367 = VECTOR('',#368,1.);
#368 = DIRECTION('',(-1.224646799147E-16,0.,1.));
#369 = ORIENTED_EDGE('',*,*,#370,.F.);
#370 = EDGE_CURVE('',#331,#363,#371,.T.);
#371 = CIRCLE('',#372,4.15);
#372 = AXIS2_PLACEMENT_3D('',#373,#374,#375);
#373 = CARTESIAN_POINT('',(-3.61883129148E-15,-40.55,35.5));
#374 = DIRECTION('',(0.,0.,1.));
#375 = DIRECTION('',(-1.,1.224646799147E-16,0.));
#376 = CYLINDRICAL_SURFACE('',#377,4.15);
#377 = AXIS2_PLACEMENT_3D('',#378,#379,#380);
#378 = CARTESIAN_POINT('',(7.286648454927E-16,-40.55,8.923570706838E-32)
  );
#379 = DIRECTION('',(0.,0.,1.));
#380 = DIRECTION('',(-1.,1.224646799147E-16,0.));
#381 = ADVANCED_FACE('',(#382),#400,.T.);
#382 = FACE_BOUND('',#383,.T.);
#383 = EDGE_LOOP('',(#384,#385,#393,#399));
#384 = ORIENTED_EDGE('',*,*,#204,.T.);
#385 = ORIENTED_EDGE('',*,*,#386,.F.);
#386 = EDGE_CURVE('',#387,#196,#389,.T.);
#387 = VERTEX_POINT('',#388);
#388 = CARTESIAN_POINT('',(35.789598092386,-24.37018690391,35.5));
#389 = LINE('',#390,#391);
#390 = CARTESIAN_POINT('',(35.789598092386,-24.37018690391,
    4.341797130739E-15));
#391 = VECTOR('',#392,1.);
#392 = DIRECTION('',(1.224646799147E-16,0.,-1.));
#393 = ORIENTED_EDGE('',*,*,#394,.F.);
#394 = EDGE_CURVE('',#363,#387,#395,.T.);
#395 = LINE('',#396,#397);
#396 = CARTESIAN_POINT('',(3.210401907568,-43.17979459119,35.5));
#397 = VECTOR('',#398,1.);
#398 = DIRECTION('',(0.866025403784,0.5,1.060575238725E-16));
#399 = ORIENTED_EDGE('',*,*,#362,.F.);
#400 = PLANE('',#401);
#401 = AXIS2_PLACEMENT_3D('',#402,#403,#404);
#402 = CARTESIAN_POINT('',(19.499999999977,-33.77499074755,12.5));
#403 = DIRECTION('',(0.5,-0.866025403784,6.123233995737E-17));
#404 = DIRECTION('',(0.866025403784,0.5,1.060575238725E-16));
#405 = ADVANCED_FACE('',(#406),#431,.T.);
#406 = FACE_BOUND('',#407,.T.);
#407 = EDGE_LOOP('',(#408,#409,#417,#425));
#408 = ORIENTED_EDGE('',*,*,#151,.T.);
#409 = ORIENTED_EDGE('',*,*,#410,.F.);
#410 = EDGE_CURVE('',#411,#154,#413,.T.);
#411 = VERTEX_POINT('',#412);
#412 = CARTESIAN_POINT('',(-35.78959809238,24.37018690391,35.5));
#413 = LINE('',#414,#415);
#414 = CARTESIAN_POINT('',(-35.78959809238,24.37018690391,
    -4.341797136952E-15));
#415 = VECTOR('',#416,1.);
#416 = DIRECTION('',(1.224646799147E-16,0.,-1.));
#417 = ORIENTED_EDGE('',*,*,#418,.F.);
#418 = EDGE_CURVE('',#419,#411,#421,.T.);
#419 = VERTEX_POINT('',#420);
#420 = CARTESIAN_POINT('',(-3.210401907568,43.179794591197,35.5));
#421 = LINE('',#422,#423);
#422 = CARTESIAN_POINT('',(-3.210401907568,43.179794591197,35.5));
#423 = VECTOR('',#424,1.);
#424 = DIRECTION('',(-0.866025403784,-0.5,-1.060575238725E-16));
#425 = ORIENTED_EDGE('',*,*,#426,.F.);
#426 = EDGE_CURVE('',#152,#419,#427,.T.);
#427 = LINE('',#428,#429);
#428 = CARTESIAN_POINT('',(-3.210401907568,43.179794591197,
    -1.967541508181E-16));
#429 = VECTOR('',#430,1.);
#430 = DIRECTION('',(-1.224646799147E-16,0.,1.));
#431 = PLANE('',#432);
#432 = AXIS2_PLACEMENT_3D('',#433,#434,#435);
#433 = CARTESIAN_POINT('',(-19.49999999997,33.774990747553,12.5));
#434 = DIRECTION('',(-0.5,0.866025403784,-6.123233995737E-17));
#435 = DIRECTION('',(-0.866025403784,-0.5,-1.060575238725E-16));
#436 = ADVANCED_FACE('',(#437),#462,.T.);
#437 = FACE_BOUND('',#438,.T.);
#438 = EDGE_LOOP('',(#439,#440,#448,#456));
#439 = ORIENTED_EDGE('',*,*,#170,.T.);
#440 = ORIENTED_EDGE('',*,*,#441,.F.);
#441 = EDGE_CURVE('',#442,#162,#444,.T.);
#442 = VERTEX_POINT('',#443);
#443 = CARTESIAN_POINT('',(3.210401907568,43.179794591196,35.5));
#444 = LINE('',#445,#446);
#445 = CARTESIAN_POINT('',(3.210401907568,43.179794591196,
    1.965804217819E-16));
#446 = VECTOR('',#447,1.);
#447 = DIRECTION('',(1.224646799147E-16,0.,-1.));
#448 = ORIENTED_EDGE('',*,*,#449,.F.);
#449 = EDGE_CURVE('',#450,#442,#452,.T.);
#450 = VERTEX_POINT('',#451);
#451 = CARTESIAN_POINT('',(35.789598092386,24.37018690391,35.5));
#452 = LINE('',#453,#454);
#453 = CARTESIAN_POINT('',(35.789598092386,24.37018690391,35.5));
#454 = VECTOR('',#455,1.);
#455 = DIRECTION('',(-0.866025403784,0.5,-1.060575238725E-16));
#456 = ORIENTED_EDGE('',*,*,#457,.F.);
#457 = EDGE_CURVE('',#171,#450,#458,.T.);
#458 = LINE('',#459,#460);
#459 = CARTESIAN_POINT('',(35.789598092386,24.37018690391,
    4.341623411619E-15));
#460 = VECTOR('',#461,1.);
#461 = DIRECTION('',(-1.224646799147E-16,0.,1.));
#462 = PLANE('',#463);
#463 = AXIS2_PLACEMENT_3D('',#464,#465,#466);
#464 = CARTESIAN_POINT('',(19.499999999977,33.774990747553,12.5));
#465 = DIRECTION('',(0.5,0.866025403784,6.123233995737E-17));
#466 = DIRECTION('',(-0.866025403784,0.5,-1.060575238725E-16));
#467 = ADVANCED_FACE('',(#468),#493,.T.);
#468 = FACE_BOUND('',#469,.T.);
#469 = EDGE_LOOP('',(#470,#471,#479,#487));
#470 = ORIENTED_EDGE('',*,*,#187,.T.);
#471 = ORIENTED_EDGE('',*,*,#472,.F.);
#472 = EDGE_CURVE('',#473,#179,#475,.T.);
#473 = VERTEX_POINT('',#474);
#474 = CARTESIAN_POINT('',(38.999999999977,18.809607687287,35.5));
#475 = LINE('',#476,#477);
#476 = CARTESIAN_POINT('',(38.999999999977,18.809607687287,
    4.538377554852E-15));
#477 = VECTOR('',#478,1.);
#478 = DIRECTION('',(1.224646799147E-16,0.,-1.));
#479 = ORIENTED_EDGE('',*,*,#480,.F.);
#480 = EDGE_CURVE('',#481,#473,#483,.T.);
#481 = VERTEX_POINT('',#482);
#482 = CARTESIAN_POINT('',(38.999999999977,-18.80960768728,35.5));
#483 = LINE('',#484,#485);
#484 = CARTESIAN_POINT('',(39.,-18.80960768728,35.5));
#485 = VECTOR('',#486,1.);
#486 = DIRECTION('',(-0.,1.,0.));
#487 = ORIENTED_EDGE('',*,*,#488,.F.);
#488 = EDGE_CURVE('',#188,#481,#489,.T.);
#489 = LINE('',#490,#491);
#490 = CARTESIAN_POINT('',(38.999999999977,-18.80960768728,
    4.538203829519E-15));
#491 = VECTOR('',#492,1.);
#492 = DIRECTION('',(-1.224646799147E-16,0.,1.));
#493 = PLANE('',#494);
#494 = AXIS2_PLACEMENT_3D('',#495,#496,#497);
#495 = CARTESIAN_POINT('',(38.999999999987,-4.894480460795E-14,12.5));
#496 = DIRECTION('',(1.,-0.,1.224646799147E-16));
#497 = DIRECTION('',(-1.224646799147E-16,0.,1.));
#498 = ADVANCED_FACE('',(#499),#518,.F.);
#499 = FACE_BOUND('',#500,.F.);
#500 = EDGE_LOOP('',(#501,#502,#510,#517));
#501 = ORIENTED_EDGE('',*,*,#246,.F.);
#502 = ORIENTED_EDGE('',*,*,#503,.T.);
#503 = EDGE_CURVE('',#247,#504,#506,.T.);
#504 = VERTEX_POINT('',#505);
#505 = CARTESIAN_POINT('',(33.617330123459,-20.275,4.116935573157E-15));
#506 = LINE('',#507,#508);
#507 = CARTESIAN_POINT('',(33.617330123459,-20.275,-10.5));
#508 = VECTOR('',#509,1.);
#509 = DIRECTION('',(-1.224646799147E-16,-0.,1.));
#510 = ORIENTED_EDGE('',*,*,#511,.T.);
#511 = EDGE_CURVE('',#504,#504,#512,.T.);
#512 = CIRCLE('',#513,1.5);
#513 = AXIS2_PLACEMENT_3D('',#514,#515,#516);
#514 = CARTESIAN_POINT('',(35.117330123459,-20.275,4.300632593029E-15));
#515 = DIRECTION('',(1.224646799147E-16,0.,-1.));
#516 = DIRECTION('',(-1.,0.,-1.224646799147E-16));
#517 = ORIENTED_EDGE('',*,*,#503,.F.);
#518 = CYLINDRICAL_SURFACE('',#519,1.5);
#519 = AXIS2_PLACEMENT_3D('',#520,#521,#522);
#520 = CARTESIAN_POINT('',(35.117330123459,-20.275,-10.5));
#521 = DIRECTION('',(1.224646799147E-16,0.,-1.));
#522 = DIRECTION('',(-1.,0.,-1.224646799147E-16));
#523 = ADVANCED_FACE('',(#524),#535,.F.);
#524 = FACE_BOUND('',#525,.F.);
#525 = EDGE_LOOP('',(#526,#527,#533,#534));
#526 = ORIENTED_EDGE('',*,*,#257,.F.);
#527 = ORIENTED_EDGE('',*,*,#528,.T.);
#528 = EDGE_CURVE('',#258,#95,#529,.T.);
#529 = LINE('',#530,#531);
#530 = CARTESIAN_POINT('',(-1.5,-40.55,-10.5));
#531 = VECTOR('',#532,1.);
#532 = DIRECTION('',(-1.224646799147E-16,-0.,1.));
#533 = ORIENTED_EDGE('',*,*,#94,.T.);
#534 = ORIENTED_EDGE('',*,*,#528,.F.);
#535 = CYLINDRICAL_SURFACE('',#536,1.5);
#536 = AXIS2_PLACEMENT_3D('',#537,#538,#539);
#537 = CARTESIAN_POINT('',(1.285879139105E-15,-40.55,-10.5));
#538 = DIRECTION('',(1.224646799147E-16,0.,-1.));
#539 = DIRECTION('',(-1.,0.,-1.224646799147E-16));
#540 = ADVANCED_FACE('',(#541),#560,.F.);
#541 = FACE_BOUND('',#542,.F.);
#542 = EDGE_LOOP('',(#543,#544,#552,#559));
#543 = ORIENTED_EDGE('',*,*,#268,.F.);
#544 = ORIENTED_EDGE('',*,*,#545,.T.);
#545 = EDGE_CURVE('',#269,#546,#548,.T.);
#546 = VERTEX_POINT('',#547);
#547 = CARTESIAN_POINT('',(-36.61733012345,-20.275,-4.484329612902E-15)
  );
#548 = LINE('',#549,#550);
#549 = CARTESIAN_POINT('',(-36.61733012345,-20.275,-10.5));
#550 = VECTOR('',#551,1.);
#551 = DIRECTION('',(-1.224646799147E-16,-0.,1.));
#552 = ORIENTED_EDGE('',*,*,#553,.T.);
#553 = EDGE_CURVE('',#546,#546,#554,.T.);
#554 = CIRCLE('',#555,1.5);
#555 = AXIS2_PLACEMENT_3D('',#556,#557,#558);
#556 = CARTESIAN_POINT('',(-35.11733012345,-20.275,-4.300632593029E-15)
  );
#557 = DIRECTION('',(1.224646799147E-16,0.,-1.));
#558 = DIRECTION('',(-1.,0.,-1.224646799147E-16));
#559 = ORIENTED_EDGE('',*,*,#545,.F.);
#560 = CYLINDRICAL_SURFACE('',#561,1.5);
#561 = AXIS2_PLACEMENT_3D('',#562,#563,#564);
#562 = CARTESIAN_POINT('',(-35.11733012345,-20.275,-10.5));
#563 = DIRECTION('',(1.224646799147E-16,0.,-1.));
#564 = DIRECTION('',(-1.,0.,-1.224646799147E-16));
#565 = ADVANCED_FACE('',(#566,#595),#598,.F.);
#566 = FACE_BOUND('',#567,.F.);
#567 = EDGE_LOOP('',(#568,#579,#588));
#568 = ORIENTED_EDGE('',*,*,#569,.F.);
#569 = EDGE_CURVE('',#570,#572,#574,.T.);
#570 = VERTEX_POINT('',#571);
#571 = CARTESIAN_POINT('',(-38.2934357713,-19.20970524561,
    -4.689767079901E-15));
#572 = VERTEX_POINT('',#573);
#573 = CARTESIAN_POINT('',(-35.78281062756,-23.55823555333,
    -4.382304175287E-15));
#574 = CIRCLE('',#575,3.35);
#575 = AXIS2_PLACEMENT_3D('',#576,#577,#578);
#576 = CARTESIAN_POINT('',(-35.11733012345,-20.275,-4.300806318362E-15)
  );
#577 = DIRECTION('',(-1.224646799147E-16,-6.162975822039E-33,1.));
#578 = DIRECTION('',(-0.5,0.866025403784,-6.123233995737E-17));
#579 = ORIENTED_EDGE('',*,*,#580,.F.);
#580 = EDGE_CURVE('',#581,#570,#583,.T.);
#581 = VERTEX_POINT('',#582);
#582 = CARTESIAN_POINT('',(-36.79233012345,-17.37381489732,
    -4.50593465722E-15));
#583 = CIRCLE('',#584,3.35);
#584 = AXIS2_PLACEMENT_3D('',#585,#586,#587);
#585 = CARTESIAN_POINT('',(-35.11733012345,-20.275,-4.300806318362E-15)
  );
#586 = DIRECTION('',(-1.224646799147E-16,-6.162975822039E-33,1.));
#587 = DIRECTION('',(-0.5,0.866025403784,-6.123233995737E-17));
#588 = ORIENTED_EDGE('',*,*,#589,.F.);
#589 = EDGE_CURVE('',#572,#581,#590,.T.);
#590 = CIRCLE('',#591,3.35);
#591 = AXIS2_PLACEMENT_3D('',#592,#593,#594);
#592 = CARTESIAN_POINT('',(-35.11733012345,-20.275,-4.300806318362E-15)
  );
#593 = DIRECTION('',(-1.224646799147E-16,-6.162975822039E-33,1.));
#594 = DIRECTION('',(-0.5,0.866025403784,-6.123233995737E-17));
#595 = FACE_BOUND('',#596,.F.);
#596 = EDGE_LOOP('',(#597));
#597 = ORIENTED_EDGE('',*,*,#553,.F.);
#598 = PLANE('',#599);
#599 = AXIS2_PLACEMENT_3D('',#600,#601,#602);
#600 = CARTESIAN_POINT('',(-3.146494166617E-03,-1.816629255268E-03,
    -5.590597338172E-19));
#601 = DIRECTION('',(1.224646799147E-16,0.,-1.));
#602 = DIRECTION('',(-1.,0.,-1.224646799147E-16));
#603 = ADVANCED_FACE('',(#604),#623,.F.);
#604 = FACE_BOUND('',#605,.F.);
#605 = EDGE_LOOP('',(#606,#607,#615,#622));
#606 = ORIENTED_EDGE('',*,*,#279,.F.);
#607 = ORIENTED_EDGE('',*,*,#608,.T.);
#608 = EDGE_CURVE('',#280,#609,#611,.T.);
#609 = VERTEX_POINT('',#610);
#610 = CARTESIAN_POINT('',(33.617330123459,20.275,4.116935573157E-15));
#611 = LINE('',#612,#613);
#612 = CARTESIAN_POINT('',(33.617330123459,20.275,-10.5));
#613 = VECTOR('',#614,1.);
#614 = DIRECTION('',(-1.224646799147E-16,-0.,1.));
#615 = ORIENTED_EDGE('',*,*,#616,.T.);
#616 = EDGE_CURVE('',#609,#609,#617,.T.);
#617 = CIRCLE('',#618,1.5);
#618 = AXIS2_PLACEMENT_3D('',#619,#620,#621);
#619 = CARTESIAN_POINT('',(35.117330123459,20.275,4.30063259303E-15));
#620 = DIRECTION('',(1.224646799147E-16,0.,-1.));
#621 = DIRECTION('',(-1.,0.,-1.224646799147E-16));
#622 = ORIENTED_EDGE('',*,*,#608,.F.);
#623 = CYLINDRICAL_SURFACE('',#624,1.5);
#624 = AXIS2_PLACEMENT_3D('',#625,#626,#627);
#625 = CARTESIAN_POINT('',(35.117330123459,20.275,-10.5));
#626 = DIRECTION('',(1.224646799147E-16,0.,-1.));
#627 = DIRECTION('',(-1.,0.,-1.224646799147E-16));
#628 = ADVANCED_FACE('',(#629),#648,.F.);
#629 = FACE_BOUND('',#630,.F.);
#630 = EDGE_LOOP('',(#631,#632,#640,#647));
#631 = ORIENTED_EDGE('',*,*,#290,.F.);
#632 = ORIENTED_EDGE('',*,*,#633,.T.);
#633 = EDGE_CURVE('',#291,#634,#636,.T.);
#634 = VERTEX_POINT('',#635);
#635 = CARTESIAN_POINT('',(-32.5,7.771561172376E-16,-3.5));
#636 = LINE('',#637,#638);
#637 = CARTESIAN_POINT('',(-32.5,0.,-10.5));
#638 = VECTOR('',#639,1.);
#639 = DIRECTION('',(-1.224646799147E-16,-0.,1.));
#640 = ORIENTED_EDGE('',*,*,#641,.F.);
#641 = EDGE_CURVE('',#634,#634,#642,.T.);
#642 = CIRCLE('',#643,32.5);
#643 = AXIS2_PLACEMENT_3D('',#644,#645,#646);
#644 = CARTESIAN_POINT('',(4.286263797016E-16,7.771561172376E-16,-3.5));
#645 = DIRECTION('',(-1.224646799147E-16,-2.22044604925E-16,1.));
#646 = DIRECTION('',(-1.,0.,-1.224646799147E-16));
#647 = ORIENTED_EDGE('',*,*,#633,.F.);
#648 = CYLINDRICAL_SURFACE('',#649,32.5);
#649 = AXIS2_PLACEMENT_3D('',#650,#651,#652);
#650 = CARTESIAN_POINT('',(1.285879139105E-15,0.,-10.5));
#651 = DIRECTION('',(1.224646799147E-16,0.,-1.));
#652 = DIRECTION('',(-1.,0.,-1.224646799147E-16));
#653 = ADVANCED_FACE('',(#654),#673,.F.);
#654 = FACE_BOUND('',#655,.F.);
#655 = EDGE_LOOP('',(#656,#657,#665,#672));
#656 = ORIENTED_EDGE('',*,*,#301,.F.);
#657 = ORIENTED_EDGE('',*,*,#658,.T.);
#658 = EDGE_CURVE('',#302,#659,#661,.T.);
#659 = VERTEX_POINT('',#660);
#660 = CARTESIAN_POINT('',(-36.61733012345,20.275,-4.484329612902E-15));
#661 = LINE('',#662,#663);
#662 = CARTESIAN_POINT('',(-36.61733012345,20.275,-10.5));
#663 = VECTOR('',#664,1.);
#664 = DIRECTION('',(-1.224646799147E-16,-0.,1.));
#665 = ORIENTED_EDGE('',*,*,#666,.T.);
#666 = EDGE_CURVE('',#659,#659,#667,.T.);
#667 = CIRCLE('',#668,1.5);
#668 = AXIS2_PLACEMENT_3D('',#669,#670,#671);
#669 = CARTESIAN_POINT('',(-35.11733012345,20.275,-4.300632593029E-15));
#670 = DIRECTION('',(1.224646799147E-16,0.,-1.));
#671 = DIRECTION('',(-1.,0.,-1.224646799147E-16));
#672 = ORIENTED_EDGE('',*,*,#658,.F.);
#673 = CYLINDRICAL_SURFACE('',#674,1.5);
#674 = AXIS2_PLACEMENT_3D('',#675,#676,#677);
#675 = CARTESIAN_POINT('',(-35.11733012345,20.275,-10.5));
#676 = DIRECTION('',(1.224646799147E-16,0.,-1.));
#677 = DIRECTION('',(-1.,0.,-1.224646799147E-16));
#678 = ADVANCED_FACE('',(#679),#698,.F.);
#679 = FACE_BOUND('',#680,.F.);
#680 = EDGE_LOOP('',(#681,#682,#690,#697));
#681 = ORIENTED_EDGE('',*,*,#312,.F.);
#682 = ORIENTED_EDGE('',*,*,#683,.T.);
#683 = EDGE_CURVE('',#313,#684,#686,.T.);
#684 = VERTEX_POINT('',#685);
#685 = CARTESIAN_POINT('',(-1.5,40.55,-1.836970198721E-16));
#686 = LINE('',#687,#688);
#687 = CARTESIAN_POINT('',(-1.5,40.55,-10.5));
#688 = VECTOR('',#689,1.);
#689 = DIRECTION('',(-1.224646799147E-16,-0.,1.));
#690 = ORIENTED_EDGE('',*,*,#691,.T.);
#691 = EDGE_CURVE('',#684,#684,#692,.T.);
#692 = CIRCLE('',#693,1.5);
#693 = AXIS2_PLACEMENT_3D('',#694,#695,#696);
#694 = CARTESIAN_POINT('',(0.,40.55,0.));
#695 = DIRECTION('',(1.224646799147E-16,0.,-1.));
#696 = DIRECTION('',(-1.,0.,-1.224646799147E-16));
#697 = ORIENTED_EDGE('',*,*,#683,.F.);
#698 = CYLINDRICAL_SURFACE('',#699,1.5);
#699 = AXIS2_PLACEMENT_3D('',#700,#701,#702);
#700 = CARTESIAN_POINT('',(1.285879139105E-15,40.55,-10.5));
#701 = DIRECTION('',(1.224646799147E-16,0.,-1.));
#702 = DIRECTION('',(-1.,0.,-1.224646799147E-16));
#703 = ADVANCED_FACE('',(#704,#733),#736,.F.);
#704 = FACE_BOUND('',#705,.F.);
#705 = EDGE_LOOP('',(#706,#717,#726));
#706 = ORIENTED_EDGE('',*,*,#707,.F.);
#707 = EDGE_CURVE('',#708,#710,#712,.T.);
#708 = VERTEX_POINT('',#709);
#709 = CARTESIAN_POINT('',(35.660004267051,-23.58075328387,
    4.36691728299E-15));
#710 = VERTEX_POINT('',#711);
#711 = CARTESIAN_POINT('',(38.251533517743,-19.0920929524,
    4.684288083165E-15));
#712 = CIRCLE('',#713,3.35);
#713 = AXIS2_PLACEMENT_3D('',#714,#715,#716);
#714 = CARTESIAN_POINT('',(35.117330123459,-20.275,4.300458867697E-15));
#715 = DIRECTION('',(-1.224646799147E-16,6.162975822039E-33,1.));
#716 = DIRECTION('',(-0.5,-0.866025403784,-6.123233995737E-17));
#717 = ORIENTED_EDGE('',*,*,#718,.F.);
#718 = EDGE_CURVE('',#719,#708,#721,.T.);
#719 = VERTEX_POINT('',#720);
#720 = CARTESIAN_POINT('',(33.442330123459,-23.17618510267,
    4.095330528839E-15));
#721 = CIRCLE('',#722,3.35);
#722 = AXIS2_PLACEMENT_3D('',#723,#724,#725);
#723 = CARTESIAN_POINT('',(35.117330123459,-20.275,4.300458867697E-15));
#724 = DIRECTION('',(-1.224646799147E-16,0.,1.));
#725 = DIRECTION('',(-0.5,-0.866025403784,-6.123233995737E-17));
#726 = ORIENTED_EDGE('',*,*,#727,.F.);
#727 = EDGE_CURVE('',#710,#719,#728,.T.);
#728 = CIRCLE('',#729,3.35);
#729 = AXIS2_PLACEMENT_3D('',#730,#731,#732);
#730 = CARTESIAN_POINT('',(35.117330123459,-20.275,4.300458867697E-15));
#731 = DIRECTION('',(-1.224646799147E-16,0.,1.));
#732 = DIRECTION('',(-0.5,-0.866025403784,-6.123233995737E-17));
#733 = FACE_BOUND('',#734,.F.);
#734 = EDGE_LOOP('',(#735));
#735 = ORIENTED_EDGE('',*,*,#511,.F.);
#736 = PLANE('',#737);
#737 = AXIS2_PLACEMENT_3D('',#738,#739,#740);
#738 = CARTESIAN_POINT('',(-3.146494166617E-03,-1.816629255268E-03,
    -5.590597338172E-19));
#739 = DIRECTION('',(1.224646799147E-16,0.,-1.));
#740 = DIRECTION('',(-1.,0.,-1.224646799147E-16));
#741 = ADVANCED_FACE('',(#742,#771),#774,.F.);
#742 = FACE_BOUND('',#743,.F.);
#743 = EDGE_LOOP('',(#744,#755,#764));
#744 = ORIENTED_EDGE('',*,*,#745,.F.);
#745 = EDGE_CURVE('',#746,#748,#750,.T.);
#746 = VERTEX_POINT('',#747);
#747 = CARTESIAN_POINT('',(35.660004267051,23.580753283879,
    4.36691728299E-15));
#748 = VERTEX_POINT('',#749);
#749 = CARTESIAN_POINT('',(36.792330123459,17.373814897322,
    4.505587206554E-15));
#750 = CIRCLE('',#751,3.35);
#751 = AXIS2_PLACEMENT_3D('',#752,#753,#754);
#752 = CARTESIAN_POINT('',(35.117330123459,20.275,4.300458867697E-15));
#753 = DIRECTION('',(-1.224646799147E-16,-6.162975822039E-33,1.));
#754 = DIRECTION('',(0.5,-0.866025403784,6.123233995737E-17));
#755 = ORIENTED_EDGE('',*,*,#756,.F.);
#756 = EDGE_CURVE('',#757,#746,#759,.T.);
#757 = VERTEX_POINT('',#758);
#758 = CARTESIAN_POINT('',(38.251533517758,19.09209295238,
    4.684288083167E-15));
#759 = CIRCLE('',#760,3.35);
#760 = AXIS2_PLACEMENT_3D('',#761,#762,#763);
#761 = CARTESIAN_POINT('',(35.117330123459,20.275,4.300458867697E-15));
#762 = DIRECTION('',(-1.224646799147E-16,-6.162975822039E-33,1.));
#763 = DIRECTION('',(0.5,-0.866025403784,6.123233995737E-17));
#764 = ORIENTED_EDGE('',*,*,#765,.F.);
#765 = EDGE_CURVE('',#748,#757,#766,.T.);
#766 = CIRCLE('',#767,3.35);
#767 = AXIS2_PLACEMENT_3D('',#768,#769,#770);
#768 = CARTESIAN_POINT('',(35.117330123459,20.275,4.300458867697E-15));
#769 = DIRECTION('',(-1.224646799147E-16,-6.162975822039E-33,1.));
#770 = DIRECTION('',(0.5,-0.866025403784,6.123233995737E-17));
#771 = FACE_BOUND('',#772,.F.);
#772 = EDGE_LOOP('',(#773));
#773 = ORIENTED_EDGE('',*,*,#616,.F.);
#774 = PLANE('',#775);
#775 = AXIS2_PLACEMENT_3D('',#776,#777,#778);
#776 = CARTESIAN_POINT('',(-3.146494166617E-03,-1.816629255268E-03,
    -5.590597338172E-19));
#777 = DIRECTION('',(1.224646799147E-16,0.,-1.));
#778 = DIRECTION('',(-1.,0.,-1.224646799147E-16));
#779 = ADVANCED_FACE('',(#780),#799,.F.);
#780 = FACE_BOUND('',#781,.F.);
#781 = EDGE_LOOP('',(#782,#790,#791,#792));
#782 = ORIENTED_EDGE('',*,*,#783,.F.);
#783 = EDGE_CURVE('',#634,#784,#786,.T.);
#784 = VERTEX_POINT('',#785);
#785 = CARTESIAN_POINT('',(-31.,1.850371707709E-16,-2.5));
#786 = LINE('',#787,#788);
#787 = CARTESIAN_POINT('',(-32.5,7.771561172376E-16,-3.5));
#788 = VECTOR('',#789,1.);
#789 = DIRECTION('',(0.832050294338,-1.231681859227E-16,0.554700196225)
  );
#790 = ORIENTED_EDGE('',*,*,#641,.T.);
#791 = ORIENTED_EDGE('',*,*,#783,.T.);
#792 = ORIENTED_EDGE('',*,*,#793,.F.);
#793 = EDGE_CURVE('',#784,#784,#794,.T.);
#794 = CIRCLE('',#795,31.);
#795 = AXIS2_PLACEMENT_3D('',#796,#797,#798);
#796 = CARTESIAN_POINT('',(3.061616997868E-16,0.,-2.5));
#797 = DIRECTION('',(-1.224646799147E-16,-0.,1.));
#798 = DIRECTION('',(-1.,0.,-1.224646799147E-16));
#799 = CONICAL_SURFACE('',#800,32.5,0.982793723247);
#800 = AXIS2_PLACEMENT_3D('',#801,#802,#803);
#801 = CARTESIAN_POINT('',(4.286263797016E-16,7.771561172376E-16,-3.5));
#802 = DIRECTION('',(1.224646799147E-16,2.22044604925E-16,-1.));
#803 = DIRECTION('',(-1.,0.,-1.224646799147E-16));
#804 = ADVANCED_FACE('',(#805,#834),#837,.F.);
#805 = FACE_BOUND('',#806,.F.);
#806 = EDGE_LOOP('',(#807,#818,#827));
#807 = ORIENTED_EDGE('',*,*,#808,.F.);
#808 = EDGE_CURVE('',#809,#811,#813,.T.);
#809 = VERTEX_POINT('',#810);
#810 = CARTESIAN_POINT('',(-38.25153351774,19.0920929524,
    -4.684635533831E-15));
#811 = VERTEX_POINT('',#812);
#812 = CARTESIAN_POINT('',(-33.44233012345,23.176185102678,
    -4.095677979505E-15));
#813 = CIRCLE('',#814,3.35);
#814 = AXIS2_PLACEMENT_3D('',#815,#816,#817);
#815 = CARTESIAN_POINT('',(-35.11733012345,20.275,-4.300806318362E-15));
#816 = DIRECTION('',(-1.224646799147E-16,6.162975822039E-33,1.));
#817 = DIRECTION('',(0.5,0.866025403784,6.123233995737E-17));
#818 = ORIENTED_EDGE('',*,*,#819,.F.);
#819 = EDGE_CURVE('',#820,#809,#822,.T.);
#820 = VERTEX_POINT('',#821);
#821 = CARTESIAN_POINT('',(-35.66000426705,23.580753283879,
    -4.367264733655E-15));
#822 = CIRCLE('',#823,3.35);
#823 = AXIS2_PLACEMENT_3D('',#824,#825,#826);
#824 = CARTESIAN_POINT('',(-35.11733012345,20.275,-4.300806318362E-15));
#825 = DIRECTION('',(-1.224646799147E-16,0.,1.));
#826 = DIRECTION('',(0.5,0.866025403784,6.123233995737E-17));
#827 = ORIENTED_EDGE('',*,*,#828,.F.);
#828 = EDGE_CURVE('',#811,#820,#829,.T.);
#829 = CIRCLE('',#830,3.35);
#830 = AXIS2_PLACEMENT_3D('',#831,#832,#833);
#831 = CARTESIAN_POINT('',(-35.11733012345,20.275,-4.300806318362E-15));
#832 = DIRECTION('',(-1.224646799147E-16,6.162975822039E-33,1.));
#833 = DIRECTION('',(0.5,0.866025403784,6.123233995737E-17));
#834 = FACE_BOUND('',#835,.F.);
#835 = EDGE_LOOP('',(#836));
#836 = ORIENTED_EDGE('',*,*,#666,.F.);
#837 = PLANE('',#838);
#838 = AXIS2_PLACEMENT_3D('',#839,#840,#841);
#839 = CARTESIAN_POINT('',(-3.146494166617E-03,-1.816629255268E-03,
    -5.590597338172E-19));
#840 = DIRECTION('',(1.224646799147E-16,0.,-1.));
#841 = DIRECTION('',(-1.,0.,-1.224646799147E-16));
#842 = ADVANCED_FACE('',(#843,#872),#875,.F.);
#843 = FACE_BOUND('',#844,.F.);
#844 = EDGE_LOOP('',(#845,#856,#865));
#845 = ORIENTED_EDGE('',*,*,#846,.F.);
#846 = EDGE_CURVE('',#847,#849,#851,.T.);
#847 = VERTEX_POINT('',#848);
#848 = CARTESIAN_POINT('',(-2.591529250687,42.672846236267,
    -3.175445255079E-16));
#849 = VERTEX_POINT('',#850);
#850 = CARTESIAN_POINT('',(3.35,40.55,4.100829523815E-16));
#851 = CIRCLE('',#852,3.35);
#852 = AXIS2_PLACEMENT_3D('',#853,#854,#855);
#853 = CARTESIAN_POINT('',(4.965942770543E-15,40.55,-1.737253328483E-19)
  );
#854 = DIRECTION('',(-1.224646799147E-16,0.,1.));
#855 = DIRECTION('',(1.,-1.224646799147E-16,1.224646799147E-16));
#856 = ORIENTED_EDGE('',*,*,#857,.F.);
#857 = EDGE_CURVE('',#858,#847,#860,.T.);
#858 = VERTEX_POINT('',#859);
#859 = CARTESIAN_POINT('',(2.591529250687,42.672846236267,
    3.171970748422E-16));
#860 = CIRCLE('',#861,3.35);
#861 = AXIS2_PLACEMENT_3D('',#862,#863,#864);
#862 = CARTESIAN_POINT('',(5.694229809894E-15,40.55,-1.737253328482E-19)
  );
#863 = DIRECTION('',(-1.224646799147E-16,0.,1.));
#864 = DIRECTION('',(1.,0.,1.224646799147E-16));
#865 = ORIENTED_EDGE('',*,*,#866,.F.);
#866 = EDGE_CURVE('',#849,#858,#867,.T.);
#867 = CIRCLE('',#868,3.35);
#868 = AXIS2_PLACEMENT_3D('',#869,#870,#871);
#869 = CARTESIAN_POINT('',(4.965942770543E-15,40.55,-1.737253328483E-19)
  );
#870 = DIRECTION('',(-1.224646799147E-16,0.,1.));
#871 = DIRECTION('',(1.,-1.224646799147E-16,1.224646799147E-16));
#872 = FACE_BOUND('',#873,.F.);
#873 = EDGE_LOOP('',(#874));
#874 = ORIENTED_EDGE('',*,*,#691,.F.);
#875 = PLANE('',#876);
#876 = AXIS2_PLACEMENT_3D('',#877,#878,#879);
#877 = CARTESIAN_POINT('',(-3.146494166617E-03,-1.816629255268E-03,
    -5.590597338172E-19));
#878 = DIRECTION('',(1.224646799147E-16,0.,-1.));
#879 = DIRECTION('',(-1.,0.,-1.224646799147E-16));
#880 = ADVANCED_FACE('',(#881),#900,.F.);
#881 = FACE_BOUND('',#882,.T.);
#882 = EDGE_LOOP('',(#883,#891,#898,#899));
#883 = ORIENTED_EDGE('',*,*,#884,.F.);
#884 = EDGE_CURVE('',#885,#784,#887,.T.);
#885 = VERTEX_POINT('',#886);
#886 = CARTESIAN_POINT('',(-31.,0.,-3.796405077357E-15));
#887 = LINE('',#888,#889);
#888 = CARTESIAN_POINT('',(-31.,0.,-3.796405077357E-15));
#889 = VECTOR('',#890,1.);
#890 = DIRECTION('',(1.224646799147E-16,0.,-1.));
#891 = ORIENTED_EDGE('',*,*,#892,.F.);
#892 = EDGE_CURVE('',#885,#885,#893,.T.);
#893 = CIRCLE('',#894,31.);
#894 = AXIS2_PLACEMENT_3D('',#895,#896,#897);
#895 = CARTESIAN_POINT('',(0.,0.,0.));
#896 = DIRECTION('',(1.224646799147E-16,0.,-1.));
#897 = DIRECTION('',(-1.,0.,-1.224646799147E-16));
#898 = ORIENTED_EDGE('',*,*,#884,.T.);
#899 = ORIENTED_EDGE('',*,*,#793,.F.);
#900 = CYLINDRICAL_SURFACE('',#901,31.);
#901 = AXIS2_PLACEMENT_3D('',#902,#903,#904);
#902 = CARTESIAN_POINT('',(0.,0.,0.));
#903 = DIRECTION('',(-1.224646799147E-16,-0.,1.));
#904 = DIRECTION('',(-1.,0.,-1.224646799147E-16));
#905 = ADVANCED_FACE('',(#906),#940,.T.);
#906 = FACE_BOUND('',#907,.T.);
#907 = EDGE_LOOP('',(#908,#918,#926,#934));
#908 = ORIENTED_EDGE('',*,*,#909,.F.);
#909 = EDGE_CURVE('',#910,#912,#914,.T.);
#910 = VERTEX_POINT('',#911);
#911 = CARTESIAN_POINT('',(-34.3263791952,-24.34892889347,
    -4.203942766106E-15));
#912 = VERTEX_POINT('',#913);
#913 = CARTESIAN_POINT('',(-3.946690452314,-41.83301772147,
    -4.83503908298E-16));
#914 = LINE('',#915,#916);
#915 = CARTESIAN_POINT('',(-35.54268401973,-23.64892232744,
    -4.352897147121E-15));
#916 = VECTOR('',#917,1.);
#917 = DIRECTION('',(0.866711846787,-0.498809156531,1.061415888951E-16)
  );
#918 = ORIENTED_EDGE('',*,*,#919,.F.);
#919 = EDGE_CURVE('',#920,#910,#922,.T.);
#920 = VERTEX_POINT('',#921);
#921 = CARTESIAN_POINT('',(-34.3263791952,-24.34892889347,35.5));
#922 = LINE('',#923,#924);
#923 = CARTESIAN_POINT('',(-34.3263791952,-24.34892889347,
    -4.203942766106E-15));
#924 = VECTOR('',#925,1.);
#925 = DIRECTION('',(1.224646799147E-16,0.,-1.));
#926 = ORIENTED_EDGE('',*,*,#927,.T.);
#927 = EDGE_CURVE('',#920,#928,#930,.T.);
#928 = VERTEX_POINT('',#929);
#929 = CARTESIAN_POINT('',(-3.946690452314,-41.83301772147,35.5));
#930 = LINE('',#931,#932);
#931 = CARTESIAN_POINT('',(-35.54268401973,-23.64892232744,35.5));
#932 = VECTOR('',#933,1.);
#933 = DIRECTION('',(0.866711846787,-0.498809156531,1.061415888951E-16)
  );
#934 = ORIENTED_EDGE('',*,*,#935,.T.);
#935 = EDGE_CURVE('',#928,#912,#936,.T.);
#936 = LINE('',#937,#938);
#937 = CARTESIAN_POINT('',(-3.946690452314,-41.83301772147,
    -4.83503908298E-16));
#938 = VECTOR('',#939,1.);
#939 = DIRECTION('',(1.224646799147E-16,0.,-1.));
#940 = PLANE('',#941);
#941 = AXIS2_PLACEMENT_3D('',#942,#943,#944);
#942 = CARTESIAN_POINT('',(-35.54268401973,-23.64892232744,
    -4.352897147121E-15));
#943 = DIRECTION('',(0.498809156531,0.866711846787,6.108650369306E-17));
#944 = DIRECTION('',(0.866711846787,-0.498809156531,1.061415888951E-16)
  );
#945 = ADVANCED_FACE('',(#946),#991,.T.);
#946 = FACE_BOUND('',#947,.F.);
#947 = EDGE_LOOP('',(#948,#958,#967,#974,#975,#984));
#948 = ORIENTED_EDGE('',*,*,#949,.F.);
#949 = EDGE_CURVE('',#950,#952,#954,.T.);
#950 = VERTEX_POINT('',#951);
#951 = CARTESIAN_POINT('',(3.947521719113,-41.83045783887,35.5));
#952 = VERTEX_POINT('',#953);
#953 = CARTESIAN_POINT('',(3.947521719113,-41.83045783887,
    4.832582584548E-16));
#954 = LINE('',#955,#956);
#955 = CARTESIAN_POINT('',(3.947521719113,-41.83045783887,
    4.832582584548E-16));
#956 = VECTOR('',#957,1.);
#957 = DIRECTION('',(1.224646799147E-16,0.,-1.));
#958 = ORIENTED_EDGE('',*,*,#959,.F.);
#959 = EDGE_CURVE('',#960,#950,#962,.T.);
#960 = VERTEX_POINT('',#961);
#961 = CARTESIAN_POINT('',(-4.15,-40.55,35.5));
#962 = CIRCLE('',#963,4.15);
#963 = AXIS2_PLACEMENT_3D('',#964,#965,#966);
#964 = CARTESIAN_POINT('',(-4.347496136973E-15,-40.55,35.5));
#965 = DIRECTION('',(1.224646799147E-16,0.,-1.));
#966 = DIRECTION('',(-1.,0.,-1.224646799147E-16));
#967 = ORIENTED_EDGE('',*,*,#968,.F.);
#968 = EDGE_CURVE('',#928,#960,#969,.T.);
#969 = CIRCLE('',#970,4.15);
#970 = AXIS2_PLACEMENT_3D('',#971,#972,#973);
#971 = CARTESIAN_POINT('',(-4.347496136973E-15,-40.55,35.5));
#972 = DIRECTION('',(1.224646799147E-16,0.,-1.));
#973 = DIRECTION('',(-1.,0.,-1.224646799147E-16));
#974 = ORIENTED_EDGE('',*,*,#935,.T.);
#975 = ORIENTED_EDGE('',*,*,#976,.F.);
#976 = EDGE_CURVE('',#977,#912,#979,.T.);
#977 = VERTEX_POINT('',#978);
#978 = CARTESIAN_POINT('',(-4.15,-40.55,-5.08402146979E-16));
#979 = CIRCLE('',#980,4.15);
#980 = AXIS2_PLACEMENT_3D('',#981,#982,#983);
#981 = CARTESIAN_POINT('',(2.127521728042E-35,-40.55,-1.737253328489E-19
    ));
#982 = DIRECTION('',(-1.224646799147E-16,0.,1.));
#983 = DIRECTION('',(-1.,0.,-1.224646799147E-16));
#984 = ORIENTED_EDGE('',*,*,#985,.F.);
#985 = EDGE_CURVE('',#952,#977,#986,.T.);
#986 = CIRCLE('',#987,4.15);
#987 = AXIS2_PLACEMENT_3D('',#988,#989,#990);
#988 = CARTESIAN_POINT('',(2.127521728042E-35,-40.55,-1.737253328489E-19
    ));
#989 = DIRECTION('',(-1.224646799147E-16,0.,1.));
#990 = DIRECTION('',(-1.,0.,-1.224646799147E-16));
#991 = CYLINDRICAL_SURFACE('',#992,4.15);
#992 = AXIS2_PLACEMENT_3D('',#993,#994,#995);
#993 = CARTESIAN_POINT('',(2.127521728042E-35,-40.55,-1.737253328489E-19
    ));
#994 = DIRECTION('',(1.224646799147E-16,0.,-1.));
#995 = DIRECTION('',(-1.,0.,-1.224646799147E-16));
#996 = ADVANCED_FACE('',(#997),#1022,.T.);
#997 = FACE_BOUND('',#998,.T.);
#998 = EDGE_LOOP('',(#999,#1007,#1008,#1016));
#999 = ORIENTED_EDGE('',*,*,#1000,.F.);
#1000 = EDGE_CURVE('',#952,#1001,#1003,.T.);
#1001 = VERTEX_POINT('',#1002);
#1002 = CARTESIAN_POINT('',(34.252478280841,-24.33388301017,
    4.194545063617E-15));
#1003 = LINE('',#1004,#1005);
#1004 = CARTESIAN_POINT('',(2.810401907568,-42.48697426816,
    3.440012447092E-16));
#1005 = VECTOR('',#1006,1.);
#1006 = DIRECTION('',(0.866025403784,0.5,1.060575238725E-16));
#1007 = ORIENTED_EDGE('',*,*,#949,.F.);
#1008 = ORIENTED_EDGE('',*,*,#1009,.T.);
#1009 = EDGE_CURVE('',#950,#1010,#1012,.T.);
#1010 = VERTEX_POINT('',#1011);
#1011 = CARTESIAN_POINT('',(34.252478280841,-24.33388301017,35.5));
#1012 = LINE('',#1013,#1014);
#1013 = CARTESIAN_POINT('',(2.810401907568,-42.48697426816,35.5));
#1014 = VECTOR('',#1015,1.);
#1015 = DIRECTION('',(0.866025403784,0.5,1.060575238725E-16));
#1016 = ORIENTED_EDGE('',*,*,#1017,.T.);
#1017 = EDGE_CURVE('',#1010,#1001,#1018,.T.);
#1018 = LINE('',#1019,#1020);
#1019 = CARTESIAN_POINT('',(34.252478280841,-24.33388301017,
    4.194545063617E-15));
#1020 = VECTOR('',#1021,1.);
#1021 = DIRECTION('',(1.224646799147E-16,0.,-1.));
#1022 = PLANE('',#1023);
#1023 = AXIS2_PLACEMENT_3D('',#1024,#1025,#1026);
#1024 = CARTESIAN_POINT('',(2.810401907568,-42.48697426816,
    3.440012447092E-16));
#1025 = DIRECTION('',(-0.5,0.866025403784,-6.123233995737E-17));
#1026 = DIRECTION('',(0.866025403784,0.5,1.060575238725E-16));
#1027 = ADVANCED_FACE('',(#1028,#1154),#1157,.F.);
#1028 = FACE_BOUND('',#1029,.F.);
#1029 = EDGE_LOOP('',(#1030,#1041,#1049,#1058,#1067,#1075,#1084,#1093,
    #1101,#1110,#1119,#1127,#1136,#1143,#1144,#1145,#1146,#1147));
#1030 = ORIENTED_EDGE('',*,*,#1031,.T.);
#1031 = EDGE_CURVE('',#1032,#1034,#1036,.T.);
#1032 = VERTEX_POINT('',#1033);
#1033 = CARTESIAN_POINT('',(-37.19233012345,-16.68099457429,
    -4.554920529185E-15));
#1034 = VERTEX_POINT('',#1035);
#1035 = CARTESIAN_POINT('',(-38.24998057429,-17.55305195624,
    -4.684445353109E-15));
#1036 = CIRCLE('',#1037,4.15);
#1037 = AXIS2_PLACEMENT_3D('',#1038,#1039,#1040);
#1038 = CARTESIAN_POINT('',(-35.11733012345,-20.275,-4.300806318362E-15)
  );
#1039 = DIRECTION('',(-1.224646799147E-16,-6.162975822039E-33,1.));
#1040 = DIRECTION('',(-0.5,0.866025403784,-6.123233995737E-17));
#1041 = ORIENTED_EDGE('',*,*,#1042,.F.);
#1042 = EDGE_CURVE('',#1043,#1034,#1045,.T.);
#1043 = VERTEX_POINT('',#1044);
#1044 = CARTESIAN_POINT('',(-38.20180128991,17.498574668159,
    -4.678545092469E-15));
#1045 = LINE('',#1046,#1047);
#1046 = CARTESIAN_POINT('',(-38.20000075567,18.80850806953,
    -4.67832459062E-15));
#1047 = VECTOR('',#1048,1.);
#1048 = DIRECTION('',(-1.374522197779E-03,-0.999999055344,
    -1.683304209867E-19));
#1049 = ORIENTED_EDGE('',*,*,#1050,.T.);
#1050 = EDGE_CURVE('',#1043,#1051,#1053,.T.);
#1051 = VERTEX_POINT('',#1052);
#1052 = CARTESIAN_POINT('',(-33.04233012345,23.869005425705,
    -4.046692107539E-15));
#1053 = CIRCLE('',#1054,4.15);
#1054 = AXIS2_PLACEMENT_3D('',#1055,#1056,#1057);
#1055 = CARTESIAN_POINT('',(-35.11733012345,20.275,-4.300806318362E-15)
  );
#1056 = DIRECTION('',(-1.224646799147E-16,6.162975822039E-33,1.));
#1057 = DIRECTION('',(0.5,0.866025403784,6.123233995737E-17));
#1058 = ORIENTED_EDGE('',*,*,#1059,.T.);
#1059 = EDGE_CURVE('',#1051,#1060,#1062,.T.);
#1060 = VERTEX_POINT('',#1061);
#1061 = CARTESIAN_POINT('',(-34.25247828084,24.333883010179,
    -4.194892514282E-15));
#1062 = CIRCLE('',#1063,4.15);
#1063 = AXIS2_PLACEMENT_3D('',#1064,#1065,#1066);
#1064 = CARTESIAN_POINT('',(-35.11733012345,20.275,-4.300806318362E-15)
  );
#1065 = DIRECTION('',(-1.224646799147E-16,6.162975822039E-33,1.));
#1066 = DIRECTION('',(0.5,0.866025403784,6.123233995737E-17));
#1067 = ORIENTED_EDGE('',*,*,#1068,.F.);
#1068 = EDGE_CURVE('',#1069,#1060,#1071,.T.);
#1069 = VERTEX_POINT('',#1070);
#1070 = CARTESIAN_POINT('',(-3.947521719113,41.830457838872,
    -4.836057091205E-16));
#1071 = LINE('',#1072,#1073);
#1072 = CARTESIAN_POINT('',(-2.810401907568,42.486974268169,
    -3.443486953749E-16));
#1073 = VECTOR('',#1074,1.);
#1074 = DIRECTION('',(-0.866025403784,-0.5,-1.060575238725E-16));
#1075 = ORIENTED_EDGE('',*,*,#1076,.T.);
#1076 = EDGE_CURVE('',#1069,#1077,#1079,.T.);
#1077 = VERTEX_POINT('',#1078);
#1078 = CARTESIAN_POINT('',(4.15,40.55,5.080546963133E-16));
#1079 = CIRCLE('',#1080,4.15);
#1080 = AXIS2_PLACEMENT_3D('',#1081,#1082,#1083);
#1081 = CARTESIAN_POINT('',(4.965942770543E-15,40.55,-1.737253328483E-19
    ));
#1082 = DIRECTION('',(-1.224646799147E-16,0.,1.));
#1083 = DIRECTION('',(1.,-1.224646799147E-16,1.224646799147E-16));
#1084 = ORIENTED_EDGE('',*,*,#1085,.T.);
#1085 = EDGE_CURVE('',#1077,#1086,#1088,.T.);
#1086 = VERTEX_POINT('',#1087);
#1087 = CARTESIAN_POINT('',(3.947521719113,41.830457838872,
    4.832582584548E-16));
#1088 = CIRCLE('',#1089,4.15);
#1089 = AXIS2_PLACEMENT_3D('',#1090,#1091,#1092);
#1090 = CARTESIAN_POINT('',(4.965942770543E-15,40.55,-1.737253328483E-19
    ));
#1091 = DIRECTION('',(-1.224646799147E-16,0.,1.));
#1092 = DIRECTION('',(1.,-1.224646799147E-16,1.224646799147E-16));
#1093 = ORIENTED_EDGE('',*,*,#1094,.F.);
#1094 = EDGE_CURVE('',#1095,#1086,#1097,.T.);
#1095 = VERTEX_POINT('',#1096);
#1096 = CARTESIAN_POINT('',(34.252478280841,24.333883010179,
    4.194545063617E-15));
#1097 = LINE('',#1098,#1099);
#1098 = CARTESIAN_POINT('',(35.389598092386,23.677366580882,
    4.333802077362E-15));
#1099 = VECTOR('',#1100,1.);
#1100 = DIRECTION('',(-0.866025403784,0.5,-1.060575238725E-16));
#1101 = ORIENTED_EDGE('',*,*,#1102,.T.);
#1102 = EDGE_CURVE('',#1095,#1103,#1105,.T.);
#1103 = VERTEX_POINT('',#1104);
#1104 = CARTESIAN_POINT('',(37.192330123459,16.680994574295,
    4.55457307852E-15));
#1105 = CIRCLE('',#1106,4.15);
#1106 = AXIS2_PLACEMENT_3D('',#1107,#1108,#1109);
#1107 = CARTESIAN_POINT('',(35.117330123459,20.275,4.300458867697E-15));
#1108 = DIRECTION('',(-1.224646799147E-16,1.232595164408E-32,1.));
#1109 = DIRECTION('',(0.5,-0.866025403784,6.123233995737E-17));
#1110 = ORIENTED_EDGE('',*,*,#1111,.T.);
#1111 = EDGE_CURVE('',#1103,#1112,#1114,.T.);
#1112 = VERTEX_POINT('',#1113);
#1113 = CARTESIAN_POINT('',(38.2,17.496574828745,4.67797704741E-15));
#1114 = CIRCLE('',#1115,4.15);
#1115 = AXIS2_PLACEMENT_3D('',#1116,#1117,#1118);
#1116 = CARTESIAN_POINT('',(35.117330123459,20.275,4.300458867697E-15));
#1117 = DIRECTION('',(-1.224646799147E-16,1.232595164408E-32,1.));
#1118 = DIRECTION('',(0.5,-0.866025403784,6.123233995737E-17));
#1119 = ORIENTED_EDGE('',*,*,#1120,.F.);
#1120 = EDGE_CURVE('',#1121,#1112,#1123,.T.);
#1121 = VERTEX_POINT('',#1122);
#1122 = CARTESIAN_POINT('',(38.2,-17.49657482874,4.67797704741E-15));
#1123 = LINE('',#1124,#1125);
#1124 = CARTESIAN_POINT('',(38.2,-18.80960768728,4.67797704741E-15));
#1125 = VECTOR('',#1126,1.);
#1126 = DIRECTION('',(-0.,1.,0.));
#1127 = ORIENTED_EDGE('',*,*,#1128,.T.);
#1128 = EDGE_CURVE('',#1121,#1129,#1131,.T.);
#1129 = VERTEX_POINT('',#1130);
#1130 = CARTESIAN_POINT('',(33.042330123459,-23.8690054257,
    4.046344656874E-15));
#1131 = CIRCLE('',#1132,4.15);
#1132 = AXIS2_PLACEMENT_3D('',#1133,#1134,#1135);
#1133 = CARTESIAN_POINT('',(35.117330123459,-20.275,4.300458867697E-15)
  );
#1134 = DIRECTION('',(-1.224646799147E-16,0.,1.));
#1135 = DIRECTION('',(-0.5,-0.866025403784,-6.123233995737E-17));
#1136 = ORIENTED_EDGE('',*,*,#1137,.T.);
#1137 = EDGE_CURVE('',#1129,#1001,#1138,.T.);
#1138 = CIRCLE('',#1139,4.15);
#1139 = AXIS2_PLACEMENT_3D('',#1140,#1141,#1142);
#1140 = CARTESIAN_POINT('',(35.117330123459,-20.275,4.300458867697E-15)
  );
#1141 = DIRECTION('',(-1.224646799147E-16,0.,1.));
#1142 = DIRECTION('',(-0.5,-0.866025403784,-6.123233995737E-17));
#1143 = ORIENTED_EDGE('',*,*,#1000,.F.);
#1144 = ORIENTED_EDGE('',*,*,#985,.T.);
#1145 = ORIENTED_EDGE('',*,*,#976,.T.);
#1146 = ORIENTED_EDGE('',*,*,#909,.F.);
#1147 = ORIENTED_EDGE('',*,*,#1148,.T.);
#1148 = EDGE_CURVE('',#910,#1032,#1149,.T.);
#1149 = CIRCLE('',#1150,4.15);
#1150 = AXIS2_PLACEMENT_3D('',#1151,#1152,#1153);
#1151 = CARTESIAN_POINT('',(-35.11733012345,-20.275,-4.300806318362E-15)
  );
#1152 = DIRECTION('',(-1.224646799147E-16,-6.162975822039E-33,1.));
#1153 = DIRECTION('',(-0.5,0.866025403784,-6.123233995737E-17));
#1154 = FACE_BOUND('',#1155,.F.);
#1155 = EDGE_LOOP('',(#1156));
#1156 = ORIENTED_EDGE('',*,*,#892,.F.);
#1157 = PLANE('',#1158);
#1158 = AXIS2_PLACEMENT_3D('',#1159,#1160,#1161);
#1159 = CARTESIAN_POINT('',(-3.146494166617E-03,-1.816629255268E-03,
    -5.590597338172E-19));
#1160 = DIRECTION('',(1.224646799147E-16,0.,-1.));
#1161 = DIRECTION('',(-1.,0.,-1.224646799147E-16));
#1162 = ADVANCED_FACE('',(#1163),#1188,.T.);
#1163 = FACE_BOUND('',#1164,.T.);
#1164 = EDGE_LOOP('',(#1165,#1166,#1174,#1182));
#1165 = ORIENTED_EDGE('',*,*,#1042,.F.);
#1166 = ORIENTED_EDGE('',*,*,#1167,.F.);
#1167 = EDGE_CURVE('',#1168,#1043,#1170,.T.);
#1168 = VERTEX_POINT('',#1169);
#1169 = CARTESIAN_POINT('',(-38.20180128991,17.498574668159,35.5));
#1170 = LINE('',#1171,#1172);
#1171 = CARTESIAN_POINT('',(-38.20180128991,17.498574668159,
    -4.678545092469E-15));
#1172 = VECTOR('',#1173,1.);
#1173 = DIRECTION('',(1.224646799147E-16,0.,-1.));
#1174 = ORIENTED_EDGE('',*,*,#1175,.T.);
#1175 = EDGE_CURVE('',#1168,#1176,#1178,.T.);
#1176 = VERTEX_POINT('',#1177);
#1177 = CARTESIAN_POINT('',(-38.24998057429,-17.55305195624,35.5));
#1178 = LINE('',#1179,#1180);
#1179 = CARTESIAN_POINT('',(-38.20000075567,18.80850806953,35.5));
#1180 = VECTOR('',#1181,1.);
#1181 = DIRECTION('',(-1.374522197779E-03,-0.999999055344,
    -1.683304209867E-19));
#1182 = ORIENTED_EDGE('',*,*,#1183,.T.);
#1183 = EDGE_CURVE('',#1176,#1034,#1184,.T.);
#1184 = LINE('',#1185,#1186);
#1185 = CARTESIAN_POINT('',(-38.24998057429,-17.55305195624,
    -4.684445353109E-15));
#1186 = VECTOR('',#1187,1.);
#1187 = DIRECTION('',(1.224646799147E-16,0.,-1.));
#1188 = PLANE('',#1189);
#1189 = AXIS2_PLACEMENT_3D('',#1190,#1191,#1192);
#1190 = CARTESIAN_POINT('',(-38.20000075567,18.80850806953,
    -4.67832459062E-15));
#1191 = DIRECTION('',(0.999999055344,-1.374522197779E-03,
    1.224645642277E-16));
#1192 = DIRECTION('',(-1.374522197779E-03,-0.999999055344,
    -1.683304209867E-19));
#1193 = ADVANCED_FACE('',(#1194),#1219,.T.);
#1194 = FACE_BOUND('',#1195,.T.);
#1195 = EDGE_LOOP('',(#1196,#1197,#1205,#1213));
#1196 = ORIENTED_EDGE('',*,*,#1068,.F.);
#1197 = ORIENTED_EDGE('',*,*,#1198,.F.);
#1198 = EDGE_CURVE('',#1199,#1069,#1201,.T.);
#1199 = VERTEX_POINT('',#1200);
#1200 = CARTESIAN_POINT('',(-3.947521719113,41.830457838872,35.5));
#1201 = LINE('',#1202,#1203);
#1202 = CARTESIAN_POINT('',(-3.947521719113,41.830457838872,
    -4.836057091205E-16));
#1203 = VECTOR('',#1204,1.);
#1204 = DIRECTION('',(1.224646799147E-16,0.,-1.));
#1205 = ORIENTED_EDGE('',*,*,#1206,.T.);
#1206 = EDGE_CURVE('',#1199,#1207,#1209,.T.);
#1207 = VERTEX_POINT('',#1208);
#1208 = CARTESIAN_POINT('',(-34.25247828084,24.333883010179,35.5));
#1209 = LINE('',#1210,#1211);
#1210 = CARTESIAN_POINT('',(-2.810401907568,42.486974268169,35.5));
#1211 = VECTOR('',#1212,1.);
#1212 = DIRECTION('',(-0.866025403784,-0.5,-1.060575238725E-16));
#1213 = ORIENTED_EDGE('',*,*,#1214,.T.);
#1214 = EDGE_CURVE('',#1207,#1060,#1215,.T.);
#1215 = LINE('',#1216,#1217);
#1216 = CARTESIAN_POINT('',(-34.25247828084,24.333883010179,
    -4.194892514282E-15));
#1217 = VECTOR('',#1218,1.);
#1218 = DIRECTION('',(1.224646799147E-16,0.,-1.));
#1219 = PLANE('',#1220);
#1220 = AXIS2_PLACEMENT_3D('',#1221,#1222,#1223);
#1221 = CARTESIAN_POINT('',(-2.810401907568,42.486974268169,
    -3.443486953749E-16));
#1222 = DIRECTION('',(0.5,-0.866025403784,6.123233995737E-17));
#1223 = DIRECTION('',(-0.866025403784,-0.5,-1.060575238725E-16));
#1224 = ADVANCED_FACE('',(#1225),#1250,.T.);
#1225 = FACE_BOUND('',#1226,.T.);
#1226 = EDGE_LOOP('',(#1227,#1228,#1236,#1244));
#1227 = ORIENTED_EDGE('',*,*,#1120,.F.);
#1228 = ORIENTED_EDGE('',*,*,#1229,.F.);
#1229 = EDGE_CURVE('',#1230,#1121,#1232,.T.);
#1230 = VERTEX_POINT('',#1231);
#1231 = CARTESIAN_POINT('',(38.2,-17.49657482874,35.5));
#1232 = LINE('',#1233,#1234);
#1233 = CARTESIAN_POINT('',(38.2,-17.49657482874,4.67797704741E-15));
#1234 = VECTOR('',#1235,1.);
#1235 = DIRECTION('',(1.224646799147E-16,0.,-1.));
#1236 = ORIENTED_EDGE('',*,*,#1237,.T.);
#1237 = EDGE_CURVE('',#1230,#1238,#1240,.T.);
#1238 = VERTEX_POINT('',#1239);
#1239 = CARTESIAN_POINT('',(38.2,17.496574828744,35.5));
#1240 = LINE('',#1241,#1242);
#1241 = CARTESIAN_POINT('',(38.2,-18.80960768728,35.5));
#1242 = VECTOR('',#1243,1.);
#1243 = DIRECTION('',(-0.,1.,0.));
#1244 = ORIENTED_EDGE('',*,*,#1245,.T.);
#1245 = EDGE_CURVE('',#1238,#1112,#1246,.T.);
#1246 = LINE('',#1247,#1248);
#1247 = CARTESIAN_POINT('',(38.2,17.496574828744,4.67797704741E-15));
#1248 = VECTOR('',#1249,1.);
#1249 = DIRECTION('',(1.224646799147E-16,0.,-1.));
#1250 = PLANE('',#1251);
#1251 = AXIS2_PLACEMENT_3D('',#1252,#1253,#1254);
#1252 = CARTESIAN_POINT('',(38.2,-18.80960768728,4.67797704741E-15));
#1253 = DIRECTION('',(-1.,0.,-1.224646799147E-16));
#1254 = DIRECTION('',(0.,1.,0.));
#1255 = ADVANCED_FACE('',(#1256),#1281,.T.);
#1256 = FACE_BOUND('',#1257,.T.);
#1257 = EDGE_LOOP('',(#1258,#1259,#1267,#1275));
#1258 = ORIENTED_EDGE('',*,*,#1094,.F.);
#1259 = ORIENTED_EDGE('',*,*,#1260,.F.);
#1260 = EDGE_CURVE('',#1261,#1095,#1263,.T.);
#1261 = VERTEX_POINT('',#1262);
#1262 = CARTESIAN_POINT('',(34.252478280841,24.333883010179,35.5));
#1263 = LINE('',#1264,#1265);
#1264 = CARTESIAN_POINT('',(34.252478280841,24.333883010179,
    4.194545063617E-15));
#1265 = VECTOR('',#1266,1.);
#1266 = DIRECTION('',(1.224646799147E-16,0.,-1.));
#1267 = ORIENTED_EDGE('',*,*,#1268,.T.);
#1268 = EDGE_CURVE('',#1261,#1269,#1271,.T.);
#1269 = VERTEX_POINT('',#1270);
#1270 = CARTESIAN_POINT('',(3.947521719113,41.830457838872,35.5));
#1271 = LINE('',#1272,#1273);
#1272 = CARTESIAN_POINT('',(35.389598092386,23.677366580882,35.5));
#1273 = VECTOR('',#1274,1.);
#1274 = DIRECTION('',(-0.866025403784,0.5,-1.060575238725E-16));
#1275 = ORIENTED_EDGE('',*,*,#1276,.T.);
#1276 = EDGE_CURVE('',#1269,#1086,#1277,.T.);
#1277 = LINE('',#1278,#1279);
#1278 = CARTESIAN_POINT('',(3.947521719113,41.830457838872,
    4.832582584548E-16));
#1279 = VECTOR('',#1280,1.);
#1280 = DIRECTION('',(1.224646799147E-16,0.,-1.));
#1281 = PLANE('',#1282);
#1282 = AXIS2_PLACEMENT_3D('',#1283,#1284,#1285);
#1283 = CARTESIAN_POINT('',(35.389598092386,23.677366580882,
    4.333802077362E-15));
#1284 = DIRECTION('',(-0.5,-0.866025403784,-6.123233995737E-17));
#1285 = DIRECTION('',(-0.866025403784,0.5,-1.060575238725E-16));
#1286 = ADVANCED_FACE('',(#1287,#1331,#1421,#1426,#1455,#1484,#1513,
    #1542),#1571,.T.);
#1287 = FACE_BOUND('',#1288,.T.);
#1288 = EDGE_LOOP('',(#1289,#1296,#1297,#1298,#1299,#1306,#1307,#1314,
    #1315,#1322,#1323,#1330));
#1289 = ORIENTED_EDGE('',*,*,#1290,.T.);
#1290 = EDGE_CURVE('',#122,#339,#1291,.T.);
#1291 = CIRCLE('',#1292,4.15);
#1292 = AXIS2_PLACEMENT_3D('',#1293,#1294,#1295);
#1293 = CARTESIAN_POINT('',(-35.11733012345,-20.275,35.5));
#1294 = DIRECTION('',(-4.511611427551E-33,-1.683756307163E-32,1.));
#1295 = DIRECTION('',(-0.5,0.866025403784,1.232595164408E-32));
#1296 = ORIENTED_EDGE('',*,*,#338,.T.);
#1297 = ORIENTED_EDGE('',*,*,#370,.T.);
#1298 = ORIENTED_EDGE('',*,*,#394,.T.);
#1299 = ORIENTED_EDGE('',*,*,#1300,.T.);
#1300 = EDGE_CURVE('',#387,#481,#1301,.T.);
#1301 = CIRCLE('',#1302,4.15);
#1302 = AXIS2_PLACEMENT_3D('',#1303,#1304,#1305);
#1303 = CARTESIAN_POINT('',(35.117330123459,-20.275,35.5));
#1304 = DIRECTION('',(0.,0.,1.));
#1305 = DIRECTION('',(-0.5,-0.866025403784,0.));
#1306 = ORIENTED_EDGE('',*,*,#480,.T.);
#1307 = ORIENTED_EDGE('',*,*,#1308,.T.);
#1308 = EDGE_CURVE('',#473,#450,#1309,.T.);
#1309 = CIRCLE('',#1310,4.15);
#1310 = AXIS2_PLACEMENT_3D('',#1311,#1312,#1313);
#1311 = CARTESIAN_POINT('',(35.117330123459,20.275,35.5));
#1312 = DIRECTION('',(-0.,0.,1.));
#1313 = DIRECTION('',(0.5,-0.866025403784,0.));
#1314 = ORIENTED_EDGE('',*,*,#449,.T.);
#1315 = ORIENTED_EDGE('',*,*,#1316,.T.);
#1316 = EDGE_CURVE('',#442,#419,#1317,.T.);
#1317 = CIRCLE('',#1318,4.15);
#1318 = AXIS2_PLACEMENT_3D('',#1319,#1320,#1321);
#1319 = CARTESIAN_POINT('',(1.347111479062E-15,40.55,35.5));
#1320 = DIRECTION('',(-0.,-0.,1.));
#1321 = DIRECTION('',(1.,-0.,0.));
#1322 = ORIENTED_EDGE('',*,*,#418,.T.);
#1323 = ORIENTED_EDGE('',*,*,#1324,.T.);
#1324 = EDGE_CURVE('',#411,#130,#1325,.T.);
#1325 = CIRCLE('',#1326,4.15);
#1326 = AXIS2_PLACEMENT_3D('',#1327,#1328,#1329);
#1327 = CARTESIAN_POINT('',(-35.11733012345,20.275,35.5));
#1328 = DIRECTION('',(0.,-0.,1.));
#1329 = DIRECTION('',(0.5,0.866025403784,0.));
#1330 = ORIENTED_EDGE('',*,*,#129,.T.);
#1331 = FACE_BOUND('',#1332,.T.);
#1332 = EDGE_LOOP('',(#1333,#1334,#1343,#1350,#1351,#1360,#1367,#1368,
    #1377,#1384,#1385,#1394,#1401,#1402,#1403,#1404,#1405,#1414));
#1333 = ORIENTED_EDGE('',*,*,#1175,.F.);
#1334 = ORIENTED_EDGE('',*,*,#1335,.F.);
#1335 = EDGE_CURVE('',#1336,#1168,#1338,.T.);
#1336 = VERTEX_POINT('',#1337);
#1337 = CARTESIAN_POINT('',(-33.04233012345,23.869005425705,35.5));
#1338 = CIRCLE('',#1339,4.15);
#1339 = AXIS2_PLACEMENT_3D('',#1340,#1341,#1342);
#1340 = CARTESIAN_POINT('',(-35.11733012345,20.275,35.5));
#1341 = DIRECTION('',(1.224646799147E-16,-6.162975822039E-33,-1.));
#1342 = DIRECTION('',(0.5,0.866025403784,6.123233995737E-17));
#1343 = ORIENTED_EDGE('',*,*,#1344,.F.);
#1344 = EDGE_CURVE('',#1207,#1336,#1345,.T.);
#1345 = CIRCLE('',#1346,4.15);
#1346 = AXIS2_PLACEMENT_3D('',#1347,#1348,#1349);
#1347 = CARTESIAN_POINT('',(-35.11733012345,20.275,35.5));
#1348 = DIRECTION('',(1.224646799147E-16,-6.162975822039E-33,-1.));
#1349 = DIRECTION('',(0.5,0.866025403784,6.123233995737E-17));
#1350 = ORIENTED_EDGE('',*,*,#1206,.F.);
#1351 = ORIENTED_EDGE('',*,*,#1352,.F.);
#1352 = EDGE_CURVE('',#1353,#1199,#1355,.T.);
#1353 = VERTEX_POINT('',#1354);
#1354 = CARTESIAN_POINT('',(4.15,40.55,35.5));
#1355 = CIRCLE('',#1356,4.15);
#1356 = AXIS2_PLACEMENT_3D('',#1357,#1358,#1359);
#1357 = CARTESIAN_POINT('',(6.184466335694E-16,40.55,35.5));
#1358 = DIRECTION('',(1.224646799147E-16,0.,-1.));
#1359 = DIRECTION('',(1.,-1.224646799147E-16,1.224646799147E-16));
#1360 = ORIENTED_EDGE('',*,*,#1361,.F.);
#1361 = EDGE_CURVE('',#1269,#1353,#1362,.T.);
#1362 = CIRCLE('',#1363,4.15);
#1363 = AXIS2_PLACEMENT_3D('',#1364,#1365,#1366);
#1364 = CARTESIAN_POINT('',(6.184466335694E-16,40.55,35.5));
#1365 = DIRECTION('',(1.224646799147E-16,0.,-1.));
#1366 = DIRECTION('',(1.,-1.224646799147E-16,1.224646799147E-16));
#1367 = ORIENTED_EDGE('',*,*,#1268,.F.);
#1368 = ORIENTED_EDGE('',*,*,#1369,.F.);
#1369 = EDGE_CURVE('',#1370,#1261,#1372,.T.);
#1370 = VERTEX_POINT('',#1371);
#1371 = CARTESIAN_POINT('',(37.192330123459,16.680994574295,35.5));
#1372 = CIRCLE('',#1373,4.15);
#1373 = AXIS2_PLACEMENT_3D('',#1374,#1375,#1376);
#1374 = CARTESIAN_POINT('',(35.117330123459,20.275,35.5));
#1375 = DIRECTION('',(1.224646799147E-16,-1.232595164408E-32,-1.));
#1376 = DIRECTION('',(0.5,-0.866025403784,6.123233995737E-17));
#1377 = ORIENTED_EDGE('',*,*,#1378,.F.);
#1378 = EDGE_CURVE('',#1238,#1370,#1379,.T.);
#1379 = CIRCLE('',#1380,4.15);
#1380 = AXIS2_PLACEMENT_3D('',#1381,#1382,#1383);
#1381 = CARTESIAN_POINT('',(35.117330123459,20.275,35.5));
#1382 = DIRECTION('',(1.224646799147E-16,-1.232595164408E-32,-1.));
#1383 = DIRECTION('',(0.5,-0.866025403784,6.123233995737E-17));
#1384 = ORIENTED_EDGE('',*,*,#1237,.F.);
#1385 = ORIENTED_EDGE('',*,*,#1386,.F.);
#1386 = EDGE_CURVE('',#1387,#1230,#1389,.T.);
#1387 = VERTEX_POINT('',#1388);
#1388 = CARTESIAN_POINT('',(33.042330123459,-23.8690054257,35.5));
#1389 = CIRCLE('',#1390,4.15);
#1390 = AXIS2_PLACEMENT_3D('',#1391,#1392,#1393);
#1391 = CARTESIAN_POINT('',(35.117330123459,-20.275,35.5));
#1392 = DIRECTION('',(1.224646799147E-16,0.,-1.));
#1393 = DIRECTION('',(-0.5,-0.866025403784,-6.123233995737E-17));
#1394 = ORIENTED_EDGE('',*,*,#1395,.F.);
#1395 = EDGE_CURVE('',#1010,#1387,#1396,.T.);
#1396 = CIRCLE('',#1397,4.15);
#1397 = AXIS2_PLACEMENT_3D('',#1398,#1399,#1400);
#1398 = CARTESIAN_POINT('',(35.117330123459,-20.275,35.5));
#1399 = DIRECTION('',(1.224646799147E-16,0.,-1.));
#1400 = DIRECTION('',(-0.5,-0.866025403784,-6.123233995737E-17));
#1401 = ORIENTED_EDGE('',*,*,#1009,.F.);
#1402 = ORIENTED_EDGE('',*,*,#959,.F.);
#1403 = ORIENTED_EDGE('',*,*,#968,.F.);
#1404 = ORIENTED_EDGE('',*,*,#927,.F.);
#1405 = ORIENTED_EDGE('',*,*,#1406,.F.);
#1406 = EDGE_CURVE('',#1407,#920,#1409,.T.);
#1407 = VERTEX_POINT('',#1408);
#1408 = CARTESIAN_POINT('',(-37.19233012345,-16.68099457429,35.5));
#1409 = CIRCLE('',#1410,4.15);
#1410 = AXIS2_PLACEMENT_3D('',#1411,#1412,#1413);
#1411 = CARTESIAN_POINT('',(-35.11733012345,-20.275,35.5));
#1412 = DIRECTION('',(1.224646799147E-16,6.162975822039E-33,-1.));
#1413 = DIRECTION('',(-0.5,0.866025403784,-6.123233995737E-17));
#1414 = ORIENTED_EDGE('',*,*,#1415,.F.);
#1415 = EDGE_CURVE('',#1176,#1407,#1416,.T.);
#1416 = CIRCLE('',#1417,4.15);
#1417 = AXIS2_PLACEMENT_3D('',#1418,#1419,#1420);
#1418 = CARTESIAN_POINT('',(-35.11733012345,-20.275,35.5));
#1419 = DIRECTION('',(1.224646799147E-16,6.162975822039E-33,-1.));
#1420 = DIRECTION('',(-0.5,0.866025403784,-6.123233995737E-17));
#1421 = FACE_BOUND('',#1422,.T.);
#1422 = EDGE_LOOP('',(#1423,#1424,#1425));
#1423 = ORIENTED_EDGE('',*,*,#64,.F.);
#1424 = ORIENTED_EDGE('',*,*,#55,.T.);
#1425 = ORIENTED_EDGE('',*,*,#73,.T.);
#1426 = FACE_BOUND('',#1427,.T.);
#1427 = EDGE_LOOP('',(#1428,#1439,#1448));
#1428 = ORIENTED_EDGE('',*,*,#1429,.F.);
#1429 = EDGE_CURVE('',#1430,#1432,#1434,.T.);
#1430 = VERTEX_POINT('',#1431);
#1431 = CARTESIAN_POINT('',(38.251533517758,19.09209295238,35.5));
#1432 = VERTEX_POINT('',#1433);
#1433 = CARTESIAN_POINT('',(35.660004267051,23.580753283879,35.5));
#1434 = CIRCLE('',#1435,3.35);
#1435 = AXIS2_PLACEMENT_3D('',#1436,#1437,#1438);
#1436 = CARTESIAN_POINT('',(35.117330123459,20.275,35.5));
#1437 = DIRECTION('',(-1.224646799147E-16,-6.162975822039E-33,1.));
#1438 = DIRECTION('',(0.5,-0.866025403784,6.123233995737E-17));
#1439 = ORIENTED_EDGE('',*,*,#1440,.T.);
#1440 = EDGE_CURVE('',#1430,#1441,#1443,.T.);
#1441 = VERTEX_POINT('',#1442);
#1442 = CARTESIAN_POINT('',(36.792330123459,17.373814897322,35.5));
#1443 = CIRCLE('',#1444,3.35);
#1444 = AXIS2_PLACEMENT_3D('',#1445,#1446,#1447);
#1445 = CARTESIAN_POINT('',(35.117330123459,20.275,35.5));
#1446 = DIRECTION('',(1.224646799147E-16,6.162975822039E-33,-1.));
#1447 = DIRECTION('',(0.5,-0.866025403784,6.123233995737E-17));
#1448 = ORIENTED_EDGE('',*,*,#1449,.T.);
#1449 = EDGE_CURVE('',#1441,#1432,#1450,.T.);
#1450 = CIRCLE('',#1451,3.35);
#1451 = AXIS2_PLACEMENT_3D('',#1452,#1453,#1454);
#1452 = CARTESIAN_POINT('',(35.117330123459,20.275,35.5));
#1453 = DIRECTION('',(1.224646799147E-16,6.162975822039E-33,-1.));
#1454 = DIRECTION('',(0.5,-0.866025403784,6.123233995737E-17));
#1455 = FACE_BOUND('',#1456,.T.);
#1456 = EDGE_LOOP('',(#1457,#1468,#1477));
#1457 = ORIENTED_EDGE('',*,*,#1458,.F.);
#1458 = EDGE_CURVE('',#1459,#1461,#1463,.T.);
#1459 = VERTEX_POINT('',#1460);
#1460 = CARTESIAN_POINT('',(-35.66000426705,23.580753283879,35.5));
#1461 = VERTEX_POINT('',#1462);
#1462 = CARTESIAN_POINT('',(-38.25153351774,19.0920929524,35.5));
#1463 = CIRCLE('',#1464,3.35);
#1464 = AXIS2_PLACEMENT_3D('',#1465,#1466,#1467);
#1465 = CARTESIAN_POINT('',(-35.11733012345,20.275,35.5));
#1466 = DIRECTION('',(-1.224646799147E-16,0.,1.));
#1467 = DIRECTION('',(0.5,0.866025403784,6.123233995737E-17));
#1468 = ORIENTED_EDGE('',*,*,#1469,.T.);
#1469 = EDGE_CURVE('',#1459,#1470,#1472,.T.);
#1470 = VERTEX_POINT('',#1471);
#1471 = CARTESIAN_POINT('',(-33.44233012345,23.176185102678,35.5));
#1472 = CIRCLE('',#1473,3.35);
#1473 = AXIS2_PLACEMENT_3D('',#1474,#1475,#1476);
#1474 = CARTESIAN_POINT('',(-35.11733012345,20.275,35.5));
#1475 = DIRECTION('',(1.224646799147E-16,-6.162975822039E-33,-1.));
#1476 = DIRECTION('',(0.5,0.866025403784,6.123233995737E-17));
#1477 = ORIENTED_EDGE('',*,*,#1478,.T.);
#1478 = EDGE_CURVE('',#1470,#1461,#1479,.T.);
#1479 = CIRCLE('',#1480,3.35);
#1480 = AXIS2_PLACEMENT_3D('',#1481,#1482,#1483);
#1481 = CARTESIAN_POINT('',(-35.11733012345,20.275,35.5));
#1482 = DIRECTION('',(1.224646799147E-16,-6.162975822039E-33,-1.));
#1483 = DIRECTION('',(0.5,0.866025403784,6.123233995737E-17));
#1484 = FACE_BOUND('',#1485,.T.);
#1485 = EDGE_LOOP('',(#1486,#1497,#1506));
#1486 = ORIENTED_EDGE('',*,*,#1487,.F.);
#1487 = EDGE_CURVE('',#1488,#1490,#1492,.T.);
#1488 = VERTEX_POINT('',#1489);
#1489 = CARTESIAN_POINT('',(35.660004267051,-23.58075328387,35.5));
#1490 = VERTEX_POINT('',#1491);
#1491 = CARTESIAN_POINT('',(38.251533517743,-19.0920929524,35.5));
#1492 = CIRCLE('',#1493,3.35);
#1493 = AXIS2_PLACEMENT_3D('',#1494,#1495,#1496);
#1494 = CARTESIAN_POINT('',(35.117330123459,-20.275,35.5));
#1495 = DIRECTION('',(-1.224646799147E-16,6.162975822039E-33,1.));
#1496 = DIRECTION('',(-0.5,-0.866025403784,-6.123233995737E-17));
#1497 = ORIENTED_EDGE('',*,*,#1498,.T.);
#1498 = EDGE_CURVE('',#1488,#1499,#1501,.T.);
#1499 = VERTEX_POINT('',#1500);
#1500 = CARTESIAN_POINT('',(33.442330123459,-23.17618510267,35.5));
#1501 = CIRCLE('',#1502,3.35);
#1502 = AXIS2_PLACEMENT_3D('',#1503,#1504,#1505);
#1503 = CARTESIAN_POINT('',(35.117330123459,-20.275,35.5));
#1504 = DIRECTION('',(1.224646799147E-16,0.,-1.));
#1505 = DIRECTION('',(-0.5,-0.866025403784,-6.123233995737E-17));
#1506 = ORIENTED_EDGE('',*,*,#1507,.T.);
#1507 = EDGE_CURVE('',#1499,#1490,#1508,.T.);
#1508 = CIRCLE('',#1509,3.35);
#1509 = AXIS2_PLACEMENT_3D('',#1510,#1511,#1512);
#1510 = CARTESIAN_POINT('',(35.117330123459,-20.275,35.5));
#1511 = DIRECTION('',(1.224646799147E-16,0.,-1.));
#1512 = DIRECTION('',(-0.5,-0.866025403784,-6.123233995737E-17));
#1513 = FACE_BOUND('',#1514,.T.);
#1514 = EDGE_LOOP('',(#1515,#1526,#1535));
#1515 = ORIENTED_EDGE('',*,*,#1516,.F.);
#1516 = EDGE_CURVE('',#1517,#1519,#1521,.T.);
#1517 = VERTEX_POINT('',#1518);
#1518 = CARTESIAN_POINT('',(2.591529250687,42.672846236267,35.5));
#1519 = VERTEX_POINT('',#1520);
#1520 = CARTESIAN_POINT('',(-2.591529250687,42.672846236267,35.5));
#1521 = CIRCLE('',#1522,3.35);
#1522 = AXIS2_PLACEMENT_3D('',#1523,#1524,#1525);
#1523 = CARTESIAN_POINT('',(1.346733672921E-15,40.55,35.5));
#1524 = DIRECTION('',(-1.224646799147E-16,0.,1.));
#1525 = DIRECTION('',(1.,0.,1.224646799147E-16));
#1526 = ORIENTED_EDGE('',*,*,#1527,.T.);
#1527 = EDGE_CURVE('',#1517,#1528,#1530,.T.);
#1528 = VERTEX_POINT('',#1529);
#1529 = CARTESIAN_POINT('',(3.35,40.55,35.5));
#1530 = CIRCLE('',#1531,3.35);
#1531 = AXIS2_PLACEMENT_3D('',#1532,#1533,#1534);
#1532 = CARTESIAN_POINT('',(6.184466335694E-16,40.55,35.5));
#1533 = DIRECTION('',(1.224646799147E-16,0.,-1.));
#1534 = DIRECTION('',(1.,-1.224646799147E-16,1.224646799147E-16));
#1535 = ORIENTED_EDGE('',*,*,#1536,.T.);
#1536 = EDGE_CURVE('',#1528,#1519,#1537,.T.);
#1537 = CIRCLE('',#1538,3.35);
#1538 = AXIS2_PLACEMENT_3D('',#1539,#1540,#1541);
#1539 = CARTESIAN_POINT('',(6.184466335694E-16,40.55,35.5));
#1540 = DIRECTION('',(1.224646799147E-16,0.,-1.));
#1541 = DIRECTION('',(1.,-1.224646799147E-16,1.224646799147E-16));
#1542 = FACE_BOUND('',#1543,.T.);
#1543 = EDGE_LOOP('',(#1544,#1555,#1564));
#1544 = ORIENTED_EDGE('',*,*,#1545,.F.);
#1545 = EDGE_CURVE('',#1546,#1548,#1550,.T.);
#1546 = VERTEX_POINT('',#1547);
#1547 = CARTESIAN_POINT('',(-38.2934357713,-19.20970524561,35.5));
#1548 = VERTEX_POINT('',#1549);
#1549 = CARTESIAN_POINT('',(-35.78281062756,-23.55823555333,35.5));
#1550 = CIRCLE('',#1551,3.35);
#1551 = AXIS2_PLACEMENT_3D('',#1552,#1553,#1554);
#1552 = CARTESIAN_POINT('',(-35.11733012345,-20.275,35.5));
#1553 = DIRECTION('',(-1.224646799147E-16,-6.162975822039E-33,1.));
#1554 = DIRECTION('',(-0.5,0.866025403784,-6.123233995737E-17));
#1555 = ORIENTED_EDGE('',*,*,#1556,.T.);
#1556 = EDGE_CURVE('',#1546,#1557,#1559,.T.);
#1557 = VERTEX_POINT('',#1558);
#1558 = CARTESIAN_POINT('',(-36.79233012345,-17.37381489732,35.5));
#1559 = CIRCLE('',#1560,3.35);
#1560 = AXIS2_PLACEMENT_3D('',#1561,#1562,#1563);
#1561 = CARTESIAN_POINT('',(-35.11733012345,-20.275,35.5));
#1562 = DIRECTION('',(1.224646799147E-16,6.162975822039E-33,-1.));
#1563 = DIRECTION('',(-0.5,0.866025403784,-6.123233995737E-17));
#1564 = ORIENTED_EDGE('',*,*,#1565,.T.);
#1565 = EDGE_CURVE('',#1557,#1548,#1566,.T.);
#1566 = CIRCLE('',#1567,3.35);
#1567 = AXIS2_PLACEMENT_3D('',#1568,#1569,#1570);
#1568 = CARTESIAN_POINT('',(-35.11733012345,-20.275,35.5));
#1569 = DIRECTION('',(1.224646799147E-16,6.162975822039E-33,-1.));
#1570 = DIRECTION('',(-0.5,0.866025403784,-6.123233995737E-17));
#1571 = PLANE('',#1572);
#1572 = AXIS2_PLACEMENT_3D('',#1573,#1574,#1575);
#1573 = CARTESIAN_POINT('',(-5.029799503761E-03,-2.903956099329E-03,35.5
    ));
#1574 = DIRECTION('',(-1.224646799147E-16,-0.,1.));
#1575 = DIRECTION('',(1.,0.,1.224646799147E-16));
#1576 = ADVANCED_FACE('',(#1577),#1583,.T.);
#1577 = FACE_BOUND('',#1578,.T.);
#1578 = EDGE_LOOP('',(#1579,#1580,#1581,#1582));
#1579 = ORIENTED_EDGE('',*,*,#121,.T.);
#1580 = ORIENTED_EDGE('',*,*,#229,.T.);
#1581 = ORIENTED_EDGE('',*,*,#346,.T.);
#1582 = ORIENTED_EDGE('',*,*,#1290,.F.);
#1583 = CYLINDRICAL_SURFACE('',#1584,4.15);
#1584 = AXIS2_PLACEMENT_3D('',#1585,#1586,#1587);
#1585 = CARTESIAN_POINT('',(-35.11733012345,-20.275,-4.300632593029E-15)
  );
#1586 = DIRECTION('',(0.,-1.232595164408E-32,1.));
#1587 = DIRECTION('',(-0.5,0.866025403784,1.232595164408E-32));
#1588 = ADVANCED_FACE('',(#1589),#1597,.T.);
#1589 = FACE_BOUND('',#1590,.F.);
#1590 = EDGE_LOOP('',(#1591,#1592,#1593,#1594,#1595,#1596));
#1591 = ORIENTED_EDGE('',*,*,#1183,.T.);
#1592 = ORIENTED_EDGE('',*,*,#1031,.F.);
#1593 = ORIENTED_EDGE('',*,*,#1148,.F.);
#1594 = ORIENTED_EDGE('',*,*,#919,.F.);
#1595 = ORIENTED_EDGE('',*,*,#1406,.F.);
#1596 = ORIENTED_EDGE('',*,*,#1415,.F.);
#1597 = CYLINDRICAL_SURFACE('',#1598,4.15);
#1598 = AXIS2_PLACEMENT_3D('',#1599,#1600,#1601);
#1599 = CARTESIAN_POINT('',(-35.11733012345,-20.275,-4.300806318362E-15)
  );
#1600 = DIRECTION('',(1.224646799147E-16,0.,-1.));
#1601 = DIRECTION('',(-0.5,0.866025403784,-6.123233995737E-17));
#1602 = ADVANCED_FACE('',(#1603),#1617,.F.);
#1603 = FACE_BOUND('',#1604,.T.);
#1604 = EDGE_LOOP('',(#1605,#1606,#1611,#1612,#1613,#1614,#1615,#1616));
#1605 = ORIENTED_EDGE('',*,*,#1565,.F.);
#1606 = ORIENTED_EDGE('',*,*,#1607,.T.);
#1607 = EDGE_CURVE('',#1557,#581,#1608,.T.);
#1608 = B_SPLINE_CURVE_WITH_KNOTS('',1,(#1609,#1610),.UNSPECIFIED.,.F.,
  .F.,(2,2),(-35.5,0.),.PIECEWISE_BEZIER_KNOTS.);
#1609 = CARTESIAN_POINT('',(-36.79233012345,-17.37381489732,35.5));
#1610 = CARTESIAN_POINT('',(-36.79233012345,-17.37381489732,
    -4.50593465722E-15));
#1611 = ORIENTED_EDGE('',*,*,#589,.F.);
#1612 = ORIENTED_EDGE('',*,*,#569,.F.);
#1613 = ORIENTED_EDGE('',*,*,#580,.F.);
#1614 = ORIENTED_EDGE('',*,*,#1607,.F.);
#1615 = ORIENTED_EDGE('',*,*,#1556,.F.);
#1616 = ORIENTED_EDGE('',*,*,#1545,.T.);
#1617 = CYLINDRICAL_SURFACE('',#1618,3.35);
#1618 = AXIS2_PLACEMENT_3D('',#1619,#1620,#1621);
#1619 = CARTESIAN_POINT('',(-35.11733012345,-20.275,-4.300806318362E-15)
  );
#1620 = DIRECTION('',(1.224646799147E-16,0.,-1.));
#1621 = DIRECTION('',(-0.5,0.866025403784,-6.123233995737E-17));
#1622 = ADVANCED_FACE('',(#1623),#1629,.T.);
#1623 = FACE_BOUND('',#1624,.T.);
#1624 = EDGE_LOOP('',(#1625,#1626,#1627,#1628));
#1625 = ORIENTED_EDGE('',*,*,#410,.T.);
#1626 = ORIENTED_EDGE('',*,*,#237,.T.);
#1627 = ORIENTED_EDGE('',*,*,#137,.T.);
#1628 = ORIENTED_EDGE('',*,*,#1324,.F.);
#1629 = CYLINDRICAL_SURFACE('',#1630,4.15);
#1630 = AXIS2_PLACEMENT_3D('',#1631,#1632,#1633);
#1631 = CARTESIAN_POINT('',(-35.11733012345,20.275,-4.300632593029E-15)
  );
#1632 = DIRECTION('',(0.,0.,1.));
#1633 = DIRECTION('',(0.5,0.866025403784,0.));
#1634 = ADVANCED_FACE('',(#1635),#1643,.T.);
#1635 = FACE_BOUND('',#1636,.F.);
#1636 = EDGE_LOOP('',(#1637,#1638,#1639,#1640,#1641,#1642));
#1637 = ORIENTED_EDGE('',*,*,#1214,.T.);
#1638 = ORIENTED_EDGE('',*,*,#1059,.F.);
#1639 = ORIENTED_EDGE('',*,*,#1050,.F.);
#1640 = ORIENTED_EDGE('',*,*,#1167,.F.);
#1641 = ORIENTED_EDGE('',*,*,#1335,.F.);
#1642 = ORIENTED_EDGE('',*,*,#1344,.F.);
#1643 = CYLINDRICAL_SURFACE('',#1644,4.15);
#1644 = AXIS2_PLACEMENT_3D('',#1645,#1646,#1647);
#1645 = CARTESIAN_POINT('',(-35.11733012345,20.275,-4.300806318362E-15)
  );
#1646 = DIRECTION('',(1.224646799147E-16,0.,-1.));
#1647 = DIRECTION('',(0.5,0.866025403784,6.123233995737E-17));
#1648 = ADVANCED_FACE('',(#1649),#1655,.T.);
#1649 = FACE_BOUND('',#1650,.T.);
#1650 = EDGE_LOOP('',(#1651,#1652,#1653,#1654));
#1651 = ORIENTED_EDGE('',*,*,#441,.T.);
#1652 = ORIENTED_EDGE('',*,*,#161,.T.);
#1653 = ORIENTED_EDGE('',*,*,#426,.T.);
#1654 = ORIENTED_EDGE('',*,*,#1316,.F.);
#1655 = CYLINDRICAL_SURFACE('',#1656,4.15);
#1656 = AXIS2_PLACEMENT_3D('',#1657,#1658,#1659);
#1657 = CARTESIAN_POINT('',(5.694607616035E-15,40.55,6.973882989378E-31)
  );
#1658 = DIRECTION('',(0.,0.,1.));
#1659 = DIRECTION('',(1.,0.,0.));
#1660 = ADVANCED_FACE('',(#1661),#1669,.T.);
#1661 = FACE_BOUND('',#1662,.F.);
#1662 = EDGE_LOOP('',(#1663,#1664,#1665,#1666,#1667,#1668));
#1663 = ORIENTED_EDGE('',*,*,#1198,.F.);
#1664 = ORIENTED_EDGE('',*,*,#1352,.F.);
#1665 = ORIENTED_EDGE('',*,*,#1361,.F.);
#1666 = ORIENTED_EDGE('',*,*,#1276,.T.);
#1667 = ORIENTED_EDGE('',*,*,#1085,.F.);
#1668 = ORIENTED_EDGE('',*,*,#1076,.F.);
#1669 = CYLINDRICAL_SURFACE('',#1670,4.15);
#1670 = AXIS2_PLACEMENT_3D('',#1671,#1672,#1673);
#1671 = CARTESIAN_POINT('',(4.965942770543E-15,40.55,-1.737253328483E-19
    ));
#1672 = DIRECTION('',(1.224646799147E-16,0.,-1.));
#1673 = DIRECTION('',(1.,-1.224646799147E-16,1.224646799147E-16));
#1674 = ADVANCED_FACE('',(#1675),#1681,.T.);
#1675 = FACE_BOUND('',#1676,.T.);
#1676 = EDGE_LOOP('',(#1677,#1678,#1679,#1680));
#1677 = ORIENTED_EDGE('',*,*,#472,.T.);
#1678 = ORIENTED_EDGE('',*,*,#178,.T.);
#1679 = ORIENTED_EDGE('',*,*,#457,.T.);
#1680 = ORIENTED_EDGE('',*,*,#1308,.F.);
#1681 = CYLINDRICAL_SURFACE('',#1682,4.15);
#1682 = AXIS2_PLACEMENT_3D('',#1683,#1684,#1685);
#1683 = CARTESIAN_POINT('',(35.117330123459,20.275,4.300632593029E-15));
#1684 = DIRECTION('',(0.,6.162975822039E-33,1.));
#1685 = DIRECTION('',(0.5,-0.866025403784,0.));
#1686 = ADVANCED_FACE('',(#1687),#1695,.T.);
#1687 = FACE_BOUND('',#1688,.F.);
#1688 = EDGE_LOOP('',(#1689,#1690,#1691,#1692,#1693,#1694));
#1689 = ORIENTED_EDGE('',*,*,#1260,.F.);
#1690 = ORIENTED_EDGE('',*,*,#1369,.F.);
#1691 = ORIENTED_EDGE('',*,*,#1378,.F.);
#1692 = ORIENTED_EDGE('',*,*,#1245,.T.);
#1693 = ORIENTED_EDGE('',*,*,#1111,.F.);
#1694 = ORIENTED_EDGE('',*,*,#1102,.F.);
#1695 = CYLINDRICAL_SURFACE('',#1696,4.15);
#1696 = AXIS2_PLACEMENT_3D('',#1697,#1698,#1699);
#1697 = CARTESIAN_POINT('',(35.117330123459,20.275,4.300458867697E-15));
#1698 = DIRECTION('',(1.224646799147E-16,0.,-1.));
#1699 = DIRECTION('',(0.5,-0.866025403784,6.123233995737E-17));
#1700 = ADVANCED_FACE('',(#1701),#1707,.T.);
#1701 = FACE_BOUND('',#1702,.T.);
#1702 = EDGE_LOOP('',(#1703,#1704,#1705,#1706));
#1703 = ORIENTED_EDGE('',*,*,#386,.T.);
#1704 = ORIENTED_EDGE('',*,*,#195,.T.);
#1705 = ORIENTED_EDGE('',*,*,#488,.T.);
#1706 = ORIENTED_EDGE('',*,*,#1300,.F.);
#1707 = CYLINDRICAL_SURFACE('',#1708,4.15);
#1708 = AXIS2_PLACEMENT_3D('',#1709,#1710,#1711);
#1709 = CARTESIAN_POINT('',(35.117330123459,-20.275,4.300632593029E-15)
  );
#1710 = DIRECTION('',(2.465190328816E-32,-6.162975822039E-33,1.));
#1711 = DIRECTION('',(-0.5,-0.866025403784,0.));
#1712 = ADVANCED_FACE('',(#1713),#1721,.T.);
#1713 = FACE_BOUND('',#1714,.F.);
#1714 = EDGE_LOOP('',(#1715,#1716,#1717,#1718,#1719,#1720));
#1715 = ORIENTED_EDGE('',*,*,#1229,.F.);
#1716 = ORIENTED_EDGE('',*,*,#1386,.F.);
#1717 = ORIENTED_EDGE('',*,*,#1395,.F.);
#1718 = ORIENTED_EDGE('',*,*,#1017,.T.);
#1719 = ORIENTED_EDGE('',*,*,#1137,.F.);
#1720 = ORIENTED_EDGE('',*,*,#1128,.F.);
#1721 = CYLINDRICAL_SURFACE('',#1722,4.15);
#1722 = AXIS2_PLACEMENT_3D('',#1723,#1724,#1725);
#1723 = CARTESIAN_POINT('',(35.117330123459,-20.275,4.300458867697E-15)
  );
#1724 = DIRECTION('',(1.224646799147E-16,0.,-1.));
#1725 = DIRECTION('',(-0.5,-0.866025403784,-6.123233995737E-17));
#1726 = ADVANCED_FACE('',(#1727),#1741,.F.);
#1727 = FACE_BOUND('',#1728,.T.);
#1728 = EDGE_LOOP('',(#1729,#1730,#1735,#1736,#1737,#1738,#1739,#1740));
#1729 = ORIENTED_EDGE('',*,*,#1478,.F.);
#1730 = ORIENTED_EDGE('',*,*,#1731,.T.);
#1731 = EDGE_CURVE('',#1470,#811,#1732,.T.);
#1732 = B_SPLINE_CURVE_WITH_KNOTS('',1,(#1733,#1734),.UNSPECIFIED.,.F.,
  .F.,(2,2),(-35.5,0.),.PIECEWISE_BEZIER_KNOTS.);
#1733 = CARTESIAN_POINT('',(-33.44233012345,23.176185102678,35.5));
#1734 = CARTESIAN_POINT('',(-33.44233012345,23.176185102678,
    -4.095677979505E-15));
#1735 = ORIENTED_EDGE('',*,*,#808,.F.);
#1736 = ORIENTED_EDGE('',*,*,#819,.F.);
#1737 = ORIENTED_EDGE('',*,*,#828,.F.);
#1738 = ORIENTED_EDGE('',*,*,#1731,.F.);
#1739 = ORIENTED_EDGE('',*,*,#1469,.F.);
#1740 = ORIENTED_EDGE('',*,*,#1458,.T.);
#1741 = CYLINDRICAL_SURFACE('',#1742,3.35);
#1742 = AXIS2_PLACEMENT_3D('',#1743,#1744,#1745);
#1743 = CARTESIAN_POINT('',(-35.11733012345,20.275,-4.300806318362E-15)
  );
#1744 = DIRECTION('',(1.224646799147E-16,0.,-1.));
#1745 = DIRECTION('',(0.5,0.866025403784,6.123233995737E-17));
#1746 = ADVANCED_FACE('',(#1747),#1761,.F.);
#1747 = FACE_BOUND('',#1748,.T.);
#1748 = EDGE_LOOP('',(#1749,#1750,#1755,#1756,#1757,#1758,#1759,#1760));
#1749 = ORIENTED_EDGE('',*,*,#1507,.F.);
#1750 = ORIENTED_EDGE('',*,*,#1751,.T.);
#1751 = EDGE_CURVE('',#1499,#719,#1752,.T.);
#1752 = B_SPLINE_CURVE_WITH_KNOTS('',1,(#1753,#1754),.UNSPECIFIED.,.F.,
  .F.,(2,2),(-35.5,0.),.PIECEWISE_BEZIER_KNOTS.);
#1753 = CARTESIAN_POINT('',(33.442330123459,-23.17618510267,35.5));
#1754 = CARTESIAN_POINT('',(33.442330123459,-23.17618510267,
    4.095330528839E-15));
#1755 = ORIENTED_EDGE('',*,*,#727,.F.);
#1756 = ORIENTED_EDGE('',*,*,#707,.F.);
#1757 = ORIENTED_EDGE('',*,*,#718,.F.);
#1758 = ORIENTED_EDGE('',*,*,#1751,.F.);
#1759 = ORIENTED_EDGE('',*,*,#1498,.F.);
#1760 = ORIENTED_EDGE('',*,*,#1487,.T.);
#1761 = CYLINDRICAL_SURFACE('',#1762,3.35);
#1762 = AXIS2_PLACEMENT_3D('',#1763,#1764,#1765);
#1763 = CARTESIAN_POINT('',(35.117330123459,-20.275,4.300458867697E-15)
  );
#1764 = DIRECTION('',(1.224646799147E-16,0.,-1.));
#1765 = DIRECTION('',(-0.5,-0.866025403784,-6.123233995737E-17));
#1766 = ADVANCED_FACE('',(#1767),#1781,.F.);
#1767 = FACE_BOUND('',#1768,.T.);
#1768 = EDGE_LOOP('',(#1769,#1770,#1771,#1776,#1777,#1778,#1779,#1780));
#1769 = ORIENTED_EDGE('',*,*,#1429,.T.);
#1770 = ORIENTED_EDGE('',*,*,#1449,.F.);
#1771 = ORIENTED_EDGE('',*,*,#1772,.T.);
#1772 = EDGE_CURVE('',#1441,#748,#1773,.T.);
#1773 = B_SPLINE_CURVE_WITH_KNOTS('',1,(#1774,#1775),.UNSPECIFIED.,.F.,
  .F.,(2,2),(-35.5,0.),.PIECEWISE_BEZIER_KNOTS.);
#1774 = CARTESIAN_POINT('',(36.792330123459,17.373814897322,35.5));
#1775 = CARTESIAN_POINT('',(36.792330123459,17.373814897322,
    4.505587206554E-15));
#1776 = ORIENTED_EDGE('',*,*,#745,.F.);
#1777 = ORIENTED_EDGE('',*,*,#756,.F.);
#1778 = ORIENTED_EDGE('',*,*,#765,.F.);
#1779 = ORIENTED_EDGE('',*,*,#1772,.F.);
#1780 = ORIENTED_EDGE('',*,*,#1440,.F.);
#1781 = CYLINDRICAL_SURFACE('',#1782,3.35);
#1782 = AXIS2_PLACEMENT_3D('',#1783,#1784,#1785);
#1783 = CARTESIAN_POINT('',(35.117330123459,20.275,4.300458867697E-15));
#1784 = DIRECTION('',(1.224646799147E-16,0.,-1.));
#1785 = DIRECTION('',(0.5,-0.866025403784,6.123233995737E-17));
#1786 = ADVANCED_FACE('',(#1787),#1801,.F.);
#1787 = FACE_BOUND('',#1788,.T.);
#1788 = EDGE_LOOP('',(#1789,#1790,#1791,#1796,#1797,#1798,#1799,#1800));
#1789 = ORIENTED_EDGE('',*,*,#1516,.T.);
#1790 = ORIENTED_EDGE('',*,*,#1536,.F.);
#1791 = ORIENTED_EDGE('',*,*,#1792,.T.);
#1792 = EDGE_CURVE('',#1528,#849,#1793,.T.);
#1793 = B_SPLINE_CURVE_WITH_KNOTS('',1,(#1794,#1795),.UNSPECIFIED.,.F.,
  .F.,(2,2),(-35.5,0.),.PIECEWISE_BEZIER_KNOTS.);
#1794 = CARTESIAN_POINT('',(3.35,40.55,35.5));
#1795 = CARTESIAN_POINT('',(3.35,40.55,4.100829523815E-16));
#1796 = ORIENTED_EDGE('',*,*,#846,.F.);
#1797 = ORIENTED_EDGE('',*,*,#857,.F.);
#1798 = ORIENTED_EDGE('',*,*,#866,.F.);
#1799 = ORIENTED_EDGE('',*,*,#1792,.F.);
#1800 = ORIENTED_EDGE('',*,*,#1527,.F.);
#1801 = CYLINDRICAL_SURFACE('',#1802,3.35);
#1802 = AXIS2_PLACEMENT_3D('',#1803,#1804,#1805);
#1803 = CARTESIAN_POINT('',(4.965942770543E-15,40.55,-1.737253328483E-19
    ));
#1804 = DIRECTION('',(1.224646799147E-16,0.,-1.));
#1805 = DIRECTION('',(1.,-1.224646799147E-16,1.224646799147E-16));
#1806 = ( GEOMETRIC_REPRESENTATION_CONTEXT(3) 
GLOBAL_UNCERTAINTY_ASSIGNED_CONTEXT((#1810)) 
GLOBAL_UNIT_ASSIGNED_CONTEXT((#1807,#1808,#1809)) REPRESENTATION_CONTEXT
('Context #1','3D Context with UNIT and UNCERTAINTY') );
#1807 = ( LENGTH_UNIT() NAMED_UNIT(*) SI_UNIT(.MILLI.,.METRE.) );
#1808 = ( NAMED_UNIT(*) PLANE_ANGLE_UNIT() SI_UNIT($,.RADIAN.) );
#1809 = ( NAMED_UNIT(*) SI_UNIT($,.STERADIAN.) SOLID_ANGLE_UNIT() );
#1810 = UNCERTAINTY_MEASURE_WITH_UNIT(LENGTH_MEASURE(2.E-06),#1807,
  'distance_accuracy_value','confusion accuracy');
#1811 = PRODUCT_RELATED_PRODUCT_CATEGORY('part',$,(#7));
#1812 = MECHANICAL_DESIGN_GEOMETRIC_PRESENTATION_REPRESENTATION('',(
    #1813),#1806);
#1813 = STYLED_ITEM('color',(#1814),#15);
#1814 = PRESENTATION_STYLE_ASSIGNMENT((#1815,#1821));
#1815 = SURFACE_STYLE_USAGE(.BOTH.,#1816);
#1816 = SURFACE_SIDE_STYLE('',(#1817));
#1817 = SURFACE_STYLE_FILL_AREA(#1818);
#1818 = FILL_AREA_STYLE('',(#1819));
#1819 = FILL_AREA_STYLE_COLOUR('',#1820);
#1820 = COLOUR_RGB('',0.447058818107,0.474509808674,0.501960817233);
#1821 = CURVE_STYLE('',#1822,POSITIVE_LENGTH_MEASURE(0.1),#1823);
#1822 = DRAUGHTING_PRE_DEFINED_CURVE_FONT('continuous');
#1823 = COLOUR_RGB('',0.678431390124,0.709803936702,0.741176476869);
ENDSEC;
END-ISO-10303-21;
