ISO-10303-21;
HEADER;
FILE_DESCRIPTION(('FreeCAD Model'),'2;1');
FILE_NAME('Open CASCADE Shape Model','2026-07-24T22:08:13',(''),(''),
  'Open CASCADE STEP processor 7.8','FreeCAD','Unknown');
FILE_SCHEMA(('AUTOMOTIVE_DESIGN { 1 0 10303 214 1 1 1 1 }'));
ENDSEC;
DATA;
#1 = APPLICATION_PROTOCOL_DEFINITION('international standard',
  'automotive_design',2000,#2);
#2 = APPLICATION_CONTEXT(
  'core data for automotive mechanical design processes');
#3 = SHAPE_DEFINITION_REPRESENTATION(#4,#10);
#4 = PRODUCT_DEFINITION_SHAPE('','',#5);
#5 = PRODUCT_DEFINITION('design','',#6,#9);
#6 = PRODUCT_DEFINITION_FORMATION('','',#7);
#7 = PRODUCT('MarcoEngranajes001','MarcoEngranajes001','',(#8));
#8 = PRODUCT_CONTEXT('',#2,'mechanical');
#9 = PRODUCT_DEFINITION_CONTEXT('part definition',#2,'design');
#10 = ADVANCED_BREP_SHAPE_REPRESENTATION('',(#11,#15),#838);
#11 = AXIS2_PLACEMENT_3D('',#12,#13,#14);
#12 = CARTESIAN_POINT('',(0.,0.,0.));
#13 = DIRECTION('',(0.,0.,1.));
#14 = DIRECTION('',(1.,0.,-0.));
#15 = MANIFOLD_SOLID_BREP('',#16);
#16 = CLOSED_SHELL('',(#17,#50,#75,#208,#217,#242,#267,#292,#323,#348,
    #373,#390,#415,#440,#465,#490,#515,#535,#555,#575,#645,#665,#690,
    #715,#735,#752,#769,#786,#803,#820,#829));
#17 = ADVANCED_FACE('',(#18),#45,.F.);
#18 = FACE_BOUND('',#19,.F.);
#19 = EDGE_LOOP('',(#20,#30,#37,#38));
#20 = ORIENTED_EDGE('',*,*,#21,.T.);
#21 = EDGE_CURVE('',#22,#24,#26,.T.);
#22 = VERTEX_POINT('',#23);
#23 = CARTESIAN_POINT('',(-9.725,-16.8441941036,2.06281883932E-15));
#24 = VERTEX_POINT('',#25);
#25 = CARTESIAN_POINT('',(-9.725,-16.8441941036,6.));
#26 = LINE('',#27,#28);
#27 = CARTESIAN_POINT('',(-9.725,-16.8441941036,2.06281883932E-15));
#28 = VECTOR('',#29,1.);
#29 = DIRECTION('',(0.,1.224646799147E-16,1.));
#30 = ORIENTED_EDGE('',*,*,#31,.T.);
#31 = EDGE_CURVE('',#24,#24,#32,.T.);
#32 = CIRCLE('',#33,1.45);
#33 = AXIS2_PLACEMENT_3D('',#34,#35,#36);
#34 = CARTESIAN_POINT('',(-9.,-15.58845726812,6.));
#35 = DIRECTION('',(1.060575238725E-16,-1.836970198721E-16,-1.));
#36 = DIRECTION('',(-0.5,-0.866025403784,1.060575238725E-16));
#37 = ORIENTED_EDGE('',*,*,#21,.F.);
#38 = ORIENTED_EDGE('',*,*,#39,.F.);
#39 = EDGE_CURVE('',#22,#22,#40,.T.);
#40 = CIRCLE('',#41,1.45);
#41 = AXIS2_PLACEMENT_3D('',#42,#43,#44);
#42 = CARTESIAN_POINT('',(-9.,-15.58845726812,1.909035429705E-15));
#43 = DIRECTION('',(-6.162975822039E-33,-1.224646799147E-16,-1.));
#44 = DIRECTION('',(-0.5,-0.866025403784,1.060575238725E-16));
#45 = CYLINDRICAL_SURFACE('',#46,1.45);
#46 = AXIS2_PLACEMENT_3D('',#47,#48,#49);
#47 = CARTESIAN_POINT('',(-9.,-15.58845726812,1.909035429705E-15));
#48 = DIRECTION('',(0.,-1.224646799147E-16,-1.));
#49 = DIRECTION('',(-0.5,-0.866025403784,1.060575238725E-16));
#50 = ADVANCED_FACE('',(#51),#70,.F.);
#51 = FACE_BOUND('',#52,.T.);
#52 = EDGE_LOOP('',(#53,#61,#62,#63));
#53 = ORIENTED_EDGE('',*,*,#54,.F.);
#54 = EDGE_CURVE('',#24,#55,#57,.T.);
#55 = VERTEX_POINT('',#56);
#56 = CARTESIAN_POINT('',(-9.225,-15.97816869982,7.));
#57 = LINE('',#58,#59);
#58 = CARTESIAN_POINT('',(-9.725,-16.8441941036,6.));
#59 = VECTOR('',#60,1.);
#60 = DIRECTION('',(0.353553390593,0.612372435696,0.707106781187));
#61 = ORIENTED_EDGE('',*,*,#31,.T.);
#62 = ORIENTED_EDGE('',*,*,#54,.T.);
#63 = ORIENTED_EDGE('',*,*,#64,.F.);
#64 = EDGE_CURVE('',#55,#55,#65,.T.);
#65 = CIRCLE('',#66,0.45);
#66 = AXIS2_PLACEMENT_3D('',#67,#68,#69);
#67 = CARTESIAN_POINT('',(-9.,-15.58845726812,7.));
#68 = DIRECTION('',(1.060575238725E-16,-1.836970198721E-16,-1.));
#69 = DIRECTION('',(-0.5,-0.866025403784,1.060575238725E-16));
#70 = CONICAL_SURFACE('',#71,1.45,0.785398163397);
#71 = AXIS2_PLACEMENT_3D('',#72,#73,#74);
#72 = CARTESIAN_POINT('',(-9.,-15.58845726812,6.));
#73 = DIRECTION('',(1.060575238725E-16,-1.836970198721E-16,-1.));
#74 = DIRECTION('',(-0.5,-0.866025403784,1.060575238725E-16));
#75 = ADVANCED_FACE('',(#76,#87,#98,#101,#112,#148,#159,#170,#181,#192),
  #203,.F.);
#76 = FACE_BOUND('',#77,.F.);
#77 = EDGE_LOOP('',(#78));
#78 = ORIENTED_EDGE('',*,*,#79,.T.);
#79 = EDGE_CURVE('',#80,#80,#82,.T.);
#80 = VERTEX_POINT('',#81);
#81 = CARTESIAN_POINT('',(26.5,0.,0.));
#82 = CIRCLE('',#83,26.5);
#83 = AXIS2_PLACEMENT_3D('',#84,#85,#86);
#84 = CARTESIAN_POINT('',(0.,0.,0.));
#85 = DIRECTION('',(0.,0.,1.));
#86 = DIRECTION('',(1.,0.,0.));
#87 = FACE_BOUND('',#88,.F.);
#88 = EDGE_LOOP('',(#89));
#89 = ORIENTED_EDGE('',*,*,#90,.T.);
#90 = EDGE_CURVE('',#91,#91,#93,.T.);
#91 = VERTEX_POINT('',#92);
#92 = CARTESIAN_POINT('',(-12.6,-15.5,0.));
#93 = CIRCLE('',#94,2.9);
#94 = AXIS2_PLACEMENT_3D('',#95,#96,#97);
#95 = CARTESIAN_POINT('',(-15.5,-15.5,0.));
#96 = DIRECTION('',(0.,0.,-1.));
#97 = DIRECTION('',(1.,0.,0.));
#98 = FACE_BOUND('',#99,.F.);
#99 = EDGE_LOOP('',(#100));
#100 = ORIENTED_EDGE('',*,*,#39,.T.);
#101 = FACE_BOUND('',#102,.F.);
#102 = EDGE_LOOP('',(#103));
#103 = ORIENTED_EDGE('',*,*,#104,.T.);
#104 = EDGE_CURVE('',#105,#105,#107,.T.);
#105 = VERTEX_POINT('',#106);
#106 = CARTESIAN_POINT('',(18.4,-15.5,0.));
#107 = CIRCLE('',#108,2.9);
#108 = AXIS2_PLACEMENT_3D('',#109,#110,#111);
#109 = CARTESIAN_POINT('',(15.5,-15.5,0.));
#110 = DIRECTION('',(0.,0.,-1.));
#111 = DIRECTION('',(1.,0.,0.));
#112 = FACE_BOUND('',#113,.F.);
#113 = EDGE_LOOP('',(#114,#124,#133,#141));
#114 = ORIENTED_EDGE('',*,*,#115,.F.);
#115 = EDGE_CURVE('',#116,#118,#120,.T.);
#116 = VERTEX_POINT('',#117);
#117 = CARTESIAN_POINT('',(-20.,-5.5,0.));
#118 = VERTEX_POINT('',#119);
#119 = CARTESIAN_POINT('',(-20.,5.5,0.));
#120 = LINE('',#121,#122);
#121 = CARTESIAN_POINT('',(-20.,-5.5,0.));
#122 = VECTOR('',#123,1.);
#123 = DIRECTION('',(0.,1.,0.));
#124 = ORIENTED_EDGE('',*,*,#125,.T.);
#125 = EDGE_CURVE('',#116,#126,#128,.T.);
#126 = VERTEX_POINT('',#127);
#127 = CARTESIAN_POINT('',(-23.,-5.5,0.));
#128 = CIRCLE('',#129,1.5);
#129 = AXIS2_PLACEMENT_3D('',#130,#131,#132);
#130 = CARTESIAN_POINT('',(-21.5,-5.5,0.));
#131 = DIRECTION('',(0.,0.,-1.));
#132 = DIRECTION('',(1.,0.,0.));
#133 = ORIENTED_EDGE('',*,*,#134,.T.);
#134 = EDGE_CURVE('',#126,#135,#137,.T.);
#135 = VERTEX_POINT('',#136);
#136 = CARTESIAN_POINT('',(-23.,5.5,0.));
#137 = LINE('',#138,#139);
#138 = CARTESIAN_POINT('',(-23.,-5.5,0.));
#139 = VECTOR('',#140,1.);
#140 = DIRECTION('',(0.,1.,0.));
#141 = ORIENTED_EDGE('',*,*,#142,.T.);
#142 = EDGE_CURVE('',#135,#118,#143,.T.);
#143 = CIRCLE('',#144,1.5);
#144 = AXIS2_PLACEMENT_3D('',#145,#146,#147);
#145 = CARTESIAN_POINT('',(-21.5,5.5,0.));
#146 = DIRECTION('',(0.,0.,-1.));
#147 = DIRECTION('',(1.,0.,0.));
#148 = FACE_BOUND('',#149,.F.);
#149 = EDGE_LOOP('',(#150));
#150 = ORIENTED_EDGE('',*,*,#151,.T.);
#151 = EDGE_CURVE('',#152,#152,#154,.T.);
#152 = VERTEX_POINT('',#153);
#153 = CARTESIAN_POINT('',(-12.6,15.5,0.));
#154 = CIRCLE('',#155,2.9);
#155 = AXIS2_PLACEMENT_3D('',#156,#157,#158);
#156 = CARTESIAN_POINT('',(-15.5,15.5,0.));
#157 = DIRECTION('',(0.,0.,-1.));
#158 = DIRECTION('',(1.,0.,0.));
#159 = FACE_BOUND('',#160,.F.);
#160 = EDGE_LOOP('',(#161));
#161 = ORIENTED_EDGE('',*,*,#162,.T.);
#162 = EDGE_CURVE('',#163,#163,#165,.T.);
#163 = VERTEX_POINT('',#164);
#164 = CARTESIAN_POINT('',(-9.725,16.844194103607,-2.06281883932E-15));
#165 = CIRCLE('',#166,1.45);
#166 = AXIS2_PLACEMENT_3D('',#167,#168,#169);
#167 = CARTESIAN_POINT('',(-9.,15.58845726812,-1.909035429705E-15));
#168 = DIRECTION('',(-1.848892746612E-32,-1.224646799147E-16,-1.));
#169 = DIRECTION('',(-0.5,0.866025403784,-1.060575238725E-16));
#170 = FACE_BOUND('',#171,.F.);
#171 = EDGE_LOOP('',(#172));
#172 = ORIENTED_EDGE('',*,*,#173,.T.);
#173 = EDGE_CURVE('',#174,#174,#176,.T.);
#174 = VERTEX_POINT('',#175);
#175 = CARTESIAN_POINT('',(12.35,0.,0.));
#176 = CIRCLE('',#177,12.35);
#177 = AXIS2_PLACEMENT_3D('',#178,#179,#180);
#178 = CARTESIAN_POINT('',(0.,0.,0.));
#179 = DIRECTION('',(0.,-1.224646799147E-16,-1.));
#180 = DIRECTION('',(1.,0.,0.));
#181 = FACE_BOUND('',#182,.F.);
#182 = EDGE_LOOP('',(#183));
#183 = ORIENTED_EDGE('',*,*,#184,.T.);
#184 = EDGE_CURVE('',#185,#185,#187,.T.);
#185 = VERTEX_POINT('',#186);
#186 = CARTESIAN_POINT('',(19.45,0.,0.));
#187 = CIRCLE('',#188,1.45);
#188 = AXIS2_PLACEMENT_3D('',#189,#190,#191);
#189 = CARTESIAN_POINT('',(18.,0.,0.));
#190 = DIRECTION('',(0.,-1.224646799147E-16,-1.));
#191 = DIRECTION('',(1.,0.,0.));
#192 = FACE_BOUND('',#193,.F.);
#193 = EDGE_LOOP('',(#194));
#194 = ORIENTED_EDGE('',*,*,#195,.T.);
#195 = EDGE_CURVE('',#196,#196,#198,.T.);
#196 = VERTEX_POINT('',#197);
#197 = CARTESIAN_POINT('',(18.4,15.5,0.));
#198 = CIRCLE('',#199,2.9);
#199 = AXIS2_PLACEMENT_3D('',#200,#201,#202);
#200 = CARTESIAN_POINT('',(15.5,15.5,0.));
#201 = DIRECTION('',(0.,0.,-1.));
#202 = DIRECTION('',(1.,0.,0.));
#203 = PLANE('',#204);
#204 = AXIS2_PLACEMENT_3D('',#205,#206,#207);
#205 = CARTESIAN_POINT('',(-2.48E-15,-1.08E-15,0.));
#206 = DIRECTION('',(0.,0.,1.));
#207 = DIRECTION('',(1.,0.,0.));
#208 = ADVANCED_FACE('',(#209),#212,.F.);
#209 = FACE_BOUND('',#210,.F.);
#210 = EDGE_LOOP('',(#211));
#211 = ORIENTED_EDGE('',*,*,#64,.F.);
#212 = PLANE('',#213);
#213 = AXIS2_PLACEMENT_3D('',#214,#215,#216);
#214 = CARTESIAN_POINT('',(-9.,-15.58845726812,7.));
#215 = DIRECTION('',(-1.060575238725E-16,1.836970198721E-16,1.));
#216 = DIRECTION('',(-0.5,-0.866025403784,1.060575238725E-16));
#217 = ADVANCED_FACE('',(#218),#237,.T.);
#218 = FACE_BOUND('',#219,.F.);
#219 = EDGE_LOOP('',(#220,#228,#235,#236));
#220 = ORIENTED_EDGE('',*,*,#221,.T.);
#221 = EDGE_CURVE('',#80,#222,#224,.T.);
#222 = VERTEX_POINT('',#223);
#223 = CARTESIAN_POINT('',(26.5,0.,2.3));
#224 = LINE('',#225,#226);
#225 = CARTESIAN_POINT('',(26.5,0.,0.));
#226 = VECTOR('',#227,1.);
#227 = DIRECTION('',(0.,0.,1.));
#228 = ORIENTED_EDGE('',*,*,#229,.T.);
#229 = EDGE_CURVE('',#222,#222,#230,.T.);
#230 = CIRCLE('',#231,26.5);
#231 = AXIS2_PLACEMENT_3D('',#232,#233,#234);
#232 = CARTESIAN_POINT('',(0.,0.,2.3));
#233 = DIRECTION('',(0.,0.,1.));
#234 = DIRECTION('',(1.,0.,0.));
#235 = ORIENTED_EDGE('',*,*,#221,.F.);
#236 = ORIENTED_EDGE('',*,*,#79,.F.);
#237 = CYLINDRICAL_SURFACE('',#238,26.5);
#238 = AXIS2_PLACEMENT_3D('',#239,#240,#241);
#239 = CARTESIAN_POINT('',(0.,0.,0.));
#240 = DIRECTION('',(-0.,-0.,-1.));
#241 = DIRECTION('',(1.,0.,0.));
#242 = ADVANCED_FACE('',(#243),#262,.F.);
#243 = FACE_BOUND('',#244,.F.);
#244 = EDGE_LOOP('',(#245,#253,#260,#261));
#245 = ORIENTED_EDGE('',*,*,#246,.T.);
#246 = EDGE_CURVE('',#91,#247,#249,.T.);
#247 = VERTEX_POINT('',#248);
#248 = CARTESIAN_POINT('',(-12.6,-15.5,4.));
#249 = LINE('',#250,#251);
#250 = CARTESIAN_POINT('',(-12.6,-15.5,0.));
#251 = VECTOR('',#252,1.);
#252 = DIRECTION('',(0.,0.,1.));
#253 = ORIENTED_EDGE('',*,*,#254,.T.);
#254 = EDGE_CURVE('',#247,#247,#255,.T.);
#255 = CIRCLE('',#256,2.9);
#256 = AXIS2_PLACEMENT_3D('',#257,#258,#259);
#257 = CARTESIAN_POINT('',(-15.5,-15.5,4.));
#258 = DIRECTION('',(0.,0.,-1.));
#259 = DIRECTION('',(1.,0.,0.));
#260 = ORIENTED_EDGE('',*,*,#246,.F.);
#261 = ORIENTED_EDGE('',*,*,#90,.F.);
#262 = CYLINDRICAL_SURFACE('',#263,2.9);
#263 = AXIS2_PLACEMENT_3D('',#264,#265,#266);
#264 = CARTESIAN_POINT('',(-15.5,-15.5,0.));
#265 = DIRECTION('',(0.,0.,-1.));
#266 = DIRECTION('',(1.,0.,0.));
#267 = ADVANCED_FACE('',(#268),#287,.F.);
#268 = FACE_BOUND('',#269,.F.);
#269 = EDGE_LOOP('',(#270,#278,#285,#286));
#270 = ORIENTED_EDGE('',*,*,#271,.T.);
#271 = EDGE_CURVE('',#105,#272,#274,.T.);
#272 = VERTEX_POINT('',#273);
#273 = CARTESIAN_POINT('',(18.4,-15.5,4.));
#274 = LINE('',#275,#276);
#275 = CARTESIAN_POINT('',(18.4,-15.5,0.));
#276 = VECTOR('',#277,1.);
#277 = DIRECTION('',(0.,0.,1.));
#278 = ORIENTED_EDGE('',*,*,#279,.T.);
#279 = EDGE_CURVE('',#272,#272,#280,.T.);
#280 = CIRCLE('',#281,2.9);
#281 = AXIS2_PLACEMENT_3D('',#282,#283,#284);
#282 = CARTESIAN_POINT('',(15.5,-15.5,4.));
#283 = DIRECTION('',(0.,0.,-1.));
#284 = DIRECTION('',(1.,0.,0.));
#285 = ORIENTED_EDGE('',*,*,#271,.F.);
#286 = ORIENTED_EDGE('',*,*,#104,.F.);
#287 = CYLINDRICAL_SURFACE('',#288,2.9);
#288 = AXIS2_PLACEMENT_3D('',#289,#290,#291);
#289 = CARTESIAN_POINT('',(15.5,-15.5,0.));
#290 = DIRECTION('',(0.,0.,-1.));
#291 = DIRECTION('',(1.,0.,0.));
#292 = ADVANCED_FACE('',(#293),#318,.T.);
#293 = FACE_BOUND('',#294,.T.);
#294 = EDGE_LOOP('',(#295,#296,#304,#312));
#295 = ORIENTED_EDGE('',*,*,#115,.F.);
#296 = ORIENTED_EDGE('',*,*,#297,.T.);
#297 = EDGE_CURVE('',#116,#298,#300,.T.);
#298 = VERTEX_POINT('',#299);
#299 = CARTESIAN_POINT('',(-20.,-5.5,9.3));
#300 = LINE('',#301,#302);
#301 = CARTESIAN_POINT('',(-20.,-5.5,0.));
#302 = VECTOR('',#303,1.);
#303 = DIRECTION('',(0.,0.,1.));
#304 = ORIENTED_EDGE('',*,*,#305,.F.);
#305 = EDGE_CURVE('',#306,#298,#308,.T.);
#306 = VERTEX_POINT('',#307);
#307 = CARTESIAN_POINT('',(-20.,5.5,9.3));
#308 = LINE('',#309,#310);
#309 = CARTESIAN_POINT('',(-20.,-2.75,9.3));
#310 = VECTOR('',#311,1.);
#311 = DIRECTION('',(0.,-1.,0.));
#312 = ORIENTED_EDGE('',*,*,#313,.F.);
#313 = EDGE_CURVE('',#118,#306,#314,.T.);
#314 = LINE('',#315,#316);
#315 = CARTESIAN_POINT('',(-20.,5.5,0.));
#316 = VECTOR('',#317,1.);
#317 = DIRECTION('',(0.,0.,1.));
#318 = PLANE('',#319);
#319 = AXIS2_PLACEMENT_3D('',#320,#321,#322);
#320 = CARTESIAN_POINT('',(-20.,-5.5,0.));
#321 = DIRECTION('',(-1.,0.,0.));
#322 = DIRECTION('',(0.,1.,0.));
#323 = ADVANCED_FACE('',(#324),#343,.F.);
#324 = FACE_BOUND('',#325,.F.);
#325 = EDGE_LOOP('',(#326,#327,#328,#337));
#326 = ORIENTED_EDGE('',*,*,#125,.F.);
#327 = ORIENTED_EDGE('',*,*,#297,.T.);
#328 = ORIENTED_EDGE('',*,*,#329,.T.);
#329 = EDGE_CURVE('',#298,#330,#332,.T.);
#330 = VERTEX_POINT('',#331);
#331 = CARTESIAN_POINT('',(-23.,-5.5,9.3));
#332 = CIRCLE('',#333,1.5);
#333 = AXIS2_PLACEMENT_3D('',#334,#335,#336);
#334 = CARTESIAN_POINT('',(-21.5,-5.5,9.3));
#335 = DIRECTION('',(0.,0.,-1.));
#336 = DIRECTION('',(1.,0.,0.));
#337 = ORIENTED_EDGE('',*,*,#338,.F.);
#338 = EDGE_CURVE('',#126,#330,#339,.T.);
#339 = LINE('',#340,#341);
#340 = CARTESIAN_POINT('',(-23.,-5.5,0.));
#341 = VECTOR('',#342,1.);
#342 = DIRECTION('',(0.,0.,1.));
#343 = CYLINDRICAL_SURFACE('',#344,1.5);
#344 = AXIS2_PLACEMENT_3D('',#345,#346,#347);
#345 = CARTESIAN_POINT('',(-21.5,-5.5,0.));
#346 = DIRECTION('',(0.,0.,-1.));
#347 = DIRECTION('',(1.,0.,0.));
#348 = ADVANCED_FACE('',(#349),#368,.F.);
#349 = FACE_BOUND('',#350,.F.);
#350 = EDGE_LOOP('',(#351,#352,#360,#367));
#351 = ORIENTED_EDGE('',*,*,#142,.F.);
#352 = ORIENTED_EDGE('',*,*,#353,.T.);
#353 = EDGE_CURVE('',#135,#354,#356,.T.);
#354 = VERTEX_POINT('',#355);
#355 = CARTESIAN_POINT('',(-23.,5.5,9.3));
#356 = LINE('',#357,#358);
#357 = CARTESIAN_POINT('',(-23.,5.5,0.));
#358 = VECTOR('',#359,1.);
#359 = DIRECTION('',(0.,0.,1.));
#360 = ORIENTED_EDGE('',*,*,#361,.T.);
#361 = EDGE_CURVE('',#354,#306,#362,.T.);
#362 = CIRCLE('',#363,1.5);
#363 = AXIS2_PLACEMENT_3D('',#364,#365,#366);
#364 = CARTESIAN_POINT('',(-21.5,5.5,9.3));
#365 = DIRECTION('',(0.,0.,-1.));
#366 = DIRECTION('',(1.,0.,0.));
#367 = ORIENTED_EDGE('',*,*,#313,.F.);
#368 = CYLINDRICAL_SURFACE('',#369,1.5);
#369 = AXIS2_PLACEMENT_3D('',#370,#371,#372);
#370 = CARTESIAN_POINT('',(-21.5,5.5,0.));
#371 = DIRECTION('',(0.,0.,-1.));
#372 = DIRECTION('',(1.,0.,0.));
#373 = ADVANCED_FACE('',(#374),#385,.F.);
#374 = FACE_BOUND('',#375,.F.);
#375 = EDGE_LOOP('',(#376,#377,#378,#384));
#376 = ORIENTED_EDGE('',*,*,#134,.F.);
#377 = ORIENTED_EDGE('',*,*,#338,.T.);
#378 = ORIENTED_EDGE('',*,*,#379,.F.);
#379 = EDGE_CURVE('',#354,#330,#380,.T.);
#380 = LINE('',#381,#382);
#381 = CARTESIAN_POINT('',(-23.,-2.75,9.3));
#382 = VECTOR('',#383,1.);
#383 = DIRECTION('',(0.,-1.,0.));
#384 = ORIENTED_EDGE('',*,*,#353,.F.);
#385 = PLANE('',#386);
#386 = AXIS2_PLACEMENT_3D('',#387,#388,#389);
#387 = CARTESIAN_POINT('',(-23.,-5.5,0.));
#388 = DIRECTION('',(-1.,0.,0.));
#389 = DIRECTION('',(0.,1.,0.));
#390 = ADVANCED_FACE('',(#391),#410,.F.);
#391 = FACE_BOUND('',#392,.F.);
#392 = EDGE_LOOP('',(#393,#401,#408,#409));
#393 = ORIENTED_EDGE('',*,*,#394,.T.);
#394 = EDGE_CURVE('',#152,#395,#397,.T.);
#395 = VERTEX_POINT('',#396);
#396 = CARTESIAN_POINT('',(-12.6,15.5,4.));
#397 = LINE('',#398,#399);
#398 = CARTESIAN_POINT('',(-12.6,15.5,0.));
#399 = VECTOR('',#400,1.);
#400 = DIRECTION('',(0.,0.,1.));
#401 = ORIENTED_EDGE('',*,*,#402,.T.);
#402 = EDGE_CURVE('',#395,#395,#403,.T.);
#403 = CIRCLE('',#404,2.9);
#404 = AXIS2_PLACEMENT_3D('',#405,#406,#407);
#405 = CARTESIAN_POINT('',(-15.5,15.5,4.));
#406 = DIRECTION('',(0.,0.,-1.));
#407 = DIRECTION('',(1.,0.,0.));
#408 = ORIENTED_EDGE('',*,*,#394,.F.);
#409 = ORIENTED_EDGE('',*,*,#151,.F.);
#410 = CYLINDRICAL_SURFACE('',#411,2.9);
#411 = AXIS2_PLACEMENT_3D('',#412,#413,#414);
#412 = CARTESIAN_POINT('',(-15.5,15.5,0.));
#413 = DIRECTION('',(0.,0.,-1.));
#414 = DIRECTION('',(1.,0.,0.));
#415 = ADVANCED_FACE('',(#416),#435,.F.);
#416 = FACE_BOUND('',#417,.F.);
#417 = EDGE_LOOP('',(#418,#426,#433,#434));
#418 = ORIENTED_EDGE('',*,*,#419,.T.);
#419 = EDGE_CURVE('',#163,#420,#422,.T.);
#420 = VERTEX_POINT('',#421);
#421 = CARTESIAN_POINT('',(-9.725,16.844194103607,6.));
#422 = LINE('',#423,#424);
#423 = CARTESIAN_POINT('',(-9.725,16.844194103607,-2.06281883932E-15));
#424 = VECTOR('',#425,1.);
#425 = DIRECTION('',(1.232595164408E-32,1.224646799147E-16,1.));
#426 = ORIENTED_EDGE('',*,*,#427,.T.);
#427 = EDGE_CURVE('',#420,#420,#428,.T.);
#428 = CIRCLE('',#429,1.45);
#429 = AXIS2_PLACEMENT_3D('',#430,#431,#432);
#430 = CARTESIAN_POINT('',(-9.,15.58845726812,6.));
#431 = DIRECTION('',(-1.060575238725E-16,-1.836970198721E-16,-1.));
#432 = DIRECTION('',(-0.5,0.866025403784,-1.060575238725E-16));
#433 = ORIENTED_EDGE('',*,*,#419,.F.);
#434 = ORIENTED_EDGE('',*,*,#162,.F.);
#435 = CYLINDRICAL_SURFACE('',#436,1.45);
#436 = AXIS2_PLACEMENT_3D('',#437,#438,#439);
#437 = CARTESIAN_POINT('',(-9.,15.58845726812,-1.909035429705E-15));
#438 = DIRECTION('',(-1.232595164408E-32,-1.224646799147E-16,-1.));
#439 = DIRECTION('',(-0.5,0.866025403784,-1.060575238725E-16));
#440 = ADVANCED_FACE('',(#441),#460,.F.);
#441 = FACE_BOUND('',#442,.F.);
#442 = EDGE_LOOP('',(#443,#444,#452,#459));
#443 = ORIENTED_EDGE('',*,*,#173,.F.);
#444 = ORIENTED_EDGE('',*,*,#445,.T.);
#445 = EDGE_CURVE('',#174,#446,#448,.T.);
#446 = VERTEX_POINT('',#447);
#447 = CARTESIAN_POINT('',(12.35,1.138921523207E-15,9.3));
#448 = LINE('',#449,#450);
#449 = CARTESIAN_POINT('',(12.35,0.,0.));
#450 = VECTOR('',#451,1.);
#451 = DIRECTION('',(0.,1.224646799147E-16,1.));
#452 = ORIENTED_EDGE('',*,*,#453,.T.);
#453 = EDGE_CURVE('',#446,#446,#454,.T.);
#454 = CIRCLE('',#455,12.35);
#455 = AXIS2_PLACEMENT_3D('',#456,#457,#458);
#456 = CARTESIAN_POINT('',(0.,1.138921523207E-15,9.3));
#457 = DIRECTION('',(0.,-1.224646799147E-16,-1.));
#458 = DIRECTION('',(1.,0.,0.));
#459 = ORIENTED_EDGE('',*,*,#445,.F.);
#460 = CYLINDRICAL_SURFACE('',#461,12.35);
#461 = AXIS2_PLACEMENT_3D('',#462,#463,#464);
#462 = CARTESIAN_POINT('',(0.,0.,0.));
#463 = DIRECTION('',(0.,-1.224646799147E-16,-1.));
#464 = DIRECTION('',(1.,0.,0.));
#465 = ADVANCED_FACE('',(#466),#485,.F.);
#466 = FACE_BOUND('',#467,.F.);
#467 = EDGE_LOOP('',(#468,#476,#483,#484));
#468 = ORIENTED_EDGE('',*,*,#469,.T.);
#469 = EDGE_CURVE('',#185,#470,#472,.T.);
#470 = VERTEX_POINT('',#471);
#471 = CARTESIAN_POINT('',(19.45,8.572527594031E-16,6.));
#472 = LINE('',#473,#474);
#473 = CARTESIAN_POINT('',(19.45,0.,0.));
#474 = VECTOR('',#475,1.);
#475 = DIRECTION('',(0.,1.224646799147E-16,1.));
#476 = ORIENTED_EDGE('',*,*,#477,.T.);
#477 = EDGE_CURVE('',#470,#470,#478,.T.);
#478 = CIRCLE('',#479,1.45);
#479 = AXIS2_PLACEMENT_3D('',#480,#481,#482);
#480 = CARTESIAN_POINT('',(18.,0.,6.));
#481 = DIRECTION('',(0.,0.,-1.));
#482 = DIRECTION('',(1.,5.912087995884E-16,0.));
#483 = ORIENTED_EDGE('',*,*,#469,.F.);
#484 = ORIENTED_EDGE('',*,*,#184,.F.);
#485 = CYLINDRICAL_SURFACE('',#486,1.45);
#486 = AXIS2_PLACEMENT_3D('',#487,#488,#489);
#487 = CARTESIAN_POINT('',(18.,0.,0.));
#488 = DIRECTION('',(0.,-1.224646799147E-16,-1.));
#489 = DIRECTION('',(1.,0.,0.));
#490 = ADVANCED_FACE('',(#491),#510,.F.);
#491 = FACE_BOUND('',#492,.F.);
#492 = EDGE_LOOP('',(#493,#501,#508,#509));
#493 = ORIENTED_EDGE('',*,*,#494,.T.);
#494 = EDGE_CURVE('',#196,#495,#497,.T.);
#495 = VERTEX_POINT('',#496);
#496 = CARTESIAN_POINT('',(18.4,15.5,4.));
#497 = LINE('',#498,#499);
#498 = CARTESIAN_POINT('',(18.4,15.5,0.));
#499 = VECTOR('',#500,1.);
#500 = DIRECTION('',(0.,0.,1.));
#501 = ORIENTED_EDGE('',*,*,#502,.T.);
#502 = EDGE_CURVE('',#495,#495,#503,.T.);
#503 = CIRCLE('',#504,2.9);
#504 = AXIS2_PLACEMENT_3D('',#505,#506,#507);
#505 = CARTESIAN_POINT('',(15.5,15.5,4.));
#506 = DIRECTION('',(0.,0.,-1.));
#507 = DIRECTION('',(1.,0.,0.));
#508 = ORIENTED_EDGE('',*,*,#494,.F.);
#509 = ORIENTED_EDGE('',*,*,#195,.F.);
#510 = CYLINDRICAL_SURFACE('',#511,2.9);
#511 = AXIS2_PLACEMENT_3D('',#512,#513,#514);
#512 = CARTESIAN_POINT('',(15.5,15.5,0.));
#513 = DIRECTION('',(0.,0.,-1.));
#514 = DIRECTION('',(1.,0.,0.));
#515 = ADVANCED_FACE('',(#516,#519),#530,.T.);
#516 = FACE_BOUND('',#517,.T.);
#517 = EDGE_LOOP('',(#518));
#518 = ORIENTED_EDGE('',*,*,#229,.T.);
#519 = FACE_BOUND('',#520,.T.);
#520 = EDGE_LOOP('',(#521));
#521 = ORIENTED_EDGE('',*,*,#522,.F.);
#522 = EDGE_CURVE('',#523,#523,#525,.T.);
#523 = VERTEX_POINT('',#524);
#524 = CARTESIAN_POINT('',(25.,0.,2.3));
#525 = CIRCLE('',#526,25.);
#526 = AXIS2_PLACEMENT_3D('',#527,#528,#529);
#527 = CARTESIAN_POINT('',(0.,0.,2.3));
#528 = DIRECTION('',(0.,0.,1.));
#529 = DIRECTION('',(1.,0.,0.));
#530 = PLANE('',#531);
#531 = AXIS2_PLACEMENT_3D('',#532,#533,#534);
#532 = CARTESIAN_POINT('',(-2.48E-15,-1.08E-15,2.3));
#533 = DIRECTION('',(0.,0.,1.));
#534 = DIRECTION('',(1.,0.,0.));
#535 = ADVANCED_FACE('',(#536,#539),#550,.F.);
#536 = FACE_BOUND('',#537,.F.);
#537 = EDGE_LOOP('',(#538));
#538 = ORIENTED_EDGE('',*,*,#254,.F.);
#539 = FACE_BOUND('',#540,.F.);
#540 = EDGE_LOOP('',(#541));
#541 = ORIENTED_EDGE('',*,*,#542,.T.);
#542 = EDGE_CURVE('',#543,#543,#545,.T.);
#543 = VERTEX_POINT('',#544);
#544 = CARTESIAN_POINT('',(-14.,-15.5,4.));
#545 = CIRCLE('',#546,1.5);
#546 = AXIS2_PLACEMENT_3D('',#547,#548,#549);
#547 = CARTESIAN_POINT('',(-15.5,-15.5,4.));
#548 = DIRECTION('',(0.,-1.224646799147E-16,-1.));
#549 = DIRECTION('',(1.,0.,0.));
#550 = PLANE('',#551);
#551 = AXIS2_PLACEMENT_3D('',#552,#553,#554);
#552 = CARTESIAN_POINT('',(-3.182834791256E-15,-7.07296620279E-16,4.));
#553 = DIRECTION('',(0.,0.,1.));
#554 = DIRECTION('',(1.,0.,0.));
#555 = ADVANCED_FACE('',(#556,#559),#570,.F.);
#556 = FACE_BOUND('',#557,.F.);
#557 = EDGE_LOOP('',(#558));
#558 = ORIENTED_EDGE('',*,*,#279,.F.);
#559 = FACE_BOUND('',#560,.F.);
#560 = EDGE_LOOP('',(#561));
#561 = ORIENTED_EDGE('',*,*,#562,.T.);
#562 = EDGE_CURVE('',#563,#563,#565,.T.);
#563 = VERTEX_POINT('',#564);
#564 = CARTESIAN_POINT('',(17.,-15.5,4.));
#565 = CIRCLE('',#566,1.5);
#566 = AXIS2_PLACEMENT_3D('',#567,#568,#569);
#567 = CARTESIAN_POINT('',(15.5,-15.5,4.));
#568 = DIRECTION('',(0.,-1.224646799147E-16,-1.));
#569 = DIRECTION('',(1.,0.,0.));
#570 = PLANE('',#571);
#571 = AXIS2_PLACEMENT_3D('',#572,#573,#574);
#572 = CARTESIAN_POINT('',(-3.182834791256E-15,-7.07296620279E-16,4.));
#573 = DIRECTION('',(0.,0.,1.));
#574 = DIRECTION('',(1.,0.,0.));
#575 = ADVANCED_FACE('',(#576,#587,#598,#609,#615,#626,#629),#640,.T.);
#576 = FACE_BOUND('',#577,.T.);
#577 = EDGE_LOOP('',(#578));
#578 = ORIENTED_EDGE('',*,*,#579,.T.);
#579 = EDGE_CURVE('',#580,#580,#582,.T.);
#580 = VERTEX_POINT('',#581);
#581 = CARTESIAN_POINT('',(25.,0.,9.3));
#582 = CIRCLE('',#583,25.);
#583 = AXIS2_PLACEMENT_3D('',#584,#585,#586);
#584 = CARTESIAN_POINT('',(0.,0.,9.3));
#585 = DIRECTION('',(0.,0.,1.));
#586 = DIRECTION('',(1.,0.,0.));
#587 = FACE_BOUND('',#588,.T.);
#588 = EDGE_LOOP('',(#589));
#589 = ORIENTED_EDGE('',*,*,#590,.T.);
#590 = EDGE_CURVE('',#591,#591,#593,.T.);
#591 = VERTEX_POINT('',#592);
#592 = CARTESIAN_POINT('',(-14.,-15.5,9.3));
#593 = CIRCLE('',#594,1.5);
#594 = AXIS2_PLACEMENT_3D('',#595,#596,#597);
#595 = CARTESIAN_POINT('',(-15.5,-15.5,9.3));
#596 = DIRECTION('',(0.,-1.224646799147E-16,-1.));
#597 = DIRECTION('',(1.,0.,0.));
#598 = FACE_BOUND('',#599,.T.);
#599 = EDGE_LOOP('',(#600));
#600 = ORIENTED_EDGE('',*,*,#601,.T.);
#601 = EDGE_CURVE('',#602,#602,#604,.T.);
#602 = VERTEX_POINT('',#603);
#603 = CARTESIAN_POINT('',(17.,-15.5,9.3));
#604 = CIRCLE('',#605,1.5);
#605 = AXIS2_PLACEMENT_3D('',#606,#607,#608);
#606 = CARTESIAN_POINT('',(15.5,-15.5,9.3));
#607 = DIRECTION('',(0.,-1.224646799147E-16,-1.));
#608 = DIRECTION('',(1.,0.,0.));
#609 = FACE_BOUND('',#610,.T.);
#610 = EDGE_LOOP('',(#611,#612,#613,#614));
#611 = ORIENTED_EDGE('',*,*,#305,.T.);
#612 = ORIENTED_EDGE('',*,*,#329,.T.);
#613 = ORIENTED_EDGE('',*,*,#379,.F.);
#614 = ORIENTED_EDGE('',*,*,#361,.T.);
#615 = FACE_BOUND('',#616,.T.);
#616 = EDGE_LOOP('',(#617));
#617 = ORIENTED_EDGE('',*,*,#618,.T.);
#618 = EDGE_CURVE('',#619,#619,#621,.T.);
#619 = VERTEX_POINT('',#620);
#620 = CARTESIAN_POINT('',(-14.,15.5,9.3));
#621 = CIRCLE('',#622,1.5);
#622 = AXIS2_PLACEMENT_3D('',#623,#624,#625);
#623 = CARTESIAN_POINT('',(-15.5,15.5,9.3));
#624 = DIRECTION('',(0.,-1.224646799147E-16,-1.));
#625 = DIRECTION('',(1.,0.,0.));
#626 = FACE_BOUND('',#627,.T.);
#627 = EDGE_LOOP('',(#628));
#628 = ORIENTED_EDGE('',*,*,#453,.T.);
#629 = FACE_BOUND('',#630,.T.);
#630 = EDGE_LOOP('',(#631));
#631 = ORIENTED_EDGE('',*,*,#632,.T.);
#632 = EDGE_CURVE('',#633,#633,#635,.T.);
#633 = VERTEX_POINT('',#634);
#634 = CARTESIAN_POINT('',(17.,15.5,9.3));
#635 = CIRCLE('',#636,1.5);
#636 = AXIS2_PLACEMENT_3D('',#637,#638,#639);
#637 = CARTESIAN_POINT('',(15.5,15.5,9.3));
#638 = DIRECTION('',(0.,-1.224646799147E-16,-1.));
#639 = DIRECTION('',(1.,0.,0.));
#640 = PLANE('',#641);
#641 = AXIS2_PLACEMENT_3D('',#642,#643,#644);
#642 = CARTESIAN_POINT('',(-1.75E-15,-1.02E-15,9.3));
#643 = DIRECTION('',(0.,0.,1.));
#644 = DIRECTION('',(1.,0.,0.));
#645 = ADVANCED_FACE('',(#646,#649),#660,.F.);
#646 = FACE_BOUND('',#647,.F.);
#647 = EDGE_LOOP('',(#648));
#648 = ORIENTED_EDGE('',*,*,#402,.F.);
#649 = FACE_BOUND('',#650,.F.);
#650 = EDGE_LOOP('',(#651));
#651 = ORIENTED_EDGE('',*,*,#652,.T.);
#652 = EDGE_CURVE('',#653,#653,#655,.T.);
#653 = VERTEX_POINT('',#654);
#654 = CARTESIAN_POINT('',(-14.,15.5,4.));
#655 = CIRCLE('',#656,1.5);
#656 = AXIS2_PLACEMENT_3D('',#657,#658,#659);
#657 = CARTESIAN_POINT('',(-15.5,15.5,4.));
#658 = DIRECTION('',(0.,-1.224646799147E-16,-1.));
#659 = DIRECTION('',(1.,0.,0.));
#660 = PLANE('',#661);
#661 = AXIS2_PLACEMENT_3D('',#662,#663,#664);
#662 = CARTESIAN_POINT('',(-3.182834791256E-15,-7.07296620279E-16,4.));
#663 = DIRECTION('',(0.,0.,1.));
#664 = DIRECTION('',(1.,0.,0.));
#665 = ADVANCED_FACE('',(#666),#685,.F.);
#666 = FACE_BOUND('',#667,.T.);
#667 = EDGE_LOOP('',(#668,#676,#677,#678));
#668 = ORIENTED_EDGE('',*,*,#669,.F.);
#669 = EDGE_CURVE('',#420,#670,#672,.T.);
#670 = VERTEX_POINT('',#671);
#671 = CARTESIAN_POINT('',(-9.225,15.978168699823,7.));
#672 = LINE('',#673,#674);
#673 = CARTESIAN_POINT('',(-9.725,16.844194103607,6.));
#674 = VECTOR('',#675,1.);
#675 = DIRECTION('',(0.353553390593,-0.612372435696,0.707106781187));
#676 = ORIENTED_EDGE('',*,*,#427,.T.);
#677 = ORIENTED_EDGE('',*,*,#669,.T.);
#678 = ORIENTED_EDGE('',*,*,#679,.F.);
#679 = EDGE_CURVE('',#670,#670,#680,.T.);
#680 = CIRCLE('',#681,0.45);
#681 = AXIS2_PLACEMENT_3D('',#682,#683,#684);
#682 = CARTESIAN_POINT('',(-9.,15.58845726812,7.));
#683 = DIRECTION('',(-1.060575238725E-16,-1.836970198721E-16,-1.));
#684 = DIRECTION('',(-0.5,0.866025403784,-1.060575238725E-16));
#685 = CONICAL_SURFACE('',#686,1.45,0.785398163397);
#686 = AXIS2_PLACEMENT_3D('',#687,#688,#689);
#687 = CARTESIAN_POINT('',(-9.,15.58845726812,6.));
#688 = DIRECTION('',(-1.060575238725E-16,-1.836970198721E-16,-1.));
#689 = DIRECTION('',(-0.5,0.866025403784,-1.060575238725E-16));
#690 = ADVANCED_FACE('',(#691),#710,.F.);
#691 = FACE_BOUND('',#692,.T.);
#692 = EDGE_LOOP('',(#693,#701,#702,#703));
#693 = ORIENTED_EDGE('',*,*,#694,.F.);
#694 = EDGE_CURVE('',#470,#695,#697,.T.);
#695 = VERTEX_POINT('',#696);
#696 = CARTESIAN_POINT('',(18.45,2.660439598148E-16,7.));
#697 = LINE('',#698,#699);
#698 = CARTESIAN_POINT('',(19.45,8.572527594031E-16,6.));
#699 = VECTOR('',#700,1.);
#700 = DIRECTION('',(-0.707106781187,-4.180477512861E-16,0.707106781187)
  );
#701 = ORIENTED_EDGE('',*,*,#477,.T.);
#702 = ORIENTED_EDGE('',*,*,#694,.T.);
#703 = ORIENTED_EDGE('',*,*,#704,.F.);
#704 = EDGE_CURVE('',#695,#695,#705,.T.);
#705 = CIRCLE('',#706,0.45);
#706 = AXIS2_PLACEMENT_3D('',#707,#708,#709);
#707 = CARTESIAN_POINT('',(18.,0.,7.));
#708 = DIRECTION('',(0.,0.,-1.));
#709 = DIRECTION('',(1.,5.912087995884E-16,0.));
#710 = CONICAL_SURFACE('',#711,1.45,0.785398163397);
#711 = AXIS2_PLACEMENT_3D('',#712,#713,#714);
#712 = CARTESIAN_POINT('',(18.,0.,6.));
#713 = DIRECTION('',(-0.,-0.,-1.));
#714 = DIRECTION('',(1.,5.912087995884E-16,0.));
#715 = ADVANCED_FACE('',(#716,#719),#730,.F.);
#716 = FACE_BOUND('',#717,.F.);
#717 = EDGE_LOOP('',(#718));
#718 = ORIENTED_EDGE('',*,*,#502,.F.);
#719 = FACE_BOUND('',#720,.F.);
#720 = EDGE_LOOP('',(#721));
#721 = ORIENTED_EDGE('',*,*,#722,.T.);
#722 = EDGE_CURVE('',#723,#723,#725,.T.);
#723 = VERTEX_POINT('',#724);
#724 = CARTESIAN_POINT('',(17.,15.5,4.));
#725 = CIRCLE('',#726,1.5);
#726 = AXIS2_PLACEMENT_3D('',#727,#728,#729);
#727 = CARTESIAN_POINT('',(15.5,15.5,4.));
#728 = DIRECTION('',(0.,-1.224646799147E-16,-1.));
#729 = DIRECTION('',(1.,0.,0.));
#730 = PLANE('',#731);
#731 = AXIS2_PLACEMENT_3D('',#732,#733,#734);
#732 = CARTESIAN_POINT('',(-3.182834791256E-15,-7.07296620279E-16,4.));
#733 = DIRECTION('',(0.,0.,1.));
#734 = DIRECTION('',(1.,0.,0.));
#735 = ADVANCED_FACE('',(#736),#747,.T.);
#736 = FACE_BOUND('',#737,.F.);
#737 = EDGE_LOOP('',(#738,#744,#745,#746));
#738 = ORIENTED_EDGE('',*,*,#739,.T.);
#739 = EDGE_CURVE('',#523,#580,#740,.T.);
#740 = LINE('',#741,#742);
#741 = CARTESIAN_POINT('',(25.,0.,2.3));
#742 = VECTOR('',#743,1.);
#743 = DIRECTION('',(0.,0.,1.));
#744 = ORIENTED_EDGE('',*,*,#579,.T.);
#745 = ORIENTED_EDGE('',*,*,#739,.F.);
#746 = ORIENTED_EDGE('',*,*,#522,.F.);
#747 = CYLINDRICAL_SURFACE('',#748,25.);
#748 = AXIS2_PLACEMENT_3D('',#749,#750,#751);
#749 = CARTESIAN_POINT('',(0.,0.,2.3));
#750 = DIRECTION('',(-0.,-0.,-1.));
#751 = DIRECTION('',(1.,0.,0.));
#752 = ADVANCED_FACE('',(#753),#764,.F.);
#753 = FACE_BOUND('',#754,.F.);
#754 = EDGE_LOOP('',(#755,#756,#762,#763));
#755 = ORIENTED_EDGE('',*,*,#542,.F.);
#756 = ORIENTED_EDGE('',*,*,#757,.T.);
#757 = EDGE_CURVE('',#543,#591,#758,.T.);
#758 = LINE('',#759,#760);
#759 = CARTESIAN_POINT('',(-14.,-15.5,3.2));
#760 = VECTOR('',#761,1.);
#761 = DIRECTION('',(0.,1.224646799147E-16,1.));
#762 = ORIENTED_EDGE('',*,*,#590,.T.);
#763 = ORIENTED_EDGE('',*,*,#757,.F.);
#764 = CYLINDRICAL_SURFACE('',#765,1.5);
#765 = AXIS2_PLACEMENT_3D('',#766,#767,#768);
#766 = CARTESIAN_POINT('',(-15.5,-15.5,3.2));
#767 = DIRECTION('',(0.,-1.224646799147E-16,-1.));
#768 = DIRECTION('',(1.,0.,0.));
#769 = ADVANCED_FACE('',(#770),#781,.F.);
#770 = FACE_BOUND('',#771,.F.);
#771 = EDGE_LOOP('',(#772,#773,#779,#780));
#772 = ORIENTED_EDGE('',*,*,#562,.F.);
#773 = ORIENTED_EDGE('',*,*,#774,.T.);
#774 = EDGE_CURVE('',#563,#602,#775,.T.);
#775 = LINE('',#776,#777);
#776 = CARTESIAN_POINT('',(17.,-15.5,3.2));
#777 = VECTOR('',#778,1.);
#778 = DIRECTION('',(0.,1.224646799147E-16,1.));
#779 = ORIENTED_EDGE('',*,*,#601,.T.);
#780 = ORIENTED_EDGE('',*,*,#774,.F.);
#781 = CYLINDRICAL_SURFACE('',#782,1.5);
#782 = AXIS2_PLACEMENT_3D('',#783,#784,#785);
#783 = CARTESIAN_POINT('',(15.5,-15.5,3.2));
#784 = DIRECTION('',(0.,-1.224646799147E-16,-1.));
#785 = DIRECTION('',(1.,0.,0.));
#786 = ADVANCED_FACE('',(#787),#798,.F.);
#787 = FACE_BOUND('',#788,.F.);
#788 = EDGE_LOOP('',(#789,#790,#796,#797));
#789 = ORIENTED_EDGE('',*,*,#652,.F.);
#790 = ORIENTED_EDGE('',*,*,#791,.T.);
#791 = EDGE_CURVE('',#653,#619,#792,.T.);
#792 = LINE('',#793,#794);
#793 = CARTESIAN_POINT('',(-14.,15.5,3.2));
#794 = VECTOR('',#795,1.);
#795 = DIRECTION('',(0.,1.224646799147E-16,1.));
#796 = ORIENTED_EDGE('',*,*,#618,.T.);
#797 = ORIENTED_EDGE('',*,*,#791,.F.);
#798 = CYLINDRICAL_SURFACE('',#799,1.5);
#799 = AXIS2_PLACEMENT_3D('',#800,#801,#802);
#800 = CARTESIAN_POINT('',(-15.5,15.5,3.2));
#801 = DIRECTION('',(0.,-1.224646799147E-16,-1.));
#802 = DIRECTION('',(1.,0.,0.));
#803 = ADVANCED_FACE('',(#804),#815,.F.);
#804 = FACE_BOUND('',#805,.F.);
#805 = EDGE_LOOP('',(#806,#807,#813,#814));
#806 = ORIENTED_EDGE('',*,*,#722,.F.);
#807 = ORIENTED_EDGE('',*,*,#808,.T.);
#808 = EDGE_CURVE('',#723,#633,#809,.T.);
#809 = LINE('',#810,#811);
#810 = CARTESIAN_POINT('',(17.,15.5,3.2));
#811 = VECTOR('',#812,1.);
#812 = DIRECTION('',(0.,1.224646799147E-16,1.));
#813 = ORIENTED_EDGE('',*,*,#632,.T.);
#814 = ORIENTED_EDGE('',*,*,#808,.F.);
#815 = CYLINDRICAL_SURFACE('',#816,1.5);
#816 = AXIS2_PLACEMENT_3D('',#817,#818,#819);
#817 = CARTESIAN_POINT('',(15.5,15.5,3.2));
#818 = DIRECTION('',(0.,-1.224646799147E-16,-1.));
#819 = DIRECTION('',(1.,0.,0.));
#820 = ADVANCED_FACE('',(#821),#824,.F.);
#821 = FACE_BOUND('',#822,.F.);
#822 = EDGE_LOOP('',(#823));
#823 = ORIENTED_EDGE('',*,*,#679,.F.);
#824 = PLANE('',#825);
#825 = AXIS2_PLACEMENT_3D('',#826,#827,#828);
#826 = CARTESIAN_POINT('',(-9.,15.58845726812,7.));
#827 = DIRECTION('',(1.060575238725E-16,1.836970198721E-16,1.));
#828 = DIRECTION('',(-0.5,0.866025403784,-1.060575238725E-16));
#829 = ADVANCED_FACE('',(#830),#833,.F.);
#830 = FACE_BOUND('',#831,.F.);
#831 = EDGE_LOOP('',(#832));
#832 = ORIENTED_EDGE('',*,*,#704,.F.);
#833 = PLANE('',#834);
#834 = AXIS2_PLACEMENT_3D('',#835,#836,#837);
#835 = CARTESIAN_POINT('',(18.,8.575026363387E-16,7.));
#836 = DIRECTION('',(0.,0.,1.));
#837 = DIRECTION('',(1.,0.,0.));
#838 = ( GEOMETRIC_REPRESENTATION_CONTEXT(3) 
GLOBAL_UNCERTAINTY_ASSIGNED_CONTEXT((#842)) GLOBAL_UNIT_ASSIGNED_CONTEXT
((#839,#840,#841)) REPRESENTATION_CONTEXT('Context #1',
  '3D Context with UNIT and UNCERTAINTY') );
#839 = ( LENGTH_UNIT() NAMED_UNIT(*) SI_UNIT(.MILLI.,.METRE.) );
#840 = ( NAMED_UNIT(*) PLANE_ANGLE_UNIT() SI_UNIT($,.RADIAN.) );
#841 = ( NAMED_UNIT(*) SI_UNIT($,.STERADIAN.) SOLID_ANGLE_UNIT() );
#842 = UNCERTAINTY_MEASURE_WITH_UNIT(LENGTH_MEASURE(1.E-07),#839,
  'distance_accuracy_value','confusion accuracy');
#843 = PRODUCT_RELATED_PRODUCT_CATEGORY('part',$,(#7));
#844 = MECHANICAL_DESIGN_GEOMETRIC_PRESENTATION_REPRESENTATION('',(#845)
  ,#838);
#845 = STYLED_ITEM('color',(#846),#15);
#846 = PRESENTATION_STYLE_ASSIGNMENT((#847,#853));
#847 = SURFACE_STYLE_USAGE(.BOTH.,#848);
#848 = SURFACE_SIDE_STYLE('',(#849));
#849 = SURFACE_STYLE_FILL_AREA(#850);
#850 = FILL_AREA_STYLE('',(#851));
#851 = FILL_AREA_STYLE_COLOUR('',#852);
#852 = COLOUR_RGB('',0.447058818107,0.474509808674,0.501960817233);
#853 = CURVE_STYLE('',#854,POSITIVE_LENGTH_MEASURE(0.1),#855);
#854 = DRAUGHTING_PRE_DEFINED_CURVE_FONT('continuous');
#855 = COLOUR_RGB('',0.678431390124,0.709803936702,0.741176476869);
ENDSEC;
END-ISO-10303-21;
